<?xml version="1.0" encoding="UTF-8" standalone="no"?>
<!-- Generator: Adobe Illustrator 16.0.0, SVG Export Plug-In . SVG Version: 6.00 Build 0)  -->

<svg
   xmlns:dc="http://purl.org/dc/elements/1.1/"
   xmlns:cc="http://creativecommons.org/ns#"
   xmlns:rdf="http://www.w3.org/1999/02/22-rdf-syntax-ns#"
   xmlns:svg="http://www.w3.org/2000/svg"
   xmlns="http://www.w3.org/2000/svg"
   xmlns:xlink="http://www.w3.org/1999/xlink"
   xmlns:sodipodi="http://sodipodi.sourceforge.net/DTD/sodipodi-0.dtd"
   xmlns:inkscape="http://www.inkscape.org/namespaces/inkscape"
   version="1.1"
   id="Layer_1"
   x="0px"
   y="0px"
   width="32.5625"
   height="32.5625"
   viewBox="0 0 32.5625 32.5625"
   enable-background="new 0 0 225 270.125"
   xml:space="preserve"
   inkscape:version="0.48.3.1 r9886"
   sodipodi:docname="service_published.svg"><metadata
   id="metadata242"><rdf:RDF><cc:Work
       rdf:about=""><dc:format>image/svg+xml</dc:format><dc:type
         rdf:resource="http://purl.org/dc/dcmitype/StillImage" /><dc:title></dc:title></cc:Work></rdf:RDF></metadata><defs
   id="defs240" /><sodipodi:namedview
   pagecolor="#ffffff"
   bordercolor="#666666"
   borderopacity="1"
   objecttolerance="10"
   gridtolerance="10"
   guidetolerance="10"
   inkscape:pageopacity="0"
   inkscape:pageshadow="2"
   inkscape:window-width="1280"
   inkscape:window-height="776"
   id="namedview238"
   showgrid="false"
   fit-margin-top="0"
   fit-margin-left="0"
   fit-margin-right="0"
   fit-margin-bottom="0"
   inkscape:zoom="0.8736696"
   inkscape:cx="-61.21875"
   inkscape:cy="-4.40625"
   inkscape:window-x="0"
   inkscape:window-y="24"
   inkscape:window-maximized="1"
   inkscape:current-layer="Layer_1" />
<filter
   height="1.3"
   width="1.4"
   x="-0.30000001"
   y="-0.15000001"
   filterUnits="objectBoundingBox"
   id="AI_Shadow_2"
   color-interpolation-filters="sRGB">
	<feGaussianBlur
   in="SourceAlpha"
   stdDeviation="2"
   result="blur"
   id="feGaussianBlur4" />
	<feOffset
   dx="0"
   dy="2"
   in="blur"
   result="offsetBlurredAlpha"
   id="feOffset6" />
	<feMerge
   id="feMerge8">
		<feMergeNode
   in="offsetBlurredAlpha"
   id="feMergeNode10" />
		<feMergeNode
   in="SourceGraphic"
   id="feMergeNode12" />
	</feMerge>
</filter>
<filter
   id="AI_GaussianBlur_4"
   color-interpolation-filters="sRGB">
	<feGaussianBlur
   stdDeviation="1"
   id="feGaussianBlur15" />
</filter>

<g
   id="Layer_3"
   transform="translate(-173.71875,-98.09375)">
</g>







<g
   display="none"
   id="g153"
   style="display:none"
   transform="translate(-173.71875,-98.09375)">
	<path
   display="inline"
   d="m 160.188,74.38 c 0,7.615 -0.09,9.139 -6.569,9.139 l -13.859,0.014 c -6.436,0 -6.567,-1.664 -6.571,-9.144 0,-0.282 0,-0.704 0,-0.629 0,-7.766 0.042,-9.325 6.571,-9.325 l 13.859,0.011 c 6.484,0 6.569,1.676 6.569,9.308 0,0.092 0,0.512 0,0.626 z"
   id="path155"
   inkscape:connector-curvature="0"
   style="display:inline;filter:url(#AI_GaussianBlur_4)" />
	<g
   display="inline"
   id="g157"
   style="display:inline">
		<linearGradient
   id="SVGID_12_"
   gradientUnits="userSpaceOnUse"
   x1="146.689"
   y1="82.514603"
   x2="146.689"
   y2="63.417">
			<stop
   offset="0"
   style="stop-color:#BC1C24"
   id="stop160" />
			<stop
   offset="0.2364"
   style="stop-color:#C41C24"
   id="stop162" />
			<stop
   offset="0.6071"
   style="stop-color:#DB1C24"
   id="stop164" />
			<stop
   offset="0.8506"
   style="stop-color:#ED1C24"
   id="stop166" />
		</linearGradient>
		<path
   stroke-miterlimit="10"
   d="m 160.129,73.362 c 0,7.615 -0.088,9.139 -6.365,9.139 l -14.149,0.014 c -6.234,0 -6.362,-1.664 -6.365,-9.144 0,-0.282 0,-0.704 0,-0.629 0,-7.766 0.04,-9.325 6.365,-9.325 l 14.149,0.011 c 6.282,0 6.365,1.676 6.365,9.308 0,0.092 0,0.512 0,0.626 z"
   id="path168"
   inkscape:connector-curvature="0"
   style="fill:url(#SVGID_12_);stroke:#ffffff;stroke-miterlimit:10" />
		<text
   transform="translate(141.4497,78.4585)"
   font-size="16"
   id="text170"
   style="font-size:16px;fill:#ffffff;font-family:Ubuntu">4</text>

	</g>
</g>
<g
   id="g172"
   transform="translate(-173.71875,-98.09375)">
	<linearGradient
   id="SVGID_13_"
   gradientUnits="userSpaceOnUse"
   x1="190"
   y1="130.3799"
   x2="190"
   y2="98.379402">
		<stop
   offset="0"
   style="stop-color:#FFFFFF"
   id="stop175" />
		<stop
   offset="1"
   style="stop-color:#FFFFFF;stop-opacity:0"
   id="stop177" />
	</linearGradient>
	<path
   d="m 190,130.38 c -8.821,0 -16,-7.18 -16,-16.001 0,-8.822 7.179,-16 16,-16 8.821,0 16,7.178 16,16 0,8.821 -7.179,16.001 -16,16.001 z"
   id="path179"
   inkscape:connector-curvature="0"
   style="fill:url(#SVGID_13_)" />
	<g
   id="g181">
		<defs
   id="defs183">
			<circle
   id="SVGID_14_"
   cx="190"
   cy="114.379"
   r="15.774"
   sodipodi:cx="190"
   sodipodi:cy="114.379"
   sodipodi:rx="15.774"
   sodipodi:ry="15.774" />
		</defs>
		<clipPath
   id="SVGID_15_">
			<use
   xlink:href="#SVGID_14_"
   overflow="visible"
   id="use187"
   style="overflow:visible"
   x="0"
   y="0"
   width="225"
   height="270.125" />
		</clipPath>
		<g
   clip-path="url(#SVGID_15_)"
   id="g189"
   style="filter:url(#AI_Shadow_2)">
			<path
   d="m 161.653,85.366 v 56.854 h 56.851 V 85.366 h -56.851 z m 28.423,47.138 c -10.036,0 -18.171,-8.135 -18.171,-18.173 0,-10.034 8.135,-18.17 18.171,-18.17 10.04,0 18.174,8.136 18.174,18.17 0,10.038 -8.134,18.173 -18.174,18.173 z"
   id="path191"
   inkscape:connector-curvature="0"
   style="fill:#39b54a" />
			<linearGradient
   id="SVGID_16_"
   gradientUnits="userSpaceOnUse"
   x1="190.0786"
   y1="84.866203"
   x2="190.0786"
   y2="142.7202">
				<stop
   offset="0"
   style="stop-color:#FFFFFF;stop-opacity:0"
   id="stop194" />
				<stop
   offset="1"
   style="stop-color:#FFFFFF"
   id="stop196" />
			</linearGradient>
			<path
   stroke-miterlimit="10"
   d="m 161.653,85.366 v 56.854 h 56.851 V 85.366 h -56.851 z m 28.423,47.138 c -10.036,0 -18.171,-8.135 -18.171,-18.173 0,-10.034 8.135,-18.17 18.171,-18.17 10.04,0 18.174,8.136 18.174,18.17 0,10.038 -8.134,18.173 -18.174,18.173 z"
   id="path198"
   inkscape:connector-curvature="0"
   style="fill:none;stroke:url(#SVGID_16_);stroke-miterlimit:10" />
		</g>
		<linearGradient
   id="SVGID_17_"
   gradientUnits="userSpaceOnUse"
   x1="190"
   y1="98.105499"
   x2="190"
   y2="130.6548">
			<stop
   offset="0"
   style="stop-color:#FFFFFF;stop-opacity:0"
   id="stop201" />
			<stop
   offset="1"
   style="stop-color:#FFFFFF"
   id="stop203" />
		</linearGradient>
		<use
   xlink:href="#SVGID_14_"
   overflow="visible"
   stroke-miterlimit="10"
   id="use205"
   style="fill:none;stroke:url(#SVGID_17_);stroke-miterlimit:10;overflow:visible"
   x="0"
   y="0"
   width="225"
   height="270.125" />
	</g>
	<g
   id="g207">
		<circle
   stroke-miterlimit="10"
   cx="190"
   cy="114.936"
   r="11.5"
   id="circle209"
   sodipodi:cx="190"
   sodipodi:cy="114.936"
   sodipodi:rx="11.5"
   sodipodi:ry="11.5"
   style="fill:none;stroke:#65b35f;stroke-miterlimit:10"
   d="m 201.5,114.936 c 0,6.35127 -5.14873,11.5 -11.5,11.5 -6.35127,0 -11.5,-5.14873 -11.5,-11.5 0,-6.35128 5.14873,-11.5 11.5,-11.5 6.35127,0 11.5,5.14872 11.5,11.5 z" />
		<path
   stroke-miterlimit="10"
   d="m 190.215,126.435 c -3.433,0 -6.215,-5.147 -6.215,-11.499 0,-6.353 2.782,-11.5 6.215,-11.5"
   id="path211"
   inkscape:connector-curvature="0"
   style="fill:none;stroke:#65b35f;stroke-miterlimit:10" />
		<path
   stroke-miterlimit="10"
   d="m 190.12,126.435 c 3.8,0 6.88,-5.147 6.88,-11.499 0,-6.353 -3.08,-11.5 -6.88,-11.5"
   id="path213"
   inkscape:connector-curvature="0"
   style="fill:none;stroke:#65b35f;stroke-miterlimit:10" />
		<line
   stroke-miterlimit="10"
   x1="190.5"
   y1="126.125"
   x2="190.5"
   y2="103.125"
   id="line215"
   style="fill:none;stroke:#65b35f;stroke-miterlimit:10" />
		<line
   stroke-miterlimit="10"
   x1="178"
   y1="114.625"
   x2="201"
   y2="114.625"
   id="line217"
   style="fill:none;stroke:#65b35f;stroke-miterlimit:10" />
		<line
   stroke-miterlimit="10"
   x1="180"
   y1="108.625"
   x2="200"
   y2="108.625"
   id="line219"
   style="fill:none;stroke:#65b35f;stroke-miterlimit:10" />
		<line
   stroke-miterlimit="10"
   x1="180"
   y1="120.625"
   x2="200"
   y2="120.625"
   id="line221"
   style="fill:none;stroke:#65b35f;stroke-miterlimit:10" />
	</g>
</g>

</svg>