<?xml version="1.0" encoding="utf-8"?>
<!-- Generator: Adobe Illustrator 18.0.0, SVG Export Plug-In . SVG Version: 6.00 Build 0)  -->
<!DOCTYPE svg PUBLIC "-//W3C//DTD SVG 1.1//EN" "http://www.w3.org/Graphics/SVG/1.1/DTD/svg11.dtd">
<svg version="1.1"
	 id="svg6107" sodipodi:docname="change-version02.svg" inkscape:version="0.48+devel r" xmlns:rdf="http://www.w3.org/1999/02/22-rdf-syntax-ns#" xmlns:dc="http://purl.org/dc/elements/1.1/" xmlns:cc="http://creativecommons.org/ns#" xmlns:inkscape="http://www.inkscape.org/namespaces/inkscape" xmlns:sodipodi="http://sodipodi.sourceforge.net/DTD/sodipodi-0.dtd" xmlns:svg="http://www.w3.org/2000/svg"
	 xmlns="http://www.w3.org/2000/svg" xmlns:xlink="http://www.w3.org/1999/xlink" x="0px" y="0px" viewBox="0 0 16 16"
	 enable-background="new 0 0 16 16" xml:space="preserve">
<sodipodi:namedview  inkscape:document-units="px" fit-margin-right="0" fit-margin-bottom="0" inkscape:current-layer="g4497" inkscape:pageopacity="0.0" inkscape:pageshadow="2" bordercolor="#666666" inkscape:cx="-14.634173" inkscape:zoom="19.428903" id="base" fit-margin-left="0" inkscape:cy="8.546291" showgrid="false" pagecolor="#ffffff" borderopacity="1.0" fit-margin-top="0">
	</sodipodi:namedview>
<path fill="#F3F3E7" d="M16,8l-0.7-5l-1.7,1.1c-0.4-0.3-0.9-0.7-1.5-0.9C10.8,2.6,9.3,2.6,8,3.1C6.6,3.6,5.6,4.7,5,6L6,6.4
	C6.4,5.3,7.3,4.5,8.3,4c1.1-0.4,2.3-0.4,3.4,0.1c0.4,0.2,0.7,0.4,1,0.6l-1.6,1.1L16,8z"/>
<path fill="#F3F3E7" d="M10,9.6c-0.4,1.1-1.3,1.9-2.4,2.4c-1.1,0.4-2.3,0.4-3.4-0.1c-0.3-0.2-0.7-0.4-1-0.6l1.6-1L0,8l0.7,5l1.7-1.1
	c0.5,0.4,1,0.7,1.5,1c0.7,0.3,1.5,0.5,2.2,0.5c0.7,0,1.3-0.1,1.9-0.4c1.3-0.5,2.4-1.6,2.9-2.9L10,9.6z"/>
</svg>
