<?xml version="1.0" encoding="UTF-8" standalone="no"?>
<!-- Created with Inkscape (http://www.inkscape.org/) -->

<svg
   xmlns:dc="http://purl.org/dc/elements/1.1/"
   xmlns:cc="http://creativecommons.org/ns#"
   xmlns:rdf="http://www.w3.org/1999/02/22-rdf-syntax-ns#"
   xmlns:svg="http://www.w3.org/2000/svg"
   xmlns="http://www.w3.org/2000/svg"
   xmlns:sodipodi="http://sodipodi.sourceforge.net/DTD/sodipodi-0.dtd"
   xmlns:inkscape="http://www.inkscape.org/namespaces/inkscape"
   width="96"
   height="96"
   id="svg3483"
   version="1.1"
   inkscape:version="0.48.3.1 r9886"
   sodipodi:docname="provider-hp.svg">
  <defs
     id="defs3485">
    <clipPath
       clipPathUnits="userSpaceOnUse"
       id="clipPath4391">
      <rect
         style="opacity:0.8;color:#000000;fill:#ff00ff;stroke:none;stroke-width:4;marker:none;visibility:visible;display:inline;overflow:visible;enable-background:accumulate"
         id="rect4393"
         width="1019.1371"
         height="1019.1371"
         x="357.98169"
         y="-1725.8152"
         transform="scale(1,-1)" />
    </clipPath>
    <clipPath
       id="clipPath3095"
       clipPathUnits="userSpaceOnUse">
      <path
         inkscape:connector-curvature="0"
         id="path3097"
         d="m 976.648,389.551 -842.402,0 0,839.999 842.402,0 0,-839.999" />
    </clipPath>
    <clipPath
       id="clipPath3195"
       clipPathUnits="userSpaceOnUse">
      <path
         inkscape:connector-curvature="0"
         id="path3197"
         d="m 611.836,756.738 -106.34,105.207 c -8.473,8.289 -13.617,20.102 -13.598,33.379 L 598.301,790.207 c -0.031,-13.418 5.094,-25.031 13.535,-33.469" />
    </clipPath>
    <clipPath
       id="clipPath3235"
       clipPathUnits="userSpaceOnUse">
      <path
         inkscape:connector-curvature="0"
         id="path3237"
         d="m 1095.64,1501.81 c 35.46,-35.07 70.89,-70.11 106.35,-105.17 4.4,-4.38 7.11,-10.53 7.11,-17.55 l -106.37,105.21 c 0,7 -2.71,13.11 -7.09,17.51" />
    </clipPath>
    <clipPath
       clipPathUnits="userSpaceOnUse"
       id="clipPath4591">
      <path
         id="path4593"
         style="fill:#ff00ff;fill-opacity:1;fill-rule:nonzero;stroke:none"
         d="m 1106.6009,730.43734 -0.036,21.648 c -0.01,3.50825 -2.8675,6.61375 -6.4037,6.92525 l -83.6503,7.33162 c -3.5205,0.30763 -6.3812,-2.29987 -6.3671,-5.8145 l 0.036,-21.6475 20.1171,-1.76662 -0.011,4.63775 c 0,1.83937 1.4844,3.19925 3.3262,3.0395 l 49.5274,-4.33975 c 1.8425,-0.166 3.3425,-1.78125 3.3538,-3.626 l 0.01,-4.63025 20.1,-1.7575"
         inkscape:connector-curvature="0" />
    </clipPath>
    <filter
       color-interpolation-filters="sRGB"
       inkscape:collect="always"
       id="filter4595"
       x="-0.028222449"
       width="1.0564449"
       y="-0.16041371"
       height="1.3208274">
      <feGaussianBlur
         inkscape:collect="always"
         stdDeviation="0.66106737"
         id="feGaussianBlur4597" />
    </filter>
  </defs>
  <sodipodi:namedview
     id="base"
     pagecolor="#ffffff"
     bordercolor="#666666"
     borderopacity="1.0"
     inkscape:pageopacity="0.0"
     inkscape:pageshadow="2"
     inkscape:zoom="5.0931703"
     inkscape:cx="63.153199"
     inkscape:cy="51.716316"
     inkscape:document-units="px"
     inkscape:current-layer="layer1"
     showgrid="false"
     fit-margin-top="0"
     fit-margin-left="0"
     fit-margin-right="0"
     fit-margin-bottom="0"
     inkscape:window-width="1920"
     inkscape:window-height="1029"
     inkscape:window-x="0"
     inkscape:window-y="24"
     inkscape:window-maximized="1" />
  <metadata
     id="metadata3488">
    <rdf:RDF>
      <cc:Work
         rdf:about="">
        <dc:format>image/svg+xml</dc:format>
        <dc:type
           rdf:resource="http://purl.org/dc/dcmitype/StillImage" />
        <dc:title></dc:title>
      </cc:Work>
    </rdf:RDF>
  </metadata>
  <g
     inkscape:label="Layer 1"
     inkscape:groupmode="layer"
     id="layer1"
     transform="translate(569.71429,-511.79077)">
    <g
       transform="matrix(1.8888993,0,0,1.8888993,-572.69521,518.11693)"
       id="g4027">
      <path
         inkscape:connector-curvature="0"
         d="m 16.40625,27.5625 -4.65625,2 4.3125,1.84375 5,-1.84375 -4.65625,-2 z m -7,2.5 -0.15625,9 6.8125,3 0,-9.34375 -6.65625,-2.65625 z m 14,0 -6.15625,2.34375 0,8.8125 6.15625,-2.5 0,-8.65625 z"
         id="path4033"
         style="fill:#f7a80d;fill-rule:evenodd" />
      <path
         inkscape:connector-curvature="0"
         d="m 30.75,2.0625 -4.6875,2 4.34375,1.84375 5,-1.84375 -4.65625,-2 z m -6.5,2.65625 0,9 5.8125,1.6875 0.1875,-8.1875 -6,-2.5 z m 13,0.5 -5.5,2.34375 0,8.84375 5.5,-2.5 0,-8.6875 z"
         id="path4035"
         style="fill:#f7a80d;fill-rule:evenodd" />
      <path
         inkscape:connector-curvature="0"
         d="m 8.734375,14.7295 -4.65625,2 4.3125,1.84375 5,-1.84375 -4.65625,-2 z m -7,2.5 -0.15625,9 6.8125,3 0,-9.34375 -6.65625,-2.65625 z m 14,0 -6.15625,2.34375 0,8.8125 6.15625,-2.5 0,-8.65625 z"
         id="path4037"
         style="fill:#f7a80d;fill-rule:evenodd" />
      <path
         inkscape:connector-curvature="0"
         d="m 23.73425,14.396999 -4.65625,2 4.3125,1.84375 5,-1.84375 -4.65625,-2 z m -7,2.5 -0.15625,9 6.8125,3 0,-9.34375 -6.65625,-2.65625 z m 14,0 -6.15625,2.34375 0,8.8125 6.15625,-2.5 0,-8.65625 z"
         id="path4039"
         style="fill:#f7a80d;fill-rule:evenodd" />
      <path
         inkscape:connector-curvature="0"
         d="m 45.401375,2.0625 -4.65625,2 4.3125,1.84375 5,-1.84375 -4.65625,-2 z m -7,2.5 -0.15625,9 6.8125,3 0,-9.34375 -6.65625,-2.65625 z m 14,0 -6.15625,2.34375 0,8.8125 6.15625,-2.5 0,-8.65625 z"
         id="path4041"
         style="fill:#f7a80d;fill-rule:evenodd" />
    </g>
  </g>
</svg>
