<?xml version="1.0" encoding="UTF-8" standalone="no"?>
<!-- Generator: Adobe Illustrator 16.0.0, SVG Export Plug-In . SVG Version: 6.00 Build 0)  -->

<svg
   xmlns:dc="http://purl.org/dc/elements/1.1/"
   xmlns:cc="http://creativecommons.org/ns#"
   xmlns:rdf="http://www.w3.org/1999/02/22-rdf-syntax-ns#"
   xmlns:svg="http://www.w3.org/2000/svg"
   xmlns="http://www.w3.org/2000/svg"
   xmlns:xlink="http://www.w3.org/1999/xlink"
   xmlns:sodipodi="http://sodipodi.sourceforge.net/DTD/sodipodi-0.dtd"
   xmlns:inkscape="http://www.inkscape.org/namespaces/inkscape"
   version="1.1"
   id="Layer_1"
   x="0px"
   y="0px"
   width="264"
   height="269.793"
   viewBox="0 0 264 269.793"
   enable-background="new 0 0 1024 768"
   xml:space="preserve"
   inkscape:version="0.48.3.1 r9886"
   sodipodi:docname="service_module.svg"><metadata
   id="metadata146"><rdf:RDF><cc:Work
       rdf:about=""><dc:format>image/svg+xml</dc:format><dc:type
         rdf:resource="http://purl.org/dc/dcmitype/StillImage" /></cc:Work></rdf:RDF></metadata><defs
   id="defs144" /><sodipodi:namedview
   pagecolor="#ffffff"
   bordercolor="#666666"
   borderopacity="1"
   objecttolerance="10"
   gridtolerance="10"
   guidetolerance="10"
   inkscape:pageopacity="0"
   inkscape:pageshadow="2"
   inkscape:window-width="1280"
   inkscape:window-height="776"
   id="namedview142"
   showgrid="false"
   fit-margin-top="0"
   fit-margin-left="0"
   fit-margin-right="0"
   fit-margin-bottom="0"
   inkscape:zoom="0.86915208"
   inkscape:cx="33.989624"
   inkscape:cy="176.74296"
   inkscape:window-x="0"
   inkscape:window-y="24"
   inkscape:window-maximized="1"
   inkscape:current-layer="Layer_1" />
<filter
   height="1.3"
   width="1.4"
   id="AI_Shadow_2"
   filterUnits="objectBoundingBox"
   y="-0.15000001"
   x="-0.30000001"
   color-interpolation-filters="sRGB">
	<feGaussianBlur
   in="SourceAlpha"
   stdDeviation="2"
   result="blur"
   id="feGaussianBlur4" />
	<feOffset
   dy="2"
   dx="0"
   in="blur"
   result="offsetBlurredAlpha"
   id="feOffset6" />
	<feMerge
   id="feMerge8">
		<feMergeNode
   in="offsetBlurredAlpha"
   id="feMergeNode10" />
		<feMergeNode
   in="SourceGraphic"
   id="feMergeNode12" />
	</feMerge>
</filter>
<filter
   id="AI_GaussianBlur_4"
   color-interpolation-filters="sRGB">
	<feGaussianBlur
   stdDeviation="1"
   id="feGaussianBlur15" />
</filter>

<g
   id="g18"
   transform="translate(-380.55,-251.207)">
	
		<radialGradient
   id="SVGID_1_"
   cx="509.90381"
   cy="439.71289"
   r="53.999901"
   gradientTransform="matrix(-4.289835e-8,1.2229,-3.21,-1.748421e-7,1924.6176,-175.5171)"
   gradientUnits="userSpaceOnUse">
		<stop
   offset="0"
   style="stop-color:#333333"
   id="stop21" />
		<stop
   offset="0.1555"
   style="stop-color:#373737;stop-opacity:0.8445"
   id="stop23" />
		<stop
   offset="0.2968"
   style="stop-color:#424242;stop-opacity:0.7032"
   id="stop25" />
		<stop
   offset="0.4326"
   style="stop-color:#545454;stop-opacity:0.5674"
   id="stop27" />
		<stop
   offset="0.5651"
   style="stop-color:#6E6E6E;stop-opacity:0.4349"
   id="stop29" />
		<stop
   offset="0.6952"
   style="stop-color:#909090;stop-opacity:0.3048"
   id="stop31" />
		<stop
   offset="0.8235"
   style="stop-color:#B9B9B9;stop-opacity:0.1765"
   id="stop33" />
		<stop
   offset="0.948"
   style="stop-color:#E9E9E9;stop-opacity:0.052"
   id="stop35" />
		<stop
   offset="1"
   style="stop-color:#FFFFFF;stop-opacity:0"
   id="stop37" />
	</radialGradient>
	<ellipse
   cx="512.54999"
   cy="444.19901"
   rx="110.5"
   ry="76.801003"
   id="ellipse39"
   sodipodi:cx="512.54999"
   sodipodi:cy="444.19901"
   sodipodi:rx="110.5"
   sodipodi:ry="76.801003"
   style="opacity:0.4;fill:url(#SVGID_1_)"
   d="m 623.04999,444.19901 c 0,42.41602 -49.47254,76.801 -110.5,76.801 -61.02747,0 -110.5,-34.38498 -110.5,-76.801 0,-42.41603 49.47253,-76.80101 110.5,-76.80101 61.02746,0 110.5,34.38498 110.5,76.80101 z" />
	<path
   d="m 622.55,403.509 c 0,73.333 0,73.333 -73.333,73.333 h -73.333 c -73.334,0 -73.334,0 -73.334,-73.333 h 220 z"
   id="path41"
   inkscape:connector-curvature="0"
   style="filter:url(#AI_GaussianBlur_4)" />
</g>
<g
   id="g43"
   transform="translate(-380.55,-251.207)">
	<linearGradient
   id="SVGID_2_"
   gradientUnits="userSpaceOnUse"
   x1="511.55029"
   y1="474.16599"
   x2="511.55029"
   y2="252.207">
		<stop
   offset="0"
   style="stop-color:#B1AFAF"
   id="stop46" />
		<stop
   offset="0.2548"
   style="stop-color:#CECDCD"
   id="stop48" />
		<stop
   offset="0.5435"
   style="stop-color:#E8E7E7"
   id="stop50" />
		<stop
   offset="0.8011"
   style="stop-color:#F8F7F7"
   id="stop52" />
		<stop
   offset="1"
   style="stop-color:#FEFDFD"
   id="stop54" />
	</linearGradient>
	<path
   d="m 474.557,252.207 h 73.987 c 73.986,0 73.986,0 73.986,73.986 v 73.987 c 0,73.986 0,73.986 -73.986,73.986 h -73.987 c -73.986,0 -73.986,0 -73.986,-73.986 v -73.987 c -0.001,-73.986 -0.001,-73.986 73.986,-73.986 l 0,0 z"
   id="path56"
   inkscape:connector-curvature="0"
   style="fill:url(#SVGID_2_)" />
	<linearGradient
   id="SVGID_3_"
   gradientUnits="userSpaceOnUse"
   x1="511.55029"
   y1="475.16599"
   x2="511.55029"
   y2="251.207">
		<stop
   offset="0"
   style="stop-color:#6E6E6E"
   id="stop59" />
		<stop
   offset="0.1487"
   style="stop-color:#797979"
   id="stop61" />
		<stop
   offset="0.4092"
   style="stop-color:#969696"
   id="stop63" />
		<stop
   offset="0.7481"
   style="stop-color:#C5C5C5"
   id="stop65" />
		<stop
   offset="1"
   style="stop-color:#ECECEC"
   id="stop67" />
	</linearGradient>
	<path
   d="m 548.544,252.207 c 73.986,0 73.986,0 73.986,73.986 v 73.987 c 0,73.986 0,73.986 -73.986,73.986 h -73.987 c -73.986,0 -73.986,0 -73.986,-73.986 v -73.987 c 0,-73.986 0,-73.986 73.986,-73.986 h 73.987 m 0,-1 h -73.987 c -37.221,0 -55.904,0 -65.445,9.541 -9.541,9.542 -9.541,28.224 -9.541,65.445 v 73.987 c 0,37.221 0,55.904 9.541,65.445 9.542,9.541 28.224,9.541 65.445,9.541 h 73.987 c 37.222,0 55.904,0 65.445,-9.541 9.541,-9.541 9.541,-28.225 9.541,-65.445 v -73.987 c 0,-37.221 0,-55.904 -9.541,-65.445 -9.541,-9.541 -28.223,-9.541 -65.445,-9.541 l 0,0 z"
   id="path69"
   inkscape:connector-curvature="0"
   style="fill:url(#SVGID_3_)" />
</g>
<g
   id="g71"
   transform="translate(-380.55,-251.207)">
	<radialGradient
   id="SVGID_4_"
   cx="516.78418"
   cy="241.4556"
   r="192.70979"
   gradientUnits="userSpaceOnUse">
		<stop
   offset="0"
   style="stop-color:#FBFBFB"
   id="stop74" />
		<stop
   offset="1"
   style="stop-color:#E0E0E0"
   id="stop76" />
	</radialGradient>
	<path
   d="m 474.557,470 c -34.445,0 -53.204,0.083 -60.988,-7.701 -7.783,-7.783 -7.568,-26.675 -7.568,-61.119 v -73.986 c 0,-34.444 -0.215,-53.522 7.568,-61.306 7.784,-7.784 26.543,-7.888 60.988,-7.888 h 73.986 c 34.444,0 53.654,0.104 61.438,7.888 7.784,7.783 8.02,26.861 8.02,61.306 v 73.986 c 0,34.444 -0.235,53.336 -8.02,61.119 -7.783,7.784 -26.993,7.701 -61.438,7.701 h -73.986 z"
   id="path78"
   inkscape:connector-curvature="0"
   style="fill:url(#SVGID_4_)" />
</g>
<g
   id="g80"
   style="opacity:0.45"
   transform="translate(-380.55,-251.207)">
	<linearGradient
   id="SVGID_5_"
   gradientUnits="userSpaceOnUse"
   x1="511.54929"
   y1="316"
   x2="511.54929"
   y2="419.00049">
		<stop
   offset="0"
   style="stop-color:#FFFFFF;stop-opacity:0"
   id="stop83" />
		<stop
   offset="1"
   style="stop-color:#FFFFFF"
   id="stop85" />
	</linearGradient>
	<path
   d="m 511.55,317 c 27.891,0 50.5,22.609 50.5,50.5 0,27.891 -22.61,50.5 -50.5,50.5 -27.89,0 -50.5,-22.609 -50.5,-50.5 0,-27.891 22.609,-50.5 50.5,-50.5 m 0,-1 c -28.397,0 -51.5,23.103 -51.5,51.5 0,28.397 23.103,51.5 51.5,51.5 28.397,0 51.5,-23.103 51.5,-51.5 0,-28.397 -23.103,-51.5 -51.5,-51.5 l 0,0 z"
   id="path87"
   inkscape:connector-curvature="0"
   style="fill:url(#SVGID_5_)" />
</g>
<g
   id="g89"
   transform="translate(-380.55,-251.207)">
	<g
   id="g91">
		<g
   id="g93">
			<path
   d="m 511,367.499 49.926,-9.635 c 5.32,27.375 -12.378,53.881 -39.755,59.203 -27.375,5.32 -53.792,-12.558 -59.112,-39.934 -5.32,-27.375 12.244,-53.881 39.619,-59.202 3.284,-0.639 7.322,-0.928 9.322,-0.928 v 50.496 z"
   id="path95"
   inkscape:connector-curvature="0"
   style="fill:#4bca60" />
		</g>
	</g>
	<g
   id="g97">
		<g
   id="g99">
			<path
   d="m 511,367.499 v -50.496 c 25,0 44.885,16.771 49.567,40.861 L 511,367.499 z"
   id="path101"
   inkscape:connector-curvature="0"
   style="fill:#ed1c24" />
		</g>
	</g>
</g>
<g
   id="g103"
   style="opacity:0.95;filter:url(#AI_GaussianBlur_4)"
   transform="translate(-380.55,-251.207)">
	<circle
   cx="511.54999"
   cy="368.49799"
   r="25"
   id="circle105"
   sodipodi:cx="511.54999"
   sodipodi:cy="368.49799"
   sodipodi:rx="25"
   sodipodi:ry="25"
   d="m 536.54999,368.49799 c 0,13.80711 -11.19288,25 -25,25 -13.80712,0 -25,-11.19289 -25,-25 0,-13.80712 11.19288,-25 25,-25 13.80712,0 25,11.19288 25,25 z" />
</g>
<linearGradient
   id="SVGID_6_"
   gradientUnits="userSpaceOnUse"
   x1="507.60641"
   y1="388.75201"
   x2="516.93939"
   y2="336.0856">
	<stop
   offset="0"
   style="stop-color:#CCCCCC"
   id="stop108" />
	<stop
   offset="1"
   style="stop-color:#FBFBFB"
   id="stop110" />
</linearGradient>
<circle
   cx="511.54999"
   cy="366.49799"
   r="25"
   id="circle112"
   sodipodi:cx="511.54999"
   sodipodi:cy="366.49799"
   sodipodi:rx="25"
   sodipodi:ry="25"
   style="fill:url(#SVGID_6_)"
   transform="translate(-380.55,-251.207)" />
<g
   id="g114"
   style="opacity:0.8"
   transform="translate(-380.55,-251.207)">
	<linearGradient
   id="SVGID_7_"
   gradientUnits="userSpaceOnUse"
   x1="511.55029"
   y1="391.49799"
   x2="511.55029"
   y2="341.4985">
		<stop
   offset="0"
   style="stop-color:#FFFFFF;stop-opacity:0"
   id="stop117" />
		<stop
   offset="1"
   style="stop-color:#FFFFFF"
   id="stop119" />
	</linearGradient>
	<path
   d="m 511.55,342.498 c 13.233,0 24,10.767 24,24 0,13.233 -10.767,24 -24,24 -13.233,0 -24,-10.767 -24,-24 0,-13.233 10.766,-24 24,-24 m 0,-1 c -13.808,0 -25,11.193 -25,25 0,13.808 11.192,25 25,25 13.808,0 25,-11.192 25,-25 0,-13.807 -11.193,-25 -25,-25 l 0,0 z"
   id="path121"
   inkscape:connector-curvature="0"
   style="fill:url(#SVGID_7_)" />
</g>
<g
   id="g123"
   transform="translate(-380.55,-251.207)">
	<defs
   id="defs125">
		<circle
   id="SVGID_8_"
   cx="511.54999"
   cy="367.5"
   r="50.5"
   sodipodi:cx="511.54999"
   sodipodi:cy="367.5"
   sodipodi:rx="50.5"
   sodipodi:ry="50.5" />
	</defs>
	<clipPath
   id="SVGID_9_">
		<use
   xlink:href="#SVGID_8_"
   overflow="visible"
   id="use129"
   style="overflow:visible"
   x="0"
   y="0"
   width="1024"
   height="768" />
	</clipPath>
	<path
   clip-path="url(#SVGID_9_)"
   d="m 430.8,285 v 162 h 162 V 285 h -162 z m 81,134.316 c -28.598,0 -51.779,-23.184 -51.779,-51.777 0,-28.598 23.182,-51.781 51.779,-51.781 28.597,0 51.777,23.184 51.777,51.781 0,28.594 -23.18,51.777 -51.777,51.777 z"
   id="path131"
   inkscape:connector-curvature="0"
   style="fill:#39b54a;filter:url(#AI_Shadow_2)" />
</g>
<g
   id="g133"
   style="opacity:0.7"
   transform="translate(-380.55,-251.207)">
	<linearGradient
   id="SVGID_10_"
   gradientUnits="userSpaceOnUse"
   x1="511.54929"
   y1="316"
   x2="511.54929"
   y2="419.00049">
		<stop
   offset="0"
   style="stop-color:#FFFFFF;stop-opacity:0"
   id="stop136" />
		<stop
   offset="1"
   style="stop-color:#FFFFFF"
   id="stop138" />
	</linearGradient>
	<path
   d="m 511.55,317 c 27.891,0 50.5,22.609 50.5,50.5 0,27.891 -22.61,50.5 -50.5,50.5 -27.89,0 -50.5,-22.609 -50.5,-50.5 0,-27.891 22.609,-50.5 50.5,-50.5 m 0,-1 c -28.397,0 -51.5,23.103 -51.5,51.5 0,28.397 23.103,51.5 51.5,51.5 28.397,0 51.5,-23.103 51.5,-51.5 0,-28.397 -23.103,-51.5 -51.5,-51.5 l 0,0 z"
   id="path140"
   inkscape:connector-curvature="0"
   style="fill:url(#SVGID_10_)" />
</g>
</svg>