<?xml version="1.0" encoding="utf-8"?>
<!-- Generator: Adobe Illustrator 16.0.0, SVG Export Plug-In . SVG Version: 6.00 Build 0)  -->
<!DOCTYPE svg PUBLIC "-//W3C//DTD SVG 1.1//EN" "http://www.w3.org/Graphics/SVG/1.1/DTD/svg11.dtd">
<svg version="1.1" id="Layer_1" xmlns="http://www.w3.org/2000/svg" xmlns:xlink="http://www.w3.org/1999/xlink" x="0px" y="0px"
	 width="53.578px" height="52px" viewBox="0 0 53.578 52" enable-background="new 0 0 53.578 52" xml:space="preserve">
<filter  id="AI_GaussianBlur_5">
	<feGaussianBlur  stdDeviation="1"></feGaussianBlur>
</filter>
<g display="none" opacity="0.95" filter="url(#AI_GaussianBlur_5)">
	<ellipse display="inline" cx="26.749" cy="25.998" rx="23.42" ry="24"/>
</g>
<radialGradient id="SVGID_1_" cx="24.2856" cy="52.9932" r="51.0179" gradientUnits="userSpaceOnUse">
	<stop  offset="0" style="stop-color:#302B28"/>
	<stop  offset="1" style="stop-color:#4D4D4D"/>
</radialGradient>
<circle fill="url(#SVGID_1_)" cx="26.874" cy="24.5" r="24.5"/>
<path fill="none" stroke="#1A1A1A" stroke-miterlimit="10" d="M40.423,28.5h-27v-10h27V28.5z M37.234,21.977
	c-0.865,0-1.564,0.699-1.564,1.555c0,0.865,0.699,1.564,1.564,1.564c0.859,0,1.557-0.699,1.557-1.564
	C38.791,22.676,38.093,21.977,37.234,21.977z"/>
<path fill="none" stroke="#FFFFFF" stroke-miterlimit="10" d="M40.423,29.5h-27v-10h27V29.5z M37.234,23.531
	c-0.865,0-1.564,0.701-1.564,1.564c0,0.857,0.699,1.557,1.564,1.557c0.859,0,1.557-0.699,1.557-1.557
	C38.791,24.232,38.093,23.531,37.234,23.531z"/>
</svg>

