<?xml version="1.0" encoding="UTF-8" standalone="no"?>
<!-- Created with Inkscape (http://www.inkscape.org/) -->

<svg
   xmlns:dc="http://purl.org/dc/elements/1.1/"
   xmlns:cc="http://creativecommons.org/ns#"
   xmlns:rdf="http://www.w3.org/1999/02/22-rdf-syntax-ns#"
   xmlns:svg="http://www.w3.org/2000/svg"
   xmlns="http://www.w3.org/2000/svg"
   xmlns:xlink="http://www.w3.org/1999/xlink"
   xmlns:sodipodi="http://sodipodi.sourceforge.net/DTD/sodipodi-0.dtd"
   xmlns:inkscape="http://www.inkscape.org/namespaces/inkscape"
   width="96"
   height="96"
   id="svg3483"
   version="1.1"
   inkscape:version="0.48.3.1 r9886"
   sodipodi:docname="provider-openstack.svg">
  <defs
     id="defs3485">
    <linearGradient
       inkscape:collect="always"
       id="linearGradient3850">
      <stop
         style="stop-color:#000000;stop-opacity:1;"
         offset="0"
         id="stop3852" />
      <stop
         style="stop-color:#000000;stop-opacity:0;"
         offset="1"
         id="stop3854" />
    </linearGradient>
    <clipPath
       id="clipPath3095"
       clipPathUnits="userSpaceOnUse">
      <path
         inkscape:connector-curvature="0"
         id="path3097"
         d="m 976.648,389.551 -842.402,0 0,839.999 842.402,0 0,-839.999" />
    </clipPath>
    <linearGradient
       inkscape:collect="always"
       xlink:href="#linearGradient4439"
       id="linearGradient4705"
       gradientUnits="userSpaceOnUse"
       x1="1155.4192"
       y1="1031.9298"
       x2="1128.7266"
       y2="1005.2372" />
    <linearGradient
       inkscape:collect="always"
       id="linearGradient4439">
      <stop
         style="stop-color:#841f1c;stop-opacity:1;"
         offset="0"
         id="stop4441" />
      <stop
         style="stop-color:#c42e24;stop-opacity:1"
         offset="1"
         id="stop4443" />
    </linearGradient>
    <linearGradient
       inkscape:collect="always"
       xlink:href="#linearGradient4473"
       id="linearGradient4707"
       gradientUnits="userSpaceOnUse"
       x1="741.55432"
       y1="934.54321"
       x2="753.62018"
       y2="946.60907" />
    <linearGradient
       inkscape:collect="always"
       id="linearGradient4473">
      <stop
         style="stop-color:#8d211a;stop-opacity:1"
         offset="0"
         id="stop4475" />
      <stop
         style="stop-color:#c42e24;stop-opacity:1"
         offset="1"
         id="stop4477" />
    </linearGradient>
    <clipPath
       id="clipPath3195"
       clipPathUnits="userSpaceOnUse">
      <path
         inkscape:connector-curvature="0"
         id="path3197"
         d="m 611.836,756.738 -106.34,105.207 c -8.473,8.289 -13.617,20.102 -13.598,33.379 L 598.301,790.207 c -0.031,-13.418 5.094,-25.031 13.535,-33.469" />
    </clipPath>
    <clipPath
       id="clipPath3235"
       clipPathUnits="userSpaceOnUse">
      <path
         inkscape:connector-curvature="0"
         id="path3237"
         d="m 1095.64,1501.81 c 35.46,-35.07 70.89,-70.11 106.35,-105.17 4.4,-4.38 7.11,-10.53 7.11,-17.55 l -106.37,105.21 c 0,7 -2.71,13.11 -7.09,17.51" />
    </clipPath>
    <linearGradient
       inkscape:collect="always"
       xlink:href="#linearGradient4389"
       id="linearGradient4709"
       gradientUnits="userSpaceOnUse"
       x1="1311.6787"
       y1="1607.1796"
       x2="1299.6487"
       y2="1595.1495" />
    <linearGradient
       inkscape:collect="always"
       id="linearGradient4389">
      <stop
         style="stop-color:#912120;stop-opacity:1;"
         offset="0"
         id="stop4391" />
      <stop
         style="stop-color:#c42e24;stop-opacity:1"
         offset="1"
         id="stop4393" />
    </linearGradient>
    <linearGradient
       inkscape:collect="always"
       xlink:href="#linearGradient4355"
       id="linearGradient4711"
       gradientUnits="userSpaceOnUse"
       gradientTransform="matrix(8,0,0,-8,-6602.8469,6874.4287)"
       x1="896.65497"
       y1="672.85754"
       x2="903.20746"
       y2="666.30505" />
    <linearGradient
       inkscape:collect="always"
       id="linearGradient4355">
      <stop
         style="stop-color:#841f1c;stop-opacity:1;"
         offset="0"
         id="stop4357" />
      <stop
         style="stop-color:#c42e24;stop-opacity:1"
         offset="1"
         id="stop4359" />
    </linearGradient>
    <clipPath
       clipPathUnits="userSpaceOnUse"
       id="clipPath4591">
      <path
         id="path4593"
         style="fill:#ff00ff;fill-opacity:1;fill-rule:nonzero;stroke:none"
         d="m 1106.6009,730.43734 -0.036,21.648 c -0.01,3.50825 -2.8675,6.61375 -6.4037,6.92525 l -83.6503,7.33162 c -3.5205,0.30763 -6.3812,-2.29987 -6.3671,-5.8145 l 0.036,-21.6475 20.1171,-1.76662 -0.011,4.63775 c 0,1.83937 1.4844,3.19925 3.3262,3.0395 l 49.5274,-4.33975 c 1.8425,-0.166 3.3425,-1.78125 3.3538,-3.626 l 0.01,-4.63025 20.1,-1.7575"
         inkscape:connector-curvature="0" />
    </clipPath>
    <filter
       color-interpolation-filters="sRGB"
       inkscape:collect="always"
       id="filter4595"
       x="-0.028222449"
       width="1.0564449"
       y="-0.16041371"
       height="1.3208274">
      <feGaussianBlur
         inkscape:collect="always"
         stdDeviation="0.66106737"
         id="feGaussianBlur4597" />
    </filter>
    <filter
       inkscape:collect="always"
       id="filter3831">
      <feGaussianBlur
         inkscape:collect="always"
         stdDeviation="0.86309522"
         id="feGaussianBlur3833" />
    </filter>
    <radialGradient
       inkscape:collect="always"
       xlink:href="#linearGradient3850"
       id="radialGradient3856"
       cx="-26.508606"
       cy="93.399292"
       fx="-26.508606"
       fy="93.399292"
       r="20.40658"
       gradientTransform="matrix(-1.4333926,-2.2742838,1.1731823,-0.73941125,-174.08025,98.374394)"
       gradientUnits="userSpaceOnUse" />
    <filter
       inkscape:collect="always"
       id="filter3868"
       x="-0.17186206"
       width="1.3437241"
       y="-0.1643077"
       height="1.3286154">
      <feGaussianBlur
         inkscape:collect="always"
         stdDeviation="0.62628186"
         id="feGaussianBlur3870" />
    </filter>
    <filter
       inkscape:collect="always"
       id="filter3885">
      <feGaussianBlur
         inkscape:collect="always"
         stdDeviation="5.7442192"
         id="feGaussianBlur3887" />
    </filter>
    <linearGradient
       inkscape:collect="always"
       xlink:href="#linearGradient3850"
       id="linearGradient3895"
       x1="348.20132"
       y1="593.11615"
       x2="-51.879555"
       y2="993.19702"
       gradientUnits="userSpaceOnUse"
       gradientTransform="translate(-318.48033,212.32022)" />
    <radialGradient
       inkscape:collect="always"
       xlink:href="#linearGradient3850"
       id="radialGradient3902"
       gradientUnits="userSpaceOnUse"
       gradientTransform="matrix(-1.4333926,-2.2742838,1.1731823,-0.73941125,-174.08025,98.374394)"
       cx="-26.508606"
       cy="93.399292"
       fx="-26.508606"
       fy="93.399292"
       r="20.40658" />
    <linearGradient
       inkscape:collect="always"
       xlink:href="#linearGradient3850"
       id="linearGradient3904"
       gradientUnits="userSpaceOnUse"
       gradientTransform="translate(-318.48033,212.32022)"
       x1="348.20132"
       y1="593.11615"
       x2="-51.879555"
       y2="993.19702" />
    <clipPath
       clipPathUnits="userSpaceOnUse"
       id="clipPath3906">
      <rect
         y="-1725.8152"
         x="357.9816"
         height="1019.1371"
         width="1019.1371"
         id="rect3908"
         style="opacity:0.8;color:#000000;fill:#ff00ff;stroke:none;stroke-width:4;marker:none;visibility:visible;display:inline;overflow:visible;enable-background:accumulate"
         transform="scale(1,-1)" />
    </clipPath>
  </defs>
  <sodipodi:namedview
     id="base"
     pagecolor="#ffffff"
     bordercolor="#666666"
     borderopacity="1.0"
     inkscape:pageopacity="0.0"
     inkscape:pageshadow="2"
     inkscape:zoom="4.0745361"
     inkscape:cx="23.425977"
     inkscape:cy="15.805481"
     inkscape:document-units="px"
     inkscape:current-layer="layer1"
     showgrid="false"
     fit-margin-top="0"
     fit-margin-left="0"
     fit-margin-right="0"
     fit-margin-bottom="0"
     inkscape:window-width="1920"
     inkscape:window-height="1029"
     inkscape:window-x="0"
     inkscape:window-y="24"
     inkscape:window-maximized="1" />
  <metadata
     id="metadata3488">
    <rdf:RDF>
      <cc:Work
         rdf:about="">
        <dc:format>image/svg+xml</dc:format>
        <dc:type
           rdf:resource="http://purl.org/dc/dcmitype/StillImage" />
        <dc:title />
      </cc:Work>
    </rdf:RDF>
  </metadata>
  <g
     inkscape:label="Layer 1"
     inkscape:groupmode="layer"
     id="layer1"
     transform="translate(569.71429,-511.79077)">
    <g
       id="g4601"
       transform="matrix(0.09419734,0,0,-0.09419734,-603.43521,674.35797)"
       clip-path="url(#clipPath3906)">
      <g
         id="g3897"
         transform="translate(647.57667,2.5364216e-8)">
        <path
           id="path3821"
           transform="matrix(10.616011,0,0,-10.616011,357.98166,1725.8152)"
           d="m -48.09375,67.8125 c -0.873996,-0.0028 -2.089735,0.01993 -3.40625,0.09375 -2.633031,0.147647 -5.700107,0.471759 -7.78125,1.53125 a 1.0001,1.0001 0 0 0 -0.25,1.59375 L -38.8125,92.375 a 1.0001,1.0001 0 0 0 0.84375,0.3125 L -24,90.5625 a 1.0001,1.0001 0 0 0 0.53125,-1.71875 L -46.0625,68.125 a 1.0001,1.0001 0 0 0 -0.625,-0.28125 c 0,0 -0.532254,-0.02842 -1.40625,-0.03125 z"
           style="opacity:0.7;color:#000000;fill:url(#radialGradient3902);fill-opacity:1;stroke:none;stroke-width:2;marker:none;visibility:visible;display:inline;overflow:visible;filter:url(#filter3831);enable-background:accumulate"
           inkscape:connector-curvature="0" />
        <path
           transform="matrix(10.616011,0,0,-10.616011,39.50133,1725.8152)"
           inkscape:connector-curvature="0"
           id="path3858"
           d="m -15.782705,81.725197 8.7458304,9.147937"
           style="opacity:0.6;color:#000000;fill:none;stroke:#000000;stroke-width:2;stroke-linecap:round;marker:none;visibility:visible;display:inline;overflow:visible;filter:url(#filter3868);enable-background:accumulate" />
        <path
           inkscape:connector-curvature="0"
           id="path3874"
           d="m -95.18931,981.03569 a 10.617073,10.617073 0 0 1 -0.995251,-0.3318 l -42.795789,-5.308 a 10.617073,10.617073 0 0 1 -6.30326,-17.9145 L -4.2897203,812.5065 a 10.617073,10.617073 0 0 1 8.95726,-3.3175 l 49.0990503,7.63026 a 10.617073,10.617073 0 0 1 5.97151,17.91452 L -87.55905,978.04989 a 10.617073,10.617073 0 0 1 -7.63026,2.9858 z"
           style="font-size:medium;font-style:normal;font-variant:normal;font-weight:normal;font-stretch:normal;text-indent:0;text-align:start;text-decoration:none;line-height:normal;letter-spacing:normal;word-spacing:normal;text-transform:none;direction:ltr;block-progression:tb;writing-mode:lr-tb;text-anchor:start;baseline-shift:baseline;opacity:0.3;color:#000000;fill:url(#linearGradient3904);fill-opacity:1;stroke:none;stroke-width:2;marker:none;visibility:visible;display:inline;overflow:visible;filter:url(#filter3885);enable-background:accumulate;font-family:Sans;-inkscape-font-specification:Sans" />
      </g>
      <path
         inkscape:connector-curvature="0"
         id="path4611"
         d="m 1213.1531,1680.9287 -669.2496,-58.25 -2.7504,-0.25 c -2.6328,-0.38 -5.0232,-1.07 -7.5,-1.75 -3.812,-1.16 -7.504,-2.58 -11,-4.5 -2.2928,-1.23 -4.6408,-2.68 -6.7496,-4.25 -1.3248,-0.97 -2.7664,-1.93 -4,-3 -1.0368,-0.94 -1.9816,-2.04 -3,-3 -0.8208,-0.91 -1.7088,-1.55 -2.5008,-2.5 -0.7536,-0.85 -1.332,-1.81 -2,-2.75 -0.676,-0.85 -1.3824,-1.59 -2,-2.5 -0.5536,-0.84 -0.976,-1.58 -1.4992,-2.5 l -1.5008,-2.5 c -0.5264,-0.83 -0.8504,-1.83 -1.2496,-2.75 -0.4488,-0.8 -0.8992,-1.59 -1.2496,-2.5 -0.3992,-0.91 -0.6792,-1.89 -1,-2.75 -0.3792,-1.04 -0.7304,-1.78 -1,-2.75 -0.2896,-0.98 -0.5432,-1.98 -0.7504,-3 -0.2848,-1.02 -0.5744,-2.15 -0.7504,-3.25 -0.2024,-1.16 -0.4056,-2.34 -0.4992,-3.5 -0.1848,-1.41 -0.2072,-2.94 -0.2504,-4.25 l 0,-1.25 -0.5,-168 35.5,-35.25 -36.2504,-3.25 1,-254.75 34.7504,-34.5 -34.7504,-3 -0.4992,-173 c 0.032,-1.328 0.1408,-2.774 0.2496,-4 0.8952,-11.69904 5.6408,-22.03496 13.2496,-29.5 l 106.5008,-105.25 c 9.3072,-9.17664 22.5168,-14.28736 37.2496,-13 l 669.2496,58.75 c 28.2904,2.492 51.1904,27.184 51.2504,55.25 l 0.2504,173.25 -34.5008,34.25 34.7504,3 -1,255 -35.2496,34.75 36,3.25 0.4992,168 c 0.021,14.4992 -6.0584,27.0636 -15.7496,35.5 -0.4256,0.3279 -0.828,0.6684 -1.2504,1 l -103,102.25 -2,1.75 c -1.0592,0.94 -2.1,2.03 -3.2496,2.75 -0.9896,0.77 -2.16,1.29 -3.2496,2 -0.9808,0.54 -1.9504,1.18 -3,1.75 -0.96,0.46 -2.0208,0.87 -3,1.25 -1.06,0.38 -1.9504,0.95 -3,1.25 -1.0104,0.33 -2.1904,0.5 -3.2504,0.75 -1.12,0.26 -2.1304,0.49 -3.2504,0.75 -1.1096,0.17 -2.1,0.39 -3.2496,0.5 -1.24,0.14 -2.5,0.25 -3.7504,0.25 -1.34,0.13 -2.84,0.13 -4.2496,0 l -2,0 z m 121.5,-106.25 c 0.4992,-0.1066 1.0176,-0.1362 1.5,-0.25 1.0496,-0.32 1.94,-0.6 3,-1 -1.5264,0.5158 -2.9016,0.8874 -4.5,1.25 z m -700.5,-61 c -1.3416,-0.5561 -2.4592,-1.3436 -3.7504,-2 -1.528,-0.7774 -3.0504,-1.5904 -4.4992,-2.5 1.0256,0.6311 1.9552,1.4171 3,2 1.724,0.935 3.4096,1.7462 5.2496,2.5 z m -32.7504,-36.25 c -0.5016,-1.6366 -0.9056,-3.3138 -1.2496,-5 -0.344,-1.6862 -0.8216,-3.2736 -1,-5 0.1136,1.27 0.32,2.27 0.5,3.5 0.112,0.4814 0.3856,0.9701 0.5,1.5 0.128,0.593 0.098,1.2272 0.2496,1.75 0.2584,1.03 0.4416,1.98 0.7504,3 l 0.2496,0.25 z m 500.5008,-81 1,-237 34.7496,-34.5 -35,-3 0,-37 0,-0.5 0,-2 -0.2504,-2 -0.4992,-1.75 -0.2504,-1.5 -0.5,-1.5 -0.5,-1.5 -0.7496,-1.25 -0.7504,-1.5 -0.7504,-1.25 -0.7496,-1.25 -1,-1.5 -1.2504,-1.25 -1.2496,-1.5 -1.5,-1.25 -2,-1.75 c -1.12,-0.8 -2.52,-1.52 -3.7496,-2.25 -1.78,-0.98 -3.4904,-1.86 -5.5008,-2.5 -1.2792,-0.33 -2.6496,-0.55 -4,-0.75 l -1.4992,-0.25 -316.2504,-27.5 -1,241.25 -35.7496,35.25 36.4992,3.25 0,31.75 c 0,14.67 12.0552,27.69 26.7504,29 l 315.7504,27.5 z m -327.7504,-478.5 1.5,-0.5 1.7496,-0.5 c -1.1176,0.28816 -2.2048,0.56632 -3.2496,1 z m -175.7504,-127.75 c -0.01,-1.75728 0.082,-3.55328 0.2504,-5.25 -0.043,0.4272 -0.2176,0.81864 -0.2504,1.25 -0.1048,1.36 -0.015,2.574 0,4 z"
         style="fill:#c42e24;fill-opacity:1;fill-rule:nonzero;stroke:none" />
      <path
         inkscape:connector-curvature="0"
         d="m 1209.1,979.273 -106.4,105.137 0.03,0.63 106.37,-105.212 0,-0.555 m -0.13,-2.152 -106.36,105.209 0.09,2.08 106.4,-105.137 -0.13,-2.152 m -0.31,-1.914 -106.34,105.193 0.29,1.93 106.36,-105.209 -0.31,-1.914 m -0.32,-1.641 -106.37,105.104 0.35,1.73 106.34,-105.193 -0.32,-1.641 m -0.41,-1.617 -106.32,105.191 0.36,1.53 106.37,-105.104 -0.41,-1.617 m -0.48,-1.48 -106.38,105.191 0.54,1.48 106.32,-105.191 -0.48,-1.48 m -0.61,-1.407 -106.3,105.208 0.53,1.39 106.38,-105.191 -0.61,-1.407 m -0.58,-1.355 -106.4,105.163 0.68,1.4 106.3,-105.208 -0.58,-1.355 m -0.69,-1.352 -106.38,105.155 0.67,1.36 106.4,-105.163 -0.69,-1.352 m -0.8,-1.343 -106.34,105.198 0.76,1.3 106.38,-105.155 -0.8,-1.343 m -0.83,-1.344 -106.38,105.212 0.87,1.33 106.34,-105.198 -0.83,-1.344 m -0.99,-1.309 -106.38,105.161 0.99,1.36 106.38,-105.212 -0.99,-1.309 m -1.08,-1.355 -106.41,105.126 1.11,1.39 106.38,-105.161 -1.08,-1.355 m -1.34,-1.418 -106.38,105.144 1.31,1.4 106.41,-105.126 -1.34,-1.418 m -1.6,-1.555 -106.34,105.279 1.56,1.42 106.38,-105.144 -1.6,-1.555 m -2.05,-1.609 -106.34,105.168 2.05,1.72 106.34,-105.279 -2.05,-1.609 m -3.5,-2.184 -106.36,105.102 c 1.23,0.73 2.4,1.45 3.52,2.25 l 106.34,-105.168 c -1.08,-0.813 -2.29,-1.563 -3.5,-2.184 m -5.69,-2.347 -106.4,105.109 c 2.01,0.64 3.95,1.36 5.73,2.34 l 106.36,-105.102 c -1.79,-0.992 -3.74,-1.836 -5.69,-2.347 m -4.03,-0.895 -106.34,105.174 c 1.35,0.2 2.69,0.5 3.97,0.83 l 106.4,-105.109 c -1.31,-0.43 -2.65,-0.7 -4.03,-0.895 m -1.39,-0.176 -106.32,105.21 1.37,0.14 106.34,-105.174 -1.39,-0.176"
         style="fill:url(#linearGradient4705);fill-opacity:1;fill-rule:nonzero;stroke:none"
         id="path4613" />
      <path
         inkscape:connector-curvature="0"
         d="m 1209.16,1016.87 -106.4,105.16 160.86,14.14 106.34,-105.24 -160.8,-14.06"
         style="fill:#871f1c;fill-opacity:1;fill-rule:nonzero;stroke:none"
         id="path4615" />
      <path
         inkscape:connector-curvature="0"
         d="m 1209.16,1016.87 -106.4,105.16 160.86,14.14 106.34,-105.24 -160.8,-14.06"
         style="fill:#871f1c;fill-opacity:1;fill-rule:nonzero;stroke:none"
         id="path4617" />
      <path
         inkscape:connector-curvature="0"
         d="m 1209.1,979.828 -106.37,105.212 0.03,36.99 106.4,-105.16 -0.06,-37.042"
         style="fill:#871f1c;fill-opacity:1;fill-rule:nonzero;stroke:none"
         id="path4619" />
      <path
         inkscape:connector-curvature="0"
         d="M 786.051,916.102 679.719,1021.34 1075.95,1056.03 1182.27,950.82 786.051,916.102"
         style="fill:#c42e24;fill-opacity:1;fill-rule:nonzero;stroke:none"
         id="path4621" />
      <path
         inkscape:connector-curvature="0"
         d="m 784.848,916.051 -106.391,105.129 1.262,0.16 106.332,-105.238 -1.203,-0.051 m -2.153,0 -106.343,105.199 2.105,-0.07 106.391,-105.129 -2.153,0 m -1.914,0.176 -106.363,105.153 1.934,-0.13 106.343,-105.199 -1.914,0.176 m -1.777,0.253 -106.336,105.16 1.75,-0.26 106.363,-105.153 -1.777,0.253 m -1.68,0.336 -106.347,105.164 1.691,-0.34 106.336,-105.16 -1.68,0.336 m -1.656,0.496 -106.305,105.178 1.614,-0.51 106.347,-105.164 -1.656,0.496 m -1.609,0.626 -106.325,105.122 1.629,-0.57 106.305,-105.178 -1.609,0.626 m -1.532,0.73 -106.355,105.172 1.562,-0.78 106.325,-105.122 -1.532,0.73 m -1.597,0.863 -106.356,105.209 1.598,-0.9 106.355,-105.172 -1.597,0.863 m -1.598,1.008 -106.398,105.191 1.64,-0.99 106.356,-105.209 -1.598,1.008 m -1.703,1.32 -106.34,105.321 1.645,-1.45 106.398,-105.191 -1.703,1.32 m -1.07,1.043 -106.368,105.238 1.098,-0.96 106.34,-105.321 -1.07,1.043"
         style="fill:url(#linearGradient4707);fill-opacity:1;fill-rule:nonzero;stroke:none"
         id="path4623" />
      <g
         id="g4625">
        <g
           id="g4627"
           clip-path="url(#clipPath3195)">
          <path
             inkscape:connector-curvature="0"
             d="m 611.836,756.738 -106.34,105.207 c -7.609,7.465 -12.527,17.739 -13.422,29.438 L 598.445,786.152 c 0.879,-11.687 5.825,-21.863 13.391,-29.414"
             style="fill:#7f1d1c;fill-opacity:1;fill-rule:nonzero;stroke:none"
             id="path4629" />
          <path
             inkscape:connector-curvature="0"
             d="M 598.445,786.152 492.074,891.383 c -0.109,1.226 -0.144,2.613 -0.176,3.941 L 598.301,790.207 c -0.016,-1.426 0.039,-2.695 0.144,-4.055"
             style="fill:#841f1c;fill-opacity:1;fill-rule:nonzero;stroke:none"
             id="path4631" />
        </g>
      </g>
      <path
         inkscape:connector-curvature="0"
         d="m 1369.96,1030.93 -0.29,-173.184 c -0.06,-28.066 -22.94,-52.91 -51.23,-55.402 L 649.238,743.691 c -28.164,-2.461 -51.05,18.399 -50.937,46.516 l 0.289,173.18 160.937,14.133 -0.086,-37.102 c 0,-14.715 11.875,-25.594 26.61,-24.316 l 396.219,34.718 c 14.74,1.328 26.74,14.25 26.83,29.008 l 0.06,37.042 160.8,14.06"
         style="fill:#d93023;fill-opacity:1;fill-rule:nonzero;stroke:none"
         id="path4633" />
      <path
         inkscape:connector-curvature="0"
         d="M 598.59,963.387 492.281,1068.54 653.164,1082.71 759.527,977.52 598.59,963.387"
         style="fill:#871f1c;fill-opacity:1;fill-rule:nonzero;stroke:none"
         id="path4635" />
      <path
         inkscape:connector-curvature="0"
         d="M 598.59,963.387 492.281,1068.54 653.164,1082.71 759.527,977.52 598.59,963.387"
         style="fill:#871f1c;fill-opacity:1;fill-rule:nonzero;stroke:none"
         id="path4637" />
      <path
         inkscape:connector-curvature="0"
         d="M 598.301,790.207 491.898,895.324 492.281,1068.54 598.59,963.387 598.301,790.207"
         style="fill:#871f1c;fill-opacity:1;fill-rule:nonzero;stroke:none"
         id="path4639" />
      <path
         inkscape:connector-curvature="0"
         d="m 1369.03,1323.22 1.02,-254.93 -160.81,-14.08 -1.03,254.89 160.82,14.12"
         style="fill:#e63f46;fill-opacity:1;fill-rule:nonzero;stroke:none"
         id="path4641" />
      <path
         inkscape:connector-curvature="0"
         d="m 1369.03,1323.22 1.02,-254.93 -160.81,-14.08 -1.03,254.89 160.82,14.12"
         style="fill:#e23535;fill-opacity:1;fill-rule:nonzero;stroke:none"
         id="path4643" />
      <path
         inkscape:connector-curvature="0"
         d="m 1209.24,1054.21 -106.32,105.18 -1.03,254.93 106.32,-105.22 1.03,-254.89"
         style="fill:#871f1c;fill-opacity:1;fill-rule:nonzero;stroke:none"
         id="path4645" />
      <path
         inkscape:connector-curvature="0"
         d="m 1208.21,1309.1 -106.32,105.22 160.81,14.04 106.33,-105.14 -160.82,-14.12"
         style="fill:#871f1c;fill-opacity:1;fill-rule:nonzero;stroke:none"
         id="path4647" />
      <path
         inkscape:connector-curvature="0"
         d="m 1208.21,1309.1 -106.32,105.22 160.81,14.04 106.33,-105.14 -160.82,-14.12"
         style="fill:#871f1c;fill-opacity:1;fill-rule:nonzero;stroke:none"
         id="path4649" />
      <path
         inkscape:connector-curvature="0"
         d="m 758.598,1269.75 0.972,-254.95 -160.871,-14.08 -1.019,254.94 160.918,14.09"
         style="fill:#e63f46;fill-opacity:1;fill-rule:nonzero;stroke:none"
         id="path4651" />
      <path
         inkscape:connector-curvature="0"
         d="m 758.598,1269.75 0.972,-254.95 -160.871,-14.08 -1.019,254.94 160.918,14.09"
         style="fill:#e23535;fill-opacity:1;fill-rule:nonzero;stroke:none"
         id="path4653" />
      <path
         inkscape:connector-curvature="0"
         d="m 598.699,1000.72 -106.39,105.23 -0.965,254.83 106.336,-105.12 1.019,-254.94"
         style="fill:#871f1c;fill-opacity:1;fill-rule:nonzero;stroke:none"
         id="path4655" />
      <path
         inkscape:connector-curvature="0"
         d="m 597.68,1255.66 -106.336,105.12 160.879,14.11 106.375,-105.14 -160.918,-14.09"
         style="fill:#871f1c;fill-opacity:1;fill-rule:nonzero;stroke:none"
         id="path4657" />
      <path
         inkscape:connector-curvature="0"
         d="m 1209.04,1347.16 -106.36,105.1 0.05,32.04 106.37,-105.21 -0.06,-31.93"
         style="fill:#871f1c;fill-opacity:1;fill-rule:nonzero;stroke:none"
         id="path4659" />
      <g
         id="g4661">
        <g
           id="g4663"
           clip-path="url(#clipPath3235)">
          <path
             inkscape:connector-curvature="0"
             d="m 1209.1,1379.09 -106.37,105.21 -0.12,2.07 106.4,-105.21 0.09,-2.07"
             style="fill:#841f1c;fill-opacity:1;fill-rule:nonzero;stroke:none"
             id="path4665" />
          <path
             inkscape:connector-curvature="0"
             d="m 1209.01,1381.16 -106.4,105.21 c -0.42,6.18 -3,11.54 -6.97,15.44 l 106.35,-105.17 c 3.96,-3.97 6.54,-9.32 7.02,-15.48"
             style="fill:#7f1d1c;fill-opacity:1;fill-rule:nonzero;stroke:none"
             id="path4667" />
        </g>
      </g>
      <path
         inkscape:connector-curvature="0"
         d="m 1354.74,1564.66 -106.38,105.11 2.07,-1.95 106.35,-105.11 -2.04,1.95 m -3.29,2.54 -106.34,105.12 c 1.15,-0.72 2.19,-1.61 3.25,-2.55 l 106.38,-105.11 c -1.09,0.84 -2.14,1.7 -3.29,2.54 m -3.14,2.04 -106.34,105.21 c 1.09,-0.71 2.15,-1.36 3.14,-2.13 l 106.34,-105.12 c -0.99,0.7 -2.05,1.4 -3.14,2.04 m -3.03,1.64 -106.33,105.24 c 1.05,-0.57 2.04,-1.13 3.02,-1.67 l 106.34,-105.21 c -0.99,0.58 -1.97,1.18 -3.03,1.64 m -3.02,1.46 -106.31,105.15 c 0.98,-0.38 2.04,-0.91 3,-1.37 l 106.33,-105.24 c -0.98,0.56 -1.94,1.02 -3.02,1.46 m -3.03,1.11 -106.38,105.14 c 1.05,-0.3 2.04,-0.72 3.1,-1.1 l 106.31,-105.15 c -1,0.38 -2.03,0.78 -3.03,1.11 m -3.13,0.96 -106.35,105.14 c 1.06,-0.25 2.09,-0.63 3.1,-0.96 l 106.38,-105.14 c -1.06,0.4 -2.08,0.64 -3.13,0.96 m -3.29,0.66 -106.32,105.22 c 1.12,-0.26 2.14,-0.48 3.26,-0.74 l 106.35,-105.14 c -1.06,0.25 -2.17,0.51 -3.29,0.66 m -3.39,0.52 -106.37,105.18 c 1.15,-0.11 2.33,-0.31 3.44,-0.48 l 106.32,-105.22 c -1.08,0.23 -2.23,0.39 -3.39,0.52 m -3.76,0.3 -106.31,105.13 c 1.25,0 2.46,-0.11 3.7,-0.25 l 106.37,-105.18 c -1.25,0.22 -2.49,0.26 -3.76,0.3 m -4.06,-0.04 -106.37,105.17 c 1.41,0.13 2.78,0.13 4.12,0 l 106.31,-105.13 c -1.3,0.05 -2.72,0.05 -4.06,-0.04 m -2.2,-0.04 -106.36,105.08 2.19,0.13 106.37,-105.17 -2.2,-0.04"
         style="fill:url(#linearGradient4709);fill-opacity:1;fill-rule:nonzero;stroke:none"
         id="path4669" />
      <path
         inkscape:connector-curvature="0"
         d="m 598.508,1294.05 -106.383,105.16 0.512,168.09 106.34,-105.14 -0.469,-168.11"
         style="fill:#871f1c;fill-opacity:1;fill-rule:nonzero;stroke:none"
         id="path4671" />
      <path
         inkscape:connector-curvature="0"
         d="m 650.168,1517.51 -106.344,105.2 669.216,58.18 106.36,-105.08 -669.232,-58.3"
         style="fill:#c42e24;fill-opacity:1;fill-rule:nonzero;stroke:none"
         id="path4673" />
      <path
         inkscape:connector-curvature="0"
         d="m 650.168,1517.51 669.232,58.3 c 28.22,2.28 51.01,-18.45 50.97,-46.64 l -0.58,-168.06 -160.75,-13.95 0.06,31.93 c 0,14.71 -11.86,25.58 -26.57,24.3 l -396.296,-34.43 c -14.695,-1.31 -26.757,-14.28 -26.757,-28.95 l -0.036,-31.93 -160.933,-14.03 0.469,168.11 c 0.062,28.12 23.019,52.85 51.191,55.35"
         style="fill:#e63f46;fill-opacity:1;fill-rule:nonzero;stroke:none"
         id="path4675" />
      <path
         inkscape:connector-curvature="0"
         d="m 650.168,1517.51 669.232,58.3 c 28.22,2.28 51.01,-18.45 50.97,-46.64 l -0.58,-168.06 -160.75,-13.95 0.06,31.93 c 0,14.71 -11.86,25.58 -26.57,24.3 l -396.296,-34.43 c -14.695,-1.31 -26.757,-14.28 -26.757,-28.95 l -0.036,-31.93 -160.933,-14.03 0.469,168.11 c 0.062,28.12 23.019,52.85 51.191,55.35"
         style="fill:#e63f46;fill-opacity:1;fill-rule:nonzero;stroke:none"
         id="path4677" />
      <path
         inkscape:connector-curvature="0"
         id="path4679"
         d="m 543.9031,1622.6787 -2.75,-0.25 c -2.63304,-0.38 -5.02304,-1.07 -7.5,-1.75 -3.812,-1.16 -7.504,-2.58 -11,-4.5 -2.29304,-1.23 -4.64096,-2.68 -6.75,-4.25 -1.324,-0.97 -2.766,-1.93 -4,-3 -1.036,-0.94 -1.98096,-2.04 -3,-3 -0.82,-0.91 -1.708,-1.55 -2.5,-2.5 -0.754,-0.85 -1.332,-1.81 -2,-2.75 -0.676,-0.85 -1.38304,-1.59 -2,-2.5 -0.554,-0.84 -0.976,-1.58 -1.5,-2.5 l -1.5,-2.5 c -0.52704,-0.83 -0.85096,-1.83 -1.25,-2.75 -0.44904,-0.8 -0.89896,-1.59 -1.25,-2.5 -0.39904,-0.91 -0.67904,-1.89 -1,-2.75 -0.37896,-1.04 -0.73,-1.78 -1,-2.75 -0.28904,-0.98 -0.54304,-1.98 -0.75,-3 -0.28504,-1.02 -0.574,-2.15 -0.75,-3.25 -0.20304,-1.16 -0.406,-2.34 -0.5,-3.5 -0.184,-1.41 -0.20696,-2.94 -0.25,-4.25 l 0,-1.25 106.25,-105 0,1 c 0.031,1.37 0.075,2.94 0.25,4.25 0.114,1.27 0.32,2.27 0.5,3.5 0.238,1.02 0.46096,2.26 0.75,3.25 0.258,1.03 0.44096,1.98 0.75,3 l 1,2.75 1,2.75 c 0.332,1 0.848,1.94 1.25,2.75 l 1.25,2.5 1.5,2.5 1.75,2.5 1.75,2.5 c 0.692,0.95 1.51904,1.92 2.25,2.75 0.80096,1.02 1.64504,1.9 2.5,2.75 0.946,0.99 1.96104,1.84 3,2.75 1.28104,1.1 2.37104,2.28 3.75,3.25 2.13696,1.57 4.438,2.96 6.75,4.25 3.44896,1.87 7.172,3.4 11,4.5 2.47296,0.71 5.144,1.18 7.75,1.5 l 2.5,0.25 -106.25,105.25 z"
         style="fill:url(#linearGradient4711);fill-opacity:1;fill-rule:nonzero;stroke:none" />
      <path
         clip-path="url(#clipPath4591)"
         sodipodi:nodetypes="ccccccccccccccccsccccccccccccccccccscccccccccccccccccscccccccccccccccccc"
         inkscape:connector-curvature="0"
         id="path4703"
         transform="matrix(8,0,0,-8,-7482.8469,6874.4287)"
         d="m 1086.5,734.90625 -0.031,0.25 c -0.012,0.11391 -0.04,0.23256 -0.063,0.34375 -0.034,0.16683 -0.067,0.341 -0.125,0.5 -0.018,0.0517 -0.042,0.10554 -0.062,0.15625 l -0.094,0.1875 c -0.057,0.11744 -0.119,0.23297 -0.1875,0.34375 -0.012,0.0198 -0.019,0.043 -0.031,0.0625 l -0.062,0.0937 -0.125,0.15625 -0.125,0.1875 c -0.029,0.0332 -0.064,0.0616 -0.094,0.0937 l -0.062,0.0625 c -0.1348,0.13899 -0.2831,0.25777 -0.4375,0.375 l -0.031,0.0312 c -0.168,0.12447 -0.3444,0.21734 -0.5313,0.3125 -0.2,0.1018 -0.4076,0.18634 -0.625,0.25 -0.2174,0.0637 -0.4572,0.10425 -0.6875,0.125 l -49.5,4.34375 c -0.2198,0.0191 -0.4487,0.0224 -0.6562,0 l -0.25,-0.0312 -0.094,-0.0312 c -0.032,-0.007 -0.062,-0.0231 -0.094,-0.0312 l -0.2187,-0.0625 -0.1875,-0.0625 -0.2188,-0.0937 -0.1562,-0.0937 c -0.01,-0.004 -0.024,0.004 -0.031,0 l -0.1876,-0.125 -0.1562,-0.125 c -0.023,-0.0185 -0.041,-0.0433 -0.062,-0.0625 l -0.062,-0.0312 c -0.027,-0.0248 -0.036,-0.068 -0.062,-0.0937 l -0.125,-0.125 c -0.4826,-0.53581 -0.7813,-1.2496 -0.7813,-2.0625 l 0,2 c 0,0.8129 0.2987,1.52669 0.7813,2.0625 l 0.125,0.125 c 0.026,0.0258 0.035,0.069 0.062,0.0937 l 0.062,0.0312 c 0.022,0.0192 0.04,0.044 0.062,0.0625 l 0.1562,0.125 0.1876,0.125 c 0.01,0.004 0.024,-0.004 0.031,0 l 0.1562,0.0937 0.2188,0.0937 0.1875,0.0625 0.2187,0.0625 c 0.032,0.008 0.062,0.0241 0.094,0.0312 l 0.094,0.0312 0.25,0.0312 c 0.2075,0.0224 0.4364,0.0191 0.6562,0 l 49.5,-4.34375 c 0.2303,-0.0208 0.4701,-0.0613 0.6875,-0.125 0.2174,-0.0637 0.425,-0.1482 0.625,-0.25 0.1869,-0.0952 0.3632,-0.18803 0.5313,-0.3125 l 0.031,-0.0312 c 0.1544,-0.11723 0.3027,-0.23601 0.4375,-0.375 l 0.062,-0.0625 c 0.03,-0.0322 0.065,-0.0606 0.094,-0.0937 l 0.125,-0.1875 0.125,-0.15625 0.062,-0.0937 c 0.013,-0.0195 0.019,-0.0427 0.031,-0.0625 0.069,-0.11078 0.1309,-0.22631 0.1875,-0.34375 l 0.094,-0.1875 c 0.021,-0.0507 0.044,-0.10458 0.062,-0.15625 0.058,-0.159 0.091,-0.33318 0.125,-0.5 0.023,-0.11119 0.05,-0.22984 0.063,-0.34375 l 0.031,-0.25 0,-0.0937 z"
         style="fill:#ffffff;fill-opacity:1;fill-rule:nonzero;stroke:none;filter:url(#filter4595)" />
      <rect
         style="opacity:0.8;color:#000000;fill:none;stroke:none;stroke-width:4;marker:none;visibility:visible;display:inline;overflow:visible;enable-background:accumulate"
         id="rect3585-3"
         width="1019.137"
         height="1019.137"
         x="357.98178"
         y="-1725.8152"
         transform="scale(1,-1)" />
    </g>
  </g>
</svg>
