<?xml version="1.0" encoding="UTF-8" standalone="no"?>
<!-- Created with Inkscape (http://www.inkscape.org/) -->

<svg
   xmlns:dc="http://purl.org/dc/elements/1.1/"
   xmlns:cc="http://creativecommons.org/ns#"
   xmlns:rdf="http://www.w3.org/1999/02/22-rdf-syntax-ns#"
   xmlns:svg="http://www.w3.org/2000/svg"
   xmlns="http://www.w3.org/2000/svg"
   xmlns:sodipodi="http://sodipodi.sourceforge.net/DTD/sodipodi-0.dtd"
   xmlns:inkscape="http://www.inkscape.org/namespaces/inkscape"
   width="96"
   height="96"
   id="svg4311"
   version="1.1"
   inkscape:version="0.48.3.1 r9886"
   sodipodi:docname="provider-lxc01.svg">
  <defs
     id="defs4313" />
  <sodipodi:namedview
     id="base"
     pagecolor="#ffffff"
     bordercolor="#666666"
     borderopacity="1.0"
     inkscape:pageopacity="0.0"
     inkscape:pageshadow="2"
     inkscape:zoom="9.9475983"
     inkscape:cx="35.124056"
     inkscape:cy="46.232263"
     inkscape:document-units="px"
     inkscape:current-layer="g3463"
     showgrid="false"
     fit-margin-top="0"
     fit-margin-left="0"
     fit-margin-right="0"
     fit-margin-bottom="0"
     inkscape:window-width="1920"
     inkscape:window-height="1029"
     inkscape:window-x="0"
     inkscape:window-y="24"
     inkscape:window-maximized="1" />
  <metadata
     id="metadata4316">
    <rdf:RDF>
      <cc:Work
         rdf:about="">
        <dc:format>image/svg+xml</dc:format>
        <dc:type
           rdf:resource="http://purl.org/dc/dcmitype/StillImage" />
        <dc:title />
      </cc:Work>
    </rdf:RDF>
  </metadata>
  <g
     inkscape:label="Layer 1"
     inkscape:groupmode="layer"
     id="layer1"
     transform="translate(218.28571,-548.93357)">
    <g
       transform="matrix(2,0,0,2,-542.28571,-1439.7908)"
       id="g3463"
       inkscape:export-filename="lxc01.png"
       inkscape:export-xdpi="180"
       inkscape:export-ydpi="180">
      <path
         transform="translate(10,78)"
         d="m 200,940.36218 c 0,13.25484 -10.74517,24 -24,24 -13.25483,0 -24,-10.74516 -24,-24 0,-13.25483 10.74517,-24 24,-24 13.25483,0 24,10.74517 24,24 z"
         sodipodi:ry="24"
         sodipodi:rx="24"
         sodipodi:cy="940.36218"
         sodipodi:cx="176"
         id="path3442"
         style="color:#000000;fill:#dd4814;fill-opacity:1;fill-rule:nonzero;stroke:none;stroke-width:1;marker:none;visibility:visible;display:inline;overflow:visible;enable-background:accumulate"
         sodipodi:type="arc" />
      <path
         style="font-size:medium;font-style:normal;font-variant:normal;font-weight:normal;font-stretch:normal;text-indent:0;text-align:start;text-decoration:none;line-height:normal;letter-spacing:normal;word-spacing:normal;text-transform:none;direction:ltr;block-progression:tb;writing-mode:lr-tb;text-anchor:start;baseline-shift:baseline;color:#000000;fill:#ffffff;fill-opacity:1;stroke:none;stroke-width:2;marker:none;visibility:visible;display:inline;overflow:visible;enable-background:accumulate;font-family:Sans;-inkscape-font-specification:Sans"
         d="m 176,1004.375 c -1.0907,0 -2,0.9093 -2,2 l 0,14 c 0,1.0907 0.9093,2 2,2 l 20,0 c 1.0907,0 2,-0.9093 2,-2 l 0,-14 c 0,-1.0907 -0.9093,-2 -2,-2 l -20,0 z m 0,2 20,0 0,14 -20,0 0,-14 z"
         id="rect3444"
         inkscape:connector-curvature="0" />
      <path
         style="color:#000000;fill:#ffffff;stroke:none;stroke-width:2;stroke-linecap:round;stroke-linejoin:round;stroke-miterlimit:4;stroke-opacity:1;stroke-dasharray:none;stroke-dashoffset:0;marker:none;visibility:visible;display:inline;overflow:visible;enable-background:accumulate"
         d="M 29.625 60.03125 A 2.0002 2.0002 0 0 0 28.75 60.46875 L 18.75 68.46875 A 2.0002 2.0002 0 0 0 20 72.03125 L 76 72.03125 A 2.0002 2.0002 0 0 0 77.25 68.46875 L 67.25 60.46875 A 2.0002 2.0002 0 0 0 66 60.03125 L 30 60.03125 A 2.0002 2.0002 0 0 0 29.625 60.03125 z "
         transform="matrix(0.5,0,0,0.5,162,994.36218)"
         id="path3446" />
      <rect
         style="color:#000000;fill:#ffffff;fill-opacity:1;fill-rule:nonzero;stroke:none;stroke-width:2;marker:none;visibility:visible;display:inline;overflow:visible;enable-background:accumulate"
         id="rect3448"
         width="6"
         height="1.9999876"
         x="183"
         y="1021.3622" />
      <path
         inkscape:connector-curvature="0"
         id="rect3450"
         d="m 183.5,1008.375 c -1.65686,0 -3,1.3432 -3,3 0,0.3598 0.0714,0.696 0.1875,1.0156 -1.51645,0.1531 -2.6875,1.4263 -2.6875,2.9844 0,1.662 1.338,3 3,3 l 10,0 c 1.662,0 3,-1.338 3,-3 0,-1.5581 -1.17106,-2.8313 -2.6875,-2.9844 0.11609,-0.3196 0.1875,-0.6558 0.1875,-1.0156 0,-1.6568 -1.34315,-3 -3,-3 -1.04775,0 -1.96348,0.5298 -2.5,1.3438 -0.53652,-0.814 -1.45225,-1.3438 -2.5,-1.3438 z"
         style="color:#000000;fill:#ffffff;fill-opacity:1;stroke:none;stroke-width:4;marker:none;visibility:visible;display:inline;overflow:visible;enable-background:accumulate" />
    </g>
  </g>
</svg>
