<?xml version="1.0" encoding="UTF-8" standalone="no"?>
<!-- Created with Inkscape (http://www.inkscape.org/) -->

<svg
   xmlns:dc="http://purl.org/dc/elements/1.1/"
   xmlns:cc="http://creativecommons.org/ns#"
   xmlns:rdf="http://www.w3.org/1999/02/22-rdf-syntax-ns#"
   xmlns:svg="http://www.w3.org/2000/svg"
   xmlns="http://www.w3.org/2000/svg"
   xmlns:sodipodi="http://sodipodi.sourceforge.net/DTD/sodipodi-0.dtd"
   xmlns:inkscape="http://www.inkscape.org/namespaces/inkscape"
   width="96"
   height="96"
   id="svg4311"
   version="1.1"
   inkscape:version="0.48.3.1 r9886"
   sodipodi:docname="provider-lxc02.svg">
  <defs
     id="defs4313" />
  <sodipodi:namedview
     id="base"
     pagecolor="#ffffff"
     bordercolor="#666666"
     borderopacity="1.0"
     inkscape:pageopacity="0.0"
     inkscape:pageshadow="2"
     inkscape:zoom="6.3664629"
     inkscape:cx="90.144246"
     inkscape:cy="50.671776"
     inkscape:document-units="px"
     inkscape:current-layer="g3470"
     showgrid="true"
     fit-margin-top="0"
     fit-margin-left="0"
     fit-margin-right="0"
     fit-margin-bottom="0"
     inkscape:window-width="1920"
     inkscape:window-height="1029"
     inkscape:window-x="0"
     inkscape:window-y="24"
     inkscape:window-maximized="1">
    <inkscape:grid
       type="xygrid"
       id="grid3000" />
  </sodipodi:namedview>
  <metadata
     id="metadata4316">
    <rdf:RDF>
      <cc:Work
         rdf:about="">
        <dc:format>image/svg+xml</dc:format>
        <dc:type
           rdf:resource="http://purl.org/dc/dcmitype/StillImage" />
        <dc:title />
      </cc:Work>
    </rdf:RDF>
  </metadata>
  <g
     inkscape:label="Layer 1"
     inkscape:groupmode="layer"
     id="layer1"
     transform="translate(218.28571,-548.93357)">
    <g
       transform="matrix(2,0,0,2,-662.28571,-1199.7908)"
       id="g3470"
       inkscape:export-filename="lxc02.png"
       inkscape:export-xdpi="180"
       inkscape:export-ydpi="180">
      <path
         transform="translate(70,-42)"
         d="m 200,940.36218 c 0,13.25484 -10.74517,24 -24,24 -13.25483,0 -24,-10.74516 -24,-24 0,-13.25483 10.74517,-24 24,-24 13.25483,0 24,10.74517 24,24 z"
         sodipodi:ry="24"
         sodipodi:rx="24"
         sodipodi:cy="940.36218"
         sodipodi:cx="176"
         id="path3428"
         style="color:#000000;fill:#dd4814;fill-opacity:1;fill-rule:nonzero;stroke:none;stroke-width:1;marker:none;visibility:visible;display:inline;overflow:visible;enable-background:accumulate"
         sodipodi:type="arc" />
      <path
         style="font-size:medium;font-style:normal;font-variant:normal;font-weight:normal;font-stretch:normal;text-indent:0;text-align:start;text-decoration:none;line-height:normal;letter-spacing:normal;word-spacing:normal;text-transform:none;direction:ltr;block-progression:tb;writing-mode:lr-tb;text-anchor:start;baseline-shift:baseline;color:#000000;fill:#ffffff;fill-opacity:1;stroke:none;stroke-width:2;marker:none;visibility:visible;display:inline;overflow:visible;enable-background:accumulate;font-family:Sans;-inkscape-font-specification:Sans"
         d="M 50 24.03125 L 50 28.03125 L 54 28.03125 L 54 24.03125 L 50 24.03125 z M 58 24.03125 L 58 28.03125 L 68 28.03125 L 68 54.03125 L 28 54.03125 L 28 48 L 24 48 L 24 54.03125 C 24 56.21265 25.8186 58.03125 28 58.03125 L 68 58.03125 C 70.1814 58.03125 72 56.21265 72 54.03125 L 72 28.03125 C 72 25.84985 70.1814 24.03125 68 24.03125 L 58 24.03125 z M 24 40 L 24 44 L 28 44 L 28 40 L 24 40 z "
         transform="matrix(0.5,0,0,0.5,222,874.36218)"
         id="rect3430" />
      <path
         style="color:#000000;fill:#ffffff;stroke:none;stroke-width:4;stroke-linecap:round;stroke-linejoin:round;stroke-miterlimit:4;stroke-opacity:1;stroke-dasharray:none;stroke-dashoffset:0;marker:none;visibility:visible;display:inline;overflow:visible;enable-background:accumulate"
         d="M 29.625 62.03125 A 2.0002 2.0002 0 0 0 28.75 62.46875 L 18.75 70.46875 A 2.0002 2.0002 0 0 0 20 74.03125 L 76 74.03125 A 2.0002 2.0002 0 0 0 77.25 70.46875 L 67.25 62.46875 A 2.0002 2.0002 0 0 0 66 62.03125 L 30 62.03125 A 2.0002 2.0002 0 0 0 29.625 62.03125 z "
         transform="matrix(0.5,0,0,0.5,222,874.36218)"
         id="path3432" />
      <rect
         style="color:#000000;fill:#ffffff;fill-opacity:1;fill-rule:nonzero;stroke:none;stroke-width:2;marker:none;visibility:visible;display:inline;overflow:visible;enable-background:accumulate"
         id="rect3434"
         width="6"
         height="1.9999876"
         x="243"
         y="902.36218" />
      <path
         style="font-size:medium;font-style:normal;font-variant:normal;font-weight:normal;font-stretch:normal;text-indent:0;text-align:start;text-decoration:none;line-height:normal;letter-spacing:normal;word-spacing:normal;text-transform:none;direction:ltr;block-progression:tb;writing-mode:lr-tb;text-anchor:start;baseline-shift:baseline;color:#000000;fill:#ffffff;fill-opacity:1;fill-rule:nonzero;stroke:none;stroke-width:2;marker:none;visibility:visible;display:inline;overflow:visible;enable-background:accumulate;font-family:Sans;-inkscape-font-specification:Sans"
         d="m 233,883.375 c -1.0907,0 -2,0.9093 -2,2 l 0,9 c 0,1.0907 0.9093,2 2,2 l 14,0 c 1.0907,0 2,-0.9093 2,-2 l 0,-9 c 0,-1.0907 -0.9093,-2 -2,-2 l -14,0 z m 0,2 14,0 0,9 -14,0 0,-9 z"
         id="rect3436"
         inkscape:connector-curvature="0" />
    </g>
  </g>
</svg>
