<?xml version="1.0" encoding="UTF-8" standalone="no"?>
<!-- Created with Inkscape (http://www.inkscape.org/) -->

<svg
   xmlns:dc="http://purl.org/dc/elements/1.1/"
   xmlns:cc="http://creativecommons.org/ns#"
   xmlns:rdf="http://www.w3.org/1999/02/22-rdf-syntax-ns#"
   xmlns:svg="http://www.w3.org/2000/svg"
   xmlns="http://www.w3.org/2000/svg"
   xmlns:xlink="http://www.w3.org/1999/xlink"
   xmlns:sodipodi="http://sodipodi.sourceforge.net/DTD/sodipodi-0.dtd"
   xmlns:inkscape="http://www.inkscape.org/namespaces/inkscape"
   width="96"
   height="96"
   id="svg3483"
   version="1.1"
   inkscape:version="0.48.3.1 r9886"
   sodipodi:docname="provider-openstack.svg">
  <defs
     id="defs3485">
    <clipPath
       clipPathUnits="userSpaceOnUse"
       id="clipPath4391">
      <rect
         style="opacity:0.8;color:#000000;fill:#ff00ff;stroke:none;stroke-width:4;marker:none;visibility:visible;display:inline;overflow:visible;enable-background:accumulate"
         id="rect4393"
         width="1019.1371"
         height="1019.1371"
         x="357.98169"
         y="-1725.8152"
         transform="scale(1,-1)" />
    </clipPath>
    <clipPath
       id="clipPath3095"
       clipPathUnits="userSpaceOnUse">
      <path
         inkscape:connector-curvature="0"
         id="path3097"
         d="m 976.648,389.551 -842.402,0 0,839.999 842.402,0 0,-839.999" />
    </clipPath>
    <linearGradient
       inkscape:collect="always"
       xlink:href="#linearGradient4439"
       id="linearGradient4705"
       gradientUnits="userSpaceOnUse"
       x1="1155.4192"
       y1="1031.9298"
       x2="1128.7266"
       y2="1005.2372" />
    <linearGradient
       inkscape:collect="always"
       id="linearGradient4439">
      <stop
         style="stop-color:#841f1c;stop-opacity:1;"
         offset="0"
         id="stop4441" />
      <stop
         style="stop-color:#c42e24;stop-opacity:1"
         offset="1"
         id="stop4443" />
    </linearGradient>
    <linearGradient
       inkscape:collect="always"
       xlink:href="#linearGradient4473"
       id="linearGradient4707"
       gradientUnits="userSpaceOnUse"
       x1="741.55432"
       y1="934.54321"
       x2="753.62018"
       y2="946.60907" />
    <linearGradient
       inkscape:collect="always"
       id="linearGradient4473">
      <stop
         style="stop-color:#8d211a;stop-opacity:1"
         offset="0"
         id="stop4475" />
      <stop
         style="stop-color:#c42e24;stop-opacity:1"
         offset="1"
         id="stop4477" />
    </linearGradient>
    <clipPath
       id="clipPath3195"
       clipPathUnits="userSpaceOnUse">
      <path
         inkscape:connector-curvature="0"
         id="path3197"
         d="m 611.836,756.738 -106.34,105.207 c -8.473,8.289 -13.617,20.102 -13.598,33.379 L 598.301,790.207 c -0.031,-13.418 5.094,-25.031 13.535,-33.469" />
    </clipPath>
    <clipPath
       id="clipPath3235"
       clipPathUnits="userSpaceOnUse">
      <path
         inkscape:connector-curvature="0"
         id="path3237"
         d="m 1095.64,1501.81 c 35.46,-35.07 70.89,-70.11 106.35,-105.17 4.4,-4.38 7.11,-10.53 7.11,-17.55 l -106.37,105.21 c 0,7 -2.71,13.11 -7.09,17.51" />
    </clipPath>
    <linearGradient
       inkscape:collect="always"
       xlink:href="#linearGradient4389"
       id="linearGradient4709"
       gradientUnits="userSpaceOnUse"
       x1="1311.6787"
       y1="1607.1796"
       x2="1299.6487"
       y2="1595.1495" />
    <linearGradient
       inkscape:collect="always"
       id="linearGradient4389">
      <stop
         style="stop-color:#912120;stop-opacity:1;"
         offset="0"
         id="stop4391" />
      <stop
         style="stop-color:#c42e24;stop-opacity:1"
         offset="1"
         id="stop4393" />
    </linearGradient>
    <linearGradient
       inkscape:collect="always"
       xlink:href="#linearGradient4355"
       id="linearGradient4711"
       gradientUnits="userSpaceOnUse"
       gradientTransform="matrix(8,0,0,-8,-6602.8469,6874.4287)"
       x1="896.65497"
       y1="672.85754"
       x2="903.20746"
       y2="666.30505" />
    <linearGradient
       inkscape:collect="always"
       id="linearGradient4355">
      <stop
         style="stop-color:#841f1c;stop-opacity:1;"
         offset="0"
         id="stop4357" />
      <stop
         style="stop-color:#c42e24;stop-opacity:1"
         offset="1"
         id="stop4359" />
    </linearGradient>
    <clipPath
       clipPathUnits="userSpaceOnUse"
       id="clipPath4591">
      <path
         id="path4593"
         style="fill:#ff00ff;fill-opacity:1;fill-rule:nonzero;stroke:none"
         d="m 1106.6009,730.43734 -0.036,21.648 c -0.01,3.50825 -2.8675,6.61375 -6.4037,6.92525 l -83.6503,7.33162 c -3.5205,0.30763 -6.3812,-2.29987 -6.3671,-5.8145 l 0.036,-21.6475 20.1171,-1.76662 -0.011,4.63775 c 0,1.83937 1.4844,3.19925 3.3262,3.0395 l 49.5274,-4.33975 c 1.8425,-0.166 3.3425,-1.78125 3.3538,-3.626 l 0.01,-4.63025 20.1,-1.7575"
         inkscape:connector-curvature="0" />
    </clipPath>
    <filter
       color-interpolation-filters="sRGB"
       inkscape:collect="always"
       id="filter4595"
       x="-0.028222449"
       width="1.0564449"
       y="-0.16041371"
       height="1.3208274">
      <feGaussianBlur
         inkscape:collect="always"
         stdDeviation="0.66106737"
         id="feGaussianBlur4597" />
    </filter>
  </defs>
  <sodipodi:namedview
     id="base"
     pagecolor="#ffffff"
     bordercolor="#666666"
     borderopacity="1.0"
     inkscape:pageopacity="0.0"
     inkscape:pageshadow="2"
     inkscape:zoom="1.0681152"
     inkscape:cx="139.40444"
     inkscape:cy="54.441695"
     inkscape:document-units="px"
     inkscape:current-layer="layer1"
     showgrid="false"
     fit-margin-top="0"
     fit-margin-left="0"
     fit-margin-right="0"
     fit-margin-bottom="0"
     inkscape:window-width="1920"
     inkscape:window-height="1029"
     inkscape:window-x="0"
     inkscape:window-y="24"
     inkscape:window-maximized="1" />
  <metadata
     id="metadata3488">
    <rdf:RDF>
      <cc:Work
         rdf:about="">
        <dc:format>image/svg+xml</dc:format>
        <dc:type
           rdf:resource="http://purl.org/dc/dcmitype/StillImage" />
        <dc:title></dc:title>
      </cc:Work>
    </rdf:RDF>
  </metadata>
  <g
     inkscape:label="Layer 1"
     inkscape:groupmode="layer"
     id="layer1"
     transform="translate(569.71429,-511.79077)">
    <g
       style="fill:#1796d3;fill-opacity:1"
       transform="matrix(0.27348853,0,0,0.27348853,-569.8454,511.63434)"
       id="g3048">
      <g
         style="fill:#1796d3;fill-opacity:1"
         id="g3050">
        <path
           style="fill:#1796d3;fill-opacity:1"
           inkscape:connector-curvature="0"
           d="m 175.5,1.15 c 5.21,-0.03 10.4,-1.21 15.57,-0.11 22.89,2.03 45.459,8.32 65.82,19.04 26.34,13.49 49,34 65.439,58.58 16.77,25 26.7,54.44 28.939,84.44 -0.369,7.94 -0.6,15.93 0.171,23.85 -1.641,22.81 -7.351,45.43 -17.53,65.97 -11.61,23.87 -28.801,44.99 -49.73,61.311 -26.08,20.449 -58.08,33.24 -91.1,36.27 -5.03,0.359 -10.051,1.29 -15.109,0.9 -3.351,-0.221 -6.781,0.85 -10,-0.521 12.33,-34.69 24.65,-69.39 37.09,-104.05 13.539,-0.25 27.09,0.09 40.629,-0.16 8.641,-0.3 17.181,-5.561 20.021,-13.96 11.45,-32.24 23.19,-64.39 34.28,-96.77 1.82,-4.89 2.83,-10.34 1.38,-15.46 -1.96,-6.49 -7.899,-11.08 -14.28,-12.8 -5.54,-1.72 -11.39,-1.09 -17.09,-1.19 -17.38,-0.05 -34.76,0.09 -52.13,-0.08 -0.28,0.58 -0.851,1.73 -1.13,2.3 -28.141,79.04 -56.23,158.101 -84.48,237.101 C 103.24,338.28 76.2,323.201 54.64,302.36 28.67,277.51 10.64,244.461 3.97,209.131 1.88,198.521 1.12,187.721 0.54,176.951 1.01,154.521 4.69,131.991 13.14,111.131 33.75,58.44 81.44,16.95 136.88,5.09 108.5,83.78 80.78,162.71 52.41,241.41 c 1.81,0.55 3.71,0.34 5.57,0.359 10.34,-0.05 20.69,0.021 31.03,-0.02 1.41,-0.01 1.26,-1.97 1.85,-2.87 12.46,-35.18 25.07,-70.31 37.57,-105.47 0.75,-2.18 1.45,-4.38 2.45,-6.45 6.48,0.11 12.96,-0.03 19.44,0.07 -13.59,38.11 -27.06,76.28 -40.85,114.319 1.44,0.58 3.01,0.4 4.52,0.431 10.86,-0.101 21.72,0.069 32.58,-0.08 12.27,-34.63 24.69,-69.2 36.991,-103.81 2.629,-7.08 2.859,-15.45 -1.32,-21.98 -3.65,-5.78 -10.58,-8.54 -17.19,-8.81 -9.04,-0.27 -18.09,0.02 -27.14,-0.14 C 150.35,71.66 163.16,36.49 175.5,1.15 z"
           id="path3052" />
      </g>
      <path
         style="fill:#1796d3;fill-opacity:1"
         inkscape:connector-curvature="0"
         d="m 247.55,127.41 c 1.08,-1.22 3,-0.48 4.44,-0.69 5.02,0.09 10.039,-0.04 15.06,0.07 -11.69,33.37 -23.93,66.55 -35.43,99.99 -6.5,0.46 -13.05,0.18 -19.56,0.14 11.87,-33.15 23.62,-66.35 35.49,-99.51 z"
         id="path3054" />
    </g>
  </g>
</svg>
