<?xml version="1.0" encoding="UTF-8" standalone="no"?>
<svg width="191px" height="190px" viewBox="0 0 191 190" version="1.1" xmlns="http://www.w3.org/2000/svg" xmlns:xlink="http://www.w3.org/1999/xlink">
    <!-- Generator: Sketch 3.8.3 (29802) - http://www.bohemiancoding.com/sketch -->
    <title>g19989</title>
    <desc>Created with Sketch.</desc>
    <defs>
        <linearGradient x1="48.936989%" y1="90.9118472%" x2="48.936989%" y2="1.37312778%" id="linearGradient-1">
            <stop stop-color="#FDE20A" offset="0%"></stop>
            <stop stop-color="#FAAC16" offset="47.8598%"></stop>
            <stop stop-color="#F8921A" offset="100%"></stop>
        </linearGradient>
        <linearGradient x1="30.6452457%" y1="55.8800768%" x2="95.7437135%" y2="86.015463%" id="linearGradient-2">
            <stop stop-color="#00A6AE" offset="0%"></stop>
            <stop stop-color="#30BED6" offset="100%"></stop>
        </linearGradient>
        <path d="M4.29314963,0.218742466 C2.24623198,0.218742466 0.589551551,1.8789028 0.589551551,3.92638377 C0.589551551,5.97386473 2.24623198,7.63402352 4.29314963,7.63402352 C6.34006573,7.63402352 7.99976931,5.97386473 7.99976931,3.92638377 C7.99976931,1.8789028 6.34006573,0.218742466 4.29314963,0.218742466 L4.29314963,0.218742466 Z M4.16918961,12.218674 C2.23649846,12.218674 0.671181265,13.784422 0.671181265,15.7176466 C0.671181265,17.6508711 2.23649846,19.2196431 4.16918961,19.2196431 C6.10188231,19.2196431 7.67022265,17.6508711 7.67022265,15.7176466 C7.67022265,13.784422 6.10188231,12.218674 4.16918961,12.218674 L4.16918961,12.218674 Z M10.2914631,23.7196174 C8.67860055,23.7196174 7.37091215,25.0276657 7.37091215,26.6409706 C7.37091215,28.254277 8.67860055,29.5623253 10.2914631,29.5623253 C11.9043241,29.5623253 13.2120125,28.254277 13.2120125,26.6409706 C13.2120125,25.0276657 11.9043241,23.7196174 10.2914631,23.7196174 L10.2914631,23.7196174 Z M20.1415183,29.9161545 C18.7333477,29.9161545 17.589815,31.0569779 17.589815,32.4655345 C17.589815,33.8740927 18.7333477,35.0179416 20.1415183,35.0179416 C21.5496874,35.0179416 22.6901969,33.8740927 22.6901969,32.4655345 C22.6901969,31.0569779 21.5496874,29.9161545 20.1415183,29.9161545 L20.1415183,29.9161545 Z M30.0943669,32.5653321 C28.9493729,32.5653321 28.0203523,33.4946084 28.0203523,34.6399205 C28.0203523,35.785225 28.9493729,36.7114803 30.0943669,36.7114803 C31.2393624,36.7114803 32.1683814,35.785225 32.1683814,34.6399205 C32.1683814,33.4946084 31.2393624,32.5653321 30.0943669,32.5653321 L30.0943669,32.5653321 Z M39.3609168,35.9403105 C38.2890264,35.9403105 37.4199302,36.8096475 37.4199302,37.8818375 C37.4199302,38.9540275 38.2890264,39.823349 39.3609168,39.823349 C40.4328072,39.823349 41.301905,38.9540275 41.301905,37.8818375 C41.301905,36.8096475 40.4328072,35.9403105 39.3609168,35.9403105 L39.3609168,35.9403105 Z M46.3085631,43.8182888 C45.4194333,43.8182888 44.7001432,44.5408086 44.7001432,45.4301816 C44.7001432,46.3195546 45.4194333,47.0390395 46.3085631,47.0390395 C47.197693,47.0390395 47.9200046,46.3195546 47.9200046,45.4301816 C47.9200046,44.5408086 47.197693,43.8182888 46.3085631,43.8182888 L46.3085631,43.8182888 Z" id="path-3"></path>
        <linearGradient x1="25.0529416%" y1="56.6777936%" x2="97.912251%" y2="93.4057411%" id="linearGradient-5">
            <stop stop-color="#00A6AE" offset="0%"></stop>
            <stop stop-color="#30BED6" offset="100%"></stop>
        </linearGradient>
        <linearGradient x1="57.9047498%" y1="66.8742154%" x2="3.93475228%" y2="-18.8281087%" id="linearGradient-6">
            <stop stop-color="#FFFFFF" offset="0%"></stop>
            <stop stop-color="#FFFFFF" stop-opacity="0" offset="100%"></stop>
        </linearGradient>
        <path d="M4.61664688,0.214713614 C2.56972924,0.214713614 0.910027204,1.8748693 0.910027204,3.92235182 C0.910027204,5.96983433 2.56972924,7.62999002 4.61664688,7.62999002 C6.66356453,7.62999002 8.32326656,5.96983433 8.32326656,3.92235182 C8.32326656,1.8748693 6.66356453,0.214713614 4.61664688,0.214713614 L4.61664688,0.214713614 Z M11.648946,12.795287 C9.41926785,12.795287 7.60975809,14.6022754 7.60975809,16.8325595 C7.60975809,19.062859 9.41926785,20.8698474 11.648946,20.8698474 C13.8786227,20.8698474 15.6851093,19.062859 15.6851093,16.8325595 C15.6851093,14.6022754 13.8786227,12.795287 11.648946,12.795287 L11.648946,12.795287 Z M22.8171786,20.2408187 C20.8616412,20.2408187 19.276843,21.8260484 19.276843,23.7821301 C19.276843,25.7381964 20.8616412,27.3264609 22.8171786,27.3264609 C24.772716,27.3264609 26.3575157,25.7381964 26.3575157,23.7821301 C26.3575157,21.8260484 24.772716,20.2408187 22.8171786,20.2408187 L22.8171786,20.2408187 Z M33.489585,24.958526 C31.7624975,24.958526 30.3604227,26.3579658 30.3604227,28.0855224 C30.3604227,29.8130944 31.7624975,31.2155535 33.489585,31.2155535 C35.2166709,31.2155535 36.6157226,29.8130944 36.6157226,28.0855224 C36.6157226,26.3579658 35.2166709,24.958526 33.489585,24.958526 L33.489585,24.958526 Z M44.2103633,26.0169819 C42.4832759,26.0169819 41.0842258,27.4194565 41.0842258,29.1470131 C41.0842258,30.8745697 42.4832759,32.2740094 44.2103633,32.2740094 C45.9374493,32.2740094 47.3365009,30.8745697 47.3365009,29.1470131 C47.3365009,27.4194565 45.9374493,26.0169819 44.2103633,26.0169819 L44.2103633,26.0169819 Z M53.8729708,29.1288661 C52.3651972,29.1288661 51.1428908,30.351512 51.1428908,31.8596944 C51.1428908,33.3678922 52.3651972,34.5905227 53.8729708,34.5905227 C55.380746,34.5905227 56.6030509,33.3678922 56.6030509,31.8596944 C56.6030509,30.351512 55.380746,29.1288661 53.8729708,29.1288661 L53.8729708,29.1288661 Z M60.8901542,33.8284418 C59.492036,33.8284418 58.3565913,34.9641928 58.3565913,36.3627035 C58.3565913,37.7611988 59.492036,38.8939304 60.8901542,38.8939304 C62.2882709,38.8939304 63.4206924,37.7611988 63.4206924,36.3627035 C63.4206924,34.9641928 62.2882709,33.8284418 60.8901542,33.8284418 L60.8901542,33.8284418 Z" id="path-7"></path>
        <linearGradient x1="21.4863232%" y1="63.2618664%" x2="95.329065%" y2="6.72443961%" id="linearGradient-9">
            <stop stop-color="#00A6AE" offset="0%"></stop>
            <stop stop-color="#30BED6" offset="100%"></stop>
        </linearGradient>
        <linearGradient x1="46.1715259%" y1="42.3151066%" x2="52.9150778%" y2="64.1332909%" id="linearGradient-10">
            <stop stop-color="#E4FFFF" offset="0%"></stop>
            <stop stop-color="#FFFFFF" offset="27.682471%"></stop>
            <stop stop-color="#3AD3FF" stop-opacity="0.66975307" offset="100%"></stop>
        </linearGradient>
        <linearGradient x1="47.0588227%" y1="40.3783321%" x2="39.7141643%" y2="16.4490767%" id="linearGradient-11">
            <stop stop-color="#E4FFFF" offset="0%"></stop>
            <stop stop-color="#FFFFFF" offset="27.682471%"></stop>
            <stop stop-color="#3AD3FF" stop-opacity="0.66975307" offset="100%"></stop>
        </linearGradient>
        <path d="M96.9586524,0.105061718 C94.795869,0.105061718 93.0434168,1.85798725 93.0434168,4.02137006 C93.0434168,6.18475287 94.795869,7.94070176 96.9586524,7.94070176 C99.1214359,7.94070176 100.873888,6.18475287 100.873888,4.02137006 C100.873888,1.85798725 99.1214359,0.105061718 96.9586524,0.105061718 L96.9586524,0.105061718 Z M82.331711,3.28347104 C79.7668469,3.28347104 77.6878542,5.3630392 77.6878542,7.92860583 C77.6878542,10.4941726 79.7668469,12.5737406 82.331711,12.5737406 C84.896575,12.5737406 86.9755677,10.4941726 86.9755677,7.92860583 C86.9755677,5.3630392 84.896575,3.28347104 82.331711,3.28347104 L82.331711,3.28347104 Z M66.3805459,6.8580475 C63.4136121,6.8580475 61.0080633,9.2642586 61.0080633,12.2320089 C61.0080633,15.1997592 63.4136121,17.60597 66.3805459,17.60597 C69.3474874,17.60597 71.7530362,15.1997592 71.7530362,12.2320089 C71.7530362,9.2642586 69.3474874,6.8580475 66.3805459,6.8580475 L66.3805459,6.8580475 Z M47.9562871,14.3307876 C44.3565442,14.3307876 41.4409792,17.250179 41.4409792,20.8509109 C41.4409792,24.4516445 44.3565442,27.3710358 47.9562871,27.3710358 C51.5560284,27.3710358 54.4746165,24.4516445 54.4746165,20.8509109 C54.4746165,17.250179 51.5560284,14.3307876 47.9562871,14.3307876 L47.9562871,14.3307876 Z M113.106333,15.5313847 C111.418725,15.5313847 110.05275,16.8977278 110.05275,18.5858023 C110.05275,20.2738784 111.418725,21.6432455 113.106333,21.6432455 C114.793942,21.6432455 116.162935,20.2738784 116.162935,18.5858023 C116.162935,16.8977278 114.793942,15.5313847 113.106333,15.5313847 L113.106333,15.5313847 Z M101.723435,20.2974865 C99.1585867,20.2974865 97.0795785,22.3770545 97.0795785,24.9426213 C97.0795785,27.5081881 99.1585867,29.5877561 101.723435,29.5877561 C104.288299,29.5877561 106.367292,27.5081881 106.367292,24.9426213 C106.367292,22.3770545 104.288299,20.2974865 101.723435,20.2974865 L101.723435,20.2974865 Z M31.2916073,24.0686345 C27.7241346,24.0686345 24.8337517,26.9598082 24.8337517,30.5282751 C24.8337517,34.096742 27.7241346,36.9909396 31.2916073,36.9909396 C34.8590955,36.9909396 37.7525,34.096742 37.7525,30.5282751 C37.7525,26.9598082 34.8590955,24.0686345 31.2916073,24.0686345 L31.2916073,24.0686345 Z M85.509239,27.44664 C82.0305878,27.44664 79.2085934,30.2663777 79.2085934,33.7459987 C79.2085934,37.2256196 82.0305878,40.0483828 85.509239,40.0483828 C88.9879057,40.0483828 91.8068661,37.2256196 91.8068661,33.7459987 C91.8068661,30.2663777 88.9879057,27.44664 85.509239,27.44664 L85.509239,27.44664 Z M108.308285,35.9687684 C106.803428,35.9687684 105.584245,37.1913106 105.584245,38.6965758 C105.584245,40.2018395 106.803428,41.4213577 108.308285,41.4213577 C109.813142,41.4213577 111.032325,40.2018395 111.032325,38.6965758 C111.032325,37.1913106 109.813142,35.9687684 108.308285,35.9687684 L108.308285,35.9687684 Z M65.458426,36.0806697 C61.1891412,36.0806697 57.7277357,39.5430278 57.7277357,43.8134876 C57.7277357,48.0839473 61.1891412,51.5463069 65.458426,51.5463069 C69.7277109,51.5463069 73.1891179,48.0839473 73.1891179,43.8134876 C73.1891179,39.5430278 69.7277109,36.0806697 65.458426,36.0806697 L65.458426,36.0806697 Z M15.6518561,36.1018361 C12.6984406,36.1018361 10.3035572,38.4943576 10.3035572,41.4485813 C10.3035572,44.4028034 12.6984406,46.798349 15.6518561,46.798349 C18.6052562,46.798349 20.9971211,44.4028034 20.9971211,41.4485813 C20.9971211,38.4943576 18.6052562,36.1018361 15.6518561,36.1018361 L15.6518561,36.1018361 Z M98.6638147,44.2126781 C95.6877372,44.2126781 93.2731948,46.6248687 93.2731948,49.6017591 C93.2731948,52.578651 95.6877372,54.9938656 98.6638147,54.9938656 C101.639892,54.9938656 104.051416,52.578651 104.051416,49.6017591 C104.051416,46.6248687 101.639892,44.2126781 98.6638147,44.2126781 L98.6638147,44.2126781 Z M3.90616466,47.6420944 C1.88848628,47.6420944 0.253957048,49.2770672 0.253957048,51.2952978 C0.253957048,53.3135299 1.88848628,54.9485043 3.90616466,54.9485043 C5.92384303,54.9485043 7.56139077,53.3135299 7.56139077,51.2952978 C7.56139077,49.2770672 5.92384303,47.6420944 3.90616466,47.6420944 L3.90616466,47.6420944 Z M44.7364256,48.6521681 C40.9642486,48.6521681 37.90669,51.7105682 37.90669,55.4837833 C37.90669,59.2569969 40.9642486,62.315397 44.7364256,62.315397 C48.5086011,62.315397 51.5661597,59.2569969 51.5661597,55.4837833 C51.5661597,51.7105682 48.5086011,48.6521681 44.7364256,48.6521681 L44.7364256,48.6521681 Z M86.8334657,55.3839857 C83.2634234,55.3839857 80.3665391,58.2786479 80.3665391,61.8496742 C80.3665391,65.420699 83.2634234,68.3153627 86.8334657,68.3153627 C90.403508,68.3153627 93.2973738,65.420699 93.2973738,61.8496742 C93.2973738,58.2786479 90.403508,55.3839857 86.8334657,55.3839857 L86.8334657,55.3839857 Z M27.1556801,60.2740786 C24.412817,60.2740786 22.1883168,62.4961516 22.1883168,65.2397756 C22.1883168,67.9833997 24.412817,70.2084967 27.1556801,70.2084967 C29.8985432,70.2084967 32.123028,67.9833997 32.123028,65.2397756 C32.123028,62.4961516 29.8985432,60.2740786 27.1556801,60.2740786 L27.1556801,60.2740786 Z M70.3713649,66.7276696 C66.7453936,66.7276696 63.8046573,69.6661912 63.8046573,73.2931573 C63.8046573,76.9201235 66.7453936,79.8616675 70.3713649,79.8616675 C73.9973347,79.8616675 76.9350385,76.9201235 76.9350385,73.2931573 C76.9350385,69.6661912 73.9973347,66.7276696 70.3713649,66.7276696 L70.3713649,66.7276696 Z M14.0192464,70.0421668 C12.3524733,70.0421668 11.0019469,71.3960858 11.0019469,73.0633191 C11.0019469,74.730554 12.3524733,76.0814475 14.0192464,76.0814475 C15.6860195,76.0814475 17.0365459,74.730554 17.0365459,73.0633191 C17.0365459,71.3960858 15.6860195,70.0421668 14.0192464,70.0421668 L14.0192464,70.0421668 Z M53.3196986,75.6762075 C50.1615989,75.6762075 47.6025552,78.2389794 47.6025552,81.3979498 C47.6025552,84.5569201 50.1615989,87.1166666 53.3196986,87.1166666 C56.4777999,87.1166666 59.0398668,84.5569201 59.0398668,81.3979498 C59.0398668,78.2389794 56.4777999,75.6762075 53.3196986,75.6762075 L53.3196986,75.6762075 Z M36.3103627,82.1025827 C33.8014262,82.1025827 31.7693054,84.1382929 31.7693054,86.6479198 C31.7693054,89.1575453 33.8014262,91.193257 36.3103627,91.193257 C38.8193007,91.193257 40.8544508,89.1575453 40.8544508,86.6479198 C40.8544508,84.1382929 38.8193007,82.1025827 36.3103627,82.1025827 L36.3103627,82.1025827 Z M23.0741634,84.6065999 C21.465872,84.6065999 20.1626819,85.913171 20.1626819,87.5219066 C20.1626819,89.1306406 21.465872,90.4341878 23.0741634,90.4341878 C24.6824549,90.4341878 25.9856449,89.1306406 25.9856449,87.5219066 C25.9856449,85.913171 24.6824549,84.6065999 23.0741634,84.6065999 L23.0741634,84.6065999 Z" id="path-12"></path>
        <path d="M4.35966204,0.202619231 C2.31274439,0.202619231 0.653042361,1.86277957 0.653042361,3.91026053 C0.653042361,5.95774149 2.31274439,7.61790028 4.35966204,7.61790028 C6.40657969,7.61790028 8.06628327,5.95774149 8.06628327,3.91026053 C8.06628327,1.86277957 6.40657969,0.202619231 4.35966204,0.202619231 L4.35966204,0.202619231 Z M52.1708286,10.2670779 C51.2350945,10.2670779 50.4747327,11.0246267 50.4747327,11.9606167 C50.4747327,12.8966082 51.2350945,13.6541554 52.1708286,13.6541554 C53.1065626,13.6541554 53.8639014,12.8966082 53.8639014,11.9606167 C53.8639014,11.0246267 53.1065626,10.2670779 52.1708286,10.2670779 L52.1708286,10.2670779 Z M11.1893977,11.0080017 C9.25944642,11.0080017 7.69441095,12.5734679 7.69441095,14.5039503 C7.69441095,16.4344311 9.25944642,17.9968733 11.1893977,17.9968733 C13.1193474,17.9968733 14.6843829,16.4344311 14.6843829,14.5039503 C14.6843829,12.5734679 13.1193474,11.0080017 11.1893977,11.0080017 L11.1893977,11.0080017 Z M46.662295,11.3769508 C45.5218705,11.3769508 44.5973514,12.3017244 44.5973514,13.4424642 C44.5973514,14.5832025 45.5218705,15.507976 46.662295,15.507976 C47.8027209,15.507976 48.7272401,14.5832025 48.7272401,13.4424642 C48.7272401,12.3017244 47.8027209,11.3769508 46.662295,11.3769508 L46.662295,11.3769508 Z M39.9383773,14.449514 C38.7979529,14.449514 37.8734338,15.3742875 37.8734338,16.5150273 C37.8734338,17.6557656 38.7979529,18.5805392 39.9383773,18.5805392 C41.0788033,18.5805392 42.0033224,17.6557656 42.0033224,16.5150273 C42.0033224,15.3742875 41.0788033,14.449514 39.9383773,14.449514 L39.9383773,14.449514 Z M30.569034,17.7337698 C29.0777074,17.7337698 27.8661639,18.9426228 27.8661639,20.4343598 C27.8661639,21.9260953 29.0777074,23.1349483 30.569034,23.1349483 C32.0603591,23.1349483 33.268881,21.9260953 33.268881,20.4343598 C33.268881,18.9426228 32.0603591,17.7337698 30.569034,17.7337698 L30.569034,17.7337698 Z M20.5073443,18.3688464 C18.577393,18.3688464 17.0123576,19.9343126 17.0123576,21.864795 C17.0123576,23.7952759 18.577393,25.360742 20.5073443,25.360742 C22.4372956,25.360742 24.0023295,23.7952759 24.0023295,21.864795 C24.0023295,19.9343126 22.4372956,18.3688464 20.5073443,18.3688464 L20.5073443,18.3688464 Z" id="path-14"></path>
    </defs>
    <g id="Page-1" stroke="none" stroke-width="1" fill="none" fill-rule="evenodd">
        <g id="v20" transform="translate(-1130.000000, -480.000000)">
            <g id="CONTENT" transform="translate(12.000000, 58.000000)">
                <g transform="translate(-7.000000, 41.000000)" id="FEATURED">
                    <g transform="translate(16.000000, 336.000000)">
                        <g id="squid" transform="translate(952.000000, 0.000000)">
                            <g id="Group">
                                <g id="Content" transform="translate(77.000000, 45.000000)">
                                    <g id="g19989">
                                        <path d="M245.533615,0.301927149 L245.406683,0.317048611 C215.049992,0.165454358 142.440473,7.93812624 103.502941,78.7913987 C94.7814186,82.3542759 88.5041301,90.6820504 88.5041301,100.638048 C88.5041301,101.790734 88.767186,102.828479 88.9273991,103.916255 C86.5391641,107.377245 75.5301493,124.868191 83.3311879,146.514802 C85.8620589,153.537604 91.6329069,158.387084 98.4872132,161.103435 C105.34152,163.81977 113.407366,164.685221 121.869758,164.224377 C129.744406,163.795538 133.42679,166.340964 135.704582,168.812052 C137.982373,171.283139 138.501174,173.541867 138.501174,173.541867 L142.304542,189.624439 L147.528881,173.947109 C148.313164,171.593605 148.510082,168.986647 148.021686,165.074174 C147.870869,163.865959 147.401952,162.491277 147.033052,161.160895 C152.84776,161.814048 158.16021,162.1177 162.116517,162.857453 C164.094916,163.227376 167.699868,164.810578 170.497227,166.341304 C173.294585,167.872031 175.361787,169.256606 175.361787,169.256606 L186.430259,176.665844 L182.457579,163.952203 C179.504659,154.500236 172.729542,148.704968 166.83898,145.420051 C166.431983,145.193086 166.155394,145.156902 165.756623,144.951304 C170.524655,141.501756 174.430731,137.289955 178.191639,133.792092 C179.644578,132.440775 184.108331,131.369727 184.108331,131.369727 L191.201094,130.408041 L187.494476,124.281058 C182.756937,116.455712 172.387035,115.502281 165.82616,120.540153 C161.587484,123.794888 158.341724,126.510772 155.323062,126.739714 C147.81971,127.308782 139.884276,121.071431 140.309134,111.945443 C140.447645,108.970294 142.224221,105.671902 143.958311,104.082584 C144.284844,104.157325 144.491635,104.200695 144.886477,104.291253 C146.723364,104.712573 149.228649,105.272315 152.100178,105.709593 C157.843234,106.584144 165.106802,107.080568 172.072389,104.690444 C188.755717,98.9658447 208.84179,90.7730842 222.392936,76.8408044 C228.055299,71.0191731 230.888113,64.1422973 233.110679,59.0435279 C234.221969,56.4941432 235.206157,54.3759943 236.010071,53.1645292 C236.304832,52.7203366 236.249338,52.8915129 236.418219,52.7078784 C236.421315,52.7115945 236.421315,52.7102009 236.424411,52.713917 C237.084148,53.3805078 237.991341,54.3214883 239.502174,55.0939432 C241.013006,55.8663997 243.284162,56.2397122 245.306995,55.6866825 C249.512193,54.5370117 252.248307,51.3392126 253.941674,48.0627343 C255.635025,44.7862559 256.456384,41.2155021 256.438954,37.7986803 C256.428118,35.6266045 255.936582,34.182415 255.73753,33.3440688 C256.115386,33.0561092 256.937828,32.7487081 259.429041,32.5698797 C260.818575,32.4701332 262.40888,32.4391811 264.329873,31.8168585 C266.250882,31.1945405 268.785344,29.2881833 269.575388,26.6394686 C270.412458,23.833064 270.322708,20.9556724 269.415144,18.6344753 C268.507579,16.3132767 267.011035,14.691894 265.684331,13.4570847 C263.440172,11.3683397 262.306854,10.3482148 261.708632,9.58916322 C261.7447,9.55715824 261.865858,9.42888192 261.865858,9.42888192 L270.938902,2.49142142 L259.613464,1.03679266 C259.613464,1.03679266 254.327222,0.366723048 245.860264,0.304942043 L245.533754,0.30191806 L245.533615,0.301927149 Z M245.793609,9.69804286 C249.591185,9.72575264 249.635921,9.8602872 251.776816,10.0095331 C251.810716,10.7112534 251.904058,11.4375141 252.197054,12.2111334 C253.96446,16.8771759 257.598123,18.7651631 259.283781,20.3340713 C260.12661,21.1185246 260.524093,21.6885973 260.66847,22.0578514 C260.738283,22.2362803 260.61584,22.7139101 260.623115,22.974177 C260.148606,23.0484218 259.733089,23.1277297 258.754691,23.1979657 C255.949337,23.3993462 250.943646,23.5122741 247.740654,27.8763674 C246.00653,30.2391013 246.151047,33.2413045 246.470838,34.8289481 C246.790645,36.4165917 247.04533,37.2893614 247.048302,37.8470764 C247.057589,39.558934 246.511936,41.9771416 245.597096,43.7472446 C244.852795,45.1873943 244.020074,45.9265684 243.320523,46.3087205 C243.208451,46.2102592 243.259689,46.2645918 243.099816,46.1030773 C242.611081,45.6092716 241.978851,44.8471227 240.811138,44.0073226 C239.64344,43.167524 237.44849,42.2653537 235.248184,42.7129759 C231.960875,43.3817375 229.683451,45.707349 228.182633,47.9689939 C226.681832,50.2306388 225.627135,52.7022128 224.500194,55.2874998 C222.246329,60.4580752 219.803196,66.0337543 215.662966,70.2904397 C204.124267,82.1536773 185.239791,90.2415352 169.024858,95.8054142 C164.457351,97.372678 158.512513,97.1833516 153.515102,96.4223469 C151.016397,96.0418438 148.767909,95.5423664 146.987702,95.1340482 C146.097598,94.9298883 145.33029,94.7486383 144.638563,94.6048171 C143.946836,94.4609883 143.801251,94.1832309 142.00523,94.362883 L141.071018,94.4566373 L140.24262,94.9042147 C133.91452,98.3223247 131.217633,105.217434 130.924674,111.509966 C130.238969,126.238933 142.910168,137.10369 156.030524,136.108616 C160.498788,135.769734 163.788149,133.825751 166.669673,131.711464 C162.199944,135.987758 157.978455,139.778219 152.96183,141.05617 L153.273234,150.228496 C153.470674,150.264744 157.43174,151.123755 161.726506,153.394809 C154.668703,152.372635 147.627517,152.555102 140.079361,150.645827 L126.837112,147.298065 L127.553645,145.356543 C126.88595,144.949754 126.306612,144.601186 125.775918,144.246671 C115.967893,137.694537 113.146264,129.441366 112.219243,124.244769 L103.034323,123.954448 C101.883702,128.661275 101.025302,133.545293 102.187787,138.282995 C103.640797,144.204785 107.58492,148.299901 111.835278,150.488571 C116.085636,152.677239 120.567957,153.396817 124.364017,154.008712 L126.619431,147.887779 L134.102209,156.763733 C130.61174,155.385692 126.386867,154.569728 121.361836,154.843388 C113.893414,155.250101 107.037493,154.387391 101.945919,152.369608 C96.854345,150.351832 93.6551812,147.461247 92.165401,143.327322 C86.7445542,128.285358 92.7986992,115.573855 95.7571332,110.623879 L100.252846,111.57347 L98.3723258,104.242866 C98.0651439,103.04575 97.894637,101.851751 97.894637,100.638048 C97.894637,93.9540864 102.377649,88.4139332 108.461225,86.7086919 L112.666697,85.5292627 L112.095286,82.7167792 C149.047065,16.212067 217.390186,9.49079057 245.793609,9.69804286 L245.793609,9.69804286 Z" id="path6294" fill="url(#linearGradient-1)"></path>
                                        <path d="M93.5640207,105.356457 C93.5640207,105.356457 79.9461274,123.275743 87.7471257,144.922283 C91.7677924,156.079009 105.683605,160.40075 121.614417,159.533194 C139.781696,158.543842 143.072333,172.463189 143.072333,172.463189 C143.072333,172.463189 145.379246,156.641489 133.894555,151.387285 C126.786822,148.13553 110.073628,150.713871 106.748998,137.164278 C104.494235,127.974905 113.082971,109.49406 113.082971,109.49406 L93.5640207,105.356457 Z" id="path6296" fill="url(#linearGradient-2)"></path>
                                        <g id="g6298" transform="translate(48.686685, 112.226692)">
                                            <path d="M52.0292993,0.245306471 C35.8712365,38.2272049 66.1676049,37.1160329 66.1676049,37.1160329 C66.1676049,37.1160329 44.5158006,36.5604469 59.704381,2.61917628 L52.0292993,0.245306471 Z" id="path6300" stroke="#00F1FF" stroke-width="0.5" fill="#FFFFFF" opacity="0.85"></path>
                                            <path d="M83.0436606,40.8738169 C90.7995315,47.3388164 94.3543048,59.1374587 94.3543048,59.1374587 L94.5158862,51.2178291 L90.9611114,42.8133248 C90.9611114,42.8133248 85.3057901,41.84356 83.0436606,40.8738169 L83.0436606,40.8738169 Z" id="path6302" fill="#FFFFFF" opacity="0.85"></path>
                                            <path d="M50.7317175,7.41225552 C48.6847999,7.41225552 47.0281194,9.07241585 47.0281194,11.1198968 C47.0281194,13.1673778 48.6847999,14.8275366 50.7317175,14.8275366 C52.7786336,14.8275366 54.4383372,13.1673778 54.4383372,11.1198968 C54.4383372,9.07241585 52.7786336,7.41225552 50.7317175,7.41225552 L50.7317175,7.41225552 Z M50.6077575,19.4121871 C48.6750663,19.4121871 47.1097491,20.977935 47.1097491,22.9111596 C47.1097491,24.8443842 48.6750663,26.4131562 50.6077575,26.4131562 C52.5404502,26.4131562 54.1087905,24.8443842 54.1087905,22.9111596 C54.1087905,20.977935 52.5404502,19.4121871 50.6077575,19.4121871 L50.6077575,19.4121871 Z M56.730031,30.9131305 C55.1171684,30.9131305 53.80948,32.2211788 53.80948,33.8344836 C53.80948,35.44779 55.1171684,36.7558383 56.730031,36.7558383 C58.342892,36.7558383 59.6505804,35.44779 59.6505804,33.8344836 C59.6505804,32.2211788 58.342892,30.9131305 56.730031,30.9131305 L56.730031,30.9131305 Z M66.5800862,37.1096675 C65.1719156,37.1096675 64.0283829,38.2504909 64.0283829,39.6590476 C64.0283829,41.0676057 65.1719156,42.2114547 66.5800862,42.2114547 C67.9882553,42.2114547 69.1287648,41.0676057 69.1287648,39.6590476 C69.1287648,38.2504909 67.9882553,37.1096675 66.5800862,37.1096675 L66.5800862,37.1096675 Z M76.5329347,39.7588452 C75.3879408,39.7588452 74.4589202,40.6881214 74.4589202,41.8334336 C74.4589202,42.978738 75.3879408,43.9049934 76.5329347,43.9049934 C77.6779302,43.9049934 78.6069493,42.978738 78.6069493,41.8334336 C78.6069493,40.6881214 77.6779302,39.7588452 76.5329347,39.7588452 L76.5329347,39.7588452 Z M85.7994847,43.1338236 C84.7275943,43.1338236 83.8584981,44.0031606 83.8584981,45.0753506 C83.8584981,46.1475406 84.7275943,47.0168621 85.7994847,47.0168621 C86.8713751,47.0168621 87.7404729,46.1475406 87.7404729,45.0753506 C87.7404729,44.0031606 86.8713751,43.1338236 85.7994847,43.1338236 L85.7994847,43.1338236 Z M92.747131,51.0118019 C91.8580011,51.0118019 91.1387111,51.7343216 91.1387111,52.6236946 C91.1387111,53.5130676 91.8580011,54.2325525 92.747131,54.2325525 C93.6362608,54.2325525 94.3585725,53.5130676 94.3585725,52.6236946 C94.3585725,51.7343216 93.6362608,51.0118019 92.747131,51.0118019 L92.747131,51.0118019 Z" id="path6304" fill="#0070BA"></path>
                                            <g id="g6306-Clipped" transform="translate(0.000000, 7.193513)">
                                                <mask id="mask-4" fill="white">
                                                    <use xlink:href="#path-3"></use>
                                                </mask>
                                                <g id="path5489-5"></g>
                                                <g id="g6306" mask="url(#mask-4)" stroke-width="0.5" stroke="#FFA4D9">
                                                    <g transform="translate(51.082425, -7.193513)" id="path6308">
                                                        <polyline points="3.80581091 0.95241676 0.776174223 23.7819629 16.3283097 38.7322843 26.225124 36.6109566 36.1219382 43.3790093 43.191091 53.2785502"></polyline>
                                                    </g>
                                                </g>
                                            </g>
                                        </g>
                                        <path d="M92.9242598,103.638031 L92.3316836,104.418268 C92.3316836,104.418268 78.202723,123.003468 86.2910429,145.447268 C88.4729621,151.501746 93.3817509,155.69433 99.6451543,158.176025 C105.908558,160.657719 113.56827,161.521931 121.697428,161.079234 C130.382527,160.606266 135.192627,163.612381 138.017439,166.676993 C140.842252,169.74159 141.566845,172.819084 141.566845,172.819084 L142.894094,178.441029 L144.55391,172.906784 C144.778229,172.158856 144.946615,171.013582 145.010434,169.268699 C145.074256,167.523832 144.983113,165.314172 144.49042,162.957246 C143.505019,158.24341 140.786442,152.839344 134.537571,149.980508 C130.425637,148.099315 124.542206,148.033667 119.299916,146.641817 C114.057624,145.249969 109.766386,142.964501 108.252616,136.795101 C107.290938,132.875764 108.711539,126.026872 110.544311,120.358702 C112.377082,114.690533 114.486752,110.146059 114.48675,110.146059 L115.306077,108.382964 L92.9242598,103.638031 Z M94.2847643,107.091641 L110.985719,110.632951 C110.429829,111.870952 109.172756,114.531392 107.59655,119.406087 C105.698648,125.275684 103.951293,132.262964 105.244387,137.532999 C107.055248,144.913191 112.782382,148.11341 118.504776,149.632728 C124.22717,151.152047 130.253836,151.425455 133.249625,152.796017 C138.485444,155.191386 140.604618,159.495537 141.461029,163.592329 C141.702017,164.745143 141.656031,165.680906 141.714989,166.722345 C141.211823,165.977652 140.996201,165.339999 140.294018,164.578213 C136.931697,160.930466 131.013325,157.472147 121.531144,157.988531 C113.729483,158.413391 106.46733,157.548482 100.784955,155.297016 C95.10258,153.045537 91.0412765,149.500127 89.2025228,144.39788 C82.1855794,124.926975 92.8039994,109.166486 94.2847643,107.091641 L94.2847643,107.091641 Z" id="path6310" fill="#000000"></path>
                                        <g id="g6312" transform="translate(106.960919, 104.484806)">
                                            <path d="M71.012829,60.8668889 C65.8422505,44.3164749 46.969632,41.0839875 46.969632,41.0839875 L8.44880897,1.77676406 L0.175870977,14.836065 C0.175870977,14.836065 -1.07727378,32.1249935 16.204669,43.6699805 C31.9757175,54.2056262 45.4023303,51.7704608 56.0181405,53.7553888 C62.086036,54.889963 71.012829,60.8668889 71.012829,60.8668889 L71.012829,60.8668889 Z" id="path6314" fill="url(#linearGradient-5)"></path>
                                            <path d="M6.99457902,15.15932 C6.99457902,15.15932 7.03787525,31.5380652 22.3043455,40.4940554 C37.2114771,49.2392339 56.2766733,43.9285907 71.3036722,61.3840937 C65.6483493,46.3529639 46.9049972,40.5344526 46.9049972,40.5344526 L13.7809658,13.0581861 L6.99457902,15.15932 Z" id="path6316" stroke="#00FFFF" stroke-width="0.5" fill="url(#linearGradient-6)"></path>
                                            <path d="M8.26050367,15.6984962 C6.21358602,15.6984962 4.55388399,17.3586519 4.55388399,19.4061344 C4.55388399,21.453617 6.21358602,23.1137727 8.26050367,23.1137727 C10.3074213,23.1137727 11.9671233,21.453617 11.9671233,19.4061344 C11.9671233,17.3586519 10.3074213,15.6984962 8.26050367,15.6984962 L8.26050367,15.6984962 Z M15.2928028,28.2790696 C13.0631246,28.2790696 11.2536149,30.086058 11.2536149,32.3163421 C11.2536149,34.5466416 13.0631246,36.35363 15.2928028,36.35363 C17.5224794,36.35363 19.328966,34.5466416 19.328966,32.3163421 C19.328966,30.086058 17.5224794,28.2790696 15.2928028,28.2790696 L15.2928028,28.2790696 Z M26.4610354,35.7246014 C24.505498,35.7246014 22.9206998,37.309831 22.9206998,39.2659128 C22.9206998,41.221979 24.505498,42.8102435 26.4610354,42.8102435 C28.4165727,42.8102435 30.0013725,41.221979 30.0013725,39.2659128 C30.0013725,37.309831 28.4165727,35.7246014 26.4610354,35.7246014 L26.4610354,35.7246014 Z M37.1334418,40.4423086 C35.4063543,40.4423086 34.0042795,41.8417484 34.0042795,43.569305 C34.0042795,45.2968771 35.4063543,46.6993362 37.1334418,46.6993362 C38.8605277,46.6993362 40.2595793,45.2968771 40.2595793,43.569305 C40.2595793,41.8417484 38.8605277,40.4423086 37.1334418,40.4423086 L37.1334418,40.4423086 Z M47.8542201,41.5007645 C46.1271326,41.5007645 44.7280826,42.9032391 44.7280826,44.6307957 C44.7280826,46.3583523 46.1271326,47.7577921 47.8542201,47.7577921 C49.5813061,47.7577921 50.9803577,46.3583523 50.9803577,44.6307957 C50.9803577,42.9032391 49.5813061,41.5007645 47.8542201,41.5007645 L47.8542201,41.5007645 Z M57.5168276,44.6126487 C56.009054,44.6126487 54.7867476,45.8352946 54.7867476,47.343477 C54.7867476,48.8516748 56.009054,50.0743053 57.5168276,50.0743053 C59.0246028,50.0743053 60.2469077,48.8516748 60.2469077,47.343477 C60.2469077,45.8352946 59.0246028,44.6126487 57.5168276,44.6126487 L57.5168276,44.6126487 Z M64.534011,49.3122245 C63.1358928,49.3122245 62.0004481,50.4479754 62.0004481,51.8464861 C62.0004481,53.2449814 63.1358928,54.377713 64.534011,54.377713 C65.9321277,54.377713 67.0645492,53.2449814 67.0645492,51.8464861 C67.0645492,50.4479754 65.9321277,49.3122245 64.534011,49.3122245 L64.534011,49.3122245 Z" id="path6318" fill="#0070BA"></path>
                                            <g id="g6320-Clipped" transform="translate(3.643857, 0.000000)">
                                                <mask id="mask-8" fill="white">
                                                    <use xlink:href="#path-7"></use>
                                                </mask>
                                                <g id="path5335-8"></g>
                                                <g id="g6320" mask="url(#mask-8)" stroke-width="0.5" stroke="#F686C0">
                                                    <g transform="translate(-1.547952, 9.290270)" id="path6322">
                                                        <polyline points="0.880334383 0.0606499766 13.2008579 18.0919484 41.1745054 32.5371873 65.4116005 44.6590691"></polyline>
                                                    </g>
                                                </g>
                                            </g>
                                        </g>
                                        <path d="M105.592073,119.209515 C105.592073,119.209515 104.400883,137.481505 122.30512,149.442205 C138.505205,160.264462 152.534658,157.861115 162.693976,159.760697 C165.380099,160.262944 169.082363,161.978996 172.008899,163.580236 C174.935436,165.181461 177.112305,166.637664 177.112305,166.637664 L180.761487,169.081206 L179.452369,164.8897 C173.979045,147.370252 154.192331,144.04405 154.192331,144.04405 L153.669292,147.095444 C153.669292,147.095444 168.069684,149.704897 174.551532,161.496568 C174.018539,161.187311 174.098432,161.19256 173.493361,160.861501 C170.43953,159.190615 166.644136,157.350692 163.262364,156.718381 C152.190042,154.648091 139.367397,157.117662 124.025402,146.868631 C107.365746,135.739358 108.681929,119.433304 108.681929,119.433304 L105.592073,119.209515 Z" id="path6324" fill="#000000"></path>
                                        <path d="M259.014514,5.69841892 C259.014514,5.69841892 255.710735,8.22372012 256.590808,10.547172 C258.599772,15.8509372 267.471891,17.2555237 265.073788,25.2954624 C263.751233,29.7294835 254.961852,25.9763989 251.526868,30.6565657 C250.05054,32.6680577 251.728551,34.9117662 251.74338,37.8214074 C251.769541,42.9500884 249.014232,49.8032973 244.068308,51.155479 C240.295252,52.187007 238.989353,46.7466561 236.186398,47.316882 C229.579893,48.6608914 228.830761,63.4880982 219.028152,73.5664148 C206.483237,86.4641735 186.998249,94.6048636 170.54912,100.249103 C159.016024,104.20649 144.129073,98.8714106 142.474483,99.0369152 C138.338014,101.27122 135.843086,106.872044 135.616992,111.728365 C135.061711,123.655842 145.364092,132.207363 155.675946,131.425293 C160.779792,131.038206 164.723448,127.309211 168.685865,124.266606 C173.044156,120.920023 180.309114,121.48493 183.475574,126.715214 C183.475574,126.715214 178.118839,127.444189 174.992579,130.351779 C164.71755,139.908145 156.52523,151.88528 135.001372,143.483818 C119.762447,137.535566 116.705489,119.753513 116.705489,119.753513 C111.543331,103.770232 107.128711,81.8642483 107.128711,81.8642483 C155.602913,-7.63565232 259.014514,5.69841892 259.014514,5.69841892 L259.014514,5.69841892 Z" id="path6326" fill="url(#linearGradient-9)"></path>
                                        <g id="g6328" transform="translate(0.700165, 7.037732)">
                                            <path d="M124.757855,78.9176487 C124.757855,78.9176487 146.529132,57.2434405 171.14917,42.3625964 C195.769213,27.4817507 256.042124,9.46936107 256.042124,9.46936107 C256.042124,9.46936107 214.078443,42.4090632 189.137639,56.0123404 C164.19683,69.6156177 124.757855,78.9176487 124.757855,78.9176487 L124.757855,78.9176487 Z" id="path6330" fill="url(#linearGradient-10)"></path>
                                            <path d="M138.769925,49.3705595 C171.590991,28.2203999 217.035538,11.4896757 217.035538,11.4896757 C217.035538,11.4896757 194.331846,12.9446837 177.271561,22.8539407 C160.211268,32.7631977 138.769925,49.3705595 138.769925,49.3705595 L138.769925,49.3705595 Z" id="path6332" fill="#FFFFFF"></path>
                                            <path d="M118.414268,71.7834154 C118.414268,71.7834154 123.110006,65.0759011 153.760032,43.6884262 C184.410058,22.3009513 250.329708,4.54484697 250.329708,4.54484697 C250.329708,4.54484697 181.028057,33.8890576 159.125014,47.7921891 C137.221973,61.6953222 118.414268,71.7834154 118.414268,71.7834154 L118.414268,71.7834154 Z" id="path6334" fill="#029DFF" opacity="0.7"></path>
                                            <path d="M126.020204,88.261599 C126.020204,88.261599 151.719623,83.839937 192.672209,61.4924413 C213.797284,49.9646552 243.923562,20.8336276 250.99272,18.308235 C250.99272,18.308235 240.205365,27.4023313 235.592065,32.7029705 C223.496118,46.6011069 230.917943,52.905473 201.25619,76.3291211 C183.764808,90.1419233 126.020204,88.261599 126.020204,88.261599 L126.020204,88.261599 Z" id="path6336" fill="#E4FFFF"></path>
                                            <path d="M119.519108,66.7326303 C153.918112,37.3749448 207.567922,13.6993942 242.913694,2.65080286 C242.913694,2.65080286 204.686393,-5.6983093 165.279248,16.5404593 C125.872097,38.7792279 119.519108,66.7326303 119.519108,66.7326303 L119.519108,66.7326303 Z" id="path6338" fill="url(#linearGradient-11)"></path>
                                            <path d="M220.794833,0.785321218 C218.63205,0.785321218 216.879598,2.53824675 216.879598,4.70162956 C216.879598,6.86501237 218.63205,8.62096126 220.794833,8.62096126 C222.957617,8.62096126 224.710069,6.86501237 224.710069,4.70162956 C224.710069,2.53824675 222.957617,0.785321218 220.794833,0.785321218 L220.794833,0.785321218 Z M206.167892,3.96373054 C203.603028,3.96373054 201.524035,6.04329871 201.524035,8.60886533 C201.524035,11.1744321 203.603028,13.2540001 206.167892,13.2540001 C208.732756,13.2540001 210.811749,11.1744321 210.811749,8.60886533 C210.811749,6.04329871 208.732756,3.96373054 206.167892,3.96373054 L206.167892,3.96373054 Z M190.216727,7.538307 C187.249793,7.538307 184.844244,9.9445181 184.844244,12.9122684 C184.844244,15.8800187 187.249793,18.2862295 190.216727,18.2862295 C193.183668,18.2862295 195.589217,15.8800187 195.589217,12.9122684 C195.589217,9.9445181 193.183668,7.538307 190.216727,7.538307 L190.216727,7.538307 Z M171.792468,15.0110471 C168.192725,15.0110471 165.27716,17.9304385 165.27716,21.5311704 C165.27716,25.131904 168.192725,28.0512953 171.792468,28.0512953 C175.392209,28.0512953 178.310798,25.131904 178.310798,21.5311704 C178.310798,17.9304385 175.392209,15.0110471 171.792468,15.0110471 L171.792468,15.0110471 Z M236.942514,16.2116442 C235.254906,16.2116442 233.888931,17.5779873 233.888931,19.2660618 C233.888931,20.9541379 235.254906,22.323505 236.942514,22.323505 C238.630123,22.323505 239.999116,20.9541379 239.999116,19.2660618 C239.999116,17.5779873 238.630123,16.2116442 236.942514,16.2116442 L236.942514,16.2116442 Z M225.559616,20.977746 C222.994768,20.977746 220.915759,23.057314 220.915759,25.6228808 C220.915759,28.1884476 222.994768,30.2680156 225.559616,30.2680156 C228.12448,30.2680156 230.203473,28.1884476 230.203473,25.6228808 C230.203473,23.057314 228.12448,20.977746 225.559616,20.977746 L225.559616,20.977746 Z M155.127795,24.748894 C151.560309,24.748894 148.669931,27.6400677 148.669931,31.2085346 C148.669931,34.7770015 151.560309,37.6711991 155.127795,37.6711991 C158.69528,37.6711991 161.588681,34.7770015 161.588681,31.2085346 C161.588681,27.6400677 158.69528,24.748894 155.127795,24.748894 L155.127795,24.748894 Z M209.34542,28.1268995 C205.866769,28.1268995 203.044774,30.9466372 203.044774,34.4262582 C203.044774,37.9058791 205.866769,40.7286423 209.34542,40.7286423 C212.824087,40.7286423 215.643047,37.9058791 215.643047,34.4262582 C215.643047,30.9466372 212.824087,28.1268995 209.34542,28.1268995 L209.34542,28.1268995 Z M232.144466,36.6490279 C230.639609,36.6490279 229.420426,37.8715701 229.420426,39.3768353 C229.420426,40.882099 230.639609,42.1016172 232.144466,42.1016172 C233.649323,42.1016172 234.868506,40.882099 234.868506,39.3768353 C234.868506,37.8715701 233.649323,36.6490279 232.144466,36.6490279 L232.144466,36.6490279 Z M189.294607,36.7609292 C185.025322,36.7609292 181.563917,40.2232873 181.563917,44.4937471 C181.563917,48.7642068 185.025322,52.2265664 189.294607,52.2265664 C193.563892,52.2265664 197.025299,48.7642068 197.025299,44.4937471 C197.025299,40.2232873 193.563892,36.7609292 189.294607,36.7609292 L189.294607,36.7609292 Z M139.488034,36.7820956 C136.534625,36.7820956 134.139738,39.1746171 134.139738,42.1288408 C134.139738,45.0830629 136.534625,47.4786085 139.488034,47.4786085 C142.441443,47.4786085 144.833307,45.0830629 144.833307,42.1288408 C144.833307,39.1746171 142.441443,36.7820956 139.488034,36.7820956 L139.488034,36.7820956 Z M222.499996,44.8929376 C219.523918,44.8929376 217.109376,47.3051282 217.109376,50.2820186 C217.109376,53.2589105 219.523918,55.6741251 222.499996,55.6741251 C225.476073,55.6741251 227.887597,53.2589105 227.887597,50.2820186 C227.887597,47.3051282 225.476073,44.8929376 222.499996,44.8929376 L222.499996,44.8929376 Z M127.742343,48.3223539 C125.724666,48.3223539 124.090141,49.9573267 124.090141,51.9755573 C124.090141,53.9937894 125.724666,55.6287638 127.742343,55.6287638 C129.760018,55.6287638 131.397566,53.9937894 131.397566,51.9755573 C131.397566,49.9573267 129.760018,48.3223539 127.742343,48.3223539 L127.742343,48.3223539 Z M168.572607,49.3324276 C164.80043,49.3324276 161.742871,52.3908277 161.742871,56.1640428 C161.742871,59.9372564 164.80043,62.9956565 168.572607,62.9956565 C172.344782,62.9956565 175.402341,59.9372564 175.402341,56.1640428 C175.402341,52.3908277 172.344782,49.3324276 168.572607,49.3324276 L168.572607,49.3324276 Z M210.669647,56.0642452 C207.099604,56.0642452 204.20272,58.9589074 204.20272,62.5299337 C204.20272,66.1009585 207.099604,68.9956222 210.669647,68.9956222 C214.239689,68.9956222 217.133555,66.1009585 217.133555,62.5299337 C217.133555,58.9589074 214.239689,56.0642452 210.669647,56.0642452 L210.669647,56.0642452 Z M150.99186,60.9543381 C148.24899,60.9543381 146.024504,63.1764111 146.024504,65.9200351 C146.024504,68.6636592 148.24899,70.8887562 150.99186,70.8887562 C153.734729,70.8887562 155.959214,68.6636592 155.959214,65.9200351 C155.959214,63.1764111 153.734729,60.9543381 150.99186,60.9543381 L150.99186,60.9543381 Z M194.207546,67.4079291 C190.581575,67.4079291 187.640838,70.3464507 187.640838,73.9734168 C187.640838,77.600383 190.581575,80.541927 194.207546,80.541927 C197.833516,80.541927 200.77122,77.600383 200.77122,73.9734168 C200.77122,70.3464507 197.833516,67.4079291 194.207546,67.4079291 L194.207546,67.4079291 Z M137.855429,70.7224263 C136.188653,70.7224263 134.838131,72.0763453 134.838131,73.7435786 C134.838131,75.4108135 136.188653,76.761707 137.855429,76.761707 C139.522204,76.761707 140.872725,75.4108135 140.872725,73.7435786 C140.872725,72.0763453 139.522204,70.7224263 137.855429,70.7224263 L137.855429,70.7224263 Z M177.15588,76.356467 C173.99778,76.356467 171.438736,78.9192389 171.438736,82.0782093 C171.438736,85.2371796 173.99778,87.7969261 177.15588,87.7969261 C180.313981,87.7969261 182.876048,85.2371796 182.876048,82.0782093 C182.876048,78.9192389 180.313981,76.356467 177.15588,76.356467 L177.15588,76.356467 Z M160.146545,82.7828422 C157.63761,82.7828422 155.605483,84.8185524 155.605483,87.3281793 C155.605483,89.8378048 157.63761,91.8735165 160.146545,91.8735165 C162.655482,91.8735165 164.690632,89.8378048 164.690632,87.3281793 C164.690632,84.8185524 162.655482,82.7828422 160.146545,82.7828422 L160.146545,82.7828422 Z M146.910344,85.2868594 C145.302051,85.2868594 143.998864,86.5934305 143.998864,88.2021661 C143.998864,89.8109001 145.302051,91.1144473 146.910344,91.1144473 C148.518637,91.1144473 149.821824,89.8109001 149.821824,88.2021661 C149.821824,86.5934305 148.518637,85.2868594 146.910344,85.2868594 L146.910344,85.2868594 Z" id="path6340" fill="#0070BA"></path>
                                            <g id="g6342-Clipped" transform="translate(0.000000, 0.680260)">
                                                <mask id="mask-13" fill="white">
                                                    <use xlink:href="#path-12"></use>
                                                </mask>
                                                <g id="path4746-9"></g>
                                                <g id="g6342" mask="url(#mask-13)" fill="#F08CC0">
                                                    <g transform="translate(121.521358, 1.548378)" id="path6344">
                                                        <path d="M113.313884,0.673606862 C113.313884,0.673606862 75.0785114,3.39062161 45.9054006,19.614023 C16.7322805,35.8374242 0.20754959,64.3143734 0.20754959,64.3143734 L113.313884,0.673606862 Z M134.519621,7.24211839 C134.519621,7.24211839 76.7218903,25.8835615 52.1018473,40.7644071 C27.4818183,55.6452513 3.23693861,76.6893021 3.23693861,76.6893021 C3.23693861,76.6893021 39.0146664,62.778873 63.9554714,49.1755958 C88.8962764,35.5723186 134.519621,7.24211839 134.519621,7.24211839 L134.519621,7.24211839 Z M105.295976,33.5675729 L29.2407255,81.8666919 C29.2407255,81.8666919 58.8365728,83.2960928 79.7336002,70.1873226 C100.630631,57.0785525 105.295976,33.5675729 105.295976,33.5675729 L105.295976,33.5675729 Z"></path>
                                                    </g>
                                                </g>
                                            </g>
                                            <path d="M215.173298,42.9055538 L256.578335,11.1866271" id="path6346" stroke="#00B0C2" stroke-width="0.5" opacity="0.6"></path>
                                            <path d="M135.771563,81.2536359 C202.80228,55.3052317 236.128285,26.9577036 236.128285,26.9577036 C236.128285,26.9577036 208.083119,52.3751581 191.630493,61.3661726 C174.28621,70.8444587 135.771563,81.2536359 135.771563,81.2536359 L135.771563,81.2536359 Z" id="path6348" fill="#00B1FC" opacity="0.6"></path>
                                            <path d="M237.996563,40.8852407 L247.489425,24.1166354" id="path6350" stroke="#00B0C2" stroke-width="0.5" opacity="0.6"></path>
                                            <path d="M155.02238,82.2006581 C193.839603,70.5207191 221.611275,44.9511225 221.611275,44.9511225 C221.611275,44.9511225 208.045996,62.3133744 193.208429,70.8363932 C183.030947,76.581787 155.02238,82.2006581 155.02238,82.2006581 L155.02238,82.2006581 Z" id="path6352" fill="#FFBAE3" opacity="0.4"></path>
                                            <path d="M113.364872,73.6774598 C156.284729,26.3263555 253.801166,1.07243266 253.801166,1.07243266" id="path6356" stroke="#FFFFFF" stroke-width="0.5" opacity="0.7"></path>
                                            <polygon id="path6358" fill="#0236FF" opacity="0.1" points="147.132702 51.8959505 214.983944 18.1188297 177.113483 33.9025316"></polygon>
                                            <path d="M140.732592,52.135864 C174.778138,28.0183675 226.345083,10.5426535 226.345083,10.5426535 C226.345083,10.5426535 189.057274,20.7372782 174.778138,28.0183675 C160.499002,35.2994568 140.732592,52.135864 140.732592,52.135864 L140.732592,52.135864 Z" id="path6360" fill="#FFFFFF"></path>
                                        </g>
                                        <g id="g6362" transform="translate(126.084299, 109.129935)">
                                            <path d="M0.888540078,0.816671986 C8.4626318,32.8891538 43.353951,24.2523107 43.353951,24.2523107 C43.353951,24.2523107 28.0529212,35.9813225 14.5219052,29.6061428 C0.990890682,23.2309648 0.888540078,0.816671986 0.888540078,0.816671986 L0.888540078,0.816671986 Z" id="path6364" stroke="#00ECFF" stroke-width="0.5" fill="#E6FFFF"></path>
                                            <path d="M4.35966204,4.84775402 C2.31274439,4.84775402 0.653042361,6.50791436 0.653042361,8.55539532 C0.653042361,10.6028763 2.31274439,12.2630351 4.35966204,12.2630351 C6.40657969,12.2630351 8.06628327,10.6028763 8.06628327,8.55539532 C8.06628327,6.50791436 6.40657969,4.84775402 4.35966204,4.84775402 L4.35966204,4.84775402 Z M52.1708286,14.9122127 C51.2350945,14.9122127 50.4747327,15.6697614 50.4747327,16.6057515 C50.4747327,17.541743 51.2350945,18.2992902 52.1708286,18.2992902 C53.1065626,18.2992902 53.8639014,17.541743 53.8639014,16.6057515 C53.8639014,15.6697614 53.1065626,14.9122127 52.1708286,14.9122127 L52.1708286,14.9122127 Z M11.1893977,15.6531365 C9.25944642,15.6531365 7.69441095,17.2186027 7.69441095,19.1490851 C7.69441095,21.0795659 9.25944642,22.6420081 11.1893977,22.6420081 C13.1193474,22.6420081 14.6843829,21.0795659 14.6843829,19.1490851 C14.6843829,17.2186027 13.1193474,15.6531365 11.1893977,15.6531365 L11.1893977,15.6531365 Z M46.662295,16.0220856 C45.5218705,16.0220856 44.5973514,16.9468592 44.5973514,18.087599 C44.5973514,19.2283373 45.5218705,20.1531108 46.662295,20.1531108 C47.8027209,20.1531108 48.7272401,19.2283373 48.7272401,18.087599 C48.7272401,16.9468592 47.8027209,16.0220856 46.662295,16.0220856 L46.662295,16.0220856 Z M39.9383773,19.0946487 C38.7979529,19.0946487 37.8734338,20.0194223 37.8734338,21.1601621 C37.8734338,22.3009004 38.7979529,23.2256739 39.9383773,23.2256739 C41.0788033,23.2256739 42.0033224,22.3009004 42.0033224,21.1601621 C42.0033224,20.0194223 41.0788033,19.0946487 39.9383773,19.0946487 L39.9383773,19.0946487 Z M30.569034,22.3789046 C29.0777074,22.3789046 27.8661639,23.5877576 27.8661639,25.0794946 C27.8661639,26.5712301 29.0777074,27.7800831 30.569034,27.7800831 C32.0603591,27.7800831 33.268881,26.5712301 33.268881,25.0794946 C33.268881,23.5877576 32.0603591,22.3789046 30.569034,22.3789046 L30.569034,22.3789046 Z M20.5073443,23.0139812 C18.577393,23.0139812 17.0123576,24.5794474 17.0123576,26.5099298 C17.0123576,28.4404106 18.577393,30.0058768 20.5073443,30.0058768 C22.4372956,30.0058768 24.0023295,28.4404106 24.0023295,26.5099298 C24.0023295,24.5794474 22.4372956,23.0139812 20.5073443,23.0139812 L20.5073443,23.0139812 Z" id="path6366" fill="#0070BA"></path>
                                            <g id="g6368-Clipped" transform="translate(46.438568, 4.645135)">
                                                <mask id="mask-15" fill="white">
                                                    <use xlink:href="#path-14"></use>
                                                </mask>
                                                <g id="path5212-5"></g>
                                                <g id="g6368" mask="url(#mask-15)">
                                                    <g transform="translate(-51.630377, -8.290270)">
                                                        <path d="M0.171307614,0.117701494 C0.171307614,0.117701494 7.972696,25.6143478 21.7325257,31.2316706 C29.2640086,34.3063286 40.9216912,29.9675653 40.9216912,29.9675653 C17.492499,28.3513138 7.28085577,11.6334908 0.171307614,0.117701494 L0.171307614,0.117701494 Z M55.7360788,17.910175 C52.1133148,17.9101734 47.0681576,19.1166837 41.37217,23.7407869 L42.3487096,26.3556029 C47.8017863,21.9286996 52.6532452,20.2666782 55.9380541,20.2666782 C59.222863,20.2666782 60.8787864,20.4958443 60.8787864,20.4958443 L61.6225295,19.1379894 C61.6225295,19.1379894 59.3588413,17.910175 55.7360788,17.910175 L55.7360788,17.910175 Z" id="path6370" stroke="none" fill="#F695C8" fill-rule="evenodd" opacity="0.8"></path>
                                                        <path d="M9.34323591,18.19994 C20.4519048,34.7665129 38.8317017,31.1299483 38.8317017,31.1299483" id="path6372" stroke="#FFA4D9" stroke-width="0.5" fill="none"></path>
                                                    </g>
                                                </g>
                                            </g>
                                            <path d="M35.3435906,21.569335 C47.106661,15.621531 49.5626854,14.0699306 57.4478211,17.3024319 C54.4747373,14.9750304 52.6650356,13.2941296 52.6650356,13.2941296 L45.9432804,13.9406301 L35.3435906,21.569335 Z" id="path6374" fill="#FFFFFF" opacity="0.8"></path>
                                        </g>
                                        <path d="M242.120256,3.4803364 C210.435191,3.94656145 142.475493,13.3504407 105.767426,81.126062 L105.501372,81.6190037 L105.610208,82.1694042 C105.610208,82.1694042 110.009486,104.009447 115.206302,120.131889 C115.265976,120.480604 118.444863,138.684548 134.437795,144.927111 C145.493751,149.24261 153.551934,148.347923 159.930633,145.023884 C166.309333,141.699846 170.996495,136.182909 176.048083,131.484646 C178.623053,129.089779 183.685058,128.248777 183.685058,128.248777 L186.022095,127.931239 L184.800668,125.914114 C181.116355,119.828466 172.82708,119.134201 167.742955,123.038122 C163.689464,126.150657 159.975355,129.546879 155.558879,129.881833 C146.172777,130.593693 136.649523,122.804444 137.161828,111.800282 C137.359705,107.549945 139.672584,102.614854 142.924322,100.635024 C143.053777,100.651561 143.036611,100.650601 143.368755,100.719705 C143.922473,100.834904 144.681977,101.01312 145.590911,101.221719 C147.408783,101.638917 149.828285,102.176125 152.574837,102.594695 C158.067942,103.431834 164.888639,103.828996 171.050494,101.71466 C187.576843,96.0439233 207.26096,87.8839822 220.137523,74.6452582 C225.28965,69.3482098 227.99013,62.9082258 230.223392,57.7854752 C231.340023,55.2240983 232.348219,52.9890933 233.385812,51.4256323 C234.423389,49.8621697 235.381293,49.0602383 236.493806,48.8339134 C236.700458,48.7918749 236.787669,48.8054697 237.168017,49.0788715 C237.548364,49.3522794 238.062145,49.8918273 238.664577,50.5002347 C239.267009,51.1086421 239.96998,51.7973808 240.935098,52.2905471 C241.900215,52.7837117 243.176471,53.0055541 244.475435,52.6504242 C247.519436,51.8182158 249.712854,49.3858467 251.144942,46.6141676 C252.577014,43.8424884 253.306023,40.6590212 253.291503,37.8138142 C253.282215,36.0632982 252.802659,34.6356857 252.593113,33.5950888 C252.383582,32.5544919 252.364403,32.1306977 252.774518,31.5719143 C254.002477,29.898825 256.414419,29.6284658 259.202142,29.4277743 C260.596011,29.3274239 262.013068,29.2563084 263.359245,28.8199135 C264.705422,28.3835201 266.075901,27.3543797 266.557949,25.7382784 C267.235766,23.4658073 267.137069,21.4475194 266.48535,19.7806515 C265.833662,18.1137836 264.705066,16.845301 263.540619,15.7615214 C261.211724,13.5939618 258.79116,11.985463 258.038128,9.997441 C257.891382,9.60981828 258.122027,8.93771837 258.694197,8.2010802 C259.266351,7.46444218 259.954926,6.92790202 259.954926,6.92790202 L262.945013,4.64464888 L259.211182,4.16380496 C259.211182,4.16380496 252.681904,3.32493279 242.120225,3.48034104 L242.120256,3.4803364 Z M242.077997,6.54685124 C249.039262,6.45173126 253.241117,6.73785546 255.879571,6.97326006 C255.165531,8.06607478 254.526676,9.47104705 255.141878,11.0952124 C256.39781,14.4109554 259.420542,16.1589886 261.430435,18.0296478 C262.435381,18.9649782 263.201044,19.8851965 263.60119,20.9086652 C264.001336,21.9321324 264.110327,23.1046914 263.588806,24.8521895 C263.409569,25.4530997 263.184806,25.6181103 262.403648,25.8713383 C261.622504,26.1245647 260.379406,26.2394281 258.981233,26.3400851 C256.184873,26.5413975 252.487063,26.7321809 250.280039,29.7392584 C249.213825,31.1919686 249.293374,32.8974515 249.557455,34.2089914 C249.821551,35.5205328 250.189484,36.6698057 250.195382,37.828931 C250.207765,40.1124065 249.572021,42.9176591 248.396491,45.1927997 C247.220976,47.4679403 245.560843,49.1425578 243.658921,49.6625326 C243.071365,49.823166 242.772269,49.751456 242.343765,49.5324998 C241.915261,49.3135359 241.408369,48.8712649 240.862328,48.3198038 C240.316273,47.7683442 239.743484,47.1168037 238.972728,46.5627583 C238.201987,46.008713 237.071656,45.5575945 235.876823,45.8006651 C233.686084,46.2463441 232.073969,47.8013355 230.806676,49.7109257 C229.539398,51.6205158 228.509066,53.9753715 227.38728,56.5485888 C225.143694,61.6950219 222.568629,67.7047285 217.918162,72.4859968 C205.704896,85.0427902 186.418448,93.1664899 170.046532,98.7842338 C164.675291,100.627285 158.287512,100.333908 153.04022,99.5342295 C150.416575,99.1343918 148.082242,98.6165057 146.283046,98.203592 C145.383449,97.9971359 144.619557,97.8158904 143.997398,97.6864584 C143.375238,97.5570295 143.050271,97.4228315 142.319441,97.4959351 L142.01106,97.5261749 L141.738959,97.6743547 C136.879824,100.299011 134.319889,106.325318 134.071758,111.655122 C133.473482,124.505915 144.553872,133.821798 155.791463,132.969516 C161.582698,132.530297 165.75796,128.466428 169.62931,125.493753 C172.65583,123.169795 177.378964,123.247392 180.440783,125.814317 C178.474342,126.347134 176.033475,127.267212 173.937575,129.216514 C168.714126,134.074617 164.167561,139.324677 158.50038,142.277931 C152.833416,145.231187 146.033409,146.128008 135.565507,142.042045 C121.234545,136.448207 118.229651,119.490763 118.229651,119.490763 L118.211509,119.381896 L118.178259,119.276049 C113.179474,103.798646 108.968934,83.0948343 108.775653,82.1421853 C144.840421,16.1166218 211.126552,6.96977419 242.07792,6.54685124 L242.077997,6.54685124 Z" id="path6376" fill="#000000"></path>
                                        <g id="g6378" transform="translate(31.111255, 79.710748)">
                                            <ellipse id="circle6380" fill="#FFFFFF" cx="81.2607489" cy="20.92625" rx="19.1725611" ry="19.1778375"></ellipse>
                                            <g id="g6382" transform="translate(25.315188, 6.193513)" fill="#221D1F">
                                                <ellipse id="circle6384" cx="57.928475" cy="11.5803982" rx="11.3959586" ry="11.3990948"></ellipse>
                                            </g>
                                            <path d="M81.261485,0.200871112 C69.8361964,0.200871112 60.5390778,9.49727227 60.5390778,20.9257051 C60.5390778,32.354138 69.8361964,41.6538155 81.261485,41.6538155 C92.6867721,41.6538155 101.980617,32.354138 101.980617,20.9257051 C101.980617,9.49727227 92.6867721,0.200871112 81.261485,0.200871112 L81.261485,0.200871112 Z M81.261485,3.29813705 C91.0136214,3.29813705 98.8842017,11.1708849 98.8842017,20.9257051 C98.8842017,30.6805269 91.0136214,38.556548 81.261485,38.556548 C71.5093471,38.556548 63.6354911,30.6805269 63.6354911,20.9257051 C63.6354911,11.1708849 71.5093471,3.29813705 81.261485,3.29813705 L81.261485,3.29813705 Z" id="path6398" fill="#000000"></path>
                                        </g>
                                    </g>
                                </g>
                            </g>
                        </g>
                    </g>
                </g>
            </g>
        </g>
    </g>
</svg>