<?xml version="1.0" encoding="UTF-8" standalone="no"?>
<!-- Created with Inkscape (http://www.inkscape.org/) -->

<svg
   xmlns:dc="http://purl.org/dc/elements/1.1/"
   xmlns:cc="http://creativecommons.org/ns#"
   xmlns:rdf="http://www.w3.org/1999/02/22-rdf-syntax-ns#"
   xmlns:svg="http://www.w3.org/2000/svg"
   xmlns="http://www.w3.org/2000/svg"
   xmlns:sodipodi="http://sodipodi.sourceforge.net/DTD/sodipodi-0.dtd"
   xmlns:inkscape="http://www.inkscape.org/namespaces/inkscape"
   width="16"
   height="16"
   id="svg4335"
   version="1.1"
   inkscape:version="0.48+devel r"
   viewBox="0 0 16 16"
   sodipodi:docname="relation-added.svg">
  <defs
     id="defs4337" />
  <sodipodi:namedview
     id="base"
     pagecolor="#ffffff"
     bordercolor="#666666"
     borderopacity="1.0"
     inkscape:pageopacity="0.0"
     inkscape:pageshadow="2"
     inkscape:zoom="15.543122"
     inkscape:cx="-14.669546"
     inkscape:cy="11.113588"
     inkscape:document-units="px"
     inkscape:current-layer="layer1"
     showgrid="false"
     fit-margin-top="0"
     fit-margin-left="0"
     fit-margin-right="0"
     fit-margin-bottom="0" />
  <metadata
     id="metadata4340">
    <rdf:RDF>
      <cc:Work
         rdf:about="">
        <dc:format>image/svg+xml</dc:format>
        <dc:type
           rdf:resource="http://purl.org/dc/dcmitype/StillImage" />
        <dc:title></dc:title>
      </cc:Work>
    </rdf:RDF>
  </metadata>
  <g
     inkscape:label="Layer 1"
     inkscape:groupmode="layer"
     id="layer1"
     transform="translate(-1072.7511,-605.66701)">
    <path
       style="font-size:xx-small;font-style:normal;font-variant:normal;font-weight:normal;font-stretch:normal;text-indent:0;text-align:start;text-decoration:none;line-height:normal;letter-spacing:normal;word-spacing:normal;text-transform:none;direction:ltr;block-progression:tb;writing-mode:lr-tb;text-anchor:start;baseline-shift:baseline;color:#000000;color-interpolation:sRGB;color-interpolation-filters:linearRGB;fill:#38b44a;fill-opacity:1;stroke:none;stroke-width:1;marker:none;visibility:visible;display:inline;overflow:visible;enable-background:accumulate;clip-rule:nonzero;color-rendering:auto;image-rendering:auto;shape-rendering:auto;text-rendering:auto;font-family:sans-serif;-inkscape-font-specification:sans-serif"
       d="m 1073.9178,621.66701 c -0.6377,0 -1.1667,-0.52898 -1.1667,-1.16667 l 0,-2.66666 c 0,-0.63769 0.529,-1.16667 1.1667,-1.16667 l 2.6666,0 c 0.6377,0 1.1667,0.52898 1.1667,1.16667 l 0,2.66666 c 0,0.63769 -0.529,1.16667 -1.1667,1.16667 l -2.6666,0 z m 0,-1 2.6666,0 c 0.101,0 0.1667,-0.0657 0.1667,-0.16667 l 0,-2.66666 c 0,-0.10099 -0.066,-0.16667 -0.1667,-0.16667 l -2.6666,0 c -0.101,0 -0.1667,0.0657 -0.1667,0.16667 l 0,2.66666 c 0,0.10099 0.066,0.16667 0.1667,0.16667 z"
       id="rect4194"
       inkscape:connector-curvature="0" />
    <path
       style="font-size:xx-small;font-style:normal;font-variant:normal;font-weight:normal;font-stretch:normal;text-indent:0;text-align:start;text-decoration:none;line-height:normal;letter-spacing:normal;word-spacing:normal;text-transform:none;direction:ltr;block-progression:tb;writing-mode:lr-tb;text-anchor:start;baseline-shift:baseline;color:#000000;color-interpolation:sRGB;color-interpolation-filters:linearRGB;fill:#38b44a;fill-opacity:1;stroke:none;stroke-width:1;marker:none;visibility:visible;display:inline;overflow:visible;enable-background:accumulate;clip-rule:nonzero;color-rendering:auto;image-rendering:auto;shape-rendering:auto;text-rendering:auto;font-family:sans-serif;-inkscape-font-specification:sans-serif"
       d="m 1084.9178,610.66701 c -0.6377,0 -1.1667,-0.52898 -1.1667,-1.16667 l 0,-2.66666 c 0,-0.63769 0.529,-1.16667 1.1667,-1.16667 l 2.6666,0 c 0.6377,0 1.1667,0.52898 1.1667,1.16667 l 0,2.66666 c 0,0.63769 -0.529,1.16667 -1.1667,1.16667 l -2.6666,0 z m 0,-1 2.6666,0 c 0.101,0 0.1667,-0.0657 0.1667,-0.16667 l 0,-2.66666 c 0,-0.10099 -0.066,-0.16667 -0.1667,-0.16667 l -2.6666,0 c -0.101,0 -0.1667,0.0657 -0.1667,0.16667 l 0,2.66666 c 0,0.10099 0.066,0.16667 0.1667,0.16667 z"
       id="rect4196"
       inkscape:connector-curvature="0" />
    <path
       style="font-size:xx-small;font-style:normal;font-variant:normal;font-weight:normal;font-stretch:normal;text-indent:0;text-align:start;text-decoration:none;line-height:normal;letter-spacing:normal;word-spacing:normal;text-transform:none;direction:ltr;block-progression:tb;writing-mode:lr-tb;text-anchor:start;baseline-shift:baseline;color:#000000;color-interpolation:sRGB;color-interpolation-filters:linearRGB;fill:#38b44a;fill-opacity:1;fill-rule:nonzero;stroke:none;stroke-width:1;marker:none;visibility:visible;display:inline;overflow:visible;enable-background:accumulate;clip-rule:nonzero;color-rendering:auto;image-rendering:auto;shape-rendering:auto;text-rendering:auto;font-family:sans-serif;-inkscape-font-specification:sans-serif"
       d="m 1080.7511,615.667 c -1.0967,0 -2,-0.90333 -2,-2 0,-1.09668 0.9033,-2 2,-2 1.0966,0 2,0.90332 2,2 0,1.09667 -0.9034,2 -2,2 z"
       id="path4198"
       inkscape:connector-curvature="0"
       sodipodi:nodetypes="sssss" />
    <path
       style="font-size:xx-small;font-style:normal;font-variant:normal;font-weight:normal;font-stretch:normal;text-indent:0;text-align:start;text-decoration:none;line-height:normal;letter-spacing:normal;word-spacing:normal;text-transform:none;direction:ltr;block-progression:tb;writing-mode:lr-tb;text-anchor:start;baseline-shift:baseline;color:#000000;color-interpolation:sRGB;color-interpolation-filters:linearRGB;fill:#38b44a;fill-opacity:1;fill-rule:nonzero;stroke:none;stroke-width:1;marker:none;visibility:visible;display:inline;overflow:visible;enable-background:accumulate;clip-rule:nonzero;color-rendering:auto;image-rendering:auto;shape-rendering:auto;text-rendering:auto;font-family:sans-serif;-inkscape-font-specification:sans-serif"
       d="m 1084.3975,609.31346 -8,8 0.7072,0.7071 8,-8 -0.7072,-0.7071 z"
       id="path4200"
       inkscape:connector-curvature="0" />
  </g>
</svg>
