<?xml version="1.0" encoding="UTF-8" standalone="no"?>
<!-- Created with Inkscape (http://www.inkscape.org/) -->

<svg
   xmlns:dc="http://purl.org/dc/elements/1.1/"
   xmlns:cc="http://creativecommons.org/ns#"
   xmlns:rdf="http://www.w3.org/1999/02/22-rdf-syntax-ns#"
   xmlns:svg="http://www.w3.org/2000/svg"
   xmlns="http://www.w3.org/2000/svg"
   xmlns:sodipodi="http://sodipodi.sourceforge.net/DTD/sodipodi-0.dtd"
   xmlns:inkscape="http://www.inkscape.org/namespaces/inkscape"
   width="16"
   height="16"
   id="svg4335"
   version="1.1"
   inkscape:version="0.48+devel r"
   viewBox="0 0 16 16"
   sodipodi:docname="relation-removed.svg">
  <defs
     id="defs4337" />
  <sodipodi:namedview
     id="base"
     pagecolor="#ffffff"
     bordercolor="#666666"
     borderopacity="1.0"
     inkscape:pageopacity="0.0"
     inkscape:pageshadow="2"
     inkscape:zoom="24.286129"
     inkscape:cx="0.36993235"
     inkscape:cy="13.449441"
     inkscape:document-units="px"
     inkscape:current-layer="layer1"
     showgrid="false"
     fit-margin-top="0"
     fit-margin-left="0"
     fit-margin-right="0"
     fit-margin-bottom="0" />
  <metadata
     id="metadata4340">
    <rdf:RDF>
      <cc:Work
         rdf:about="">
        <dc:format>image/svg+xml</dc:format>
        <dc:type
           rdf:resource="http://purl.org/dc/dcmitype/StillImage" />
        <dc:title></dc:title>
      </cc:Work>
    </rdf:RDF>
  </metadata>
  <g
     inkscape:label="Layer 1"
     inkscape:groupmode="layer"
     id="layer1"
     transform="translate(-1082.5725,-615.27544)">
    <path
       inkscape:connector-curvature="0"
       id="path4232"
       d="m 1083.7392,631.27544 c -0.6377,0 -1.1667,-0.52898 -1.1667,-1.16667 l 0,-2.66666 c 0,-0.63769 0.529,-1.16667 1.1667,-1.16667 l 2.6666,0 c 0.6377,0 1.1667,0.52898 1.1667,1.16667 l 0,2.66666 c 0,0.63769 -0.529,1.16667 -1.1667,1.16667 l -2.6666,0 z m 0,-1 2.6666,0 c 0.101,0 0.1667,-0.0657 0.1667,-0.16667 l 0,-2.66666 c 0,-0.10099 -0.066,-0.16667 -0.1667,-0.16667 l -2.6666,0 c -0.101,0 -0.1667,0.0657 -0.1667,0.16667 l 0,2.66666 c 0,0.10099 0.066,0.16667 0.1667,0.16667 z"
       style="font-size:xx-small;font-style:normal;font-variant:normal;font-weight:normal;font-stretch:normal;text-indent:0;text-align:start;text-decoration:none;line-height:normal;letter-spacing:normal;word-spacing:normal;text-transform:none;direction:ltr;block-progression:tb;writing-mode:lr-tb;text-anchor:start;baseline-shift:baseline;color:#000000;color-interpolation:sRGB;color-interpolation-filters:linearRGB;fill:#df382c;fill-opacity:1;stroke:none;stroke-width:1;marker:none;visibility:visible;display:inline;overflow:visible;enable-background:accumulate;clip-rule:nonzero;color-rendering:auto;image-rendering:auto;shape-rendering:auto;text-rendering:auto;font-family:sans-serif;-inkscape-font-specification:sans-serif" />
    <path
       inkscape:connector-curvature="0"
       id="path4234"
       d="m 1094.7392,620.27544 c -0.6377,0 -1.1667,-0.52898 -1.1667,-1.16667 l 0,-2.66666 c 0,-0.63769 0.529,-1.16667 1.1667,-1.16667 l 2.6666,0 c 0.6377,0 1.1667,0.52898 1.1667,1.16667 l 0,2.66666 c 0,0.63769 -0.529,1.16667 -1.1667,1.16667 l -2.6666,0 z m 0,-1 2.6666,0 c 0.101,0 0.1667,-0.0657 0.1667,-0.16667 l 0,-2.66666 c 0,-0.10099 -0.066,-0.16667 -0.1667,-0.16667 l -2.6666,0 c -0.101,0 -0.1667,0.0657 -0.1667,0.16667 l 0,2.66666 c 0,0.10099 0.066,0.16667 0.1667,0.16667 z"
       style="font-size:xx-small;font-style:normal;font-variant:normal;font-weight:normal;font-stretch:normal;text-indent:0;text-align:start;text-decoration:none;line-height:normal;letter-spacing:normal;word-spacing:normal;text-transform:none;direction:ltr;block-progression:tb;writing-mode:lr-tb;text-anchor:start;baseline-shift:baseline;color:#000000;color-interpolation:sRGB;color-interpolation-filters:linearRGB;fill:#df382c;fill-opacity:1;stroke:none;stroke-width:1;marker:none;visibility:visible;display:inline;overflow:visible;enable-background:accumulate;clip-rule:nonzero;color-rendering:auto;image-rendering:auto;shape-rendering:auto;text-rendering:auto;font-family:sans-serif;-inkscape-font-specification:sans-serif" />
    <path
       sodipodi:nodetypes="sssss"
       inkscape:connector-curvature="0"
       id="path4236"
       d="m 1090.5725,625.27543 c -1.0967,0 -2,-0.90333 -2,-2 0,-1.09668 0.9033,-2 2,-2 1.0966,0 2,0.90332 2,2 0,1.09667 -0.9034,2 -2,2 z"
       style="font-size:xx-small;font-style:normal;font-variant:normal;font-weight:normal;font-stretch:normal;text-indent:0;text-align:start;text-decoration:none;line-height:normal;letter-spacing:normal;word-spacing:normal;text-transform:none;direction:ltr;block-progression:tb;writing-mode:lr-tb;text-anchor:start;baseline-shift:baseline;color:#000000;color-interpolation:sRGB;color-interpolation-filters:linearRGB;fill:#df382c;fill-opacity:1;fill-rule:nonzero;stroke:none;stroke-width:1;marker:none;visibility:visible;display:inline;overflow:visible;enable-background:accumulate;clip-rule:nonzero;color-rendering:auto;image-rendering:auto;shape-rendering:auto;text-rendering:auto;font-family:sans-serif;-inkscape-font-specification:sans-serif" />
    <path
       inkscape:connector-curvature="0"
       id="path4238"
       d="m 1094.2189,618.92189 -8,8 0.7072,0.7071 8,-8 -0.7072,-0.7071 z"
       style="font-size:xx-small;font-style:normal;font-variant:normal;font-weight:normal;font-stretch:normal;text-indent:0;text-align:start;text-decoration:none;line-height:normal;letter-spacing:normal;word-spacing:normal;text-transform:none;direction:ltr;block-progression:tb;writing-mode:lr-tb;text-anchor:start;baseline-shift:baseline;color:#000000;color-interpolation:sRGB;color-interpolation-filters:linearRGB;fill:#df382c;fill-opacity:1;fill-rule:nonzero;stroke:none;stroke-width:1;marker:none;visibility:visible;display:inline;overflow:visible;enable-background:accumulate;clip-rule:nonzero;color-rendering:auto;image-rendering:auto;shape-rendering:auto;text-rendering:auto;font-family:sans-serif;-inkscape-font-specification:sans-serif" />
  </g>
</svg>
