<?xml version="1.0" encoding="UTF-8" standalone="no"?>
<!-- Created with Inkscape (http://www.inkscape.org/) -->

<svg
   xmlns:dc="http://purl.org/dc/elements/1.1/"
   xmlns:cc="http://creativecommons.org/ns#"
   xmlns:rdf="http://www.w3.org/1999/02/22-rdf-syntax-ns#"
   xmlns:svg="http://www.w3.org/2000/svg"
   xmlns="http://www.w3.org/2000/svg"
   xmlns:sodipodi="http://sodipodi.sourceforge.net/DTD/sodipodi-0.dtd"
   xmlns:inkscape="http://www.inkscape.org/namespaces/inkscape"
   width="16"
   height="16"
   id="svg4335"
   version="1.1"
   inkscape:version="0.48+devel r"
   viewBox="0 0 16 16"
   sodipodi:docname="service-exposed.svg">
  <defs
     id="defs4337" />
  <sodipodi:namedview
     id="base"
     pagecolor="#ffffff"
     bordercolor="#666666"
     borderopacity="1.0"
     inkscape:pageopacity="0.0"
     inkscape:pageshadow="2"
     inkscape:zoom="24.286129"
     inkscape:cx="20.081432"
     inkscape:cy="4.8320411"
     inkscape:document-units="px"
     inkscape:current-layer="layer1"
     showgrid="false"
     fit-margin-top="0"
     fit-margin-left="0"
     fit-margin-right="0"
     fit-margin-bottom="0" />
  <metadata
     id="metadata4340">
    <rdf:RDF>
      <cc:Work
         rdf:about="">
        <dc:format>image/svg+xml</dc:format>
        <dc:type
           rdf:resource="http://purl.org/dc/dcmitype/StillImage" />
        <dc:title></dc:title>
      </cc:Work>
    </rdf:RDF>
  </metadata>
  <g
     inkscape:label="Layer 1"
     inkscape:groupmode="layer"
     id="layer1"
     transform="translate(-1062.861,-606.65804)">
    <path
       style="font-size:medium;font-style:normal;font-variant:normal;font-weight:normal;font-stretch:normal;text-indent:0;text-align:start;text-decoration:none;line-height:normal;letter-spacing:normal;word-spacing:normal;text-transform:none;direction:ltr;block-progression:tb;writing-mode:lr-tb;text-anchor:start;baseline-shift:baseline;color:#000000;color-interpolation:sRGB;color-interpolation-filters:linearRGB;fill:#b2b2b2;fill-opacity:1;stroke:none;stroke-width:1;paint-order:normal;marker:none;visibility:visible;display:inline;overflow:visible;isolation:auto;mix-blend-mode:normal;enable-background:accumulate;clip-rule:nonzero;color-rendering:auto;image-rendering:auto;shape-rendering:auto;text-rendering:auto;font-family:sans-serif;-inkscape-font-specification:sans-serif"
       d="m 1068.2204,606.65804 c -2.15,0 -3.5103,0.11683 -4.377,0.98437 -0.8666,0.86754 -0.9824,2.2287 -0.9824,4.38086 l 0,5.27149 c 0,2.15216 0.1158,3.51332 0.9824,4.38086 0.8667,0.86754 2.227,0.98242 4.377,0.98242 l 5.2812,0 c 2.15,0 3.5103,-0.11488 4.377,-0.98242 0.8666,-0.86754 0.9824,-2.2287 0.9824,-4.38086 l 0,-5.27149 c 0,-2.15216 -0.1158,-3.51332 -0.9824,-4.38086 -0.8667,-0.86754 -2.227,-0.98437 -4.377,-0.98437 l -5.2812,0 z m 0,1 5.2812,0 c 2.1024,0 3.1698,0.18875 3.6699,0.68945 0.5002,0.5007 0.6895,1.57119 0.6895,3.67578 l 0,5.27149 c 0,2.10459 -0.1893,3.17312 -0.6895,3.67383 -0.5001,0.5007 -1.5675,0.68945 -3.6699,0.68945 l -5.2812,0 c -2.1024,0 -3.1698,-0.18875 -3.6699,-0.68945 -0.5002,-0.50071 -0.6895,-1.56924 -0.6895,-3.67383 l 0,-5.27149 c 0,-2.10459 0.1893,-3.17508 0.6895,-3.67578 0.5001,-0.5007 1.5675,-0.68945 3.6699,-0.68945 z"
       id="path4508"
       inkscape:connector-curvature="0" />
  </g>
</svg>
