<?xml version="1.0" encoding="UTF-8" standalone="no"?>
<svg width="160px" height="102px" viewBox="0 0 160 102" version="1.1" xmlns="http://www.w3.org/2000/svg" xmlns:xlink="http://www.w3.org/1999/xlink">
    <!-- Generator: Sketch 42 (36781) - http://www.bohemiancoding.com/sketch -->
    <title>Artboard</title>
    <desc>Created with Sketch.</desc>
    <defs></defs>
    <g id="Page-1" stroke="none" stroke-width="1" fill="none" fill-rule="evenodd">
        <g id="Artboard" fill-rule="nonzero">
            <g id="VISA">
                <rect id="Rectangle-path" fill="#FFFFFF" x="0" y="0.6" width="159.2" height="101.1"></rect>
                <rect id="Rectangle-path" fill="#F7B600" x="2.6" y="85.3" width="153.9" height="13.8"></rect>
                <rect id="Rectangle-path" fill="#1A1F71" x="2.6" y="3.3" width="153.9" height="13.8"></rect>
                <path d="M64.2,32.3 L48.3,70.2 L37.9,70.2 L30.1,39.9 C29.6,38 29.2,37.4 27.8,36.6 C24.7191275,35.1171764 21.4584286,34.0414819 18.1,33.4 L18.3,32.3 L35,32.3 C37.2573421,32.3101884 39.1690745,33.9670231 39.5,36.2 L43.6,58.1 L53.8,32.3 L64.2,32.3 Z M104.9,57.8 C104.9,47.8 91.1,47.2 91.2,42.8 C91.2,41.4 92.5,40 95.4,39.6 C98.7271675,39.2893314 102.07678,39.876377 105.1,41.3 L106.8,33.3 C103.863919,32.1725748 100.745099,31.596271 97.6,31.6 C87.9,31.6 81.1,36.8 81,44.1 C80.9,49.6 85.9,52.6 89.6,54.4 C93.3,56.2 94.7,57.5 94.7,59.1 C94.7,61.6 91.6,62.8 88.8,62.8 C85.2813565,62.8972693 81.7987643,62.0697226 78.7,60.4 L76.9,68.7 C80.3627458,70.0898529 84.0693964,70.7699723 87.8,70.7 C98.1,70.8 104.8,65.7 104.9,57.8 L104.9,57.8 Z M130.5,70.2 L139.6,70.2 L131.7,32.3 L123.3,32.3 C121.456547,32.2779153 119.788635,33.3898566 119.1,35.1 L104.3,70.2 L114.6,70.2 L116.6,64.5 L129.2,64.5 L130.5,70.2 Z M119.5,56.8 L124.7,42.6 L127.7,56.8 L119.5,56.8 Z M78.2,32.3 L70.1,70.2 L60.3,70.2 L68.4,32.3 L78.2,32.3 Z" id="Shape" fill="#1A1F71"></path>
            </g>
        </g>
    </g>
</svg>