<svg xmlns="http://www.w3.org/2000/svg" width="16" height="13" viewBox="0 0 16 13"><path d="M15.07 11.48l-1-.86c-1.11 1.48-2.84 2.33-4.65 2.33-.5 0-1-.06-1.5-.2-2.54-.68-4.31-3.01-4.31-5.66H5.7c0 1.7 1.13 3.19 2.76 3.63 1.52.41 3.11-.2 4-1.47l-1-.86s2.2-1.09 4.53-1.68H16c-.24 2.53-.93 4.77-.93 4.77zm-7.5-8.87c-1.5-.41-3.08.17-3.98 1.41l1.05.9S2.4 6.04 0 6.65v-.01c.25-2.59.95-4.88.95-4.88l1.05.9C3.42.82 5.83-.03 8.11.58c2.55.69 4.33 3.02 4.33 5.68h-2.08c0-1.71-1.15-3.21-2.79-3.65z" fill="#333333" class="inspector-list__list-item-image"></path></svg>
