<?xml version="1.0" encoding="UTF-8" standalone="no"?>
<!-- Created with Inkscape (http://www.inkscape.org/) -->

<svg
   xmlns:dc="http://purl.org/dc/elements/1.1/"
   xmlns:cc="http://creativecommons.org/ns#"
   xmlns:rdf="http://www.w3.org/1999/02/22-rdf-syntax-ns#"
   xmlns:svg="http://www.w3.org/2000/svg"
   xmlns="http://www.w3.org/2000/svg"
   xmlns:sodipodi="http://sodipodi.sourceforge.net/DTD/sodipodi-0.dtd"
   xmlns:inkscape="http://www.inkscape.org/namespaces/inkscape"
   width="16"
   height="15.999999"
   id="svg5918"
   version="1.1"
   inkscape:version="0.91 r13725"
   viewBox="0 0 16 15.999999"
   sodipodi:docname="chevron_down_16.svg"
   inkscape:export-filename="/home/huw/canonical/icons/chevron_down_16.png"
   inkscape:export-xdpi="90"
   inkscape:export-ydpi="90">
  <defs
     id="defs5920">
    <clipPath
       id="clipPath16"
       clipPathUnits="userSpaceOnUse">
      <path
         inkscape:connector-curvature="0"
         id="path18"
         d="m 0,595.28 841.89,0 L 841.89,0 0,0 0,595.28 Z" />
    </clipPath>
    <clipPath
       id="clipPath16-0"
       clipPathUnits="userSpaceOnUse">
      <path
         inkscape:connector-curvature="0"
         id="path18-1"
         d="m 0,595.28 841.89,0 L 841.89,0 0,0 0,595.28 Z" />
    </clipPath>
    <clipPath
       id="clipPath16-9"
       clipPathUnits="userSpaceOnUse">
      <path
         inkscape:connector-curvature="0"
         id="path18-3"
         d="m 0,595.28 841.89,0 L 841.89,0 0,0 0,595.28 Z" />
    </clipPath>
    <clipPath
       id="clipPath16-7"
       clipPathUnits="userSpaceOnUse">
      <path
         inkscape:connector-curvature="0"
         id="path18-7"
         d="m 0,595.28 841.89,0 L 841.89,0 0,0 0,595.28 Z" />
    </clipPath>
  </defs>
  <sodipodi:namedview
     id="base"
     pagecolor="#dedede"
     bordercolor="#666666"
     borderopacity="1.0"
     inkscape:pageopacity="0"
     inkscape:pageshadow="2"
     inkscape:zoom="30.357661"
     inkscape:cx="0.58035981"
     inkscape:cy="7.4631759"
     inkscape:document-units="px"
     inkscape:current-layer="g5346"
     showgrid="true"
     fit-margin-top="0"
     fit-margin-left="0"
     fit-margin-right="0"
     fit-margin-bottom="0.2"
     inkscape:snap-bbox="true"
     inkscape:bbox-paths="true"
     inkscape:bbox-nodes="true"
     inkscape:snap-bbox-edge-midpoints="true"
     inkscape:snap-bbox-midpoints="true"
     inkscape:object-paths="true"
     inkscape:snap-intersection-paths="true"
     inkscape:object-nodes="true"
     inkscape:snap-smooth-nodes="true"
     inkscape:snap-midpoints="true"
     inkscape:snap-object-midpoints="true"
     inkscape:snap-center="true"
     inkscape:window-width="1631"
     inkscape:window-height="1026"
     inkscape:window-x="49"
     inkscape:window-y="24"
     inkscape:window-maximized="1">
    <inkscape:grid
       type="xygrid"
       id="grid4137"
       originx="-0.00011296354px"
       originy="-8.999973px" />
  </sodipodi:namedview>
  <metadata
     id="metadata5923">
    <rdf:RDF>
      <cc:Work
         rdf:about="">
        <dc:format>image/svg+xml</dc:format>
        <dc:type
           rdf:resource="http://purl.org/dc/dcmitype/StillImage" />
        <dc:title />
      </cc:Work>
    </rdf:RDF>
  </metadata>
  <g
     inkscape:label="Layer 1"
     inkscape:groupmode="layer"
     id="layer1"
     transform="translate(-182.93849,-560.7201)">
    <g
       style="display:inline"
       transform="matrix(0.66666607,0,0,0.66666668,-633.06096,6.8119427)"
       id="g5687" />
    <g
       style="display:inline"
       id="g5346"
       transform="translate(-769.06151,404.35792)">
      <g
         style="display:inline"
         transform="matrix(0.66666654,0,0,0.66666654,877.33334,-155.87921)"
         id="g4363">
        <g
           id="g4367"
           transform="matrix(0,0.21226415,0.18181815,0,63.512099,406.7524)">
          <g
             id="g4369"
             clip-path="url(#clipPath16-7)">
            <g
               id="g4371"
               transform="translate(358.7529,350.7095)">
              <path
                 d="M 0.08234413,-0.04707909 C -3.7872386,6.7930863 -8.1560576,13.837137 -13.025115,21.088072 c -4.866051,7.248937 -10.085977,14.383937 -15.657776,21.400003 -1.493699,1.879947 -2.9884,3.705923 -4.486109,5.485925 l 0,-20.343595 c 3.055567,-4.021746 6.04898,-8.184412 8.972219,-12.50499 3.403428,-5.03018 6.597338,-10.1742961 9.588746,-15.43634617 C -11.61763,-5.5719818 -7.9465387,-12.998818 -5.6007295,-18.026 c -2.3458092,-5.026182 -6.0169005,-12.453019 -9.0073055,-17.715069 -2.991408,-5.26205 -6.185318,-10.406166 -9.588746,-15.435347 -2.923239,-4.321577 -5.916652,-8.484243 -8.972219,-12.505989 l 0,-20.343595 c 1.497709,1.780002 2.99241,3.606978 4.486109,5.485925 5.571799,7.017066 10.791725,14.151066 15.657776,21.400003 4.8690574,7.251934 9.2378764,14.294986 13.10745913,21.135151 C 3.9519268,-29.163756 7.0044862,-23.170116 9.231,-18.026 7.0044862,-12.881884 3.9519268,-6.8882439 0.08234413,-0.04707909"
                 style="fill:#7f8183;fill-opacity:1;fill-rule:nonzero;stroke:none"
                 id="path4373"
                 inkscape:connector-curvature="0" />
            </g>
          </g>
        </g>
      </g>
    </g>
  </g>
</svg>
