<?xml version="1.0" encoding="UTF-8" standalone="no"?>
<svg width="16px" height="17px" viewBox="0 0 16 17" version="1.1" xmlns="http://www.w3.org/2000/svg" xmlns:xlink="http://www.w3.org/1999/xlink" style="background: #FFFFFF;">
    <!-- Generator: Sketch 44.1 (41455) - http://www.bohemiancoding.com/sketch -->
    <title>Final</title>
    <desc>Created with Sketch.</desc>
    <defs></defs>
    <g id="Page-1" stroke="none" stroke-width="1" fill="none" fill-rule="evenodd">
        <g id="Final">
            <g id="01---16px">
                <path d="M4.1536822,1.8 C3.68157082,1.8 3.30799786,1.8530131 2.99309008,1.99978637 C2.6781823,2.14655965 2.42593349,2.41203742 2.27683228,2.74757459 C1.97862806,3.41864892 2.01044197,4.23932902 2,5.3609144 L2,5.36314297 L2,13.8369127 L2,13.8395202 C2.01044197,14.9611055 1.97862806,15.7817857 2.27683228,16.45286 C2.42593349,16.7883971 2.6781823,17.0534381 2.99309008,17.2002114 C3.30799786,17.3469869 3.68157082,17.4 4.1536822,17.4 L13.845959,17.4 C14.3180721,17.4 14.6919932,17.3469869 15.0069009,17.2002114 C15.3218087,17.0534381 15.5737077,16.7883971 15.7228089,16.45286 C16.0210131,15.7817857 15.9891992,14.9611033 15.9996412,13.8395202 L16,13.8369127 L16,5.36314297 L15.9996412,5.3609144 C15.9891992,4.23933125 16.0210131,3.41864892 15.7228089,2.74757459 C15.5737077,2.41203742 15.3218087,2.14655965 15.0069009,1.99978637 C14.6919932,1.8530131 14.3180721,1.8 13.845959,1.8 L4.1536822,1.8 L4.1536822,1.8 Z" id="path4643-path" fill="#666666"></path>
                <path d="M4.2172407,2.6 L13.7827593,2.6 C14.202515,2.6 14.4953301,2.65652339 14.6795152,2.74466294 C14.8637021,2.83280023 14.9432875,2.92744772 15.0149773,3.09308648 C15.1580896,3.42374075 15.1895901,4.17161491 15.2,5.30932231 L15.2,13.8849443 C15.1896592,15.0262444 15.158357,15.7756383 15.0149773,16.1069135 C14.9432875,16.2725523 14.8637021,16.3667594 14.6795152,16.4548967 C14.4953301,16.543034 14.202515,16.6 13.7827593,16.6 L4.2172407,16.6 C3.79748679,16.6 3.50466995,16.543034 3.32048479,16.4548967 C3.13629963,16.3667594 3.05671253,16.2725523 2.9850227,16.1069135 C2.84191041,15.776257 2.8104081,15.0279447 2.8,13.8902374 L2.8,13.8849533 L2.8,5.31462441 L2.8,5.30934037 C2.81041164,4.17163298 2.84191041,3.42375881 2.9850227,3.09310454 C3.05671253,2.92746578 3.13629963,2.83281829 3.32048479,2.744681 C3.50466995,2.65654146 3.79748679,2.60001807 4.2172407,2.60001807 L4.2172407,2.6 Z" id="path4643-path" fill="#FFFFFF"></path>
                <path d="M6.6,1.8 L6.6,4.20094968 L11.3981016,4.20094968 L11.3981016,1.8 L9.79834395,1.8 C9.79834395,2.24689797 9.44533023,2.60031656 8.9990508,2.60031656 C8.55277137,2.60031656 8.1993672,2.24689797 8.1993672,1.8 L6.6,1.8 Z" id="rect4235" fill="#666666" fill-rule="nonzero" transform="translate(8.999051, 3.000475) scale(-1, 1) translate(-8.999051, -3.000475) "></path>
                <circle id="Oval" fill="#FFFFFF" cx="9" cy="1.6" r="1.4"></circle>
                <path d="M10.5995161,1.59961 C10.5995161,2.478592 9.87848737,3.19961 8.99975904,3.19961 C8.12103072,3.19961 7.4,2.478592 7.4,1.59961 C7.4,0.720626 8.12103072,0 8.99975904,0 C9.87848737,0 10.5995161,0.720626 10.5995161,1.59961 Z M9.79983249,1.59961 C9.79983249,1.153154 9.4464803,0.8 8.99975904,0.8 C8.55303779,0.8 8.1996836,1.153154 8.1996836,1.59961 C8.1996836,2.046066 8.55303779,2.39961 8.99975904,2.39961 C9.4464803,2.39961 9.79983249,2.046066 9.79983249,1.59961 Z" id="path4237" fill="#666666" fill-rule="nonzero"></path>
                <rect id="Rectangle" fill="#666666" x="8.4" y="7.2" width="5.6" height="1"></rect>
                <rect id="Rectangle" fill="#666666" x="8.4" y="9.6" width="5.6" height="1"></rect>
                <rect id="Rectangle" fill="#666666" x="10" y="12" width="4" height="1"></rect>
                <g id="Group-2" transform="translate(0.000000, 10.000000)">
                    <rect id="Rectangle-2" fill="#FFFFFF" x="0" y="0.8" width="7.92" height="3.6"></rect>
                    <path d="M8.90012813,0.500268139 C8.90012813,0.500268139 7.87392554,2.6340575 6.39539976,4.50012813 C6.39539976,4.50012813 6.39539976,4.49980311 6.39539976,4.49966311 C6.39539976,4.4996031 6.39539976,4.49866306 6.39539976,4.49866306 C6.39539976,4.49839804 6.39539976,4.49766301 6.39539976,4.49766301 C6.39539976,4.497533 6.39539976,4.49720298 6.39539976,4.49720298 C4.86967157,2.5288721 3.89987187,0.500128132 3.89987187,0.500128132 L8.90012813,0.500268139 Z" id="path5118-4" fill="#666666" fill-rule="nonzero" transform="translate(6.400000, 2.500128) rotate(-90.000000) translate(-6.400000, -2.500128) "></path>
                    <rect id="Rectangle-2" fill="#666666" x="0" y="1.6" width="4.4" height="2"></rect>
                </g>
            </g>
        </g>
    </g>
</svg>