<?xml version="1.0" encoding="UTF-8" standalone="no"?>
<svg width="16px" height="12px" viewBox="0 0 16 12" version="1.1" xmlns="http://www.w3.org/2000/svg" xmlns:xlink="http://www.w3.org/1999/xlink">
    <!-- Generator: Sketch 49 (51002) - http://www.bohemiancoding.com/sketch -->
    <title>EMAIL</title>
    <desc>Created with Sketch.</desc>
    <defs></defs>
    <g id="Update-to-1.1-pages---final" stroke="none" stroke-width="1" fill="none" fill-rule="evenodd">
        <g id="Partner/home-contact-details-open-(GA-event)" transform="translate(-934.000000, -475.000000)">
            <g id="TOP---WHITE" transform="translate(0.000000, 173.000000)">
                <g id="RESELLER-CARD" transform="translate(909.000000, 0.000000)">
                    <g id="CONTACT-DETAILS" transform="translate(25.000000, 264.000000)">
                        <g id="EMAIL" transform="translate(0.000000, 36.000000)">
                            <rect id="rect3332" x="0.258064516" y="0" width="15.483871" height="15.483871"></rect>
                            <path d="M5.41935486,2.06451614 C1.73917515,2.06451614 0.653634514,2.06754995 0.360215054,3.6075269 L7.17741939,9.89784951 C7.17922584,9.89783919 7.18098928,9.89783919 7.18279573,9.89784951 C7.65592348,10.3225773 8.34409208,10.3225773 8.80107531,9.91397854 C8.80633983,9.90848177 8.81170757,9.90311403 8.81720434,9.89784951 L15.639785,3.6075269 C15.3463655,2.06754995 14.2608248,2.06451614 10.5806452,2.06451614 L5.41935486,2.06451614 Z M0.258064516,4.92473121 C0.257226497,5.00451289 0.258064516,5.0769805 0.258064516,5.16129035 L0.258064516,10.3225807 C0.258064516,13.4193549 0.774193551,13.4193549 5.41935486,13.4193549 L10.5806452,13.4193549 C15.2258065,13.4193549 15.7419356,13.4193549 15.7419356,10.3225807 L15.7419356,5.16129035 C15.7419356,5.0769805 15.7427736,5.00451289 15.7419356,4.92473121 L12.1290323,8.25806456 L15.3978495,12.0430108 L11.5053764,8.82795703 L9.53225811,10.6451613 L9.51612908,10.655914 C9.08171359,11.0847166 8.56517682,11.4367743 8.01612907,11.4354839 C7.46235358,11.4341936 6.94005939,11.0772525 6.483871,10.6505377 L6.47849465,10.6505377 L6.47849465,10.655914 L4.49462368,8.82795703 L0.602150539,12.0430108 L3.87096776,8.25806456 L0.258064516,4.92473121 Z" id="path3036" fill="#666666" fill-rule="nonzero"></path>
                        </g>
                    </g>
                </g>
            </g>
        </g>
    </g>
</svg>