<svg xmlns="http://www.w3.org/2000/svg" width="16" height="16" viewBox="0 0 16 16">
  <g transform="matrix(.66667 0 0 .66667 -74.667 -472.24)">
    <path fill="gray" stroke="none" d="M124.01 716.197q-.645 0-1.236.166-.59.148-1.238.5l-.627-1.72q.682-.387 1.55-.608.886-.24 1.81-.24 1.108 0 1.828.314.72.294 1.145.756.425.462.59 1.016.167.554.167 1.07 0 .63-.24 1.127-.222.498-.573.923-.35.424-.757.812-.406.37-.757.776-.35.39-.59.832-.222.443-.222.997v.22q0 .11.02.222h-1.922q-.036-.184-.055-.388-.018-.22-.018-.406 0-.61.203-1.09.203-.48.517-.886t.665-.757q.37-.35.683-.702.314-.35.517-.72t.203-.813q0-.61-.425-.997-.406-.406-1.237-.406zM125.477 726.37q0 .648-.424 1.054-.425.406-1.053.406-.61 0-1.053-.406-.424-.406-.424-1.053 0-.645.424-1.05.444-.426 1.053-.426.628 0 1.053.425.424.405.424 1.05z"/>
    <circle cx="124" cy="720.362" r="10.994" fill="none" stroke="gray" stroke-width="2.011" color="#000" overflow="visible" stroke-linecap="round" stroke-linejoin="round"/>
  </g>
</svg>
