<?xml version="1.0" encoding="iso-8859-1"?>
<!-- Generator: Adobe Illustrator 17.0.2, SVG Export Plug-In . SVG Version: 6.00 Build 0)  -->
<!DOCTYPE svg PUBLIC "-//W3C//DTD SVG 1.1//EN" "http://www.w3.org/Graphics/SVG/1.1/DTD/svg11.dtd">
<svg version="1.1" id="icon-social-twitter-layer" xmlns="http://www.w3.org/2000/svg" xmlns:xlink="http://www.w3.org/1999/xlink"
	 x="0px" y="0px" width="44px" height="44px" viewBox="0 0 44 44" style="enable-background:new 0 0 44 44;" xml:space="preserve">
<g id="icon-social-twitter">
	<path style="fill:#AEA79F;" d="M44,22c0,12.15-9.85,22-22,22S0,34.15,0,22S9.85,0,22,0S44,9.85,44,22z M26.009,11.74
		c-1.947,0.59-3.82,3.217-3.233,6.189c-6.461-0.389-9.315-3.848-11.031-5.504c-1.749,3.085,0.045,6.082,1.611,7.053
		c-0.827,0.045-1.827-0.312-2.323-0.622c-0.189,2.846,2.132,4.818,4.107,5.329c-0.631,0.188-1.226,0.214-2.243,0.062
		c0.866,2.862,3.192,3.628,4.925,3.754c-2.231,1.934-4.91,2.356-7.823,2.214c7.553,4.617,15.18,1.776,18.893-1.847
		c3.117-3.043,4.511-7.599,4.559-11.675c0.714-0.579,2.156-1.807,2.548-2.768c-0.569,0.219-1.695,0.739-2.869,0.786
		c0.968-0.633,2.076-1.902,2.192-2.895c-1.071,0.583-2.311,1.088-3.372,1.249C29.949,11.135,28,11.136,26.009,11.74L26.009,11.74z"
		/>
</g>
</svg>
