<svg xmlns="http://www.w3.org/2000/svg" width="571.89" height="206.329" viewBox="309.33 322.034 571.89 206.329"><circle fill="#E95420" cx="408.542" cy="421.246" r="99.212"/><g fill="#FFF"><circle cx="414.212" cy="415.576" r="6.142"/><path d="M419.88 404.237h-11.337v-45.354c0-10.94 8.902-19.842 19.842-19.842s19.842 8.903 19.842 19.843v11.34l-11.338-.002v-11.337c0-2.272-.886-4.408-2.49-6.014-1.607-1.605-3.742-2.492-6.015-2.492-4.688 0-8.504 3.816-8.504 8.505v45.354z"/><path d="M456.73 424.08c-10.94 0-19.843-8.9-19.843-19.842v-28.345h11.34v28.345c0 4.69 3.813 8.505 8.503 8.505 4.688 0 8.503-3.814 8.503-8.505v-28.345h11.34v28.345c0 5.3-2.065 10.282-5.813 14.03-3.745 3.75-8.728 5.812-14.03 5.812z"/><circle cx="357.52" cy="483.605" r="6.143"/><path d="M363.188 472.27H351.85v-62.362c0-10.94 8.9-19.842 19.844-19.842 10.94 0 19.842 8.9 19.842 19.842v11.34h-11.34v-11.34c0-2.272-.883-4.408-2.49-6.014-1.606-1.604-3.742-2.49-6.013-2.49-4.69 0-8.505 3.814-8.505 8.504v62.36z"/><path d="M400.04 475.103c-10.942 0-19.844-8.9-19.844-19.844v-28.347h11.34v28.348c0 4.69 3.813 8.503 8.503 8.503s8.503-3.814 8.503-8.504v-28.347h11.338v28.348c0 5.298-2.062 10.28-5.81 14.03-3.75 3.75-8.732 5.813-14.03 5.813z"/></g><g><path d="M620.714 446.453c0 6.744-.678 12.98-2.02 18.707-1.353 5.73-3.68 10.72-6.98 14.967-3.307 4.246-7.686 7.553-13.146 9.908-5.46 2.357-12.306 3.54-20.528 3.54-4.854 0-9.304-.438-13.35-1.313-4.042-.88-7.617-1.922-10.718-3.135-3.104-1.215-5.697-2.494-7.787-3.842-2.092-1.35-3.675-2.562-4.753-3.643l6.473-11.123c1.214 1.08 2.73 2.26 4.55 3.538 1.82 1.283 3.945 2.46 6.372 3.54 2.426 1.08 5.122 1.954 8.09 2.628 2.964.676 6.2 1.012 9.708 1.012 10.38 0 18.03-2.73 22.955-8.19 4.92-5.46 7.38-14.796 7.38-28.01v-94.653h13.755v96.068zM729.255 486.902c-3.91 1.08-9.17 2.293-15.773 3.64-6.607 1.347-14.697 2.02-24.27 2.02-7.822 0-14.36-1.144-19.62-3.437-5.257-2.29-9.503-5.525-12.74-9.707-3.235-4.178-5.56-9.234-6.978-15.17-1.416-5.93-2.123-12.47-2.123-19.615V385.98h13.146v54.402c0 7.418.54 13.69 1.62 18.81 1.077 5.128 2.83 9.272 5.257 12.44 2.43 3.17 5.562 5.46 9.404 6.874 3.844 1.418 8.527 2.125 14.057 2.125 6.2 0 11.594-.335 16.18-1.01 4.584-.673 7.482-1.28 8.697-1.82v-91.82h13.147v100.922h-.002zM739.185 528.363c-1.482 0-3.338-.203-5.562-.607-2.227-.404-3.873-.88-4.955-1.416l1.82-10.72c.945.27 2.225.538 3.842.81 1.62.27 3.17.404 4.652.404 7.953 0 13.246-2.225 15.875-6.674 2.63-4.45 3.945-11.125 3.945-20.023V385.98h13.146v103.55c0 13.214-2.498 22.985-7.484 29.325-4.99 6.336-13.418 9.508-25.28 9.508zM881.22 486.902c-3.912 1.08-9.17 2.293-15.773 3.64-6.607 1.347-14.697 2.02-24.27 2.02-7.822 0-14.36-1.144-19.62-3.437-5.257-2.29-9.505-5.525-12.74-9.707-3.235-4.178-5.56-9.234-6.978-15.17-1.417-5.93-2.124-12.47-2.124-19.615V385.98h13.146v54.402c0 7.418.533 13.69 1.615 18.81 1.078 5.128 2.832 9.272 5.26 12.44 2.428 3.17 5.56 5.46 9.402 6.874 3.845 1.418 8.526 2.125 14.058 2.125 6.197 0 11.594-.335 16.18-1.01 4.584-.673 7.482-1.28 8.697-1.82v-91.82h13.145v100.922z"/></g></svg>