<?xml version="1.0" encoding="UTF-8" standalone="no"?>
<svg width="16px" height="16px" viewBox="0 0 16 16" version="1.1" xmlns="http://www.w3.org/2000/svg" xmlns:xlink="http://www.w3.org/1999/xlink">
    <!-- Generator: Sketch 49 (51002) - http://www.bohemiancoding.com/sketch -->
    <title>CALL</title>
    <desc>Created with Sketch.</desc>
    <defs></defs>
    <g id="Update-to-1.1-pages---final" stroke="none" stroke-width="1" fill="none" fill-rule="evenodd">
        <g id="Partner/home-contact-details-open-(GA-event)" transform="translate(-934.000000, -505.000000)" fill="#666666" fill-rule="nonzero">
            <g id="TOP---WHITE" transform="translate(0.000000, 173.000000)">
                <g id="RESELLER-CARD" transform="translate(909.000000, 0.000000)">
                    <g id="CONTACT-DETAILS" transform="translate(25.000000, 264.000000)">
                        <g id="CALL" transform="translate(8.000000, 76.000000) scale(-1, 1) rotate(-270.000000) translate(-8.000000, -76.000000) translate(0.000000, 68.000000)">
                            <path d="M12.4800204,15.8805628 C13.9495698,15.5478513 16.461502,15.0530033 15.7939017,12.8165158 C14.9454167,9.97406118 12.5537042,7.38738635 10.574826,5.40775153 L10.5748786,5.40770071 C10.5729218,5.40581835 10.5709649,5.40376659 10.5689892,5.40180894 C10.5670323,5.39992659 10.5650755,5.39787482 10.5630998,5.39591718 L10.5630452,5.395968 C8.58343692,3.41708988 5.99675965,1.02537976 3.15430782,0.176897882 C0.917822346,-0.490701176 0.422974371,2.02122918 0.0902608345,3.49077647 L4.83693243,5.57807812 L6.69681773,4.57514541 C7.38510446,5.01427388 8.5734851,6.11604329 9.30846959,6.85057318 C10.0430025,7.58554541 11.144767,8.77393506 11.583895,9.46222306 L10.3927277,11.1338729 L12.4800298,15.8805459 L12.4800204,15.8805628 Z" id="path4185"></path>
                        </g>
                    </g>
                </g>
            </g>
        </g>
    </g>
</svg>