<svg xmlns="http://www.w3.org/2000/svg" height="16" width="16"><path opacity=".12" fill="none" color="#000" d="M15.997 15.998v-16h-16v16z"/><path style="text-decoration-color:#000;font-variant-numeric:normal;text-decoration-line:none;font-variant-position:normal;mix-blend-mode:normal;block-progression:tb;font-feature-settings:normal;shape-padding:0;font-variant-alternates:normal;text-indent:0;font-variant-caps:normal;text-decoration-style:solid;font-variant-ligatures:normal;isolation:auto;text-transform:none" d="M8 0c-.587 0-1.142.109-1.651.329a3.795 3.795 0 0 0-1.329.912h-.004a4.235 4.235 0 0 0-.844 1.426 5.128 5.128 0 0 0-.299 1.787c0 .653.098 1.256.3 1.802a4.26 4.26 0 0 0 .843 1.41h.004c.25.264.531.49.841.676-.258.066-.701.144-.956.237-.878.322-1.617.766-2.196 1.334h-.004a5.586 5.586 0 0 0-1.286 2.03h-.002a7.541 7.541 0 0 0-.394 2.464v1.572L14.98 16v-1.572c0-.891-.139-1.7-.42-2.467a5.19 5.19 0 0 0-1.291-2.039c-.58-.567-1.316-1.011-2.194-1.333-.25-.093-.687-.17-.94-.236.31-.187.59-.414.834-.681.373-.397.661-.872.86-1.411a5.17 5.17 0 0 0 .3-1.803c0-.645-.098-1.243-.3-1.788a4.108 4.108 0 0 0-.86-1.427A3.652 3.652 0 0 0 9.652.33 4.14 4.14 0 0 0 8.001 0z" fill="#666" color="#000" white-space="normal"/></svg>
