<?xml version="1.0" encoding="UTF-8" standalone="no"?>
<!-- Created with Inkscape (http://www.inkscape.org/) -->

<svg
   xmlns:dc="http://purl.org/dc/elements/1.1/"
   xmlns:cc="http://creativecommons.org/ns#"
   xmlns:rdf="http://www.w3.org/1999/02/22-rdf-syntax-ns#"
   xmlns:svg="http://www.w3.org/2000/svg"
   xmlns="http://www.w3.org/2000/svg"
   xmlns:sodipodi="http://sodipodi.sourceforge.net/DTD/sodipodi-0.dtd"
   xmlns:inkscape="http://www.inkscape.org/namespaces/inkscape"
   width="47.94035"
   height="47.94035"
   viewBox="0 0 47.94035 47.94035"
   id="svg4400"
   version="1.1"
   inkscape:version="0.48.3.1 r9886"
   sodipodi:docname="category-file-server.svg">
  <defs
     id="defs4402" />
  <sodipodi:namedview
     id="base"
     pagecolor="#ffffff"
     bordercolor="#666666"
     borderopacity="1.0"
     inkscape:pageopacity="0.0"
     inkscape:pageshadow="2"
     inkscape:zoom="5.0931703"
     inkscape:cx="85.779492"
     inkscape:cy="6.1041666"
     inkscape:document-units="px"
     inkscape:current-layer="layer1"
     showgrid="true"
     fit-margin-top="0"
     fit-margin-left="0"
     fit-margin-right="0"
     fit-margin-bottom="0"
     inkscape:window-width="1920"
     inkscape:window-height="1029"
     inkscape:window-x="0"
     inkscape:window-y="24"
     inkscape:window-maximized="1">
    <inkscape:grid
       type="xygrid"
       id="grid4469"
       empspacing="8"
       visible="true"
       enabled="true"
       snapvisiblegridlinesonly="true" />
  </sodipodi:namedview>
  <metadata
     id="metadata4405">
    <rdf:RDF>
      <cc:Work
         rdf:about="">
        <dc:format>image/svg+xml</dc:format>
        <dc:type
           rdf:resource="http://purl.org/dc/dcmitype/StillImage" />
        <dc:title></dc:title>
      </cc:Work>
    </rdf:RDF>
  </metadata>
  <g
     inkscape:label="Layer 1"
     inkscape:groupmode="layer"
     id="layer1"
     transform="translate(-630.31553,-996.96343)">
    <path
       inkscape:connector-curvature="0"
       style="font-size:medium;font-style:normal;font-variant:normal;font-weight:normal;font-stretch:normal;text-indent:0;text-align:start;text-decoration:none;line-height:normal;letter-spacing:normal;word-spacing:normal;text-transform:none;direction:ltr;block-progression:tb;writing-mode:lr-tb;text-anchor:start;baseline-shift:baseline;color:#000000;fill:#505050;fill-opacity:1;stroke:none;stroke-width:2;marker:none;visibility:visible;display:inline;overflow:visible;enable-background:accumulate;font-family:Sans;-inkscape-font-specification:Sans"
       d="m 634.81553,996.90381 c -2.46705,0 -4.5,2.03295 -4.5,4.49999 l 0,3 0,1.5 0,25.5 c 0,2.4671 2.03295,4.5 4.5,4.5 l 9.5,0 0,-3 -9.5,0 c -0.85695,0 -1.5,-0.643 -1.5,-1.5 l 0,-25.5 0,-1.5 0,-3 c 0,-0.857 0.64305,-1.49999 1.5,-1.49999 l 12,0 c 0.8569,0 1.5,0.64299 1.5,1.49999 -0.002,0.047 -0.002,0.094 0,0.1406 l 0,1.3593 1.2657,0 0.2343,0 24,0 c 0.8569,0 1.5,0.6431 1.5,1.5 l 0,27 0,4.2188 c 1.7336,-0.6275 3,-2.2811 3,-4.2188 l 0,-27 c 0,-2.467 -2.0329,-4.49996 -4.5,-4.49996 l -23.1093,0 c -0.6631,-1.66422 -2.0029,-3 -3.8907,-3 l -12,0 z m 15.32985,16.99989 c -1.662,0 -3,1.338 -3,3 l 0,25.0001 c 0,1.662 1.338,3 3,3 l 19.17015,0 c 1.662,0 3,-1.338 3,-3 l 0,-25 c 0,-1.662 -1.338,-3 -3,-3 z m 2.41915,4.0001 c 0.016,-2e-4 0.031,-2e-4 0.047,0 0.047,0 0.094,0 0.141,0 0.047,0 0.094,0 0.141,0 0.047,0 0.094,0 0.141,0 l 13.775,0 c 0.7845,-0.011 1.506,0.7075 1.506,1.5 0,0.7925 -0.7215,1.5112 -1.506,1.5 l -13.775,0 c -0.7774,0.1238 -1.5963,-0.4779 -1.719,-1.2632 -0.1227,-0.7853 0.4727,-1.6126 1.2501,-1.7368 z m 0,6 c 0.016,-2e-4 0.031,-2e-4 0.047,0 0.047,0 0.094,0 0.141,0 0.047,0 0.094,0 0.141,0 0.047,0 0.094,0 0.141,0 l 13.775,0 c 0.7845,-0.011 1.506,0.7075 1.506,1.5 0,0.7926 -0.7215,1.5112 -1.506,1.5 l -13.775,0 c -0.7774,0.1238 -1.5963,-0.4779 -1.719,-1.2632 -0.1227,-0.7853 0.4727,-1.6126 1.2501,-1.7368 z m 0,6 c 0.016,-2e-4 0.031,-2e-4 0.047,0 0.047,0 0.094,0 0.141,0 0.047,0 0.094,0 0.141,0 0.047,0 0.094,0 0.141,0 l 7.775,0 c 0.7845,-0.011 1.506,0.7075 1.506,1.5 0,0.7926 -0.7215,1.5112 -1.506,1.5 l -7.775,0 c -0.7774,0.1238 -1.5963,-0.4779 -1.719,-1.2632 -0.1227,-0.7853 0.4727,-1.6126 1.2501,-1.7368 z"
       id="rect4570-0"
       sodipodi:nodetypes="csccssccssccssscccccssccssscsccsssssssssccccccsccsccccccccsccsccccccccsccscc" />
  </g>
</svg>
