<?xml version="1.0" encoding="iso-8859-1"?><!-- Generator: Adobe Illustrator 16.0.0, SVG Export Plug-In . SVG Version: 6.00 Build 0) --><!DOCTYPE svg PUBLIC "-//W3C//DTD SVG 1.1//EN" "http://www.w3.org/Graphics/SVG/1.1/DTD/svg11.dtd"><svg version="1.1" id="Layer_1" xmlns="http://www.w3.org/2000/svg" xmlns:xlink="http://www.w3.org/1999/xlink" x="0px" y="0px" width="827.216px" height="99.265px" viewBox="-137.945 347.991 827.216 99.265" style="enable-background:new -137.945 347.991 827.216 99.265;" xml:space="preserve"><g><g><g><path style="fill:#303035;" d="M-45.205,445.391h-10.719V384.34c0-4.661,0.466-10.72,0.933-17.709h-0.467	c-0.932,4.193-1.863,6.989-2.796,8.854l-30.758,69.44h-5.126l-30.758-68.508c-0.933-1.863-1.864-5.127-2.796-9.32h-0.466	c0.466,3.728,0.466,9.32,0.466,17.708v60.585h-10.253v-90.41h13.98l27.962,63.38c2.33,4.66,3.263,8.39,4.194,10.72h0.466	c2.331-5.593,3.729-9.319,4.194-11.186l28.429-62.915h13.515L-45.205,445.391L-45.205,445.391z"/></g></g><g><g><path style="fill:#303035;" d="M-14.446,357.311c0,1.864-0.467,3.728-1.864,4.659c-1.398,1.398-2.796,1.863-4.661,1.863	c-1.864,0-3.728-0.465-4.66-1.863c-1.397-1.397-1.864-2.795-1.864-5.126c0-1.864,0.467-3.263,1.864-4.66	c1.398-1.399,2.796-1.864,4.66-1.864c1.865,0,3.729,0.465,4.661,1.864C-14.913,354.048-14.446,355.447-14.446,357.311z M-15.845,445.391h-10.253v-64.779h10.253V445.391z"/></g></g><g><g><path style="fill:#303035;" d="M45.206,442.594c-5.126,3.264-10.719,4.661-17.708,4.661c-6.059,0-11.185-1.397-15.846-4.193	c-4.66-2.797-8.389-6.525-11.185-11.652c-2.797-5.126-3.729-10.718-3.729-16.776c0-10.72,3.262-19.107,9.321-25.632	c6.059-6.524,14.447-9.788,24.7-9.788c5.592,0,10.719,0.934,14.913,3.263v10.719c-4.661-3.263-9.787-5.126-15.379-5.126	c-6.524,0-12.116,2.329-16.312,6.991c-4.195,4.659-6.059,11.184-6.059,18.641c0,7.456,1.863,13.517,6.059,17.709	c4.194,4.195,9.321,6.525,15.845,6.525c5.593,0,11.185-1.864,15.846-5.594v10.253H45.206z"/></g></g><g><g><path style="fill:#303035;" d="M90.878,391.332c-1.863-1.398-4.66-1.863-7.923-1.863c-4.659,0-8.388,2.329-11.185,6.522	c-2.795,4.195-4.194,9.787-4.194,16.777v33.09H57.323v-65.246h10.253v13.516h0.466c1.398-4.659,3.729-7.923,6.525-10.719	c2.795-2.796,6.523-3.729,10.252-3.729c2.797,0,4.662,0.467,6.059,0.932V391.332L90.878,391.332z"/></g></g><g><g><path style="fill:#303035;" d="M155.658,412.768c0,10.253-2.796,18.642-8.854,24.701c-6.059,6.058-13.516,9.319-23.302,9.319	c-9.787,0-17.243-3.263-22.837-9.319c-5.591-6.061-8.389-13.981-8.389-24.234c0-10.719,2.798-19.108,8.855-25.166	c6.058-6.059,13.979-9.321,24.233-9.321c9.786,0,17.243,2.797,22.37,8.856C153.328,394.126,155.658,402.515,155.658,412.768z M145.405,413.234c0-7.923-1.864-14.446-5.592-18.642c-3.729-4.195-8.854-6.524-15.38-6.524c-6.523,0-12.116,2.329-15.844,6.524	c-3.729,4.661-5.593,10.719-5.593,18.642c0,7.922,1.864,13.981,6.059,18.175c3.729,4.195,9.32,6.525,15.845,6.525	c6.525,0,12.117-2.33,15.38-6.525C143.541,427.216,145.405,421.156,145.405,413.234z"/></g></g><g><g><path style="fill:#303035;" d="M203.659,428.147c0,5.593-2.331,10.253-6.523,13.516c-4.194,3.729-10.253,5.126-17.243,5.126	c-6.06,0-11.65-1.397-15.846-3.728v-11.185c5.127,4.192,10.719,6.058,16.776,6.058c8.39,0,12.118-2.797,12.118-8.854	c0-2.33-0.933-4.66-2.331-6.06c-1.397-1.396-5.125-3.728-10.718-6.058c-5.592-2.331-9.787-5.127-12.117-7.925	c-2.331-2.796-3.729-6.522-3.729-11.186c0-5.125,2.331-9.785,6.524-13.514c4.193-3.729,9.787-5.594,16.312-5.594	c5.126,0,9.786,0.933,13.98,3.264v10.252c-4.194-3.263-9.321-4.659-14.448-4.659c-3.261,0-6.058,0.93-8.387,2.329	c-1.864,1.864-3.263,3.729-3.263,6.524c0,2.798,0.932,5.127,2.33,6.524c1.397,1.397,5.127,3.262,9.788,5.593	c6.059,2.796,10.253,5.126,13.049,8.39C202.262,420.224,203.659,423.953,203.659,428.147z"/></g></g><g><g><path style="fill:#303035;" d="M274.031,412.768c0,10.253-2.796,18.642-8.854,24.701c-6.059,6.058-13.516,9.319-23.302,9.319	c-9.785,0-17.242-3.263-22.835-9.319c-5.592-6.061-8.39-13.981-8.39-24.234c0-10.719,2.797-19.108,8.854-25.166	c6.059-6.059,13.981-9.321,24.234-9.321c9.786,0,17.243,2.797,22.37,8.856C271.234,394.126,274.031,402.515,274.031,412.768z M263.312,413.234c0-7.923-1.864-14.446-5.592-18.642c-3.729-4.195-8.854-6.524-15.379-6.524s-12.116,2.329-15.845,6.524	c-3.728,4.661-5.593,10.719-5.593,18.642c0,7.922,1.865,13.981,6.058,18.175c3.729,4.195,9.321,6.525,15.846,6.525	s12.117-2.33,15.379-6.525C261.914,427.216,263.312,421.156,263.312,413.234z"/></g></g><g><g><path style="fill:#303035;" d="M316.44,358.708c-1.865-0.933-4.193-1.864-6.99-1.864c-7.457,0-10.72,4.661-10.72,13.515v10.253	h15.381v8.856H298.73v55.923h-10.718v-55.923h-11.186v-8.856h11.186v-10.253c0-6.523,1.863-11.65,5.592-15.845	c4.194-4.194,9.321-6.523,15.379-6.523c3.264,0,5.592,0.466,7.457,0.932V358.708z"/></g></g><g><g><path style="fill:#303035;" d="M351.393,444.925c-2.33,1.396-5.593,1.863-9.786,1.863c-11.186,0-16.778-6.523-16.778-19.106	v-38.214h-11.185v-8.856h11.185v-15.845l10.253-3.262v19.106h16.312v8.856h-16.312v36.35c0,4.194,0.934,7.456,2.332,9.32	c1.397,1.864,3.729,2.797,7.454,2.797c2.797,0,4.661-0.466,6.525-1.864V444.925z"/></g></g><g><g><path style="fill:#303035;" d="M459.98,445.391h-11.65l-9.32-25.167h-38.682l-8.855,25.167h-11.65l34.021-90.411h11.186	L459.98,445.391z M435.28,410.438l-14.448-38.682c-0.465-0.933-0.933-2.796-1.396-6.059h-0.468	c-0.466,2.796-0.934,4.66-1.396,6.059l-13.98,38.682H435.28z"/></g></g><g><g><path style="fill:#303035;" d="M518.234,383.408l-38.681,53.128h37.748v8.854h-53.126v-3.262l38.214-52.662h-34.486v-8.856	h49.865v2.796h0.466V383.408z"/></g></g><g><g><path style="fill:#303035;" d="M580.218,445.391h-10.253v-10.253H569.5c-4.194,7.924-10.721,11.65-20.041,11.65	c-15.379,0-23.301-9.319-23.301-27.496v-38.682h10.253v37.283c0,13.515,5.125,20.506,15.845,20.506	c5.127,0,9.319-1.864,12.584-5.592c3.261-3.729,4.66-8.391,4.66-14.448v-37.749h10.252v64.779L580.218,445.391L580.218,445.391z"	/></g></g><g><g><path style="fill:#303035;" d="M631.482,391.332c-1.864-1.398-4.661-1.863-7.924-1.863c-4.659,0-8.389,2.329-11.184,6.522	c-2.797,4.195-4.195,9.787-4.195,16.777v33.09h-10.253v-65.246h10.253v13.516h0.467c1.396-4.659,3.729-7.923,6.523-10.719	s6.523-3.729,10.252-3.729c2.798,0,4.662,0.467,6.061,0.932V391.332z"/></g></g><g><g><path style="fill:#303035;" d="M689.27,415.564H643.6c0,7.456,1.862,13.049,5.592,16.776c3.729,3.729,8.854,5.594,15.379,5.594	c7.457,0,13.981-2.33,20.041-6.99v9.786c-5.594,4.194-13.05,6.059-22.37,6.059s-16.312-2.796-21.438-8.854	c-5.127-6.059-7.924-13.981-7.924-24.7c0-6.523,1.397-12.117,3.729-17.709c2.797-5.127,6.061-9.321,10.721-12.117	s9.785-4.194,15.379-4.194c8.389,0,14.912,2.797,19.573,8.391c4.659,5.592,6.989,13.049,6.989,22.835L689.27,415.564	L689.27,415.564z M678.552,406.71c0-6.059-1.397-10.72-4.193-13.981c-2.797-3.261-6.525-5.125-11.652-5.125	c-4.659,0-8.854,1.864-12.116,5.125c-3.263,3.262-5.593,7.924-6.524,13.515h34.487L678.552,406.71L678.552,406.71z"/></g></g></g></svg>