<svg xmlns="http://www.w3.org/2000/svg" width="16" height="16" viewBox="0 0 16 15.999999"><g color="#000" fill="gray"><path style="line-height:normal;-inkscape-font-specification:sans-serif;text-indent:0;text-align:start;text-decoration-line:none;text-transform:none;block-progression:tb" d="M1.167 16C.53 16 0 15.47 0 14.834v-2.667C0 11.53.53 11 1.167 11h2.666C4.47 11 5 11.53 5 12.167v2.667C5 15.47 4.47 16 3.833 16H1.167zm0-1h2.666c.1 0 .167-.065.167-.166v-2.667c0-.1-.066-.167-.167-.167H1.167c-.1 0-.167.066-.167.167v2.667c0 .1.066.166.167.166zM12.167 5C11.53 5 11 4.47 11 3.834V1.167C11 .53 11.53 0 12.167 0h2.666C15.47 0 16 .53 16 1.167v2.667C16 4.47 15.47 5 14.833 5h-2.666zm0-1h2.666c.1 0 .167-.065.167-.166V1.167c0-.1-.066-.167-.167-.167h-2.666c-.1 0-.167.066-.167.167v2.667c0 .1.066.166.167.166zM8 10c-1.097 0-2-.903-2-2 0-1.096.903-2 2-2s2 .904 2 2c0 1.097-.903 2-2 2z" font-size="xx-small" font-family="sans-serif" overflow="visible"/><path style="line-height:normal;-inkscape-font-specification:sans-serif;text-indent:0;text-align:start;text-decoration-line:none;text-transform:none;block-progression:tb" d="M11.646 3.647l-8 8 .708.707 8-8-.708-.707z" font-size="xx-small" font-family="sans-serif" overflow="visible"/><path overflow="visible" d="M12 9h1v7h-1z"/><path overflow="visible" d="M16 12v1H9v-1z"/></g></svg>