<?xml version="1.0" encoding="utf-8"?>
<!-- Generator: Adobe Illustrator 16.0.0, SVG Export Plug-In . SVG Version: 6.00 Build 0)  -->
<!DOCTYPE svg PUBLIC "-//W3C//DTD SVG 1.1//EN" "http://www.w3.org/Graphics/SVG/1.1/DTD/svg11.dtd">
<svg version="1.1" id="Layer_1" xmlns="http://www.w3.org/2000/svg" xmlns:xlink="http://www.w3.org/1999/xlink" x="0px" y="0px"
	 width="53.578px" height="52px" viewBox="0 0 53.578 52" enable-background="new 0 0 53.578 52" xml:space="preserve">
<filter  id="AI_GaussianBlur_5">
	<feGaussianBlur  stdDeviation="1"></feGaussianBlur>
</filter>
<g display="none" opacity="0.95" filter="url(#AI_GaussianBlur_5)">
	<ellipse display="inline" cx="26.749" cy="25.998" rx="23.42" ry="24"/>
</g>
<radialGradient id="SVGID_1_" cx="24.2856" cy="52.9932" r="51.0179" gradientUnits="userSpaceOnUse">
	<stop  offset="0" style="stop-color:#302B28"/>
	<stop  offset="1" style="stop-color:#4D4D4D"/>
</radialGradient>
<circle fill="url(#SVGID_1_)" cx="26.874" cy="24.5" r="24.5"/>
<g>
	<g>
		<g>
			<polyline fill="none" stroke="#1A1A1A" stroke-miterlimit="10" points="11.923,16.5 19.743,16.5 33.982,28.5 40.923,28.5 			"/>
			<g>
				<polygon fill="#1A1A1A" points="37.175,32.883 36.494,32.15 40.105,28.794 36.494,25.437 37.175,24.704 41.574,28.794 				"/>
			</g>
		</g>
		<g>
			<polyline fill="none" stroke="#1A1A1A" stroke-miterlimit="10" points="11.923,28.5 19.743,28.5 33.982,16.5 40.923,16.5 			"/>
			<g>
				<polygon fill="#1A1A1A" points="37.175,20.405 36.494,19.672 40.105,16.316 36.494,12.958 37.175,12.226 41.574,16.316 				"/>
			</g>
		</g>
	</g>
</g>
<g>
	<g>
		<g>
			<polyline fill="none" stroke="#FFFFFF" stroke-miterlimit="10" points="11.923,17.5 19.743,17.5 33.982,30.5 40.923,30.5 			"/>
			<g>
				<polygon fill="#FFFFFF" points="37.175,34.447 36.494,33.715 40.105,30.358 36.494,27.001 37.175,26.269 41.574,30.358 				"/>
			</g>
		</g>
		<g>
			<polyline fill="none" stroke="#FFFFFF" stroke-miterlimit="10" points="11.923,30.5 19.743,30.5 33.982,17.5 40.923,17.5 			"/>
			<g>
				<polygon fill="#FFFFFF" points="37.175,21.968 36.494,21.236 40.105,17.879 36.494,14.522 37.175,13.79 41.574,17.879 				"/>
			</g>
		</g>
	</g>
</g>
</svg>
