<?xml version="1.0" encoding="UTF-8" standalone="no"?>
<svg
   xmlns:dc="http://purl.org/dc/elements/1.1/"
   xmlns:cc="http://creativecommons.org/ns#"
   xmlns:rdf="http://www.w3.org/1999/02/22-rdf-syntax-ns#"
   xmlns:svg="http://www.w3.org/2000/svg"
   xmlns="http://www.w3.org/2000/svg"
   id="svg4493"
   version="1.1"
   viewBox="0 0 30.823957 23.918333"
   height="23.918333mm"
   width="30.823957mm">
  <defs
     id="defs4487" />
  <metadata
     id="metadata4490">
    <rdf:RDF>
      <cc:Work
         rdf:about="">
        <dc:format>image/svg+xml</dc:format>
        <dc:type
           rdf:resource="http://purl.org/dc/dcmitype/StillImage" />
        <dc:title></dc:title>
      </cc:Work>
    </rdf:RDF>
  </metadata>
  <g
     transform="translate(-40.528497,-111.92774)"
     id="layer1">
    <g
       id="g4537"
       transform="matrix(0.26458333,0,0,0.26458333,36.533289,107.93253)">
      <path
         d="m 36.3,105.3 v -6 c 0,-2.3 -1.4,-3.8 -3.8,-3.8 -1.2,0 -2.5,0.4 -3.4,1.7 -0.7,-1.1 -1.7,-1.7 -3.2,-1.7 -1,0 -2,0.3 -2.8,1.4 V 95.7 H 21 v 9.6 h 2.1 V 100 c 0,-1.7 0.9,-2.5 2.3,-2.5 1.4,0 2.1,0.9 2.1,2.5 v 5.3 h 2.1 V 100 c 0,-1.7 1,-2.5 2.3,-2.5 1.4,0 2.1,0.9 2.1,2.5 v 5.3 z M 67.4,95.7 H 64 v -2.9 h -2.1 v 2.9 H 60 v 1.9 h 1.9 v 4.4 c 0,2.2 0.9,3.5 3.3,3.5 0.9,0 1.9,-0.3 2.6,-0.7 L 67.2,103 c -0.6,0.4 -1.3,0.5 -1.8,0.5 -1,0 -1.4,-0.6 -1.4,-1.6 v -4.3 h 3.4 z m 17.8,-0.2 c -1.2,0 -2,0.6 -2.5,1.4 v -1.2 h -2.1 v 9.6 h 2.1 v -5.4 c 0,-1.6 0.7,-2.5 2,-2.5 0.4,0 0.9,0.1 1.3,0.2 l 0.6,-2 c -0.4,-0.1 -1,-0.1 -1.4,-0.1 z m -26.9,1 c -1,-0.7 -2.4,-1 -3.9,-1 -2.4,0 -4,1.2 -4,3.1 0,1.6 1.2,2.5 3.3,2.8 l 1,0.1 c 1.1,0.2 1.7,0.5 1.7,1 0,0.7 -0.8,1.2 -2.2,1.2 -1.4,0 -2.5,-0.5 -3.2,-1 l -1,1.6 c 1.1,0.8 2.6,1.2 4.1,1.2 2.8,0 4.4,-1.3 4.4,-3.1 0,-1.7 -1.3,-2.6 -3.3,-2.9 l -1,-0.1 c -0.9,-0.1 -1.6,-0.3 -1.6,-0.9 0,-0.7 0.7,-1.1 1.8,-1.1 1.2,0 2.4,0.5 3,0.8 z m 55.8,-1 c -1.2,0 -2,0.6 -2.5,1.4 v -1.2 h -2.1 v 9.6 h 2.1 v -5.4 c 0,-1.6 0.7,-2.5 2,-2.5 0.4,0 0.9,0.1 1.3,0.2 l 0.6,-2 c -0.4,-0.1 -1,-0.1 -1.4,-0.1 z m -26.8,5 c 0,2.9 2,5 5.1,5 1.4,0 2.4,-0.3 3.4,-1.1 l -1,-1.7 c -0.8,0.6 -1.6,0.9 -2.5,0.9 -1.7,0 -2.9,-1.2 -2.9,-3.1 0,-1.8 1.2,-3 2.9,-3.1 0.9,0 1.7,0.3 2.5,0.9 l 1,-1.7 c -1,-0.8 -2,-1.1 -3.4,-1.1 -3.1,0 -5.1,2.1 -5.1,5 z m 19.4,0 v -4.8 h -2.1 v 1.2 c -0.7,-0.9 -1.7,-1.4 -3,-1.4 -2.7,0 -4.8,2.1 -4.8,5 0,2.9 2.1,5 4.8,5 1.4,0 2.4,-0.5 3,-1.4 v 1.2 h 2.1 z m -7.7,0 c 0,-1.7 1.1,-3.1 2.9,-3.1 1.7,0 2.9,1.3 2.9,3.1 0,1.7 -1.2,3.1 -2.9,3.1 -1.8,-0.1 -2.9,-1.4 -2.9,-3.1 z m -25.1,-5 c -2.8,0 -4.8,2 -4.8,5 0,3 2,5 4.9,5 1.4,0 2.8,-0.4 3.9,-1.3 l -1,-1.5 c -0.8,0.6 -1.8,1 -2.8,1 -1.3,0 -2.6,-0.6 -2.9,-2.3 h 7.1 v -0.8 c 0.1,-3.1 -1.7,-5.1 -4.4,-5.1 z m 0,1.8 c 1.3,0 2.2,0.8 2.4,2.3 h -5 c 0.2,-1.3 1.1,-2.3 2.6,-2.3 z m 52.1,3.2 v -8.6 h -2.1 v 5 c -0.7,-0.9 -1.7,-1.4 -3,-1.4 -2.7,0 -4.8,2.1 -4.8,5 0,2.9 2.1,5 4.8,5 1.4,0 2.4,-0.5 3,-1.4 v 1.2 h 2.1 z m -7.7,0 c 0,-1.7 1.1,-3.1 2.9,-3.1 1.7,0 2.9,1.3 2.9,3.1 0,1.7 -1.2,3.1 -2.9,3.1 -1.8,-0.1 -2.9,-1.4 -2.9,-3.1 z m -70.2,0 V 95.7 H 46 v 1.2 c -0.7,-0.9 -1.7,-1.4 -3,-1.4 -2.7,0 -4.8,2.1 -4.8,5 0,2.9 2.1,5 4.8,5 1.4,0 2.4,-0.5 3,-1.4 v 1.2 h 2.1 z m -7.8,0 c 0,-1.7 1.1,-3.1 2.9,-3.1 1.7,0 2.9,1.3 2.9,3.1 0,1.7 -1.2,3.1 -2.9,3.1 -1.8,-0.1 -2.9,-1.4 -2.9,-3.1 z"
         id="XMLID_1775_" />
      <path
         style="fill:#ff5f00"
         d="M 57.6,22.8 H 89.1 V 79.4 H 57.6 Z"
         id="rect9"
         class="st1" />
      <path
         style="fill:#eb001b"
         d="M 59.6,51.1 C 59.6,39.6 65,29.4 73.3,22.8 67.2,18 59.5,15.1 51.1,15.1 c -19.9,0 -36,16.1 -36,36 0,19.9 16.1,36 36,36 8.4,0 16.1,-2.9 22.2,-7.7 C 65,72.9 59.6,62.6 59.6,51.1 Z"
         class="st2"
         id="XMLID_330_" />
      <path
         style="fill:#f79e1b"
         id="path12"
         d="m 131.6,51.1 c 0,19.9 -16.1,36 -36,36 -8.4,0 -16.1,-2.9 -22.2,-7.7 8.4,-6.6 13.7,-16.8 13.7,-28.3 0,-11.5 -5.4,-21.7 -13.7,-28.3 6.1,-4.8 13.8,-7.7 22.2,-7.7 19.9,0 36,16.2 36,36 z"
         class="st3" />
    </g>
  </g>
</svg>
