<?xml version="1.0" encoding="UTF-8" standalone="no"?>
<!DOCTYPE svg  PUBLIC '-//W3C//DTD SVG 1.1//EN'  'http://www.w3.org/Graphics/SVG/1.1/DTD/svg11.dtd'>
<svg stroke-linejoin="round" xmlns="http://www.w3.org/2000/svg" fill-rule="evenodd" xml:space="preserve" height="100%" width="100%" version="1.1" stroke-miterlimit="1.4142" clip-rule="evenodd" xmlns:xlink="http://www.w3.org/1999/xlink" viewBox="0 0 1125 825">
    <g transform="scale(4.1667)" fill-rule="nonzero">
        <path fill="#fff" d="m268.26 178.8c0 9.76-8.1 17.67-18.08 17.67h-230.57c-9.983 0-18.077-7.91-18.077-17.67v-159.34c0-9.759 8.094-17.67 18.08-17.67h230.57c9.98 0 18.08 7.911 18.08 17.673v159.34z"/>
        <path fill="#01528b" d="m19.613 198c-10.806-0.02-19.61-8.57-19.613-19.2v-159.34c0.003-10.633 8.807-19.186 19.613-19.204h230.56c10.81 0.018 19.61 8.571 19.62 19.207v159.34c-0.01 10.63-8.81 19.18-19.62 19.2h-230.56zm-16.549-178.54v159.34c0.018 8.88 7.381 16.13 16.549 16.13h230.56c9.17 0 16.54-7.25 16.55-16.13v-159.34c-0.01-8.885-7.38-16.137-16.55-16.137h-230.56c-9.165 0-16.528 7.252-16.546 16.14z"/>
        <path fill="#231f20" d="m26.039 119.59c0-4.36-2.28-4.08-4.462-4.12v-1.27c1.892 0.1 3.832 0.1 5.729 0.1 2.038 0 4.805-0.1 8.4-0.1 12.572 0 19.42 8.4 19.42 17 0 4.81-2.817 16.89-20.005 16.89-2.473 0-4.758-0.09-7.039-0.09-2.183 0-4.323 0.04-6.505 0.09v-1.26c2.91-0.29 4.322-0.39 4.462-3.69v-23.55zm4.759 22.77c0 3.74 2.673 4.18 5.051 4.18 10.49 0 13.932-7.92 13.932-15.15 0-9.08-5.825-15.63-15.194-15.63-1.995 0-2.913 0.14-3.789 0.19v26.41z"/>
        <path fill="#231f20" d="m56.827 146.83h0.92c1.359 0 2.331 0 2.331-1.61v-13.15c0-2.13-0.727-2.43-2.526-3.4v-0.77c2.282-0.69 5.003-1.6 5.195-1.75 0.341-0.19 0.629-0.25 0.876-0.25 0.237 0 0.337 0.3 0.337 0.69v18.63c0 1.61 1.071 1.61 2.432 1.61h0.821v1.26c-1.65 0-3.353-0.09-5.094-0.09-1.748 0-3.497 0.04-5.292 0.09v-1.26zm5.194-28.4c-1.266 0-2.379-1.17-2.379-2.43 0-1.21 1.167-2.33 2.379-2.33 1.26 0 2.379 1.02 2.379 2.33 0 1.32-1.07 2.43-2.379 2.43z"/>
        <path fill="#231f20" d="m71.828 132.36c0-1.79-0.536-2.28-2.814-3.2v-0.92c2.084-0.68 4.072-1.32 6.405-2.34 0.147 0 0.289 0.1 0.289 0.49v3.15c2.772-1.98 5.151-3.64 8.409-3.64 4.121 0 5.577 3.02 5.577 6.8v12.52c0 1.61 1.071 1.61 2.429 1.61h0.876v1.26c-1.706 0-3.402-0.09-5.148-0.09-1.749 0-3.498 0.04-5.246 0.09v-1.26h0.876c1.36 0 2.327 0 2.327-1.61v-12.56c0-2.78-1.691-4.13-4.462-4.13-1.555 0-4.032 1.26-5.638 2.33v14.36c0 1.61 1.073 1.61 2.433 1.61h0.872v1.26c-1.699 0-3.398-0.09-5.149-0.09-1.744 0-3.494 0.04-5.24 0.09v-1.26h0.876c1.357 0 2.328 0 2.328-1.61v-12.86z"/>
        <path fill="#231f20" d="m96.689 134.7c-0.1 0.43-0.1 1.16 0 2.81 0.285 4.61 3.253 8.4 7.131 8.4 2.68 0 4.77-1.46 6.56-3.25l0.68 0.68c-2.24 2.96-5 5.48-8.98 5.48-7.723 0-9.277-7.48-9.277-10.58 0-9.52 6.408-12.34 9.807-12.34 3.93 0 8.16 2.48 8.21 7.63 0 0.29 0 0.58-0.05 0.87l-0.44 0.3h-13.641zm8.601-1.56c1.21 0 1.35-0.63 1.35-1.22 0-2.47-1.5-4.46-4.22-4.46-2.965 0-5.004 2.18-5.587 5.68h8.457z"/>
        <path fill="#231f20" d="m111.93 146.83h1.32c1.35 0 2.32 0 2.32-1.61v-13.64c0-1.5-1.79-1.79-2.52-2.18v-0.73c3.54-1.5 5.49-2.77 5.93-2.77 0.28 0 0.43 0.15 0.43 0.64v4.37h0.1c1.21-1.9 3.25-5.01 6.21-5.01 1.22 0 2.77 0.83 2.77 2.58 0 1.31-0.92 2.48-2.28 2.48-1.51 0-1.51-1.17-3.21-1.17-0.82 0-3.54 1.12-3.54 4.03v11.4c0 1.61 0.97 1.61 2.33 1.61h2.71v1.26c-2.67-0.05-4.7-0.09-6.79-0.09-1.99 0-4.03 0.04-5.78 0.09v-1.26z"/>
        <path fill="#231f20" d="m130.62 141.34c0.64 3.21 2.58 5.93 6.13 5.93 2.86 0 3.92-1.75 3.92-3.45 0-5.73-10.58-3.88-10.58-11.7 0-2.72 2.19-6.22 7.53-6.22 1.55 0 3.64 0.44 5.53 1.42l0.34 4.94h-1.12c-0.48-3.05-2.18-4.8-5.29-4.8-1.94 0-3.78 1.12-3.78 3.2 0 5.69 11.26 3.94 11.26 11.56 0 3.2-2.57 6.6-8.35 6.6-1.94 0-4.23-0.68-5.92-1.65l-0.54-5.58 0.87-0.25z"/>
        <path fill="#231f20" d="m188.4 122.99h-1.21c-0.93-5.67-4.96-7.96-10.39-7.96-5.59 0-13.7 3.74-13.7 15.39 0 9.81 7 16.85 14.47 16.85 4.81 0 8.79-3.3 9.76-8.4l1.12 0.29-1.12 7.09c-2.03 1.26-7.52 2.57-10.73 2.57-11.36 0-18.54-7.33-18.54-18.25 0-9.96 8.88-17.1 18.4-17.1 3.93 0 7.72 1.27 11.46 2.58l0.48 6.94z"/>
        <path fill="#231f20" d="m190.15 146.83h0.92c1.36 0 2.33 0 2.33-1.61v-27.03c0-3.16-0.72-3.26-2.57-3.79v-0.78c1.94-0.63 3.98-1.5 5-2.09 0.53-0.29 0.92-0.53 1.07-0.53 0.29 0 0.39 0.29 0.39 0.68v33.54c0 1.61 1.07 1.61 2.43 1.61h0.82v1.26c-1.65 0-3.35-0.09-5.1-0.09-1.74 0-3.49 0.04-5.29 0.09v-1.26z"/>
        <path fill="#231f20" d="m221.32 145.42c0 0.88 0.54 0.92 1.36 0.92 0.58 0 1.31-0.04 1.94-0.04v1.02c-2.08 0.19-6.07 1.21-6.99 1.5l-0.24-0.14v-3.94c-2.91 2.38-5.15 4.08-8.6 4.08-2.62 0-5.34-1.7-5.34-5.77v-12.43c0-1.27-0.19-2.48-2.91-2.72v-0.93c1.75-0.05 5.63-0.33 6.26-0.33 0.54 0 0.54 0.33 0.54 1.4v12.53c0 1.46 0 5.63 4.22 5.63 1.65 0 3.84-1.26 5.87-2.96v-13.06c0-0.97-2.33-1.51-4.07-1.99v-0.87c4.36-0.3 7.09-0.68 7.57-0.68 0.39 0 0.39 0.33 0.39 0.87v17.91z"/>
        <path fill="#231f20" d="m230.98 129.4c1.94-1.65 4.57-3.5 7.24-3.5 5.63 0 9.03 4.91 9.03 10.2 0 6.36-4.66 12.72-11.61 12.72-3.59 0-5.48-1.16-6.75-1.7l-1.45 1.12-1.02-0.53c0.44-2.87 0.68-5.68 0.68-8.65v-20.87c0-3.16-0.73-3.26-2.58-3.79v-0.78c1.95-0.63 3.99-1.5 5-2.09 0.54-0.29 0.93-0.53 1.08-0.53 0.28 0 0.38 0.29 0.38 0.68v17.72zm0 13.21c0 1.84 1.75 4.95 5 4.95 5.2 0 7.38-5.1 7.38-9.42 0-5.24-3.98-9.61-7.76-9.61-1.8 0-3.31 1.16-4.62 2.28v11.8z"/>
        <path fill="#231f20" d="m21.522 176.32h0.372c0.949 0 1.954-0.13 1.954-1.5v-13.84c0-1.38-1.005-1.51-1.954-1.51h-0.372v-0.79c1.03 0 2.616 0.1 3.914 0.1 1.319 0 2.902-0.1 4.145-0.1v0.79h-0.373c-0.947 0-1.953 0.13-1.953 1.51v13.84c0 1.37 1.006 1.5 1.953 1.5h0.373v0.8c-1.267 0-2.856-0.1-4.173-0.1-1.297 0-2.856 0.1-3.886 0.1v-0.8z"/>
        <path fill="#231f20" d="m29.581 177.23c-1.279 0-2.86-0.11-4.175-0.11-1.293 0-2.846 0.11-3.884 0.11h-0.115v-0.11-0.8-0.11h0.485c0.959-0.02 1.83-0.1 1.838-1.39v-13.84c-0.008-1.29-0.879-1.38-1.838-1.4h-0.485v-0.11-0.91h0.115c1.038 0 2.622 0.1 3.914 0.1 1.314 0 2.896-0.1 4.145-0.1h0.117v1.02h-0.117-0.369c-0.96 0.02-1.836 0.11-1.842 1.4v13.84c0.006 1.29 0.882 1.37 1.842 1.39h0.486v1.02h-0.117zm-0.115-0.23l0.001-0.56h-0.255c-0.944 0-2.067-0.16-2.074-1.62v-13.84c0.007-1.46 1.13-1.62 2.074-1.62h0.254v-0.57c-1.218 0-2.75 0.11-4.03 0.11-1.256 0-2.775-0.1-3.798-0.11v0.57h0.254c0.942 0 2.067 0.16 2.067 1.62v13.84c0 1.46-1.125 1.62-2.067 1.62h-0.254v0.56c1.023 0 2.515-0.1 3.768-0.1 1.287 0 2.814 0.1 4.06 0.1z"/>
        <path fill="#231f20" d="m47.73 171.91l0.053-0.05v-9.9c0-2.17-1.508-2.49-2.3-2.49h-0.582v-0.79c1.244 0 2.459 0.1 3.698 0.1 1.083 0 2.172-0.1 3.25-0.1v0.79h-0.392c-1.113 0-2.355 0.21-2.355 3.35v12.02c0 0.93 0.026 1.86 0.156 2.68h-1.004l-13.603-15.17v10.89c0 2.3 0.446 3.08 2.481 3.08h0.45v0.8c-1.136 0-2.271-0.1-3.407-0.1-1.186 0-2.403 0.1-3.593 0.1v-0.8h0.37c1.823 0 2.377-1.24 2.377-3.34v-11.14c0-1.47-1.218-2.37-2.402-2.37h-0.345v-0.79c1.002 0 2.034 0.1 3.035 0.1 0.795 0 1.562-0.1 2.354-0.1l11.759 13.23z"/>
        <path fill="#231f20" d="m49.257 177.63l-1.088-0.04-13.406-14.94v10.59c0.031 2.29 0.381 2.94 2.369 2.97h0.566v1.02h-0.116c-1.143 0-2.281-0.11-3.408-0.11-1.183 0-2.397 0.11-3.593 0.11h-0.117v-0.11-0.91h0.489c1.745-0.01 2.244-1.13 2.263-3.24v-11.12c-0.005-1.41-1.158-2.27-2.289-2.27h-0.463v-0.12-0.9h0.117c1.009 0 2.044 0.1 3.034 0.1 0.788 0 1.552-0.1 2.443-0.06l11.61 13.07v-9.71c-0.014-2.1-1.416-2.36-2.185-2.38h-0.698v-0.12-0.9h0.116c1.248 0 2.464 0.1 3.699 0.1 1.074 0 2.157-0.1 3.25-0.1h0.115v1.02h-0.115-0.393c-1.092 0.03-2.21 0.13-2.243 3.24v12.02c0 0.93 0.03 1.85 0.157 2.65l0.024 0.14h-0.138zm-1.003-0.23h0.874c-0.118-0.8-0.139-1.68-0.139-2.56v-12.02c0-3.17 1.329-3.46 2.468-3.47h0.277v-0.56c-1.041 0.01-2.084 0.11-3.134 0.11-1.21 0-2.387-0.1-3.58-0.11l-0.003 0.56h0.466c0.812 0.01 2.414 0.37 2.414 2.61l-0.036 9.98-0.051 0.05-0.091 0.09-11.749-13.29c-0.784 0-1.549 0.11-2.355 0.11-0.968 0-1.96-0.1-2.918-0.11l-0.005 0.56h0.235c1.24 0.01 2.514 0.95 2.514 2.5v11.12c0 2.12-0.588 3.47-2.488 3.47h-0.256v0.56c1.144 0 2.324-0.1 3.477-0.1 1.102 0 2.203 0.1 3.292 0.1v-0.56h-0.334c-2.079 0-2.593-0.91-2.595-3.2v-11.19l13.717 15.35zm-0.523-5.49l0.083-0.07-0.083 0.07zm-0.063-0.05v-0.01l-0.021-0.02 0.021 0.03z"/>
        <path fill="#231f20" d="m55.808 160c-1.984 0-2.06 0.48-2.457 2.4h-0.793c0.104-0.74 0.236-1.48 0.318-2.24 0.106-0.75 0.158-1.48 0.158-2.25h0.634c0.212 0.8 0.873 0.77 1.589 0.77h13.626c0.717 0 1.376-0.03 1.431-0.82l0.63 0.11c-0.102 0.71-0.21 1.42-0.287 2.14-0.051 0.71-0.051 1.42-0.051 2.13l-0.795 0.3c-0.054-0.98-0.184-2.54-1.954-2.54h-4.333v14.05c0 2.04 0.925 2.27 2.191 2.27h0.504v0.8c-1.03 0-2.881-0.1-4.305-0.1-1.587 0-3.438 0.1-4.469 0.1v-0.8h0.504c1.456 0 2.192-0.13 2.192-2.21v-14.11h-4.333z"/>
        <path fill="#231f20" d="m66.221 177.23c-1.041 0-2.888-0.1-4.307-0.1-1.585 0-3.432 0.1-4.469 0.1h-0.112v-0.11-0.91h0.616c1.456-0.03 2.041-0.05 2.075-2.1v-14h-4.216v-0.11-0.12h4.445v14.23c0 2.12-0.855 2.33-2.304 2.33h-0.391v0.56c1.042 0 2.822-0.1 4.356-0.1 1.376 0 3.14 0.1 4.187 0.1v-0.56h-0.386c-1.277 0-2.306-0.31-2.306-2.39v-14.17h4.448c1.772 0.01 2.006 1.51 2.062 2.5l0.571-0.22c0-0.68 0.003-1.38 0.051-2.07 0.077-0.68 0.173-1.35 0.273-2.03l-0.402-0.07c-0.123 0.77-0.867 0.81-1.53 0.8h-13.625-0.138c-0.621 0-1.299-0.03-1.536-0.76h-0.436c-0.005 0.73-0.055 1.43-0.155 2.14-0.079 0.73-0.199 1.42-0.296 2.12h0.564c0.348-1.84 0.574-2.44 2.548-2.41v0.23c-1.956 0.04-1.914 0.37-2.345 2.32l-0.019 0.09h-0.093-0.925l0.015-0.14c0.107-0.74 0.241-1.48 0.318-2.24 0.11-0.74 0.161-1.47 0.161-2.23v-0.11h0.838l0.02 0.08c0.179 0.66 0.667 0.67 1.341 0.68h13.763c0.736-0.01 1.272-0.02 1.317-0.71l0.01-0.13 0.119 0.03 0.747 0.12-0.019 0.11c-0.105 0.71-0.208 1.42-0.287 2.13-0.05 0.71-0.05 1.42-0.05 2.13v0.08l-0.077 0.03-0.934 0.35-0.007-0.16c-0.072-0.99-0.175-2.43-1.844-2.43h-4.218v13.94c0.027 1.99 0.817 2.13 2.076 2.16h0.619v1.02h-0.113z"/>
        <path fill="#231f20" d="m71.788 176.32h0.372c0.949 0 1.955-0.13 1.955-1.5v-13.84c0-1.38-1.006-1.51-1.955-1.51h-0.372v-0.79c1.607 0 4.361 0.1 6.575 0.1 2.224 0 4.967-0.1 6.764-0.1-0.046 1.13-0.021 2.88 0.056 4.04l-0.796 0.21c-0.127-1.72-0.443-3.09-3.219-3.09h-3.668v6.92h3.138c1.585 0 1.931-0.9 2.087-2.32h0.792c-0.052 1.03-0.08 2.06-0.08 3.09 0 1 0.028 2.01 0.08 3.01l-0.792 0.16c-0.156-1.59-0.236-2.62-2.06-2.62h-3.165v6.16c0 1.72 1.527 1.72 3.218 1.72 3.171 0 4.57-0.22 5.364-3.22l0.737 0.18c-0.344 1.4-0.659 2.8-0.895 4.2-1.693 0-4.731-0.1-7.104-0.1-2.383 0-5.524 0.1-7.032 0.1v-0.8z"/>
        <path fill="#231f20" d="m85.922 177.23c-1.695 0-4.735-0.11-7.105-0.11-2.38 0-5.52 0.11-7.029 0.11h-0.111v-0.11-0.8-0.11h0.483c0.956-0.02 1.826-0.1 1.838-1.39v-13.84c-0.012-1.29-0.882-1.38-1.838-1.4h-0.483v-0.11-0.91h0.111c1.614 0 4.362 0.1 6.576 0.1 2.221 0 4.964-0.1 6.763-0.1h0.117l-0.004 0.12c-0.017 0.4-0.028 0.87-0.028 1.37 0 0.91 0.028 1.91 0.08 2.66l0.005 0.1-0.089 0.02-0.929 0.25-0.004-0.14c-0.156-1.71-0.386-2.96-3.107-2.99h-3.56l-0.002 6.69h3.032c1.523-0.01 1.795-0.79 1.975-2.22l0.006-0.1h1.016l-0.002 0.12c-0.051 1.03-0.082 2.06-0.082 3.09 0 1 0.031 2 0.082 3l0.002 0.1-0.096 0.02-0.92 0.19-0.006-0.13c-0.183-1.61-0.195-2.5-1.948-2.51h-3.057v6.04c0.004 1.6 1.388 1.59 3.11 1.6 3.181-0.02 4.455-0.17 5.251-3.14l0.027-0.1 0.111 0.02 0.847 0.22-0.024 0.1c-0.343 1.4-0.658 2.8-0.897 4.2l-0.02 0.09h-0.091zm-0.098-0.23c0.231-1.33 0.532-2.67 0.856-4l-0.52-0.13c-0.791 2.96-2.324 3.22-5.442 3.2-1.665 0-3.329 0-3.338-1.83v-6.27h3.285c1.845-0.02 2.031 1.09 2.163 2.59l0.57-0.11c-0.051-0.98-0.077-1.95-0.077-2.92 0-0.99 0.026-1.98 0.077-2.98h-0.57c-0.149 1.38-0.58 2.34-2.19 2.33h-3.258v-7.16h3.788c2.748-0.02 3.203 1.4 3.323 3.07l0.569-0.16c-0.046-0.74-0.077-1.7-0.077-2.58 0-0.46 0.012-0.89 0.027-1.26-1.795 0.01-4.474 0.11-6.646 0.11-2.171 0-4.843-0.1-6.46-0.11v0.56h0.256c0.94 0.01 2.064 0.17 2.07 1.63v13.84c-0.006 1.46-1.13 1.62-2.07 1.62h-0.256v0.56c1.538 0 4.592-0.1 6.913-0.1 2.332 0 5.304 0.1 7.007 0.1z"/>
        <path fill="#231f20" d="m90.387 161.48c0-1.93-1.058-2.01-1.878-2.01h-0.477v-0.79c0.845 0 2.484 0.1 4.096 0.1 1.582 0 2.853-0.1 4.252-0.1 3.325 0 6.29 0.89 6.29 4.65 0 2.37-1.59 3.83-3.672 4.65l4.512 6.76c0.75 1.12 1.27 1.43 2.57 1.58v0.8c-0.88 0-1.72-0.1-2.59-0.1-0.82 0-1.67 0.1-2.48 0.1-2.04-2.67-3.785-5.52-5.501-8.56h-1.741v5.65c0 2.04 0.949 2.11 2.16 2.11h0.479v0.8c-1.51 0-3.035-0.1-4.545-0.1-1.267 0-2.509 0.1-3.83 0.1v-0.8h0.477c0.981 0 1.878-0.44 1.878-1.42v-13.42zm3.381 6.12h1.291c2.645 0 4.068-1 4.068-4.12 0-2.35-1.505-3.85-3.859-3.85-0.793 0-1.131 0.08-1.5 0.11v7.86z"/>
        <path fill="#231f20" d="m106.08 177.23c-0.89 0-1.73-0.11-2.6-0.11-0.8 0-1.65 0.11-2.57 0.07-2.025-2.66-3.763-5.5-5.469-8.51h-1.561v5.53c0.03 1.99 0.827 1.97 2.048 2h0.593v1.02h-0.118c-1.509 0-3.045-0.11-4.542-0.11-1.261 0-2.503 0.11-3.829 0.11h-0.115v-0.11-0.91h0.592c0.95-0.01 1.753-0.42 1.757-1.31v-13.42c-0.02-1.88-0.937-1.87-1.757-1.9h-0.592v-0.11-0.91h0.115c0.855 0 2.486 0.1 4.096 0.1 1.578 0 2.845-0.1 4.252-0.1 3.331 0.01 6.4 0.93 6.4 4.76 0 2.39-1.57 3.88-3.609 4.71l4.439 6.65c0.74 1.09 1.2 1.36 2.48 1.53l0.1 0.01v1.01h-0.11zm-12.313-8.79h1.805l0.033 0.06c1.72 3.04 3.456 5.89 5.405 8.5 0.8 0 1.65-0.1 2.47-0.1 0.84 0 1.66 0.09 2.48 0.1v-0.58c-1.24-0.15-1.82-0.52-2.54-1.62l-4.6-6.87 0.131-0.06c2.069-0.81 3.599-2.22 3.599-4.55 0-3.66-2.848-4.51-6.17-4.53-1.39 0-2.66 0.11-4.252 0.11-1.551 0-3.119-0.1-3.983-0.11v0.56h0.364c0.82 0.01 1.987 0.14 1.987 2.13v13.42c0 1.06-0.994 1.54-1.987 1.54h-0.364v0.56c1.27 0 2.476-0.1 3.716-0.1 1.475 0 2.968 0.1 4.429 0.1v-0.56h-0.362c-1.203 0-2.279-0.15-2.279-2.23v-5.77h0.118zm0-0.72h-0.118v-8.09l0.102-0.01c0.361-0.03 0.718-0.1 1.517-0.1 2.405 0 3.973 1.56 3.975 3.97-0.008 3.15-1.519 4.23-4.184 4.23h-1.292zm1.292-0.23c2.614-0.02 3.933-0.93 3.959-4-0.016-2.31-1.45-3.74-3.75-3.75-0.713 0-1.05 0.07-1.388 0.1v7.65h1.179z"/>
        <path fill="#231f20" d="m124.01 171.91l0.05-0.05v-9.9c0-2.17-1.5-2.49-2.3-2.49h-0.57v-0.79c1.24 0 2.45 0.1 3.69 0.1 1.09 0 2.16-0.1 3.26-0.1v0.79h-0.4c-1.11 0-2.35 0.21-2.35 3.35v12.02c0 0.93 0.02 1.86 0.15 2.68h-1l-13.6-15.17v10.89c0 2.3 0.44 3.08 2.48 3.08h0.45v0.8c-1.14 0-2.27-0.1-3.41-0.1-1.19 0-2.4 0.1-3.59 0.1v-0.8h0.36c1.83 0 2.39-1.24 2.39-3.34v-11.14c0-1.47-1.22-2.37-2.41-2.37h-0.34v-0.79c1 0 2.03 0.1 3.04 0.1 0.78 0 1.55-0.1 2.35-0.1l11.75 13.23z"/>
        <path fill="#231f20" d="m125.54 177.63l-1.08-0.04-13.41-14.94v10.58c0.03 2.31 0.38 2.95 2.37 2.98h0.56v1.02h-0.12c-1.14 0-2.27-0.11-3.4-0.11-1.18 0-2.4 0.11-3.59 0.11h-0.12v-0.11-0.91h0.48c1.75-0.01 2.25-1.13 2.27-3.24v-11.13c-0.01-1.4-1.16-2.26-2.29-2.26h-0.46v-0.11-0.91h0.12c1.01 0 2.04 0.1 3.04 0.1 0.77 0 1.54-0.1 2.42-0.06l11.62 13.07v-9.71c-0.01-2.1-1.42-2.36-2.19-2.38h-0.69v-0.11-0.91h0.11c1.25 0 2.47 0.1 3.7 0.1 1.08 0 2.16-0.1 3.25-0.1h0.12v1.02h-0.12-0.39c-1.09 0.03-2.22 0.13-2.24 3.24v12.02c0 0.93 0.02 1.85 0.16 2.66l0.01 0.13h-0.13zm-1-0.23h0.87c-0.12-0.79-0.14-1.68-0.14-2.56v-12.02c0-3.17 1.34-3.46 2.47-3.47h0.28v-0.56c-1.04 0.01-2.09 0.11-3.14 0.11-1.21 0-2.39-0.1-3.58-0.11v0.56h0.46c0.82 0.01 2.42 0.37 2.42 2.61l-0.04 9.98-0.05 0.05-0.08 0.09-11.75-13.29c-0.79 0-1.56 0.11-2.35 0.11-0.98 0-1.97-0.1-2.93-0.11v0.56h0.23c1.24 0.01 2.51 0.95 2.51 2.49v11.13c0 2.12-0.59 3.47-2.49 3.47h-0.25v0.56c1.14 0 2.32-0.1 3.48-0.1 1.1 0 2.2 0.1 3.29 0.1v-0.56h-0.33c-2.08 0-2.6-0.9-2.6-3.21v-11.17l13.72 15.34zm-0.53-5.49l0.09-0.07-0.09 0.07zm-0.06-0.05v-0.01l-0.02-0.02 0.02 0.03z"/>
        <path fill="#231f20" d="m132.38 173.34c-0.26 0.9-0.58 1.59-0.58 2.06 0 0.79 1.11 0.92 1.98 0.92h0.3v0.8c-1.07-0.06-2.14-0.1-3.21-0.1-0.95 0-1.89 0.04-2.85 0.1v-0.8h0.16c1.03 0 1.91-0.6 2.3-1.71l4.22-12.13c0.35-0.98 0.83-2.3 0.99-3.28 0.84-0.28 1.9-0.81 2.4-1.13 0.08-0.03 0.13-0.05 0.21-0.05s0.13 0 0.19 0.08c0.07 0.21 0.15 0.44 0.23 0.66l4.87 13.82c0.31 0.92 0.63 1.89 0.97 2.69 0.32 0.74 0.87 1.05 1.75 1.05h0.15v0.8c-1.18-0.06-2.38-0.1-3.64-0.1-1.29 0-2.62 0.04-3.97 0.1v-0.8h0.29c0.61 0 1.65-0.1 1.65-0.76 0-0.34-0.24-1.06-0.54-1.9l-1.03-3.07h-5.99l-0.85 2.75zm3.86-11.7h-0.06l-2.45 7.47h4.94l-2.43-7.47z"/>
        <path fill="#231f20" d="m146.46 177.23c-1.19-0.05-2.38-0.11-3.64-0.11-1.29 0-2.61 0.06-3.96 0.11l-0.12 0.01v-0.12-0.92h0.4c0.62 0 1.52-0.13 1.53-0.64 0-0.3-0.23-1.03-0.53-1.87l-1-2.99h-5.83l-0.82 2.68c-0.27 0.89-0.59 1.59-0.58 2.02 0.01 0.65 0.99 0.8 1.87 0.8h0.41v1.04l-0.12-0.01c-1.06-0.05-2.14-0.11-3.19-0.11-0.95 0-1.9 0.06-2.85 0.11l-0.12 0.01v-0.12-0.92h0.27c0.98 0 1.8-0.56 2.19-1.63l4.23-12.13c0.34-0.98 0.82-2.29 1.05-3.34 0.83-0.29 1.89-0.82 2.39-1.14 0.08-0.02 0.15-0.06 0.26-0.06 0.06 0 0.2 0.02 0.29 0.15 0.08 0.22 0.16 0.46 0.24 0.67l4.86 13.82c0.31 0.92 0.63 1.9 0.98 2.68 0.3 0.7 0.79 0.98 1.64 0.98h0.26v1.04l-0.11-0.01zm-7.49-0.23c1.31-0.05 2.59-0.1 3.85-0.1 1.23 0 2.38 0.05 3.53 0.1v-0.56h-0.04c-0.91 0.01-1.53-0.35-1.86-1.13-0.34-0.79-0.66-1.77-0.97-2.7l-4.87-13.82c-0.08-0.21-0.15-0.45-0.22-0.63-0.03-0.03-0.02-0.03-0.04-0.03h-0.05c-0.06 0-0.09 0.02-0.16 0.03-0.5 0.33-1.56 0.86-2.35 1.06-0.16 1-0.63 2.32-0.98 3.3l-4.23 12.12c-0.4 1.15-1.33 1.8-2.4 1.8h-0.04v0.56c0.9-0.05 1.82-0.1 2.74-0.1 1.02 0 2.06 0.05 3.07 0.1v-0.56h-0.17c-0.86-0.01-2.06-0.1-2.1-1.04 0.01-0.52 0.33-1.2 0.59-2.09l0.11 0.03-0.11-0.04 0.87-2.82h6.16l1.06 3.14c0.3 0.85 0.54 1.55 0.54 1.94-0.04 0.81-1.16 0.87-1.76 0.88h-0.17v0.56zm-5.4-7.77l2.53-7.71h0.14v0.12h-0.03 0.03v-0.12h0.08l2.51 7.71h-5.26zm0.31-0.23h4.63l-2.3-7.08-2.33 7.08zm2.24-7.33l0.07-0.02-0.07 0.02z"/>
        <path fill="#231f20" d="m147.63 160c-1.99 0-2.07 0.48-2.46 2.4h-0.8c0.11-0.74 0.24-1.48 0.32-2.24 0.11-0.75 0.16-1.48 0.16-2.25h0.64c0.2 0.8 0.87 0.77 1.58 0.77h13.63c0.71 0 1.37-0.03 1.42-0.82l0.64 0.11c-0.1 0.71-0.21 1.42-0.29 2.14-0.06 0.71-0.06 1.42-0.06 2.13l-0.79 0.3c-0.04-0.98-0.18-2.54-1.95-2.54h-4.33v14.05c0 2.04 0.92 2.27 2.19 2.27h0.51v0.8c-1.04 0-2.88-0.1-4.31-0.1-1.59 0-3.44 0.1-4.47 0.1v-0.8h0.5c1.46 0 2.2-0.13 2.2-2.21v-14.11h-4.33z"/>
        <path fill="#231f20" d="m158.04 177.23c-1.04 0-2.9-0.1-4.32-0.1-1.57 0-3.42 0.1-4.46 0.1h-0.12v-0.11-0.91h0.62c1.46-0.03 2.04-0.05 2.08-2.1v-14h-4.21v-0.11-0.12h4.44v14.23c0 2.12-0.85 2.33-2.31 2.33h-0.38v0.56c1.04 0 2.81-0.1 4.34-0.1 1.39 0 3.15 0.1 4.2 0.1v-0.56h-0.39c-1.27 0-2.3-0.31-2.31-2.39v-14.17h4.45c1.77 0.01 2.01 1.51 2.06 2.5l0.57-0.22c0-0.68 0-1.38 0.06-2.07 0.07-0.68 0.17-1.35 0.27-2.03l-0.4-0.07c-0.12 0.77-0.87 0.81-1.53 0.8h-13.63-0.14c-0.62 0.01-1.29-0.03-1.53-0.77h-0.44c0 0.74-0.05 1.44-0.16 2.15-0.07 0.73-0.2 1.43-0.3 2.12h0.57c0.35-1.84 0.58-2.44 2.56-2.41v0.23c-1.96 0.03-1.92 0.37-2.35 2.32l-0.02 0.09h-0.09-0.93l0.02-0.13c0.11-0.75 0.24-1.49 0.31-2.25 0.11-0.74 0.16-1.47 0.16-2.23v-0.11h0.84l0.02 0.08c0.19 0.66 0.67 0.67 1.34 0.68h13.77c0.73-0.01 1.27-0.02 1.31-0.71l0.01-0.13 0.12 0.03 0.75 0.12-0.02 0.11c-0.11 0.71-0.21 1.42-0.29 2.13-0.05 0.71-0.05 1.42-0.05 2.13v0.08l-0.08 0.03-0.93 0.35-0.01-0.16c-0.07-0.99-0.17-2.43-1.84-2.43h-4.22v13.94c0.03 1.99 0.82 2.13 2.08 2.16h0.61v1.02h-0.1z"/>
        <path fill="#231f20" d="m163.74 176.32h0.36c0.96 0 1.96-0.13 1.96-1.5v-13.84c0-1.38-1-1.51-1.96-1.51h-0.36v-0.79c1.03 0 2.61 0.1 3.9 0.1 1.32 0 2.91-0.1 4.16-0.1v0.79h-0.38c-0.95 0-1.96 0.13-1.96 1.51v13.84c0 1.37 1.01 1.5 1.96 1.5h0.38v0.8c-1.27 0-2.86-0.1-4.18-0.1-1.3 0-2.85 0.1-3.88 0.1v-0.8z"/>
        <path fill="#231f20" d="m171.8 177.23c-1.28 0-2.86-0.11-4.18-0.11-1.29 0-2.85 0.11-3.88 0.11h-0.12v-0.11-0.8-0.11h0.49c0.95-0.02 1.83-0.1 1.83-1.39v-13.84c0-1.29-0.88-1.38-1.83-1.4h-0.49v-0.11-0.91h0.12c1.03 0 2.62 0.1 3.9 0.1 1.32 0 2.9-0.1 4.16-0.1h0.1v1.02h-0.1-0.38c-0.96 0.02-1.83 0.11-1.84 1.4v13.84c0.01 1.29 0.88 1.37 1.84 1.39h0.48v1.02h-0.1zm-0.12-0.23v-0.56h-0.26c-0.94 0-2.06-0.16-2.06-1.62v-13.84c0-1.46 1.12-1.62 2.06-1.63h0.26v-0.56c-1.22 0.01-2.75 0.11-4.04 0.11-1.25 0-2.76-0.1-3.79-0.11v0.56h0.26c0.93 0.01 2.06 0.17 2.06 1.63v13.84c0 1.46-1.13 1.62-2.06 1.62h-0.26v0.56c1.02-0.01 2.51-0.1 3.77-0.1 1.28 0 2.81 0.1 4.06 0.1z"/>
        <path fill="#231f20" d="m182.33 158.28c5.63 0 10.12 3.49 10.12 9.12 0 6.08-4.36 10.12-9.99 10.12-5.6 0-9.88-3.81-9.88-9.49 0-5.49 4.26-9.75 9.75-9.75zm0.4 18.07c5.13 0 6.02-4.52 6.02-8.37 0-3.86-2.08-8.54-6.47-8.54-4.62 0-6 4.13-6 7.66 0 4.73 2.17 9.25 6.45 9.25z"/>
        <path fill="#231f20" d="m172.47 168.03c0.01-5.56 4.31-9.85 9.86-9.86v0.23c-5.43 0-9.63 4.2-9.64 9.63 0.01 5.62 4.23 9.36 9.78 9.37 5.56-0.01 9.86-3.99 9.87-10-0.01-5.56-4.42-9-10.01-9v-0.12-0.11c5.67 0 10.22 3.53 10.23 9.23 0 6.14-4.42 10.22-10.09 10.23-5.65-0.01-9.99-3.86-10-9.6zm3.7-0.93c0-3.55 1.39-7.77 6.11-7.77 4.48 0.01 6.58 4.77 6.58 8.65 0 3.85-0.91 8.48-6.13 8.48v-0.11-0.11c5.02-0.01 5.89-4.41 5.9-8.26 0-3.83-2.06-8.41-6.35-8.42-4.53 0-5.87 4.02-5.88 7.54 0 4.71 2.14 9.13 6.33 9.14v0.22c-4.39 0-6.56-4.6-6.56-9.36z"/>
        <path fill="#231f20" d="m210.25 171.91l0.06-0.05v-9.9c0-2.17-1.51-2.49-2.31-2.49h-0.57v-0.79c1.24 0 2.45 0.1 3.69 0.1 1.09 0 2.17-0.1 3.26-0.1v0.79h-0.4c-1.11 0-2.36 0.21-2.36 3.35v12.02c0 0.93 0.03 1.86 0.17 2.68h-1.01l-13.61-15.17v10.89c0 2.3 0.45 3.08 2.49 3.08h0.45v0.8c-1.14 0-2.27-0.1-3.41-0.1-1.19 0-2.4 0.1-3.59 0.1v-0.8h0.37c1.82 0 2.37-1.24 2.37-3.34v-11.14c0-1.47-1.21-2.37-2.4-2.37h-0.34v-0.79c1 0 2.03 0.1 3.03 0.1 0.8 0 1.56-0.1 2.35-0.1l11.76 13.23z"/>
        <path fill="#231f20" d="m211.79 177.63l-1.09-0.04-13.41-14.94v10.59c0.03 2.3 0.38 2.94 2.36 2.96h0.57v1.03h-0.11c-1.15 0-2.28-0.11-3.41-0.11-1.18 0-2.4 0.11-3.6 0.11h-0.1v-0.11-0.92h0.48c1.74 0 2.24-1.12 2.26-3.23v-11.13c0-1.4-1.16-2.26-2.29-2.26h-0.45v-0.11-0.91h0.1c1.02 0 2.05 0.1 3.04 0.1 0.79 0 1.55-0.1 2.44-0.06l11.61 13.07v-9.71c-0.01-2.1-1.41-2.36-2.19-2.38h-0.69v-0.11-0.91h0.12c1.24 0 2.46 0.1 3.69 0.1 1.08 0 2.16-0.1 3.26-0.1h0.11v1.02h-0.11-0.4c-1.09 0.03-2.22 0.13-2.24 3.24v12.02c0 0.93 0.02 1.85 0.15 2.66l0.03 0.13h-0.13zm-1.01-0.23h0.87c-0.11-0.8-0.14-1.68-0.14-2.56v-12.02c0-3.17 1.33-3.46 2.47-3.47h0.28v-0.56c-1.04 0.01-2.08 0.11-3.14 0.11-1.2 0-2.38-0.1-3.58-0.11v0.56h0.46c0.82 0.01 2.42 0.37 2.42 2.61l-0.03 9.98-0.05 0.05-0.09 0.09-11.75-13.29c-0.79 0-1.56 0.11-2.36 0.11-0.97 0-1.96-0.1-2.92-0.11v0.56h0.23c1.24 0.01 2.52 0.95 2.52 2.49v11.13c0 2.12-0.59 3.47-2.49 3.47h-0.26v0.56c1.14 0 2.32-0.1 3.48-0.1 1.1 0 2.2 0.1 3.29 0.1v-0.56h-0.34c-2.07 0-2.59-0.9-2.59-3.2v-11.19l13.72 15.35zm-0.53-5.49l0.09-0.07-0.09 0.07zm-0.06-0.05v-0.01l-0.02-0.02 0.02 0.03z"/>
        <path fill="#231f20" d="m218.62 173.34c-0.26 0.9-0.58 1.59-0.58 2.06 0 0.79 1.12 0.92 1.98 0.92h0.3v0.8c-1.06-0.06-2.15-0.1-3.2-0.1-0.96 0-1.9 0.04-2.85 0.1v-0.8h0.15c1.03 0 1.91-0.6 2.3-1.71l4.23-12.13c0.34-0.98 0.82-2.3 0.97-3.28 0.85-0.28 1.9-0.81 2.41-1.13 0.08-0.03 0.13-0.05 0.21-0.05s0.13 0 0.18 0.08c0.08 0.21 0.16 0.44 0.24 0.66l4.86 13.82c0.32 0.92 0.64 1.89 0.98 2.69 0.32 0.74 0.87 1.05 1.74 1.05h0.17v0.8c-1.19-0.06-2.38-0.1-3.65-0.1-1.29 0-2.62 0.04-3.97 0.1v-0.8h0.3c0.6 0 1.64-0.1 1.64-0.76 0-0.34-0.24-1.06-0.53-1.9l-1.04-3.07h-5.99l-0.85 2.75zm3.86-11.7h-0.05l-2.46 7.47h4.95l-2.44-7.47z"/>
        <path fill="#231f20" d="m232.7 177.23c-1.2-0.05-2.38-0.11-3.64-0.11-1.29 0-2.61 0.06-3.96 0.11l-0.12 0.01v-0.12-0.91h0.4c0.62 0 1.53-0.14 1.53-0.65 0.01-0.3-0.23-1.02-0.53-1.87l-1-2.99h-5.83l-0.82 2.68c-0.27 0.9-0.58 1.59-0.57 2.02 0 0.65 0.99 0.81 1.86 0.81h0.4v1.03l-0.12-0.01c-1.05-0.05-2.13-0.11-3.18-0.11-0.95 0-1.9 0.06-2.85 0.11l-0.12 0.01v-0.12-0.91h0.27c0.98-0.01 1.81-0.57 2.19-1.64l4.23-12.13c0.34-0.98 0.82-2.29 1.05-3.34 0.83-0.29 1.89-0.82 2.4-1.14 0.07-0.02 0.14-0.06 0.25-0.06 0.07 0 0.21 0.02 0.29 0.16 0.08 0.21 0.16 0.45 0.24 0.66l4.86 13.82c0.32 0.92 0.63 1.9 0.98 2.69 0.31 0.69 0.79 0.97 1.63 0.98h0.28v1.03l-0.12-0.01zm-7.49-0.23c1.3-0.05 2.59-0.1 3.85-0.1 1.23 0 2.38 0.05 3.53 0.1v-0.56h-0.05c-0.89 0-1.52-0.35-1.85-1.13-0.34-0.79-0.66-1.77-0.97-2.7l-4.87-13.82c-0.07-0.21-0.16-0.45-0.22-0.63-0.02-0.03-0.02-0.03-0.04-0.03h-0.05c-0.06 0-0.08 0.02-0.15 0.04-0.51 0.32-1.57 0.85-2.35 1.05-0.16 1-0.64 2.32-0.98 3.3l-4.24 12.12c-0.4 1.15-1.32 1.8-2.4 1.8h-0.04v0.56c0.91-0.05 1.82-0.1 2.74-0.1 1.02 0 2.06 0.05 3.08 0.1v-0.56h-0.18c-0.86-0.01-2.06-0.1-2.1-1.04 0.01-0.52 0.34-1.2 0.59-2.09l0.11 0.03-0.11-0.04 0.87-2.82h6.16l1.06 3.14c0.29 0.85 0.53 1.55 0.53 1.94-0.03 0.81-1.15 0.87-1.75 0.88h-0.17v0.56zm-5.4-7.77l2.54-7.71h0.13v0.12h-0.03 0.03v-0.12h0.08l2.5 7.71h-5.25zm0.32-0.23h4.62l-2.3-7.08-2.32 7.08zm2.24-7.33l0.05-0.02-0.05 0.02z"/>
        <path fill="#231f20" d="m239.36 174.53c0 1.06 0.74 1.37 1.58 1.48 1.08 0.08 2.28 0.08 3.49-0.05 1.11-0.14 2.06-0.77 2.54-1.43 0.42-0.58 0.65-1.32 0.82-1.9h0.76c-0.29 1.5-0.66 2.98-0.98 4.49-2.32 0-4.65-0.1-6.97-0.1-2.33 0-4.65 0.1-6.97 0.1v-0.8h0.36c0.96 0 1.99-0.13 1.99-1.76v-13.58c0-1.38-1.03-1.51-1.99-1.51h-0.36v-0.79c1.39 0 2.77 0.1 4.17 0.1 1.35 0 2.67-0.1 4.02-0.1v0.79h-0.67c-1 0-1.79 0.03-1.79 1.43v13.63z"/>
        <path fill="#231f20" d="m247.58 177.23c-2.34 0-4.66-0.11-6.98-0.11s-4.65 0.11-6.98 0.11h-0.11v-0.11-0.91h0.48c0.96-0.02 1.87-0.09 1.88-1.65v-13.59c-0.01-1.28-0.92-1.37-1.88-1.39h-0.48v-0.11-0.91h0.11c1.41 0 2.78 0.1 4.18 0.1 1.34 0 2.66-0.1 4.02-0.1h0.1v1.02h-0.1-0.67c-1.02 0.03-1.66-0.02-1.68 1.32v13.63c0.01 0.99 0.65 1.25 1.48 1.37 0.47 0.03 0.96 0.05 1.47 0.05 0.64 0 1.31-0.03 2-0.11 1.07-0.12 2-0.75 2.45-1.38 0.41-0.56 0.64-1.28 0.8-1.86l0.02-0.09h1l-0.02 0.14c-0.3 1.51-0.67 2.99-0.99 4.49l-0.02 0.09h-0.08zm-0.1-0.23c0.3-1.43 0.65-2.84 0.94-4.26h-0.55c-0.16 0.58-0.4 1.28-0.81 1.86-0.5 0.68-1.47 1.33-2.62 1.47-0.69 0.07-1.38 0.11-2.02 0.11-0.52 0-1.01-0.03-1.49-0.06-0.86-0.09-1.69-0.46-1.69-1.59v-13.63c0-1.47 0.93-1.55 1.91-1.55h0.55v-0.56c-1.3 0.01-2.59 0.11-3.9 0.11-1.37 0-2.71-0.1-4.06-0.11v0.56h0.25c0.95 0 2.1 0.17 2.1 1.62v13.59c0 1.71-1.15 1.88-2.1 1.88h-0.25v0.56c2.28 0 4.57-0.1 6.86-0.1 2.3 0 4.59 0.1 6.88 0.1z"/>
        <path fill="#231f20" d="m248.23 157.93c1.59 0 2.78 1.22 2.78 2.79 0 1.56-1.19 2.77-2.78 2.77s-2.78-1.21-2.78-2.77c0-1.57 1.19-2.79 2.78-2.79zm0 5.04c1.25 0 2.2-1.06 2.2-2.25 0-1.2-0.94-2.27-2.2-2.27-1.25 0-2.21 1.07-2.21 2.27 0 1.19 0.96 2.25 2.21 2.25zm-1.38-0.79v-0.13c0.34-0.05 0.4-0.04 0.4-0.25v-2.06c0-0.29-0.03-0.39-0.39-0.38v-0.14h1.42c0.49 0 0.94 0.24 0.94 0.74 0 0.42-0.27 0.72-0.66 0.84l0.46 0.64c0.21 0.29 0.46 0.56 0.61 0.66v0.08h-0.54c-0.26 0-0.49-0.54-1-1.28h-0.31v0.93c0 0.18 0.07 0.17 0.41 0.22v0.13h-1.34zm0.93-1.46h0.33c0.36 0 0.53-0.28 0.53-0.71 0-0.45-0.26-0.6-0.55-0.6h-0.31v1.31z"/>
        <path fill="#fff" d="m83.222 65.411c0-24.711 20.038-44.743 44.738-44.743 24.72 0 44.75 20.032 44.75 44.743s-20.03 44.739-44.75 44.739c-24.7 0-44.738-20.028-44.738-44.739z"/>
        <path fill="#01528b" d="m155.02 64.529c-0.01-11.457-7.18-21.23-17.27-25.1v50.199c10.09-3.875 17.26-13.638 17.27-25.099zm-36.52 25.089v-50.184c-10.08 3.883-17.23 13.641-17.26 25.095 0.03 11.452 7.18 21.21 17.26 25.089zm9.63-67.518c-23.43 0.009-42.416 18.997-42.42 42.429 0.004 23.43 18.99 42.411 42.42 42.421 23.43-0.01 42.42-18.991 42.43-42.421-0.01-23.432-19-42.42-42.43-42.429zm-0.1 88.85c-25.64 0.12-46.748-20.65-46.748-45.937 0-27.635 21.108-46.751 46.748-46.746h12.01c25.34-0.005 48.47 19.102 48.47 46.746 0 25.279-23.13 45.937-48.47 45.937h-12.01z"/>
    </g>
</svg>
