<?xml version="1.0" encoding="UTF-8" standalone="no"?>
<!-- Generator: Adobe Illustrator 14.0.0, SVG Export Plug-In . SVG Version: 6.00 Build 43363)  -->
<!DOCTYPE svg  PUBLIC '-//W3C//DTD SVG 1.1//EN'  'http://www.w3.org/Graphics/SVG/1.1/DTD/svg11.dtd'>
<svg id="Layer_1" xmlns="http://www.w3.org/2000/svg" xml:space="preserve" height="300px" viewBox="0 0 300 300" width="300px" version="1.1" y="0px" x="0px" xmlns:xlink="http://www.w3.org/1999/xlink" enable-background="new 0 0 300 300">
<radialGradient id="SVGID_1_" gradientUnits="userSpaceOnUse" cy="57.021" cx="57.388" r="264.58">
	<stop stop-color="#9DD5F6" offset="0"/>
	<stop stop-color="#98D3F5" offset=".0711"/>
	<stop stop-color="#89CEF3" offset=".1575"/>
	<stop stop-color="#70C6EF" offset=".2516"/>
	<stop stop-color="#4EBBEA" offset=".3514"/>
	<stop stop-color="#23ADE3" offset=".4546"/>
	<stop stop-color="#0DA6E0" offset=".5"/>
	<stop stop-color="#2E77BC" offset="1"/>
</radialGradient>
<path d="m289.58 7.598h-281.94v282.97h281.94v-93.386c1.12-1.619 1.673-3.69 1.673-6.222 0-2.898-0.553-4.693-1.673-6.205" fill="url(#SVGID_1_)"/>
	<defs>
		<path id="SVGID_2_" d="m289.58 7.598h-281.94v282.97h281.94v-93.386c1.12-1.619 1.673-3.69 1.673-6.222 0-2.898-0.553-4.693-1.673-6.205"/>
	</defs>
	<clipPath id="SVGID_3_">
		<use overflow="visible" xlink:href="#SVGID_2_"/>
	</clipPath>
<path d="m33.053 130.04l-5.424-13.217-5.393 13.217m130.3-5.26c-1.089 0.661-2.377 0.683-3.92 0.683h-9.627v-7.364h9.758c1.381 0 2.822 0.062 3.758 0.598 1.028 0.483 1.664 1.511 1.664 2.931 0.01 1.45-0.6 2.61-1.63 3.15zm68.68 5.26l-5.484-13.217-5.454 13.217h10.93zm-128.02 14.31h-8.124l-0.03-25.966-11.491 25.966h-6.958l-11.521-25.989v25.989h-16.118l-3.045-7.395h-16.5l-3.076 7.395h-8.607l14.191-33.154h11.774l13.478 31.39v-31.39h12.934l10.371 22.491 9.527-22.491h13.194v33.14zm32.379 0h-26.473v-33.154h26.473v6.904h-18.548v5.976h18.103v6.796h-18.103v6.621h18.548v6.85zm37.33-24.23c0 5.286-3.528 8.017-5.584 8.837 1.734 0.66 3.215 1.826 3.92 2.792 1.119 1.649 1.312 3.122 1.312 6.083v6.513h-7.993l-0.03-4.181c0-1.995 0.191-4.864-1.251-6.459-1.158-1.166-2.923-1.419-5.776-1.419h-8.507v12.059h-7.924v-33.154h18.227c4.05 0 7.034 0.107 9.596 1.588 2.49 1.48 4 3.64 4 7.34zm12.68 24.23h-8.086v-33.154h8.086v33.15zm93.81 0h-11.23l-15.021-24.884v24.884h-16.139l-3.084-7.395h-16.47l-2.992 7.395h-9.273c-3.852 0-8.729-0.852-11.491-3.667-2.785-2.815-4.234-6.628-4.234-12.657 0-4.917 0.866-9.412 4.272-12.964 2.562-2.646 6.574-3.866 12.035-3.866h7.672v7.104h-7.511c-2.892 0-4.525 0.43-6.098 1.964-1.351 1.396-2.278 4.035-2.278 7.51 0 3.552 0.706 6.113 2.179 7.786 1.22 1.312 3.437 1.71 5.523 1.71h3.559l11.169-26.073h11.874l13.417 31.359v-31.359h12.066l13.93 23.09v-23.09h8.117v33.15zm-261.76 6.51h13.54l3.053-7.364h6.835l3.045 7.364h26.641v-5.63l2.378 5.654h13.83l2.378-5.738v5.714h66.208l-0.031-12.088h1.281c0.897 0.031 1.159 0.114 1.159 1.595v10.493h34.243v-2.814c2.762 1.48 7.058 2.814 12.711 2.814h14.406l3.083-7.364h6.835l3.015 7.364h27.761v-6.995l4.204 6.995h22.246v-46.24h-22.016v5.461l-3.083-5.461h-22.6v5.461l-2.831-5.461h-30.515c-5.108 0-9.598 0.713-13.225 2.7v-2.7h-21.058v2.7c-2.308-2.048-5.453-2.7-8.95-2.7h-76.932l-5.162 11.943-5.301-11.943h-24.232v5.461l-2.662-5.461h-20.666l-9.597 21.985v24.26z" fill="#fff"/>
<path d="m289.58 175.32h-14.443c-1.442 0-2.4 0.054-3.207 0.599-0.836 0.537-1.158 1.334-1.158 2.386 0 1.251 0.706 2.102 1.733 2.47 0.836 0.291 1.734 0.376 3.054 0.376l4.295 0.115c4.334 0.107 7.227 0.852 8.991 2.669 0.321 0.253 0.514 0.537 0.735 0.821m0.02 12.41c-1.925 2.815-5.676 4.242-10.754 4.242h-15.304v-7.111h15.242c1.512 0 2.57-0.199 3.207-0.821 0.552-0.513 0.937-1.258 0.937-2.163 0-0.966-0.385-1.733-0.968-2.193-0.575-0.506-1.412-0.736-2.792-0.736-7.441-0.253-16.724 0.23-16.724-10.264 0-4.81 3.054-9.873 11.37-9.873h15.785v-6.598h-14.666c-4.426 0-7.641 1.06-9.918 2.708v-2.708h-21.693c-3.469 0-7.541 0.86-9.467 2.708v-2.708h-38.738v2.708c-3.083-2.224-8.285-2.708-10.686-2.708h-25.552v2.708c-2.439-2.362-7.863-2.708-11.169-2.708h-28.597l-6.544 7.082-6.129-7.082h-42.724v46.272h41.914l6.743-7.194 6.352 7.194 25.836 0.023v-10.885h2.54c3.428 0.053 7.471-0.085 11.038-1.627v12.488h21.31v-12.06h1.028c1.312 0 1.441 0.054 1.441 1.365v10.694h64.736c4.11 0 8.406-1.052 10.785-2.961v2.961h20.534c4.273 0 8.446-0.599 11.621-2.133v-8.62zm-31.61-13.25c1.543 1.597 2.37 3.613 2.37 7.026 0 7.134-4.457 10.464-12.449 10.464h-15.435v-7.111h15.373c1.503 0 2.569-0.199 3.237-0.821 0.545-0.513 0.936-1.258 0.936-2.163 0-0.966-0.423-1.733-0.967-2.193-0.606-0.506-1.442-0.736-2.822-0.736-7.411-0.253-16.692 0.23-16.692-10.264 0-4.81 3.022-9.873 11.33-9.873h15.887v7.058h-14.537c-1.441 0-2.378 0.054-3.175 0.599-0.868 0.537-1.19 1.334-1.19 2.386 0 1.251 0.737 2.102 1.734 2.47 0.836 0.291 1.734 0.376 3.084 0.376l4.266 0.115c4.29 0.09 7.25 0.83 9.04 2.65zm-71.51-2.05c-1.06 0.629-2.371 0.683-3.913 0.683h-9.627v-7.448h9.758c1.411 0 2.823 0.03 3.782 0.599 1.027 0.537 1.641 1.564 1.641 2.983s-0.61 2.57-1.64 3.19zm4.79 4.13c1.764 0.651 3.206 1.818 3.882 2.784 1.119 1.619 1.281 3.13 1.313 6.053v6.574h-7.956v-4.149c0-1.995 0.192-4.949-1.281-6.491-1.158-1.188-2.923-1.472-5.814-1.472h-8.469v12.112h-7.963v-33.162h18.296c4.012 0 6.934 0.177 9.535 1.565 2.501 1.511 4.074 3.581 4.074 7.364 0 5.3-3.53 8-5.62 8.83zm10.01-17.75h26.449v6.858h-18.557v6.029h18.104v6.766h-18.104v6.598l18.557 0.03v6.881h-26.449v-33.17zm-53.46 15.3h-10.241v-8.445h10.333c2.861 0 4.847 1.166 4.847 4.066-0.01 2.86-1.9 4.37-4.94 4.37zm-18.14 14.84l-12.167-13.508 12.167-13.079v26.59zm-31.42-3.89h-19.484v-6.598h17.398v-6.766h-17.398v-6.029h19.868l8.668 9.664-9.05 9.74zm63-15.33c0 9.212-6.873 11.114-13.8 11.114h-9.888v11.123h-15.403l-9.758-10.978-10.141 10.978h-31.39v-33.162h31.873l9.75 10.87 10.08-10.87h25.322c6.3 0.01 13.36 1.75 13.36 10.93z" fill="#fff"/>
</svg>
