418 bytes - 77.15% saving
<svg xmlns="http://www.w3.org/2000/svg" width="16" height="16" viewBox="0 0 16.000017 16.000017">
  <path fill="#38b44a" d="M1.167 16C.53 16 0 15.47 0 14.833V1.167C0 .53.53 0 1.167 0h13.666C15.47 0 16 .53 16 1.167v13.666C16 15.47 15.47 16 14.833 16zm0-1h13.666c.1 0 .167-.066.167-.167V1.167c0-.1-.066-.167-.167-.167H1.167c-.1 0-.167.066-.167.167v13.666c0 .1.066.167.167.167z" style="line-height:normal;-inkscape-font-specification:sans-serif;text-indent:0;text-align:start;text-decoration-line:none;text-transform:none;block-progression:tb" font-size="xx-small" font-family="sans-serif" overflow="visible"/>
  <path overflow="visible" d="M0 5h16v1H0zM0 10h16v1H0z"/>
</svg>
