<svg width="16px" height="16px" viewBox="0 0 16 16" version="1.1" xmlns="http://www.w3.org/2000/svg" xmlns:xlink="http://www.w3.org/1999/xlink" xmlns:sketch="http://www.bohemiancoding.com/sketch/ns"><g id="Page-1" stroke="none" stroke-width="1" fill="none" fill-rule="evenodd" sketch:type="MSPage"><path class="inspector-list__list-item-image" d="M1.42,8.28 L0,8.03 L0.44,5.43 L1.87,5.69 C1.99,5.39 2.12,5.09 2.29,4.8 C2.45,4.52 2.64,4.25 2.84,4 L1.92,2.9 L3.92,1.19 L3.92,1.19 L4.86,2.31 C5.43,2 6.04,1.78 6.68,1.65 L6.68,0.39 L9.31,0 L9.31,1.66 C9.94,1.79 10.55,2.01 11.12,2.32 L12.05,1.21 L14.08,2.89 L14.08,2.89 L13.14,4.01 C13.55,4.52 13.87,5.09 14.11,5.69 L15.53,5.44 L16,8.03 L16,8.03 L14.57,8.28 C14.56,8.93 14.45,9.57 14.24,10.2 L15.48,10.91 L14.18,13.21 L14.17,13.21 L12.91,12.48 C12.48,12.97 11.98,13.39 11.43,13.73 L11.92,15.08 L9.46,16 L8.96,14.63 C8.64,14.68 8.32,14.71 8,14.71 C7.67,14.71 7.35,14.68 7.02,14.63 L6.53,15.98 L4.05,15.09 L4.55,13.72 C3.99,13.37 3.49,12.95 3.07,12.48 L1.82,13.2 L0.49,10.92 L1.76,10.19 C1.55,9.58 1.44,8.93 1.42,8.28 L1.42,8.28 Z M5.83,11.86 C6.49,12.24 7.24,12.45 8,12.45 C9.54,12.45 10.98,11.62 11.74,10.28 C12.94,8.21 12.22,5.55 10.15,4.35 C9.49,3.97 8.74,3.77 7.99,3.77 C6.44,3.77 5.01,4.6 4.24,5.93 C3.05,8 3.76,10.66 5.83,11.86 L5.83,11.86 Z" id="Shape" fill="#93A1A1" sketch:type="MSShapeGroup"></path></g></svg>
