<?xml version="1.0" encoding="UTF-8" standalone="no"?>
<!-- Created with Inkscape (http://www.inkscape.org/) -->

<svg
   xmlns:dc="http://purl.org/dc/elements/1.1/"
   xmlns:cc="http://creativecommons.org/ns#"
   xmlns:rdf="http://www.w3.org/1999/02/22-rdf-syntax-ns#"
   xmlns:svg="http://www.w3.org/2000/svg"
   xmlns="http://www.w3.org/2000/svg"
   xmlns:sodipodi="http://sodipodi.sourceforge.net/DTD/sodipodi-0.dtd"
   xmlns:inkscape="http://www.inkscape.org/namespaces/inkscape"
   width="16.000004"
   height="16"
   viewBox="0 0 4.2333345 4.2333334"
   version="1.1"
   id="svg6251"
   inkscape:version="0.91+devel r"
   sodipodi:docname="exposed_16.svg">
  <defs
     id="defs6245" />
  <sodipodi:namedview
     id="base"
     pagecolor="#ffffff"
     bordercolor="#666666"
     borderopacity="1.0"
     inkscape:pageopacity="0.0"
     inkscape:pageshadow="2"
     inkscape:zoom="15.543122"
     inkscape:cx="-13.555835"
     inkscape:cy="-2.5863462"
     inkscape:document-units="mm"
     inkscape:current-layer="layer1"
     showgrid="false"
     fit-margin-top="0"
     fit-margin-left="0"
     fit-margin-right="0"
     fit-margin-bottom="0"
     units="px" />
  <metadata
     id="metadata6248">
    <rdf:RDF>
      <cc:Work
         rdf:about="">
        <dc:format>image/svg+xml</dc:format>
        <dc:type
           rdf:resource="http://purl.org/dc/dcmitype/StillImage" />
        <dc:title></dc:title>
      </cc:Work>
    </rdf:RDF>
  </metadata>
  <g
     inkscape:label="Layer 1"
     inkscape:groupmode="layer"
     id="layer1"
     transform="translate(8.1642867,290.22373)">
    <g
       style="display:inline"
       transform="matrix(0.17638889,0,0,0.17638889,-27.919841,-415.17095)"
       id="g6196">
      <path
         style="color:#000000;font-style:normal;font-variant:normal;font-weight:normal;font-stretch:normal;font-size:medium;line-height:normal;font-family:sans-serif;font-variant-ligatures:normal;font-variant-position:normal;font-variant-caps:normal;font-variant-numeric:normal;font-variant-alternates:normal;font-feature-settings:normal;text-indent:0;text-align:start;text-decoration:none;text-decoration-line:none;text-decoration-style:solid;text-decoration-color:#000000;letter-spacing:normal;word-spacing:normal;text-transform:none;writing-mode:lr-tb;direction:ltr;baseline-shift:baseline;text-anchor:start;white-space:normal;shape-padding:0;clip-rule:nonzero;display:inline;overflow:visible;visibility:visible;opacity:1;isolation:auto;mix-blend-mode:normal;color-interpolation:sRGB;color-interpolation-filters:linearRGB;solid-color:#000000;solid-opacity:1;fill:#333333;fill-opacity:1;fill-rule:nonzero;stroke:none;stroke-width:2.0111742;stroke-linecap:round;stroke-linejoin:round;stroke-miterlimit:4;stroke-dasharray:none;stroke-dashoffset:0;stroke-opacity:1;marker:none;color-rendering:auto;image-rendering:auto;shape-rendering:auto;text-rendering:auto;enable-background:accumulate"
         d="m 124,708.36133 c -6.61548,0 -12,5.38453 -12,12 0,6.61546 5.38452,12 12,12 6.61548,0 12,-5.38454 12,-12 0,-6.61547 -5.38452,-12 -12,-12 z m 0,2.01172 c 5.52856,0 9.98828,4.45974 9.98828,9.98828 0,5.52854 -4.45972,9.99023 -9.98828,9.99023 -5.52856,0 -9.98828,-4.46169 -9.98828,-9.99023 0,-5.52854 4.45972,-9.98828 9.98828,-9.98828 z"
         id="ellipse6188"
         inkscape:connector-curvature="0" />
      <path
         style="color:#000000;display:inline;overflow:visible;visibility:visible;opacity:1;fill:#333333;fill-opacity:1;fill-rule:nonzero;stroke:none;stroke-width:64;stroke-linecap:butt;stroke-linejoin:miter;stroke-miterlimit:4;stroke-dasharray:none;stroke-dashoffset:0;stroke-opacity:1;marker:none;enable-background:accumulate"
         d="m 240,1384.6699 c -0.23819,0 -0.4761,0.017 -0.71289,0.043 L 239,1385 l -0.27148,-0.2168 c -2.21397,0.3907 -4.12616,1.7759 -5.1875,3.7578 L 235,1390 h 1 l 2,2 v -2 l 1,-1 h 1.99999 l 2,-2 v -2 c -0.7244,-0.2342 -2.23867,-0.3288 -2.99999,-0.3301 z M 238,1392 v 3 l 1,1 v 2 1 c 0.51741,0.1161 0.46973,0.328 1,0.3301 0.24933,0 0.49835,-0.019 0.74609,-0.047 l 0.2539,-0.2832 v -1 l 3,-3 1e-5,-1 -3,-2 z"
         transform="matrix(1.5,0,0,1.5,-235.99999,-1367.6378)"
         id="path4243"
         inkscape:connector-curvature="0"
         sodipodi:nodetypes="ccccccccccccccccccccccccccc" />
    </g>
  </g>
</svg>
