<?xml version="1.0" encoding="UTF-8" standalone="no"?>
<!-- Created with Inkscape (http://www.inkscape.org/) -->

<svg
   xmlns:dc="http://purl.org/dc/elements/1.1/"
   xmlns:cc="http://creativecommons.org/ns#"
   xmlns:rdf="http://www.w3.org/1999/02/22-rdf-syntax-ns#"
   xmlns:svg="http://www.w3.org/2000/svg"
   xmlns="http://www.w3.org/2000/svg"
   xmlns:sodipodi="http://sodipodi.sourceforge.net/DTD/sodipodi-0.dtd"
   xmlns:inkscape="http://www.inkscape.org/namespaces/inkscape"
   width="16.008831"
   height="16.008839"
   viewBox="0 0 4.2356699 4.2356721"
   version="1.1"
   id="svg6296"
   inkscape:version="0.91+devel r"
   sodipodi:docname="focused_16.svg">
  <defs
     id="defs6290" />
  <sodipodi:namedview
     id="base"
     pagecolor="#ffffff"
     bordercolor="#666666"
     borderopacity="1.0"
     inkscape:pageopacity="0.0"
     inkscape:pageshadow="2"
     inkscape:zoom="30.357661"
     inkscape:cx="23.804784"
     inkscape:cy="19.810772"
     inkscape:document-units="px"
     inkscape:current-layer="layer1"
     showgrid="false"
     fit-margin-top="0"
     fit-margin-left="0"
     fit-margin-right="0"
     fit-margin-bottom="0"
     units="px" />
  <metadata
     id="metadata6293">
    <rdf:RDF>
      <cc:Work
         rdf:about="">
        <dc:format>image/svg+xml</dc:format>
        <dc:type
           rdf:resource="http://purl.org/dc/dcmitype/StillImage" />
        <dc:title></dc:title>
      </cc:Work>
    </rdf:RDF>
  </metadata>
  <g
     inkscape:label="Layer 1"
     inkscape:groupmode="layer"
     id="layer1"
     transform="translate(278.05002,-10.805024)">
    <rect
       y="10.806193"
       x="-278.04886"
       height="4.2333336"
       width="4.2333336"
       id="rect6312"
       style="color:#000000;display:inline;overflow:visible;visibility:visible;fill:none;stroke:none;stroke-width:1.32291675;marker:none;enable-background:accumulate"
       inkscape:export-filename="./g6986.png"
       inkscape:export-xdpi="191.99951"
       inkscape:export-ydpi="191.99951" />
    <circle
       r="0.52916735"
       cy="12.92286"
       cx="-275.93222"
       id="circle6314"
       style="color:#000000;display:inline;overflow:visible;visibility:visible;opacity:1;fill:#808080;fill-opacity:1;fill-rule:nonzero;stroke:none;stroke-width:0.26458335;stroke-linecap:butt;stroke-linejoin:miter;stroke-miterlimit:4;stroke-dasharray:none;stroke-dashoffset:10.79999924;stroke-opacity:1;marker:none;enable-background:accumulate"
       inkscape:export-filename="./g6986.png"
       inkscape:export-xdpi="191.99951"
       inkscape:export-ydpi="191.99951" />
    <path
       style="color:#000000;font-style:normal;font-variant:normal;font-weight:normal;font-stretch:normal;font-size:medium;line-height:normal;font-family:sans-serif;font-variant-ligatures:normal;font-variant-position:normal;font-variant-caps:normal;font-variant-numeric:normal;font-variant-alternates:normal;font-feature-settings:normal;text-indent:0;text-align:start;text-decoration:none;text-decoration-line:none;text-decoration-style:solid;text-decoration-color:#000000;letter-spacing:normal;word-spacing:normal;text-transform:none;writing-mode:lr-tb;direction:ltr;baseline-shift:baseline;text-anchor:start;white-space:normal;shape-padding:0;clip-rule:nonzero;display:inline;overflow:visible;visibility:visible;opacity:1;isolation:auto;mix-blend-mode:normal;color-interpolation:sRGB;color-interpolation-filters:linearRGB;solid-color:#000000;solid-opacity:1;fill:#808080;fill-opacity:1;fill-rule:nonzero;stroke:none;stroke-width:0.26458332;stroke-linecap:butt;stroke-linejoin:miter;stroke-miterlimit:4;stroke-dasharray:none;stroke-dashoffset:10.79999924;stroke-opacity:1;marker:none;color-rendering:auto;image-rendering:auto;shape-rendering:auto;text-rendering:auto;enable-background:accumulate"
       d="m -275.93218,11.599718 c -0.72906,0 -1.32292,0.593858 -1.32292,1.322917 0,0.729059 0.59386,1.322917 1.32292,1.322917 0.72906,0 1.32291,-0.593858 1.32291,-1.322917 0,-0.729059 -0.59385,-1.322917 -1.32291,-1.322917 z m 0,0.264584 c 0.58606,0 1.05833,0.472265 1.05833,1.058333 0,0.586068 -0.47227,1.058333 -1.05833,1.058333 -0.58607,0 -1.05834,-0.472265 -1.05834,-1.058333 0,-0.586068 0.47227,-1.058333 1.05834,-1.058333 z"
       id="circle6316"
       inkscape:connector-curvature="0"
       inkscape:export-filename="./g6986.png"
       inkscape:export-xdpi="191.99951"
       inkscape:export-ydpi="191.99951" />
    <path
       style="color:#000000;display:inline;overflow:visible;visibility:visible;fill:#808080;fill-opacity:1;fill-rule:nonzero;stroke:none;stroke-width:0.52916664;marker:none;enable-background:accumulate"
       d="m -278.05002,11.655066 c 0,0 0.51257,0.164698 1.05929,0.210225 8e-5,-7.7e-5 10e-5,-10e-5 10e-5,0 1.1e-4,-1.06e-4 3e-5,-5e-6 1e-4,-1.6e-5 3e-5,-9.5e-5 0,0 -2.6e-4,-0.0019 8e-5,-10e-5 4e-5,-10e-6 1e-4,0 -0.0536,-0.570833 -0.2112,-1.057166 -0.2112,-1.057166 z"
       id="path6318"
       inkscape:connector-curvature="0"
       inkscape:transform-center-x="6.0022147"
       inkscape:transform-center-y="-5.998435"
       sodipodi:nodetypes="ccsssccc"
       inkscape:export-filename="./g6986.png"
       inkscape:export-xdpi="191.99951"
       inkscape:export-ydpi="191.99951" />
    <path
       sodipodi:nodetypes="ccsssccc"
       inkscape:transform-center-y="-6.0022147"
       inkscape:transform-center-x="-5.998435"
       inkscape:connector-curvature="0"
       id="path6087"
       d="m -274.66439,10.805024 c 0,0 -0.1647,0.512572 -0.21023,1.059291 8e-5,7.9e-5 1.1e-4,1.03e-4 0,1.03e-4 1.1e-4,1.08e-4 10e-6,2.4e-5 2e-5,9.8e-5 10e-5,2.6e-5 0,0 0.002,-2.65e-4 10e-5,8.2e-5 10e-6,4.5e-5 0,1.03e-4 0.57084,-0.05361 1.05717,-0.211201 1.05717,-0.211201 z"
       style="color:#000000;display:inline;overflow:visible;visibility:visible;fill:#808080;fill-opacity:1;fill-rule:nonzero;stroke:none;stroke-width:0.52916664;marker:none;enable-background:accumulate"
       inkscape:export-filename="./g6986.png"
       inkscape:export-xdpi="191.99951"
       inkscape:export-ydpi="191.99951" />
    <path
       style="color:#000000;display:inline;overflow:visible;visibility:visible;fill:#808080;fill-opacity:1;fill-rule:nonzero;stroke:none;stroke-width:0.52916664;marker:none;enable-background:accumulate"
       d="m -273.81435,14.190653 c 0,0 -0.51257,-0.164698 -1.05929,-0.210224 -8e-5,7.6e-5 -10e-5,10e-5 -10e-5,0 -1.1e-4,1.05e-4 -3e-5,5e-6 -10e-5,1.5e-5 -3e-5,9.6e-5 0,0 2.6e-4,0.0019 -8e-5,10e-5 -4e-5,1e-5 -10e-5,0 0.0536,0.570833 0.2112,1.057166 0.2112,1.057166 z"
       id="path6089"
       inkscape:connector-curvature="0"
       inkscape:transform-center-x="-6.0022147"
       inkscape:transform-center-y="5.998435"
       sodipodi:nodetypes="ccsssccc"
       inkscape:export-filename="./g6986.png"
       inkscape:export-xdpi="191.99951"
       inkscape:export-ydpi="191.99951" />
    <path
       sodipodi:nodetypes="ccsssccc"
       inkscape:transform-center-y="6.0022147"
       inkscape:transform-center-x="5.998435"
       inkscape:connector-curvature="0"
       id="path6094"
       d="m -277.19998,15.040696 c 0,0 0.1647,-0.512572 0.21023,-1.059291 -8e-5,-7.9e-5 -10e-5,-1.03e-4 0,-1.03e-4 -1.1e-4,-1.09e-4 -10e-6,-2.4e-5 -2e-5,-9.8e-5 -9e-5,-2.7e-5 0,0 -0.002,2.64e-4 -1e-4,-8.2e-5 -1e-5,-4.5e-5 0,-1.03e-4 -0.57083,0.05361 -1.05717,0.211201 -1.05717,0.211201 z"
       style="color:#000000;display:inline;overflow:visible;visibility:visible;fill:#808080;fill-opacity:1;fill-rule:nonzero;stroke:none;stroke-width:0.52916664;marker:none;enable-background:accumulate"
       inkscape:export-filename="./g6986.png"
       inkscape:export-xdpi="191.99951"
       inkscape:export-ydpi="191.99951" />
  </g>
</svg>
