<?xml version="1.0" encoding="UTF-8" standalone="no"?>
<!-- Created with Inkscape (http://www.inkscape.org/) -->

<svg
   xmlns:dc="http://purl.org/dc/elements/1.1/"
   xmlns:cc="http://creativecommons.org/ns#"
   xmlns:rdf="http://www.w3.org/1999/02/22-rdf-syntax-ns#"
   xmlns:svg="http://www.w3.org/2000/svg"
   xmlns="http://www.w3.org/2000/svg"
   xmlns:sodipodi="http://sodipodi.sourceforge.net/DTD/sodipodi-0.dtd"
   xmlns:inkscape="http://www.inkscape.org/namespaces/inkscape"
   width="16"
   height="15.999999"
   id="svg5918"
   version="1.1"
   inkscape:version="0.91pre2 r"
   viewBox="0 0 16 15.999999"
   sodipodi:docname="get-link-url_16.svg">
  <defs
     id="defs5920">
    <clipPath
       id="clipPath16"
       clipPathUnits="userSpaceOnUse">
      <path
         inkscape:connector-curvature="0"
         id="path18"
         d="m 0,595.28 841.89,0 L 841.89,0 0,0 0,595.28 Z" />
    </clipPath>
    <clipPath
       id="clipPath16-0"
       clipPathUnits="userSpaceOnUse">
      <path
         inkscape:connector-curvature="0"
         id="path18-1"
         d="m 0,595.28 841.89,0 L 841.89,0 0,0 0,595.28 Z" />
    </clipPath>
  </defs>
  <sodipodi:namedview
     id="base"
     pagecolor="#dedede"
     bordercolor="#666666"
     borderopacity="1.0"
     inkscape:pageopacity="0"
     inkscape:pageshadow="2"
     inkscape:zoom="30.357661"
     inkscape:cx="6.4437892"
     inkscape:cy="7.4631759"
     inkscape:document-units="px"
     inkscape:current-layer="g5346"
     showgrid="true"
     fit-margin-top="0"
     fit-margin-left="0"
     fit-margin-right="0"
     fit-margin-bottom="0.2"
     inkscape:snap-bbox="true"
     inkscape:bbox-paths="true"
     inkscape:bbox-nodes="true"
     inkscape:snap-bbox-edge-midpoints="true"
     inkscape:snap-bbox-midpoints="true"
     inkscape:object-paths="true"
     inkscape:snap-intersection-paths="true"
     inkscape:object-nodes="true"
     inkscape:snap-smooth-nodes="true"
     inkscape:snap-midpoints="true"
     inkscape:snap-object-midpoints="true"
     inkscape:snap-center="true">
    <inkscape:grid
       type="xygrid"
       id="grid4137"
       originx="-0.00011296354px"
       originy="-8.999973px" />
  </sodipodi:namedview>
  <metadata
     id="metadata5923">
    <rdf:RDF>
      <cc:Work
         rdf:about="">
        <dc:format>image/svg+xml</dc:format>
        <dc:type
           rdf:resource="http://purl.org/dc/dcmitype/StillImage" />
        <dc:title></dc:title>
      </cc:Work>
    </rdf:RDF>
  </metadata>
  <g
     inkscape:label="Layer 1"
     inkscape:groupmode="layer"
     id="layer1"
     transform="translate(-182.93849,-560.7201)">
    <g
       style="display:inline"
       transform="matrix(0.66666607,0,0,0.66666668,-633.06096,6.8119427)"
       id="g5687" />
    <g
       style="display:inline"
       id="g5346"
       transform="translate(-769.06151,404.35792)">
      <g
         style="display:inline"
         id="g4809"
         transform="matrix(0.66666668,0,0,0.66666668,610.66666,-102.54594)">
        <rect
           style="color:#000000;display:inline;overflow:visible;visibility:visible;fill:none;stroke:none;stroke-width:7.5;marker:none;enable-background:accumulate"
           id="rect4811"
           width="24"
           height="24"
           x="512"
           y="388.36218" />
        <rect
           y="388.36218"
           x="512"
           height="24"
           width="24"
           id="rect4813"
           style="color:#000000;display:inline;overflow:visible;visibility:visible;fill:none;stroke:none;stroke-width:6;marker:none;enable-background:accumulate" />
        <path
           sodipodi:nodetypes="cc"
           inkscape:connector-curvature="0"
           id="path4815"
           d="m 519.27301,405.08918 9.45397,-9.45397"
           style="color:#000000;display:inline;overflow:visible;visibility:visible;opacity:1;fill:none;fill-opacity:1;fill-rule:nonzero;stroke:#808080;stroke-width:2.19435978;stroke-linecap:butt;stroke-linejoin:miter;stroke-miterlimit:4;stroke-dasharray:none;stroke-dashoffset:0;stroke-opacity:1;marker:none;enable-background:accumulate" />
        <path
           id="path4817"
           d="m 530.22802,388.3642 c -0.16752,0.005 -0.33261,0.0248 -0.49522,0.0573 -1.30091,0.26025 -2.12819,1.17226 -2.84686,1.89095 l -2.15615,2.15616 c -0.71867,0.71867 -1.63006,1.54593 -1.89031,2.84686 -0.11121,0.55598 -0.0648,1.14141 0.14465,1.75085 l 2.65399,-2.65463 c 0.15414,-0.16888 0.32382,-0.3447 0.50694,-0.5278 l 2.15616,-2.15616 c 0.71867,-0.71867 1.32881,-1.24445 1.82449,-1.34361 0.062,-0.0125 0.12712,-0.0214 0.19614,-0.0248 0.069,-0.003 0.14188,-0.001 0.21959,0.008 0.46627,0.0546 1.10419,0.37115 2.09359,1.36055 1.31922,1.31921 1.44214,2.01364 1.34296,2.50933 -0.0993,0.49568 -0.62494,1.10517 -1.34361,1.82384 l -2.15549,2.15616 c -0.18485,0.18483 -0.36199,0.3555 -0.53237,0.51085 l -2.65071,2.65072 c 0.60963,0.20967 1.19532,0.25592 1.75151,0.14466 1.30091,-0.26026 2.12818,-1.17229 2.84685,-1.89096 l 2.15615,-2.15615 c 0.71867,-0.71867 1.63005,-1.54595 1.8903,-2.84686 0.26025,-1.3009 -0.33515,-2.76238 -1.8903,-4.31752 -1.16635,-1.16635 -2.28002,-1.79294 -3.31275,-1.92353 -0.17212,-0.0218 -0.34204,-0.0298 -0.50955,-0.0241 z m -10.78013,10.78012 c -0.1675,0.005 -0.33261,0.0248 -0.49521,0.0573 -1.30093,0.26025 -2.1282,1.17227 -2.84687,1.89094 l -2.15615,2.15551 c -0.71867,0.71867 -1.63005,1.5466 -1.8903,2.84751 -0.26025,1.30091 0.33516,2.76238 1.8903,4.31752 1.55514,1.55515 3.01662,2.15056 4.31752,1.8903 1.30091,-0.26025 2.12819,-1.17228 2.84686,-1.89096 l 2.15615,-2.15614 c 0.71867,-0.71868 1.63006,-1.54595 1.89031,-2.84685 0.11121,-0.55618 0.065,-1.14187 -0.14465,-1.75151 l -2.64748,2.64746 c -0.15606,0.17139 -0.32742,0.34957 -0.51345,0.53562 l -2.15616,2.15614 c -0.71867,0.71868 -1.32881,1.2438 -1.82449,1.34296 -0.49568,0.0993 -1.19012,-0.0238 -2.50932,-1.34296 -1.31922,-1.31919 -1.44212,-2.01363 -1.34296,-2.50933 0.0993,-0.49567 0.62494,-1.10516 1.3436,-1.82383 l 2.1555,-2.15616 c 0.18432,-0.1843 0.36112,-0.35455 0.53106,-0.50955 l 2.65137,-2.65137 c -0.25289,-0.0869 -0.50186,-0.14766 -0.74607,-0.17854 -0.17213,-0.0218 -0.34206,-0.0298 -0.50956,-0.0241 z"
           style="color:#000000;font-style:normal;font-variant:normal;font-weight:normal;font-stretch:normal;font-size:medium;line-height:normal;font-family:sans-serif;text-indent:0;text-align:start;text-decoration:none;text-decoration-line:none;text-decoration-style:solid;text-decoration-color:#000000;letter-spacing:normal;word-spacing:normal;text-transform:none;direction:ltr;block-progression:tb;writing-mode:lr-tb;baseline-shift:baseline;text-anchor:start;clip-rule:nonzero;display:inline;overflow:visible;visibility:visible;opacity:1;isolation:auto;color-interpolation:sRGB;color-interpolation-filters:linearRGB;fill:#808080;fill-opacity:1;fill-rule:nonzero;stroke:none;stroke-width:5.99999952;stroke-linecap:butt;stroke-linejoin:miter;stroke-miterlimit:4;stroke-dasharray:none;stroke-dashoffset:0;stroke-opacity:1;marker:none;color-rendering:auto;image-rendering:auto;shape-rendering:auto;text-rendering:auto;enable-background:accumulate"
           inkscape:connector-curvature="0" />
      </g>
    </g>
  </g>
</svg>
