<?xml version="1.0" encoding="UTF-8"?>
<svg width="284px" height="31px" viewBox="0 0 284 31" version="1.1" xmlns="http://www.w3.org/2000/svg" xmlns:xlink="http://www.w3.org/1999/xlink">
    <!-- Generator: Sketch 52.2 (67145) - http://www.bohemiancoding.com/sketch -->
    <title>google</title>
    <desc>Created with Sketch.</desc>
    <defs>
        <polygon id="path-1" points="0.1 0.9 239.6 0.9 239.6 37.8 0.1 37.8"></polygon>
        <polygon id="path-3" points="0.1 0.9 239.6 0.9 239.6 37.8 0.1 37.8"></polygon>
        <polygon id="path-5" points="0.1 0.9 239.6 0.9 239.6 37.8 0.1 37.8"></polygon>
    </defs>
    <g id="Page-1" stroke="none" stroke-width="1" fill="none" fill-rule="evenodd">
        <g id="google" transform="translate(0.000000, -4.000000)">
            <polygon id="Path" points="0.2 0.9 283.5 0.9 283.5 37.8 0.2 37.8"></polygon>
            <path d="M12.2,10.2 L29.9,10.2 L27,5.2 C26.6,4.5 25.9,4 25,4 L10,4 C9.2,4 8.4,4.4 8,5.2 L3.4,13.3 L12.2,28.6 L12.2,10.2 Z" id="Path" fill="#547DBF"></path>
            <path d="M12.2,28.6 L3.4,13.3 L0.5,18.3 C0.1,19 0.1,19.9 0.5,20.6 L8,33.6 C8.4,34.3 9.2,34.8 10,34.8 L19.3,34.8 L28.2,19.4 L12.2,28.6 Z" id="Path" fill="#FFCE40"></path>
            <path d="M29.9,10.2 L12.2,10.2 L28.1,19.4 L19.2,34.8 L25,34.8 C25.8,34.8 26.6,34.4 27,33.6 L34.5,20.5 C34.9,19.8 34.9,18.9 34.5,18.2 L29.9,10.2 Z" id="Path" fill="#DB4436"></path>
            <path d="M12.2,10.2 L6.9,19.4 L12.2,28.6 L22.8,28.6 L28.1,19.4 L22.8,10.2 L12.2,10.2 Z M17.4,14.6 C19.047,14.6 20.487,15.445 21.3,16.697 C21.8778077,17.4709012 22.1931489,18.4092164 22.2,19.375 C22.2,21.015 21.361,22.454 20.117,23.27 C19.349,23.845 18.413,24.2 17.4,24.2 C16.066,24.2 14.858,23.59 14.01,22.652 C13.146,21.812 12.598,20.647 12.598,19.375 C12.598,18.042 13.207,16.836 14.143,15.988 C14.982,15.138 16.139,14.6 17.4,14.6 Z" id="Shape" fill="#EEEEEE" fill-rule="nonzero"></path>
            <polygon id="Path" points="0.2 0.9 34.8 0.9 34.8 37.8 0.2 37.8"></polygon>
            <g id="Group" opacity="0.54" transform="translate(44.000000, 0.000000)">
                <g id="Clipped">
                    <mask id="mask-2" fill="white">
                        <use xlink:href="#path-1"></use>
                    </mask>
                    <g id="b"></g>
                    <polygon id="Path" mask="url(#mask-2)" points="0.1 8.8 239.6 8.8 239.6 34.9 0.1 34.9"></polygon>
                </g>
                <g id="Clipped">
                    <mask id="mask-4" fill="white">
                        <use xlink:href="#path-3"></use>
                    </mask>
                    <g id="b"></g>
                    <path d="M85.5,19.8 C85.5,14.6 89.5,10.6 94.7,10.6 C97.4,10.6 99.6,11.7 101.2,13.5 L99.6,15 C98.4,13.5 96.7,12.8 94.7,12.8 C91,12.8 87.9,15.5 87.9,19.8 C87.9,24.1 91,26.8 94.7,26.8 C96.9,26.8 98.8,25.8 100.1,24.2 L101.7,25.8 C100.2,27.6 97.7,28.9 94.7,28.9 C89.5,29 85.5,25.1 85.5,19.8 Z M103.4,28.6 L103.4,11 L105.7,11 L105.7,28.6 L103.4,28.6 Z M119.8,22.6 C119.8,26.3 117.2,29 113.6,29 C110,29 107.4,26.2 107.4,22.6 C107.4,18.9 110,16.2 113.6,16.2 C117.2,16.2 119.8,18.9 119.8,22.6 Z M117.5,22.6 C117.5,19.8 115.6,18.2 113.6,18.2 C111.6,18.2 109.7,19.8 109.7,22.6 C109.7,25.4 111.6,27 113.6,27 C115.6,26.9 117.5,25.3 117.5,22.6 Z M130,28.6 L130,26.9 L129.9,26.9 C129.2,28 127.7,29 126.1,29 C123,29 121.5,26.9 121.5,23.9 L121.5,16.5 L123.8,16.5 L123.8,23.5 C123.8,26 125.1,26.9 126.8,26.9 C128.8,26.9 130,25 130,23.2 L130,16.6 L132.3,16.6 L132.3,28.7 L130,28.7 L130,28.6 Z M134,22.6 C134,18.9 136.7,16.2 139.7,16.2 C141.6,16.2 143.1,17.2 143.8,18.3 L143.9,18.3 L143.8,16.6 L143.8,11 L146.1,11 L146.1,28.6 L144,28.6 L144,26.9 L143.9,26.9 C143.2,28 141.7,29 139.8,29 C136.7,29 134,26.3 134,22.6 Z M144,22.6 C144,19.8 142.2,18.2 140.2,18.2 C138.2,18.2 136.4,19.8 136.4,22.6 C136.4,25.3 138.2,27 140.2,27 C142.1,26.9 144,25.3 144,22.6 Z M152.3,28.6 L152.3,11 L158.3,11 C161.2,11 163.8,13.2 163.8,16.2 C163.8,19.2 161.2,21.4 158.3,21.4 L154.6,21.4 L154.6,28.5 L152.3,28.5 L152.3,28.6 Z M158.4,19.3 C160.4,19.3 161.5,17.6 161.5,16.2 C161.5,14.8 160.4,13.1 158.4,13.1 L154.6,13.1 L154.6,19.3 L158.4,19.3 Z M165.4,28.6 L165.4,11 L167.7,11 L167.7,28.6 L165.4,28.6 Z M169.6,25 C169.6,22.3 172.1,20.8 174.9,20.8 C176.5,20.8 177.7,21.3 178.2,21.5 L178.2,21.2 C178.2,19.4 176.7,18.3 175.1,18.3 C173.8,18.3 172.6,18.9 172.2,20 L170.1,19.1 C170.5,18 172,16.2 175,16.2 C178,16.2 180.4,18 180.4,21.4 L180.4,28.7 L178.2,28.7 L178.2,27 L178.1,27 C177.4,28 176.2,29.1 174.1,29.1 C171.7,29 169.6,27.5 169.6,25 Z M178.2,23.4 C178.2,23.4 177.2,22.6 175.3,22.6 C172.9,22.6 172,23.9 172,25 C172,26.3 173.3,26.9 174.5,26.9 C176.3,26.9 178.2,25.4 178.2,23.4 Z M183.6,25 L183.6,18.7 L181.5,18.7 L181.5,16.6 L183.6,16.6 L183.6,12.9 L185.9,12.9 L185.9,16.6 L188.9,16.6 L188.9,18.7 L185.9,18.7 L185.9,24.9 C185.9,26.3 186.5,26.9 187.5,26.9 C187.9,26.9 188.2,26.9 188.5,26.7 L189.3,28.6 C188.8,28.8 188.2,28.9 187.5,28.9 C185,28.8 183.6,27.4 183.6,25 Z M198.3,11.2 L197.5,13.1 C197.2,13 196.9,12.9 196.5,12.9 C195.4,12.9 194.5,13.6 194.5,15 L194.5,16.5 L197.6,16.5 L197.6,18.6 L194.5,18.6 L194.5,28.6 L192.2,28.6 L192.2,18.6 L190,18.6 L190,16.5 L192.3,16.5 L192.3,15 C192.3,12.5 194,10.9 196.6,10.9 C197.3,10.9 197.8,11 198.3,11.2 Z M210.7,22.6 C210.7,26.3 208.1,29 204.5,29 C200.9,29 198.3,26.2 198.3,22.6 C198.3,18.9 200.9,16.2 204.5,16.2 C208.1,16.2 210.7,18.9 210.7,22.6 Z M208.4,22.6 C208.4,19.8 206.5,18.2 204.5,18.2 C202.5,18.2 200.6,19.8 200.6,22.6 C200.6,25.4 202.5,27 204.5,27 C206.5,26.9 208.4,25.3 208.4,22.6 Z M212.5,28.6 L212.5,16.6 L214.7,16.6 L214.7,18.6 L214.8,18.6 C215.3,17.2 217,16.3 218.3,16.3 C219,16.3 219.5,16.4 220,16.6 L219.1,18.7 C218.8,18.6 218.4,18.5 217.9,18.5 C216.3,18.5 214.8,19.8 214.8,22 L214.8,28.6 L212.5,28.6 Z M221.2,16.6 L223.4,16.6 L223.4,18.3 L223.5,18.3 C224.2,17.1 225.8,16.2 227.2,16.2 C229.1,16.2 230.4,17.1 231,18.5 C231.9,17.1 233.3,16.2 235.2,16.2 C238.2,16.2 239.5,18.3 239.5,21.3 L239.5,28.7 L237.2,28.7 L237.2,21.7 C237.2,19.2 236.2,18.4 234.5,18.4 C232.7,18.4 231.4,20.3 231.4,22.1 L231.4,28.8 L229.1,28.8 L229.1,21.8 C229.1,19.3 228.1,18.5 226.4,18.5 C224.6,18.5 223.3,20.4 223.3,22.2 L223.3,28.9 L221,28.9 L221,16.6 L221.2,16.6 Z" id="Shape" fill="#000000" fill-rule="nonzero" mask="url(#mask-4)"></path>
                </g>
                <g id="Clipped">
                    <mask id="mask-6" fill="white">
                        <use xlink:href="#path-5"></use>
                    </mask>
                    <g id="b"></g>
                </g>
                <g id="d-link" transform="translate(40.037600, 22.028800) scale(-1, 1) rotate(-180.000000) translate(-40.037600, -22.028800) translate(0.060000, 8.959200)">
                    <g id="d">
                        <path d="M0.13454,16.02948 C0.13454,21.60328 4.805,26.11998 10.3788,26.11998 C13.454,26.11998 15.64508,24.90912 17.298,23.33308 L15.33756,21.39186 C14.16514,22.50662 12.56988,23.37152 10.3788,23.37152 C6.32338,23.37152 3.15208,20.10412 3.15208,16.0487 C3.15208,11.99328 6.32338,8.72588 10.3788,8.72588 C13.01194,8.72588 14.5111,9.78298 15.4721,10.74398 C16.26012,11.532 16.77906,12.66598 16.97126,14.20358 L10.3788,14.20358 L10.3788,16.95204 L19.66206,16.95204 C19.75816,16.45232 19.81582,15.87572 19.81582,15.22224 C19.81582,13.14648 19.25844,10.59022 17.43254,8.78354 C15.64508,6.93842 13.37712,5.9582 10.3788,5.9582 C4.805,5.9582 0.13454,10.4749 0.13454,16.02948 Z M27.2924,18.9317 C23.69826,18.9317 20.77682,16.20246 20.77682,12.43534 C20.77682,8.68744 23.69826,5.93898 27.2924,5.93898 C30.88654,5.93898 33.80798,8.68744 33.80798,12.43534 C33.80798,16.20246 30.88654,18.9317 27.2924,18.9317 Z M27.2924,8.51446 C25.33196,8.51446 23.62138,10.12894 23.62138,12.45456 C23.62138,14.7994 25.31274,16.39466 27.2924,16.39466 C29.25284,16.39466 30.96342,14.7994 30.96342,12.45456 C30.96342,10.12894 29.25284,8.51446 27.2924,8.51446 Z M41.5152,18.9317 C37.92106,18.9317 34.99962,16.20246 34.99962,12.43534 C34.99962,8.68744 37.92106,5.93898 41.5152,5.93898 C45.10934,5.93898 48.03078,8.68744 48.03078,12.43534 C48.03078,16.20246 45.10934,18.9317 41.5152,18.9317 Z M41.5152,8.51446 C39.55476,8.51446 37.84418,10.12894 37.84418,12.45456 C37.84418,14.7994 39.53554,16.39466 41.5152,16.39466 C43.49486,16.39466 45.18622,14.7994 45.18622,12.45456 C45.18622,10.12894 43.47564,8.51446 41.5152,8.51446 Z M58.96696,18.5473 L58.96696,17.4902 L58.87086,17.4902 C58.2366,18.259 57.00652,18.95092 55.4497,18.95092 C52.20152,18.95092 49.22242,16.10636 49.22242,12.43534 C49.22242,8.80276 52.20152,5.9582 55.4497,5.9582 C57.00652,5.9582 58.2366,6.65012 58.87086,7.43814 L58.96696,7.43814 L58.96696,6.49636 C58.96696,4.01698 57.64078,2.6908 55.50736,2.6908 C53.75834,2.6908 52.68202,3.9401 52.23996,4.9972 L49.76058,3.95932 C50.47172,2.22952 52.3745,0.11532 55.52658,0.11532 C58.87086,0.11532 61.6962,2.07576 61.6962,6.88076 L61.6962,18.5473 L58.96696,18.5473 Z M55.69956,8.51446 C53.73912,8.51446 52.0862,10.16738 52.0862,12.43534 C52.0862,14.72252 53.73912,16.39466 55.69956,16.39466 C57.64078,16.39466 59.15916,14.72252 59.15916,12.43534 C59.17838,10.14816 57.64078,8.51446 55.69956,8.51446 Z M66.5012,6.3426 L63.65664,6.3426 L63.65664,25.42806 L66.5012,25.42806 L66.5012,6.3426 Z M74.32374,8.51446 C72.86302,8.51446 71.84436,9.18716 71.17166,10.4749 L79.8591,14.06904 L79.5708,14.7994 C79.03264,16.26012 77.37972,18.9317 74.01622,18.9317 C70.67194,18.9317 67.88504,16.29856 67.88504,12.43534 C67.88504,8.80276 70.6335,5.93898 74.32374,5.93898 C77.30284,5.93898 79.01342,7.76488 79.74378,8.82198 L77.53348,10.30192 C76.7839,9.2256 75.78446,8.51446 74.32374,8.51446 Z M74.11232,16.4331 C75.2463,16.4331 76.2073,15.87572 76.51482,15.04926 L70.71038,12.64676 C70.6335,15.14536 72.6516,16.4331 74.11232,16.4331 Z" id="Shape" fill="#000000" fill-rule="nonzero"></path>
                        <polygon id="Path" points="0 0 79.9552 0 79.9552 26.1392 0 26.1392"></polygon>
                    </g>
                </g>
            </g>
        </g>
    </g>
</svg>
