<?xml version="1.0" encoding="UTF-8" standalone="no"?>
<!-- Created with Inkscape (http://www.inkscape.org/) -->

<svg
   xmlns:dc="http://purl.org/dc/elements/1.1/"
   xmlns:cc="http://creativecommons.org/ns#"
   xmlns:rdf="http://www.w3.org/1999/02/22-rdf-syntax-ns#"
   xmlns:svg="http://www.w3.org/2000/svg"
   xmlns="http://www.w3.org/2000/svg"
   xmlns:sodipodi="http://sodipodi.sourceforge.net/DTD/sodipodi-0.dtd"
   xmlns:inkscape="http://www.inkscape.org/namespaces/inkscape"
   width="16"
   height="15.999999"
   id="svg5918"
   version="1.1"
   inkscape:version="0.91pre2 r"
   viewBox="0 0 16 15.999999"
   sodipodi:docname="hide_16.svg">
  <defs
     id="defs5920">
    <clipPath
       id="clipPath16"
       clipPathUnits="userSpaceOnUse">
      <path
         inkscape:connector-curvature="0"
         id="path18"
         d="m 0,595.28 841.89,0 L 841.89,0 0,0 0,595.28 Z" />
    </clipPath>
    <clipPath
       id="clipPath16-0"
       clipPathUnits="userSpaceOnUse">
      <path
         inkscape:connector-curvature="0"
         id="path18-1"
         d="m 0,595.28 841.89,0 L 841.89,0 0,0 0,595.28 Z" />
    </clipPath>
  </defs>
  <sodipodi:namedview
     id="base"
     pagecolor="#dedede"
     bordercolor="#666666"
     borderopacity="1.0"
     inkscape:pageopacity="0"
     inkscape:pageshadow="2"
     inkscape:zoom="30.357661"
     inkscape:cx="6.4437892"
     inkscape:cy="7.4631759"
     inkscape:document-units="px"
     inkscape:current-layer="g5756"
     showgrid="true"
     fit-margin-top="0"
     fit-margin-left="0"
     fit-margin-right="0"
     fit-margin-bottom="0.2"
     inkscape:snap-bbox="true"
     inkscape:bbox-paths="true"
     inkscape:bbox-nodes="true"
     inkscape:snap-bbox-edge-midpoints="true"
     inkscape:snap-bbox-midpoints="true"
     inkscape:object-paths="true"
     inkscape:snap-intersection-paths="true"
     inkscape:object-nodes="true"
     inkscape:snap-smooth-nodes="true"
     inkscape:snap-midpoints="true"
     inkscape:snap-object-midpoints="true"
     inkscape:snap-center="true">
    <inkscape:grid
       type="xygrid"
       id="grid4137"
       originx="-0.00011296354px"
       originy="-8.999973px" />
  </sodipodi:namedview>
  <metadata
     id="metadata5923">
    <rdf:RDF>
      <cc:Work
         rdf:about="">
        <dc:format>image/svg+xml</dc:format>
        <dc:type
           rdf:resource="http://purl.org/dc/dcmitype/StillImage" />
        <dc:title></dc:title>
      </cc:Work>
    </rdf:RDF>
  </metadata>
  <g
     inkscape:label="Layer 1"
     inkscape:groupmode="layer"
     id="layer1"
     transform="translate(-182.93849,-560.7201)">
    <g
       style="display:inline"
       transform="matrix(0.66666607,0,0,0.66666668,-633.06096,6.8119427)"
       id="g5687" />
    <g
       style="display:inline"
       id="g5346"
       transform="translate(-769.06151,404.35792)">
      <g
         style="display:inline"
         id="g5756"
         transform="matrix(0.66666668,0,0,0.66666668,610.66666,4.120729)">
        <rect
           y="228.3622"
           x="512"
           height="24"
           width="24"
           id="rect5758"
           style="opacity:0.21171169;fill:none;stroke:none" />
        <path
           style="color:#000000;display:inline;overflow:visible;visibility:visible;opacity:1;fill:#808080;fill-opacity:1;fill-rule:nonzero;stroke:none;stroke-width:1.30762327;stroke-linecap:butt;stroke-linejoin:miter;stroke-miterlimit:4;stroke-dasharray:none;stroke-dashoffset:0;stroke-opacity:1;marker:none;enable-background:accumulate"
           d="M 8 2.9980469 C 2.7721864 2.9980469 0.17382814 7.6816406 0.17382812 7.6816406 L -0.001953125 8 L 0.17382812 8.3164062 C 0.17382812 8.3164062 0.85472567 9.5340016 2.2109375 10.728516 L 4.0957031 8.84375 A 4.0000434 4.0000434 0 0 1 4 8 A 4.0000434 4.0000434 0 0 1 8 4 A 4.0000434 4.0000434 0 0 1 8.8457031 4.09375 L 9.7539062 3.1855469 C 9.2058282 3.0685047 8.6226186 2.9980469 8 2.9980469 z M 11.357422 3.703125 L 10.316406 4.7441406 A 4.0000434 4.0000434 0 0 1 12 8 A 4.0000434 4.0000434 0 0 1 8 12 A 4.0000434 4.0000434 0 0 1 4.7441406 10.316406 L 3.421875 11.638672 C 4.6179801 12.403716 6.1385709 13.001953 8 13.001953 C 13.227807 13.001953 15.826172 8.3164062 15.826172 8.3164062 L 16.001953 8 L 15.826172 7.6816406 C 15.826172 7.6816406 14.338949 5.0099078 11.357422 3.703125 z "
           transform="matrix(1.5,0,0,1.5,512,228.36217)"
           id="path5760" />
        <path
           style="color:#000000;display:inline;overflow:visible;visibility:visible;opacity:1;fill:#808080;fill-opacity:1;fill-rule:nonzero;stroke:none;stroke-width:1.5;stroke-linecap:butt;stroke-linejoin:miter;stroke-miterlimit:4;stroke-dasharray:none;stroke-dashoffset:0;stroke-opacity:1;marker:none;enable-background:accumulate"
           d="M 9.2324219 5.828125 L 5.828125 9.2324219 A 2.5 2.5 0 0 0 8 10.5 A 2.5 2.5 0 0 0 10.5 8 A 2.5 2.5 0 0 0 9.2324219 5.828125 z "
           transform="matrix(1.5,0,0,1.5,512,228.36217)"
           id="circle5764" />
        <path
           style="color:#000000;display:inline;overflow:visible;visibility:visible;opacity:1;fill:#ffffff;fill-opacity:1;fill-rule:nonzero;stroke:#808080;stroke-width:2.25;stroke-linecap:butt;stroke-linejoin:miter;stroke-miterlimit:4;stroke-dasharray:none;stroke-dashoffset:0;stroke-opacity:1;marker:none;enable-background:accumulate"
           d="m 513.5,250.8622 21,-21"
           id="path5768-9"
           inkscape:connector-curvature="0" />
      </g>
    </g>
  </g>
</svg>
