<?xml version="1.0" encoding="UTF-8" standalone="no"?>
<!-- Generator: Adobe Illustrator 17.0.2, SVG Export Plug-In . SVG Version: 6.00 Build 0)  -->

<svg
   xmlns:dc="http://purl.org/dc/elements/1.1/"
   xmlns:cc="http://creativecommons.org/ns#"
   xmlns:rdf="http://www.w3.org/1999/02/22-rdf-syntax-ns#"
   xmlns:svg="http://www.w3.org/2000/svg"
   xmlns="http://www.w3.org/2000/svg"
   xmlns:sodipodi="http://sodipodi.sourceforge.net/DTD/sodipodi-0.dtd"
   xmlns:inkscape="http://www.inkscape.org/namespaces/inkscape"
   version="1.1"
   id="Layer_1"
   x="0px"
   y="0px"
   width="179px"
   height="89px"
   viewBox="0 0 179 89"
   enable-background="new 0 0 179 89"
   xml:space="preserve"
   inkscape:version="0.91+devel r"
   sodipodi:docname="icon-social.svg"><metadata
     id="metadata45"><rdf:RDF><cc:Work
         rdf:about=""><dc:format>image/svg+xml</dc:format><dc:type
           rdf:resource="http://purl.org/dc/dcmitype/StillImage" /></cc:Work></rdf:RDF></metadata><defs
     id="defs43" /><sodipodi:namedview
     pagecolor="#ffffff"
     bordercolor="#666666"
     borderopacity="1"
     objecttolerance="10"
     gridtolerance="10"
     guidetolerance="10"
     inkscape:pageopacity="0"
     inkscape:pageshadow="2"
     inkscape:window-width="1631"
     inkscape:window-height="1026"
     id="namedview41"
     showgrid="false"
     inkscape:zoom="2.0558659"
     inkscape:cx="50.586957"
     inkscape:cy="44.5"
     inkscape:window-x="49"
     inkscape:window-y="24"
     inkscape:window-maximized="1"
     inkscape:current-layer="Layer_1" /><g
     id="g4221"><path
       id="path33"
       d="M157.001,81.008c-7.737,0-14.009-6.27-14.009-14.009c0-7.737,6.272-14.008,14.009-14.008  s14.008,6.271,14.008,14.008C171.009,74.739,164.738,81.008,157.001,81.008z M179,67c0,12.15-9.85,22-22,22c-12.151,0-22-9.85-22-22  c0-12.151,9.849-22,22-22C169.15,45,179,54.849,179,67z M157,50.352c-9.195,0-16.648,7.454-16.648,16.648  c0,9.196,7.453,16.648,16.648,16.648c9.196,0,16.648-7.452,16.648-16.648C173.649,57.806,166.196,50.352,157,50.352z"
       fill="#DD4813" /><g
       inkscape:label="Layer 1"
       id="layer1"
       transform="matrix(0.6875,0,0,0.6875,-84.428574,-271.49901)"><path
         style="color:#000000;display:inline;overflow:visible;visibility:visible;opacity:1;fill:#3c599b;fill-opacity:1;fill-rule:nonzero;stroke:none;stroke-width:1.25;stroke-linecap:butt;stroke-linejoin:miter;stroke-miterlimit:4;stroke-dasharray:none;stroke-dashoffset:0;stroke-opacity:1;marker:none;enable-background:accumulate"
         d="m 285.71429,460.36219 a 31.999999,31.999999 0 0 0 -32,32 31.999999,31.999999 0 0 0 32,32 31.999999,31.999999 0 0 0 32,-32 31.999999,31.999999 0 0 0 -32,-32 z"
         id="path5775"
         inkscape:connector-curvature="0" /><path
         style="color:#000000;display:inline;overflow:visible;visibility:visible;opacity:1;fill:#ffffff;fill-opacity:1;fill-rule:nonzero;stroke:none;stroke-width:2;stroke-linecap:butt;stroke-linejoin:miter;stroke-miterlimit:4;stroke-dasharray:none;stroke-dashoffset:0;stroke-opacity:1;marker:none;enable-background:accumulate"
         d="m 299.80898,480.36352 c -5.8409,0 -9.83984,3.56587 -9.83984,10.11328 l 0,5.13281 -6.60742,0 0,7.65039 6.60742,0 0,20.78125 a 31.999999,31.999999 0 0 0 7.89648,-2.0918 l 0,-18.68945 6.5918,0 0.98437,-7.65039 -7.57617,0 0,-4.37109 c 0,-2.21506 0.71503,-4.49183 3.79883,-3.73047 l 4.05078,0 0,-6.84375 c -0.7008,-0.0931 -3.10815,-0.30078 -5.90625,-0.30078 z"
         id="rect5792"
         inkscape:connector-curvature="0" /></g><g
       inkscape:label="Layer 1"
       id="layer1-9"
       transform="matrix(0.6875,0,0,0.6875,-129.47057,-271.49901)"><path
         style="color:#000000;display:inline;overflow:visible;visibility:visible;opacity:1;fill:#dc4a38;fill-opacity:1;fill-rule:nonzero;stroke:none;stroke-width:1.25;stroke-linecap:butt;stroke-linejoin:miter;stroke-miterlimit:4;stroke-dasharray:none;stroke-dashoffset:0;stroke-opacity:1;marker:none;enable-background:accumulate"
         d="m 285.71429,460.36219 a 31.999999,31.999999 0 0 0 -32,32 31.999999,31.999999 0 0 0 32,32 31.999999,31.999999 0 0 0 32,-32 31.999999,31.999999 0 0 0 -32,-32 z"
         id="path5803"
         inkscape:connector-curvature="0" /><path
         style="display:inline;fill:#ffffff"
         d="m 284.34389,471.36305 c -2.8887,0 -7.0518,0.69717 -10.0998,3.27088 -2.2971,2.02721 -3.4195,4.82508 -3.4195,7.34156 0,4.27176 3.2074,8.60256 8.8693,8.60256 0.5346,0 1.1184,-0.0567 1.7072,-0.11288 -0.2636,0.65832 -0.5282,1.20772 -0.5282,2.13797 0,1.69647 0.8484,2.73646 1.5997,3.7221 -2.4057,0.1693 -6.8965,0.44046 -10.2074,2.52227 -3.1533,1.918 -4.1117,4.70958 -4.1117,6.68008 0,4.05572 3.7397,7.83373 11.4892,7.83373 9.1895,0 14.0523,-5.20201 14.0523,-10.351 0,-3.783 -2.1342,-5.64325 -4.4859,-7.66941 l -1.9277,-1.52795 c -0.5864,-0.49742 -1.3894,-1.15626 -1.3894,-2.3582 0,-1.20693 0.8012,-1.97576 1.4973,-2.68631 2.243,-1.80593 4.4857,-3.72709 4.4857,-7.7773 0,-4.16492 -2.5611,-6.35355 -3.7886,-7.39275 l 3.3119,0 3.4759,-2.23536 -10.5303,0 z m -3.8965,2.07131 c 4.432,0 6.7264,6.12912 6.7264,10.07407 0,0.98696 -0.105,2.7396 -1.333,4.00375 -0.8593,0.87724 -2.2999,1.52794 -3.6349,1.52794 -4.5973,0 -6.6802,-6.07793 -6.6802,-9.74595 0,-1.4282 0.2641,-2.90366 1.1742,-4.0552 0.8571,-1.09694 2.354,-1.80461 3.7475,-1.80461 z m 21.2455,11.16077 0,5.17813 -5.0603,0 0,2.58893 5.0603,0 0,5.21383 2.5017,0 0,-5.21383 5.0805,0 0,-2.58893 -5.0805,0 0,-5.17813 -2.5017,0 z m -18.6308,13.26805 c 0.5339,0 0.8001,-0.003 1.2253,0.0512 4.0641,2.95852 5.8291,4.43318 5.8291,7.23393 0,3.39164 -2.723,5.91625 -7.8541,5.91625 -5.7166,0 -9.4078,-2.79577 -9.4078,-6.68534 0,-3.88851 3.423,-5.20385 4.599,-5.63932 2.2429,-0.77198 5.1268,-0.87671 5.6085,-0.87671 z"
         id="path5709-9"
         inkscape:connector-curvature="0" /></g><g
       inkscape:label="Layer 1"
       id="layer1-3"
       transform="matrix(0.6875,0,0,0.6875,-174.42857,-271.49901)"><path
         style="color:#000000;display:inline;overflow:visible;visibility:visible;opacity:1;fill:#55acee;fill-opacity:1;fill-rule:nonzero;stroke:none;stroke-width:1.25;stroke-linecap:butt;stroke-linejoin:miter;stroke-miterlimit:4;stroke-dasharray:none;stroke-dashoffset:0;stroke-opacity:1;marker:none;enable-background:accumulate"
         d="m 285.71428,460.36219 a 32,32 0 0 0 -32,32 32,32 0 0 0 32,32 32,32 0 0 0 32,-32 32,32 0 0 0 -32,-32 z"
         id="path5750"
         inkscape:connector-curvature="0" /><path
         style="display:inline;fill:#ffffff;fill-opacity:1;stroke:none"
         d="m 290.34358,476.29454 c -2.995,0.92444 -5.8772,5.03819 -4.9732,9.69194 -9.9401,-0.60889 -14.3301,-6.02643 -16.9697,-8.61903 -2.6906,4.83064 0.069,9.52578 2.4785,11.04564 -1.272,0.0712 -2.8103,-0.48809 -3.574,-0.97454 -0.2901,4.45657 3.2805,7.54585 6.3179,8.3465 -0.9709,0.29459 -1.8861,0.33424 -3.4505,0.0975 1.3322,4.48215 4.9112,5.68174 7.5772,5.87917 -3.4321,3.02907 -7.5539,3.68958 -12.0355,3.46681 11.6198,7.23047 23.354,2.78207 29.0655,-2.89225 4.796,-4.76494 6.94,-11.90013 7.0141,-18.28449 1.0977,-0.90729 3.3174,-2.8305 3.9204,-4.33567 -0.8754,0.34248 -2.6071,1.15732 -4.4144,1.23057 1.4884,-0.99184 3.1939,-2.9795 3.3727,-4.53339 -1.648,0.91285 -3.5551,1.70382 -5.1882,1.95607 -3.0792,-3.02313 -6.0773,-3.02057 -9.1408,-2.07482 z"
         id="path5679-3"
         inkscape:connector-curvature="0"
         sodipodi:nodetypes="sccccccccscccccs" /></g></g><g
     id="g4233"
     transform="translate(0,-44.999996)"><path
       d="m 157.001,81.008 c -7.737,0 -14.009,-6.27 -14.009,-14.009 0,-7.737 6.272,-14.008 14.009,-14.008 7.737,0 14.008,6.271 14.008,14.008 0,7.74 -6.271,14.009 -14.008,14.009 z M 179,67 c 0,12.15 -9.85,22 -22,22 -12.151,0 -22,-9.85 -22,-22 0,-12.151 9.849,-22 22,-22 12.15,0 22,9.849 22,22 z M 157,50.352 c -9.195,0 -16.648,7.454 -16.648,16.648 0,9.196 7.453,16.648 16.648,16.648 9.196,0 16.648,-7.452 16.648,-16.648 C 173.649,57.806 166.196,50.352 157,50.352 Z"
       id="path4235"
       inkscape:connector-curvature="0"
       style="fill:#aea79f;opacity:1;fill-opacity:1;stroke-width:1;stroke-linecap:butt;stroke-linejoin:miter;stroke-miterlimit:4;stroke-dasharray:none;stroke-dashoffset:0;stroke-opacity:1" /><g
       transform="matrix(0.6875,0,0,0.6875,-84.428574,-271.49901)"
       id="g4237"
       inkscape:label="Layer 1"><path
         inkscape:connector-curvature="0"
         id="path4239"
         d="m 285.71429,460.36219 a 31.999999,31.999999 0 0 0 -32,32 31.999999,31.999999 0 0 0 32,32 31.999999,31.999999 0 0 0 32,-32 31.999999,31.999999 0 0 0 -32,-32 z"
         style="color:#000000;display:inline;overflow:visible;visibility:visible;opacity:1;fill:#aea79f;fill-opacity:1;fill-rule:nonzero;stroke:none;stroke-width:1.45454545;stroke-linecap:butt;stroke-linejoin:miter;stroke-miterlimit:4;stroke-dasharray:none;stroke-dashoffset:0;stroke-opacity:1;marker:none;enable-background:accumulate" /><path
         inkscape:connector-curvature="0"
         id="path4241"
         d="m 299.80898,480.36352 c -5.8409,0 -9.83984,3.56587 -9.83984,10.11328 l 0,5.13281 -6.60742,0 0,7.65039 6.60742,0 0,20.78125 a 31.999999,31.999999 0 0 0 7.89648,-2.0918 l 0,-18.68945 6.5918,0 0.98437,-7.65039 -7.57617,0 0,-4.37109 c 0,-2.21506 0.71503,-4.49183 3.79883,-3.73047 l 4.05078,0 0,-6.84375 c -0.7008,-0.0931 -3.10815,-0.30078 -5.90625,-0.30078 z"
         style="color:#000000;display:inline;overflow:visible;visibility:visible;opacity:1;fill:#ffffff;fill-opacity:1;fill-rule:nonzero;stroke:none;stroke-width:2;stroke-linecap:butt;stroke-linejoin:miter;stroke-miterlimit:4;stroke-dasharray:none;stroke-dashoffset:0;stroke-opacity:1;marker:none;enable-background:accumulate" /></g><g
       transform="matrix(0.6875,0,0,0.6875,-129.47057,-271.49901)"
       id="g4243"
       inkscape:label="Layer 1"><path
         inkscape:connector-curvature="0"
         id="path4245"
         d="m 285.71429,460.36219 a 31.999999,31.999999 0 0 0 -32,32 31.999999,31.999999 0 0 0 32,32 31.999999,31.999999 0 0 0 32,-32 31.999999,31.999999 0 0 0 -32,-32 z"
         style="color:#000000;display:inline;overflow:visible;visibility:visible;opacity:1;fill:#aea79f;fill-opacity:1;fill-rule:nonzero;stroke:none;stroke-width:1.45454545;stroke-linecap:butt;stroke-linejoin:miter;stroke-miterlimit:4;stroke-dasharray:none;stroke-dashoffset:0;stroke-opacity:1;marker:none;enable-background:accumulate" /><path
         inkscape:connector-curvature="0"
         id="path4247"
         d="m 284.34389,471.36305 c -2.8887,0 -7.0518,0.69717 -10.0998,3.27088 -2.2971,2.02721 -3.4195,4.82508 -3.4195,7.34156 0,4.27176 3.2074,8.60256 8.8693,8.60256 0.5346,0 1.1184,-0.0567 1.7072,-0.11288 -0.2636,0.65832 -0.5282,1.20772 -0.5282,2.13797 0,1.69647 0.8484,2.73646 1.5997,3.7221 -2.4057,0.1693 -6.8965,0.44046 -10.2074,2.52227 -3.1533,1.918 -4.1117,4.70958 -4.1117,6.68008 0,4.05572 3.7397,7.83373 11.4892,7.83373 9.1895,0 14.0523,-5.20201 14.0523,-10.351 0,-3.783 -2.1342,-5.64325 -4.4859,-7.66941 l -1.9277,-1.52795 c -0.5864,-0.49742 -1.3894,-1.15626 -1.3894,-2.3582 0,-1.20693 0.8012,-1.97576 1.4973,-2.68631 2.243,-1.80593 4.4857,-3.72709 4.4857,-7.7773 0,-4.16492 -2.5611,-6.35355 -3.7886,-7.39275 l 3.3119,0 3.4759,-2.23536 -10.5303,0 z m -3.8965,2.07131 c 4.432,0 6.7264,6.12912 6.7264,10.07407 0,0.98696 -0.105,2.7396 -1.333,4.00375 -0.8593,0.87724 -2.2999,1.52794 -3.6349,1.52794 -4.5973,0 -6.6802,-6.07793 -6.6802,-9.74595 0,-1.4282 0.2641,-2.90366 1.1742,-4.0552 0.8571,-1.09694 2.354,-1.80461 3.7475,-1.80461 z m 21.2455,11.16077 0,5.17813 -5.0603,0 0,2.58893 5.0603,0 0,5.21383 2.5017,0 0,-5.21383 5.0805,0 0,-2.58893 -5.0805,0 0,-5.17813 -2.5017,0 z m -18.6308,13.26805 c 0.5339,0 0.8001,-0.003 1.2253,0.0512 4.0641,2.95852 5.8291,4.43318 5.8291,7.23393 0,3.39164 -2.723,5.91625 -7.8541,5.91625 -5.7166,0 -9.4078,-2.79577 -9.4078,-6.68534 0,-3.88851 3.423,-5.20385 4.599,-5.63932 2.2429,-0.77198 5.1268,-0.87671 5.6085,-0.87671 z"
         style="display:inline;fill:#ffffff" /></g><g
       transform="matrix(0.6875,0,0,0.6875,-174.42857,-271.49901)"
       id="g4249"
       inkscape:label="Layer 1"><path
         inkscape:connector-curvature="0"
         id="path4251"
         d="m 285.71428,460.36219 a 32,32 0 0 0 -32,32 32,32 0 0 0 32,32 32,32 0 0 0 32,-32 32,32 0 0 0 -32,-32 z"
         style="color:#000000;display:inline;overflow:visible;visibility:visible;opacity:1;fill:#aea79f;fill-opacity:1;fill-rule:nonzero;stroke:none;stroke-width:1.45454545;stroke-linecap:butt;stroke-linejoin:miter;stroke-miterlimit:4;stroke-dasharray:none;stroke-dashoffset:0;stroke-opacity:1;marker:none;enable-background:accumulate" /><path
         sodipodi:nodetypes="sccccccccscccccs"
         inkscape:connector-curvature="0"
         id="path4253"
         d="m 290.34358,476.29454 c -2.995,0.92444 -5.8772,5.03819 -4.9732,9.69194 -9.9401,-0.60889 -14.3301,-6.02643 -16.9697,-8.61903 -2.6906,4.83064 0.069,9.52578 2.4785,11.04564 -1.272,0.0712 -2.8103,-0.48809 -3.574,-0.97454 -0.2901,4.45657 3.2805,7.54585 6.3179,8.3465 -0.9709,0.29459 -1.8861,0.33424 -3.4505,0.0975 1.3322,4.48215 4.9112,5.68174 7.5772,5.87917 -3.4321,3.02907 -7.5539,3.68958 -12.0355,3.46681 11.6198,7.23047 23.354,2.78207 29.0655,-2.89225 4.796,-4.76494 6.94,-11.90013 7.0141,-18.28449 1.0977,-0.90729 3.3174,-2.8305 3.9204,-4.33567 -0.8754,0.34248 -2.6071,1.15732 -4.4144,1.23057 1.4884,-0.99184 3.1939,-2.9795 3.3727,-4.53339 -1.648,0.91285 -3.5551,1.70382 -5.1882,1.95607 -3.0792,-3.02313 -6.0773,-3.02057 -9.1408,-2.07482 z"
         style="display:inline;fill:#ffffff;fill-opacity:1;stroke:none" /></g></g></svg>