<?xml version="1.0" encoding="utf-8"?>
<!-- Generator: Adobe Illustrator 17.0.2, SVG Export Plug-In . SVG Version: 6.00 Build 0)  -->
<!DOCTYPE svg PUBLIC "-//W3C//DTD SVG 1.1//EN" "http://www.w3.org/Graphics/SVG/1.1/DTD/svg11.dtd">
<svg version="1.1" id="icon-social-google-layer" xmlns="http://www.w3.org/2000/svg" xmlns:xlink="http://www.w3.org/1999/xlink"
	 x="0px" y="0px" width="44px" height="44px" viewBox="0 0 44 44" enable-background="new 0 0 44 44" xml:space="preserve">
<g id="icon-social-google">
	<path fill="#AEA79F" d="M2.446,11.84c-0.009,0.244-0.015,0.487-0.015,0.73c0,4.31,2.264,10.686,7.78,10.686
		c1.602,0,3.246-0.406,4.301-1.609c1.203-1.379,1.675-3.194,1.675-4.122c0-4.634-2.687-11.843-8.007-11.843
		c-0.367,0-0.74,0.047-1.11,0.124C5.2,7.526,3.632,9.567,2.446,11.84z"/>
	<path fill="#AEA79F" d="M35.938,5.013v6.626h5.429C40.002,9.089,38.153,6.838,35.938,5.013z"/>
	<path fill="#AEA79F" d="M12.492,34.453c-0.511-0.066-0.832-0.067-1.47-0.067c-0.566,0-3.879,0.125-6.542,0.971
		c3.783,4.942,9.611,8.234,16.223,8.606c0.093-0.232,0.2-0.459,0.195-0.955C20.862,39.719,17.369,37.93,12.492,34.453z"/>
	<path fill="#AEA79F" d="M6.979,25.826c-2.869,0-5.228-1.08-6.979-2.51c0.213,3.6,1.29,6.964,3.028,9.893
		c2.621-0.672,5.579-0.509,7.286-0.625c-0.899-1.161-1.924-2.382-1.924-4.375c0-1.094,0.32-1.739,0.64-2.512
		C8.324,25.76,7.622,25.826,6.979,25.826z"/>
	<path fill="#AEA79F" d="M35.938,15.052v8.204h-3.486v-8.204H24.32v-3.413h8.132V3.506h1.414C30.433,1.291,26.347,0,21.958,0
		c-4.433,0-8.556,1.315-12.009,3.571c0.518-0.035,1.027-0.056,1.521-0.065h13.553l-3.599,2.905h-3.93
		c1.574,1.365,3.923,3.805,3.923,8.152c0,4.762-2.51,7.019-5.204,9.139c-0.833,0.835-1.795,1.739-1.795,3.157
		c0,1.414,0.962,2.186,1.666,2.767l2.31,1.798c2.821,2.382,6.507,5.142,6.507,9.583c0,1.056-0.114,2.009-0.408,2.844
		C35.448,42.593,43.958,33.292,43.958,22c0-2.429-0.399-4.763-1.126-6.948C42.832,15.052,35.938,15.052,35.938,15.052z"/>
</g>
</svg>
