<svg id="icon-social-google-layer" viewBox="0 0 44 44" xmlns="http://www.w3.org/2000/svg">
  <g id="icon-social-google">
    <path d="M21.058 7.563c-1.986 0-4.848.48-6.944 2.248-1.58 1.4-2.35 3.32-2.35 5.05 0 2.94 2.205 5.92 6.097 5.92.37 0 .77-.04 1.18-.08-.18.46-.36.83-.36 1.47 0 1.17.59 1.88 1.1 2.56-1.65.12-4.74.3-7.02 1.74-2.17 1.32-2.83 3.24-2.83 4.59 0 2.79 2.57 5.39 7.9 5.39 6.32 0 9.66-3.575 9.66-7.115 0-2.6-1.46-3.88-3.08-5.274L23.08 23c-.403-.343-.955-.796-.955-1.62 0-.83.55-1.36 1.03-1.85 1.542-1.242 3.084-2.563 3.084-5.347 0-2.864-1.76-4.368-2.61-5.083h2.28l2.39-1.537h-7.24zm-2.68 1.423c3.05 0 4.626 4.214 4.626 6.926 0 .68-.072 1.884-.917 2.753-.59.603-1.58 1.05-2.5 1.05-3.16 0-4.59-4.178-4.59-6.7 0-.982.18-1.996.806-2.788.59-.754 1.618-1.24 2.576-1.24zm14.608 7.673v3.56h-3.48V22h3.48v3.584h1.72V22H38.2v-1.78h-3.494v-3.56h-1.72zm-12.81 9.12c.368 0 .55 0 .844.03 2.794 2.03 4.007 3.05 4.007 4.97 0 2.33-1.872 4.06-5.4 4.06-3.93 0-6.468-1.923-6.468-4.597 0-2.67 2.35-3.576 3.16-3.876 1.54-.53 3.52-.603 3.85-.603z" fill="#fff"/>
  </g>
</svg>
