<svg class="header-banner__logo" xmlns="http://www.w3.org/2000/svg" width="74.775" height="30.001" viewBox="397.783 432.95 74.775 30.001"><path fill="#DD4814" d="M412.783 432.95c-8.284 0-15 6.716-15 15s6.716 15 15 15 15-6.716 15-15-6.716-15-15-15z"/><path fill="#FFF" d="M405.503 457.225c-.127.128-.297.197-.477.197s-.35-.07-.48-.197c-.126-.128-.196-.297-.196-.478s.07-.35.197-.478c.127-.13.297-.2.478-.2s.35.07.478.198c.127.128.198.298.198.48s-.07.35-.197.477zM408.447 447.138c-.068-.217-.166-.395-.29-.53-.126-.133-.276-.233-.45-.298-.174-.064-.37-.097-.585-.097-.214 0-.41.032-.58.097-.17.063-.32.165-.444.3-.125.134-.222.31-.29.528-.07.218-.104.484-.104.793v6.86h-1.357v-6.98c0-.402.055-.777.162-1.113.107-.338.277-.636.503-.886.228-.25.517-.448.862-.586.344-.14.76-.208 1.237-.208.477 0 .896.07 1.247.207.35.14.644.336.87.588.228.25.4.548.51.887.112.336.168.71.168 1.113v1.084h-1.357v-.963c0-.306-.035-.573-.103-.792z"/><path fill="#FFF" d="M414.11 452.65c0 .402-.056.777-.167 1.113-.11.337-.283.635-.51.886s-.52.447-.872.586c-.35.138-.77.208-1.246.208s-.893-.07-1.237-.208c-.345-.14-.634-.336-.862-.587-.227-.252-.396-.55-.504-.887-.106-.337-.16-.712-.16-1.114v-2.43h1.356v2.31c0 .307.035.573.103.79.067.22.165.397.29.53.125.135.274.235.444.3.17.064.366.097.58.097.215 0 .413-.032.586-.098.173-.064.323-.165.448-.3s.223-.312.29-.53c.07-.217.104-.483.104-.79v-2.31h1.357v2.43zM412.757 448.23c0-.374.303-.677.675-.677.373 0 .676.303.676.676 0 .37-.303.675-.676.675s-.675-.304-.675-.676zM416.853 438.654c-.068-.216-.166-.395-.29-.528-.126-.135-.276-.236-.45-.3-.173-.064-.37-.097-.584-.097-.215 0-.41.03-.58.096-.17.064-.32.165-.445.3-.125.134-.223.312-.29.528-.068.218-.103.484-.103.793v6.86h-1.357v-6.98c0-.402.055-.777.162-1.114.108-.337.278-.636.505-.886.227-.25.517-.448.86-.587.346-.138.76-.208 1.238-.208s.896.07 1.247.208c.352.14.645.336.872.587.226.25.397.548.51.886.11.337.166.712.166 1.114v1.083h-1.357v-.963c-.004-.308-.04-.574-.107-.793z"/><path fill="#FFF" d="M422.516 444.165c0 .403-.057.778-.167 1.114-.112.336-.283.635-.51.885-.228.252-.52.448-.872.587s-.77.208-1.247.208c-.476 0-.892-.07-1.236-.208-.345-.14-.634-.335-.86-.587-.228-.25-.397-.55-.506-.886-.107-.338-.162-.713-.162-1.115v-2.43h1.357v2.31c0 .308.035.575.103.793.068.216.166.395.29.528.126.135.275.236.445.3.17.064.366.097.58.097s.413-.032.586-.097c.173-.063.324-.165.45-.3.124-.134.222-.312.29-.528.068-.218.103-.485.103-.792v-3.31h1.356v3.43z"/><g fill="#333"><path d="M437.207 455.19c-.17 0-.38-.02-.633-.067s-.44-.1-.563-.16l.208-1.22c.107.03.253.06.438.093.184.03.36.045.528.045.905 0 1.507-.25 1.806-.757.3-.508.448-1.266.448-2.277V439h1.495v11.775c0 1.504-.283 2.615-.85 3.336s-1.527 1.08-2.876 1.08zM454.02 450.476c-.444.123-1.042.262-1.793.414-.752.154-1.672.23-2.76.23-.89 0-1.634-.13-2.23-.39-.6-.263-1.082-.63-1.45-1.105-.368-.477-.633-1.05-.794-1.727-.16-.674-.24-1.418-.24-2.23V439h1.494v6.188c0 .844.062 1.557.184 2.14.124.58.323 1.054.6 1.413.275.362.632.622 1.07.784.436.16.97.24 1.598.24.705 0 1.318-.037 1.84-.115.52-.077.85-.146.99-.208V439h1.494v11.476zM455.745 455.19c-.17 0-.38-.02-.633-.067s-.44-.1-.563-.16l.206-1.22c.107.03.253.06.438.093.184.03.36.045.528.045.905 0 1.507-.25 1.806-.757.3-.508.448-1.266.448-2.277V439h1.495v11.775c0 1.504-.282 2.615-.85 3.336s-1.526 1.08-2.875 1.08zM472.558 450.476c-.445.123-1.043.262-1.794.414-.752.154-1.672.23-2.76.23-.89 0-1.634-.13-2.23-.39-.6-.263-1.082-.63-1.45-1.105-.368-.477-.633-1.05-.794-1.727-.16-.674-.24-1.418-.24-2.23V439h1.494v6.188c0 .844.062 1.557.184 2.14.123.58.322 1.054.6 1.413.274.362.63.622 1.068.784.437.16.97.24 1.6.24.704 0 1.317-.037 1.84-.115.52-.077.85-.146.988-.208V439h1.495v11.476z"/></g></svg>
