<svg xmlns="http://www.w3.org/2000/svg" xmlns:xlink="http://www.w3.org/1999/xlink" width="16px" height="16px" viewBox="0 0 16 16"><path fillrule="evenodd" class="inspector-list__list-item-image" d="M 14.83 0C 14.83 0 12.17 0 12.17 0 11.53 0 11 0.53 11 1.17 11 1.17 11 3.83 11 3.83 11 3.97 11.04 4.09 11.08 4.21 11.08 4.21 9.01 6.29 9.01 6.29 8.71 6.11 8.37 6 8 6 6.9 6 6 6.9 6 8 6 8.37 6.11 8.71 6.29 9.01 6.29 9.01 4.21 11.08 4.21 11.08 4.09 11.04 3.97 11 3.83 11 3.83 11 1.17 11 1.17 11 0.53 11 0 11.53 0 12.17 0 12.17 0 14.83 0 14.83 0 15.47 0.53 16 1.17 16 1.17 16 3.83 16 3.83 16 4.47 16 5 15.47 5 14.83 5 14.83 5 12.17 5 12.17 5 12.03 4.97 11.91 4.92 11.79 4.92 11.79 6.99 9.72 6.99 9.72 7.29 9.89 7.63 10 8 10 9.1 10 10 9.1 10 8 10 7.63 9.89 7.29 9.71 6.99 9.71 6.99 11.79 4.92 11.79 4.92 11.91 4.97 12.03 5 12.17 5 12.17 5 14.83 5 14.83 5 15.47 5 16 4.47 16 3.83 16 3.83 16 1.17 16 1.17 16 0.53 15.47 0 14.83 0ZM 4 14.83C 4 14.93 3.93 15 3.83 15 3.83 15 1.17 15 1.17 15 1.07 15 1 14.93 1 14.83 1 14.83 1 12.17 1 12.17 1 12.07 1.07 12 1.17 12 1.17 12 3.83 12 3.83 12 3.93 12 4 12.07 4 12.17 4 12.17 4 14.83 4 14.83ZM 15 3.83C 15 3.93 14.93 4 14.83 4 14.83 4 12.17 4 12.17 4 12.07 4 12 3.93 12 3.83 12 3.83 12 1.17 12 1.17 12 1.07 12.07 1 12.17 1 12.17 1 14.83 1 14.83 1 14.93 1 15 1.07 15 1.17 15 1.17 15 3.83 15 3.83Z" fill="rgb(147,161,161)"></path></svg>
