<svg xmlns="http://www.w3.org/2000/svg" height="16" width="16.015" viewBox="0 0 16.014947 15.999999">
  <path opacity=".212" fill="none" d="M0 0h16v16H0z"/>
  <path d="M1 3c-.554 0-1 .446-1 1v10c0 .554.446 1 1 1h14c.554 0 1-.446 1-1V4c0-.554-.446-1-1-1zm0 1h14v10H1z" color="#000" overflow="visible"/>
  <path color="#000" overflow="visible" d="M0 7h16v1H0z"/>
  <path color="#000" overflow="visible" d="M6 6h4v3H6z"/>
  <path style="block-progression:tb;isolation:auto;mix-blend-mode:normal" d="M6.5 0c-.806 0-1.462.13-1.916.583C4.13 1.037 4 1.693 4 2.5v1h1v-1c0-.695.12-1.04.29-1.21.172-.17.516-.29 1.21-.29h3c.694 0 1.038.12 1.21.29.17.17.29.515.29 1.21v1h1v-1c0-.806-.13-1.463-.584-1.917C10.962.13 10.306 0 9.5 0h-3z" color="#000" overflow="visible" solid-color="#000000" fill="#666"/>
</svg>
