<?xml version="1.0" encoding="utf-8"?>
<!-- Generator: Adobe Illustrator 16.0.4, SVG Export Plug-In . SVG Version: 6.00 Build 0)  -->
<!DOCTYPE svg PUBLIC "-//W3C//DTD SVG 1.1//EN" "http://www.w3.org/Graphics/SVG/1.1/DTD/svg11.dtd">
<svg version="1.1" xmlns="http://www.w3.org/2000/svg" xmlns:xlink="http://www.w3.org/1999/xlink" x="0px" y="0px"
	 width="235.958px" height="235.958px" viewBox="313.983 -6 235.958 235.958" enable-background="new 313.983 -6 235.958 235.958"
	 xml:space="preserve">
<g id="Layer_1" inkscape:version="0.48.3.1 r9886" sodipodi:docname="service_module.svg" xmlns:dc="http://purl.org/dc/elements/1.1/" xmlns:cc="http://creativecommons.org/ns#" xmlns:rdf="http://www.w3.org/1999/02/22-rdf-syntax-ns#" xmlns:svg="http://www.w3.org/2000/svg" xmlns:sodipodi="http://sodipodi.sourceforge.net/DTD/sodipodi-0.dtd" xmlns:inkscape="http://www.inkscape.org/namespaces/inkscape">
	<g id="g33_2_" transform="translate(-399.571,-251.207)">
		<g id="path46_2_">
			<path fill="#221E1C" d="M868.527,479.165h-73.988c-38.323,0-57.559,0-68.271-10.713s-10.713-29.949-10.713-68.273v-73.986
				c-0.001-38.324-0.002-57.561,10.711-68.273c10.713-10.713,29.949-10.713,68.273-10.713h73.988c38.324,0,57.561,0,68.272,10.713
				c10.713,10.712,10.713,29.949,10.713,68.273v73.986c0,38.324,0,57.561-10.713,68.273
				C926.088,479.165,906.851,479.165,868.527,479.165z M794.539,257.207c-34.444,0-53.418,0-61.202,7.784
				s-7.783,26.757-7.782,61.202v73.986c0,34.444,0,53.419,7.783,61.202c7.784,7.784,26.758,7.784,61.201,7.784h73.988
				c34.444,0,53.418,0,61.202-7.784c7.783-7.783,7.783-26.758,7.783-61.202v-73.986c0-34.444,0-53.418-7.783-61.202
				c-7.784-7.784-26.758-7.784-61.202-7.784H794.539z"/>
		</g>
		<g id="path59_2_">
			<path fill="#221E1C" d="M868.527,479.165h-73.988c-38.323,0-57.559,0-68.271-10.713s-10.713-29.949-10.713-68.273v-73.986
				c0-38.324,0-57.561,10.713-68.273c10.713-10.713,29.948-10.713,68.271-10.713h73.988c38.324,0,57.561,0,68.272,10.713
				c10.713,10.712,10.713,29.949,10.713,68.273v73.986c0,38.324,0,57.561-10.713,68.273
				C926.088,479.165,906.851,479.165,868.527,479.165z M794.539,257.207c-34.443,0-53.417,0-61.201,7.784
				c-7.783,7.784-7.783,26.758-7.783,61.202v73.986c0,34.444,0,53.419,7.783,61.202c7.784,7.784,26.758,7.784,61.201,7.784h73.988
				c34.444,0,53.418,0,61.201-7.784c7.784-7.783,7.784-26.758,7.784-61.202v-73.986c0-34.444,0-53.418-7.784-61.202
				c-7.783-7.784-26.757-7.784-61.201-7.784H794.539z"/>
		</g>
	</g>
	<path fill-rule="evenodd" clip-rule="evenodd" fill="#221E1C" d="M415.962,219.958h32c2.209,0,4,1.791,4,4v2c0,2.209-1.791,4-4,4
		h-32c-2.209,0-4-1.791-4-4v-2C411.962,221.749,413.753,219.958,415.962,219.958z"/>
	<path fill-rule="evenodd" clip-rule="evenodd" fill="#221E1C" d="M415.962-6h32c2.209,0,4,1.791,4,4v2c0,2.209-1.791,4-4,4h-32
		c-2.209,0-4-1.791-4-4v-2C411.962-4.209,413.753-6,415.962-6z"/>
	<path fill-rule="evenodd" clip-rule="evenodd" fill="#221E1C" d="M539.941,127.979v-32c0-2.209,1.791-4,4-4h2c2.209,0,4,1.791,4,4
		v32c0,2.209-1.791,4-4,4h-2C541.732,131.979,539.941,130.188,539.941,127.979z"/>
	<path fill-rule="evenodd" clip-rule="evenodd" fill="#221E1C" d="M313.983,127.979v-32c0-2.209,1.791-4,4-4h2c2.209,0,4,1.791,4,4
		v32c0,2.209-1.791,4-4,4h-2C315.774,131.979,313.983,130.188,313.983,127.979z"/>
	<path fill="#FFFFFF" d="M468.956-1h-73.988c-73.986,0-73.986,0-73.984,73.986v73.986c0,73.986,0,73.986,73.984,73.986h73.988
		c73.985,0,73.985,0,73.985-73.986V72.986C542.941-1,542.941-1,468.956-1z"/>
</g>
<g id="Layer_2">
</g>
</svg>
