<svg xmlns="http://www.w3.org/2000/svg" width="16" height="16" viewBox="0 0 16 15.999999">
  <path d="M11.435.007c-.548.024-1.086.238-1.5.597l-.952.798v.573c0 .544-.05 1.037-.154 1.49-.104.45-.288.84-.545 1.157-.246.33-.577.582-.998.756-.42.185-.953.278-1.59.278-.623 0-1.073-.04-1.57-.112-.927.545-1.362 1.383-1.362 2.494 0 1.11.53 1.73 1.363 2.53.443-.054 1.033-.078 1.57-.078.636 0 1.168.093 1.59.278.42.174.75.427.997.756.257.318.44.7.544 1.152.102.452.153.95.153 1.495v.415l.922.78c.487.44 1.157.674 1.813.63.656-.044 1.29-.364 1.713-.866.425-.503.636-1.18.57-1.834-.066-.654-.406-1.276-.922-1.683l-.65-.55h-1.696c-.44 0-.85-.06-1.23-.183-.38-.114-.71-.3-.992-.55-.274-.243-.49-.553-.65-.933-.16-.373-.242-.82-.242-1.336 0-.516.082-.966.242-1.346.16-.38.376-.69.65-.934.28-.243.612-.428.993-.55.38-.113.788-.17 1.23-.17h1.535l.822-.686c.797-.646 1.115-1.822.752-2.782-.364-.96-1.382-1.63-2.407-1.585z" style="line-height:normal;-inkscape-font-specification:sans-serif;text-indent:0;text-align:start;text-decoration-line:none;text-transform:none;block-progression:tb" font-family="sans-serif" overflow="visible" fill="gray"/>
</svg>
