<?xml version="1.0" encoding="UTF-8" standalone="no"?>
<!-- Generator: Adobe Illustrator 16.0.0, SVG Export Plug-In . SVG Version: 6.00 Build 0)  -->

<svg
   xmlns:dc="http://purl.org/dc/elements/1.1/"
   xmlns:cc="http://creativecommons.org/ns#"
   xmlns:rdf="http://www.w3.org/1999/02/22-rdf-syntax-ns#"
   xmlns:svg="http://www.w3.org/2000/svg"
   xmlns="http://www.w3.org/2000/svg"
   xmlns:sodipodi="http://sodipodi.sourceforge.net/DTD/sodipodi-0.dtd"
   xmlns:inkscape="http://www.inkscape.org/namespaces/inkscape"
   version="1.1"
   id="Layer_1"
   x="0px"
   y="0px"
   width="86.667px"
   height="47.458px"
   viewBox="0 0 86.667 47.458"
   enable-background="new 0 0 86.667 47.458"
   xml:space="preserve"
   inkscape:version="0.48.3.1 r9886"
   sodipodi:docname="sub_relation.svg"><metadata
   id="metadata69"><rdf:RDF><cc:Work
       rdf:about=""><dc:format>image/svg+xml</dc:format><dc:type
         rdf:resource="http://purl.org/dc/dcmitype/StillImage" /></cc:Work></rdf:RDF></metadata><defs
   id="defs67" /><sodipodi:namedview
   pagecolor="#ffffff"
   bordercolor="#666666"
   borderopacity="1"
   objecttolerance="10"
   gridtolerance="10"
   guidetolerance="10"
   inkscape:pageopacity="0"
   inkscape:pageshadow="2"
   inkscape:window-width="640"
   inkscape:window-height="480"
   id="namedview65"
   showgrid="false"
   inkscape:zoom="3.7384472"
   inkscape:cx="43.3335"
   inkscape:cy="23.729"
   inkscape:window-x="0"
   inkscape:window-y="24"
   inkscape:window-maximized="0"
   inkscape:current-layer="Layer_1" />
<filter
   id="AI_GaussianBlur_4">
	<feGaussianBlur
   stdDeviation="1"
   id="feGaussianBlur4" />
</filter>
<g
   id="Layer_3">
</g>
<path
   filter="url(#AI_GaussianBlur_4)"
   d="M84.63,15.239v16.317c0,13.318,0,13.318-13.318,13.318H57.994  c-13.317,0-13.317,0-13.317-13.318V15.239"
   id="path7" />
<g
   id="g9">
	<linearGradient
   id="SVGID_1_"
   gradientUnits="userSpaceOnUse"
   x1="64.6533"
   y1="43.8789"
   x2="64.6533"
   y2="0.9229">
		<stop
   offset="0"
   style="stop-color:#B1AFAF"
   id="stop12" />
		<stop
   offset="0.2548"
   style="stop-color:#CECDCD"
   id="stop14" />
		<stop
   offset="0.5435"
   style="stop-color:#E8E7E7"
   id="stop16" />
		<stop
   offset="0.8011"
   style="stop-color:#F8F7F7"
   id="stop18" />
		<stop
   offset="1"
   style="stop-color:#FEFDFD"
   id="stop20" />
	</linearGradient>
	<path
   fill="url(#SVGID_1_)"
   d="M57.994,0.923h13.317c13.318,0,13.318,0,13.318,13.317v16.32c0,13.318,0,13.318-13.318,13.318   H57.994c-13.317,0-13.317,0-13.317-13.318V14.24C44.677,0.923,44.677,0.923,57.994,0.923L57.994,0.923z"
   id="path22" />
	<linearGradient
   id="SVGID_2_"
   gradientUnits="userSpaceOnUse"
   x1="64.6533"
   y1="44.8789"
   x2="64.6533"
   y2="-0.0771">
		<stop
   offset="0"
   style="stop-color:#6E6E6E"
   id="stop25" />
		<stop
   offset="0.1487"
   style="stop-color:#797979"
   id="stop27" />
		<stop
   offset="0.4092"
   style="stop-color:#969696"
   id="stop29" />
		<stop
   offset="0.7481"
   style="stop-color:#C5C5C5"
   id="stop31" />
		<stop
   offset="1"
   style="stop-color:#ECECEC"
   id="stop33" />
	</linearGradient>
	<path
   fill="url(#SVGID_2_)"
   d="M71.312,0.923c13.318,0,13.318,0,13.318,13.317v16.32c0,13.318,0,13.318-13.318,13.318H57.994   c-13.317,0-13.317,0-13.317-13.318V14.24c0-13.317,0-13.317,13.317-13.317H71.312 M71.312-0.077H57.994   c-13.916,0-14.317,0.401-14.317,14.317v16.32c0,13.917,0.401,14.318,14.317,14.318h13.317c13.917,0,14.318-0.401,14.318-14.318   V14.24C85.63,0.324,85.229-0.077,71.312-0.077L71.312-0.077z"
   id="path35" />
</g>
<path
   fill="none"
   stroke="#4F4F4F"
   stroke-linecap="round"
   stroke-linejoin="round"
   stroke-miterlimit="10"
   d="M71.604,17.027  c-0.604,0-2.914,0-2.914,0c-0.304,0-0.577-0.286-0.68-0.711c0,0-0.644-2.616-1.202-4.887c-0.523,2.216-1.115,4.726-1.115,4.726  c-0.108,0.456-0.401,0.751-0.723,0.722c-0.322-0.022-0.594-0.361-0.671-0.834c0,0-1.036-6.511-1.878-11.794  c-0.501,6.658-1.282,17.062-1.282,17.062c-0.034,0.452-0.256,0.827-0.552,0.933c-0.297,0.108-0.605-0.073-0.776-0.452  c0,0-1.761-3.968-2.116-4.765c-0.295,0-1.23,0-2.045,0"
   id="path37" />

<g
   id="g41">
	<circle
   fill="#ADB8BF"
   cx="3.934"
   cy="23.002"
   r="2.5"
   id="circle43" />
	<path
   fill="#919191"
   d="M3.934,21.002c1.105,0,2,0.896,2,2c0,1.105-0.895,2-2,2s-2-0.895-2-2   C1.934,21.897,2.828,21.002,3.934,21.002 M3.934,20.002c-1.654,0-3,1.346-3,3s1.346,3,3,3s3-1.346,3-3S5.588,20.002,3.934,20.002   L3.934,20.002z"
   id="path45" />
</g>
<g
   id="g47">
	<circle
   fill="#ADB8BF"
   cx="14.734"
   cy="23.002"
   r="2.5"
   id="circle49" />
	<path
   fill="#919191"
   d="M14.734,21.002c1.105,0,2,0.896,2,2c0,1.105-0.895,2-2,2s-2-0.895-2-2   C12.734,21.897,13.629,21.002,14.734,21.002 M14.734,20.002c-1.654,0-3,1.346-3,3s1.346,3,3,3s3-1.346,3-3   S16.389,20.002,14.734,20.002L14.734,20.002z"
   id="path51" />
</g>
<g
   id="g53">
	<circle
   fill="#ADB8BF"
   cx="25.534"
   cy="23.002"
   r="2.5"
   id="circle55" />
	<path
   fill="#919191"
   d="M25.534,21.002c1.105,0,2,0.896,2,2c0,1.105-0.895,2-2,2s-2-0.895-2-2   C23.534,21.897,24.429,21.002,25.534,21.002 M25.534,20.002c-1.654,0-3,1.346-3,3s1.346,3,3,3s3-1.346,3-3   S27.188,20.002,25.534,20.002L25.534,20.002z"
   id="path57" />
</g>
<g
   id="g59">
	<circle
   fill="#ADB8BF"
   cx="36.334"
   cy="23.002"
   r="2.5"
   id="circle61" />
	<path
   fill="#919191"
   d="M36.334,21.002c1.105,0,2,0.896,2,2c0,1.105-0.895,2-2,2s-2-0.895-2-2   C34.334,21.897,35.229,21.002,36.334,21.002 M36.334,20.002c-1.654,0-3,1.346-3,3s1.346,3,3,3s3-1.346,3-3   S37.988,20.002,36.334,20.002L36.334,20.002z"
   id="path63" />
</g>
</svg>