<?xml version="1.0" encoding="UTF-8" standalone="no"?>
<!-- Generator: Adobe Illustrator 16.0.0, SVG Export Plug-In . SVG Version: 6.00 Build 0)  -->

<svg
   xmlns:dc="http://purl.org/dc/elements/1.1/"
   xmlns:cc="http://creativecommons.org/ns#"
   xmlns:rdf="http://www.w3.org/1999/02/22-rdf-syntax-ns#"
   xmlns:svg="http://www.w3.org/2000/svg"
   xmlns="http://www.w3.org/2000/svg"
   xmlns:xlink="http://www.w3.org/1999/xlink"
   xmlns:sodipodi="http://sodipodi.sourceforge.net/DTD/sodipodi-0.dtd"
   xmlns:inkscape="http://www.inkscape.org/namespaces/inkscape"
   version="1.1"
   id="Layer_1"
   x="0px"
   y="0px"
   width="225px"
   height="214.792px"
   viewBox="0 0 225 214.792"
   enable-background="new 0 0 225 214.792"
   xml:space="preserve"
   inkscape:version="0.48.3.1 r9886"
   sodipodi:docname="subordinate.svg"><metadata
   id="metadata105"><rdf:RDF><cc:Work
       rdf:about=""><dc:format>image/svg+xml</dc:format><dc:type
         rdf:resource="http://purl.org/dc/dcmitype/StillImage" /></cc:Work></rdf:RDF></metadata><defs
   id="defs103" /><sodipodi:namedview
   pagecolor="#ffffff"
   bordercolor="#666666"
   borderopacity="1"
   objecttolerance="10"
   gridtolerance="10"
   guidetolerance="10"
   inkscape:pageopacity="0"
   inkscape:pageshadow="2"
   inkscape:window-width="640"
   inkscape:window-height="480"
   id="namedview101"
   showgrid="false"
   inkscape:zoom="1.0987373"
   inkscape:cx="112.5"
   inkscape:cy="107.396"
   inkscape:window-x="0"
   inkscape:window-y="24"
   inkscape:window-maximized="0"
   inkscape:current-layer="Layer_1" />
<filter
   height="130%"
   width="140%"
   x="-30%"
   y="-15%"
   filterUnits="objectBoundingBox"
   id="AI_Shadow_2">
	<feGaussianBlur
   in="SourceAlpha"
   stdDeviation="2"
   result="blur"
   id="feGaussianBlur4" />
	<feOffset
   dx="0"
   dy="2"
   in="blur"
   result="offsetBlurredAlpha"
   id="feOffset6" />
	<feMerge
   id="feMerge8">
		<feMergeNode
   in="offsetBlurredAlpha"
   id="feMergeNode10" />
		<feMergeNode
   in="SourceGraphic"
   id="feMergeNode12" />
	</feMerge>
</filter>
<filter
   id="AI_GaussianBlur_4">
	<feGaussianBlur
   stdDeviation="1"
   id="feGaussianBlur15" />
</filter>
<g
   id="Layer_3">
</g>
<g
   id="g18">
	<g
   id="g20">

			<radialGradient
   id="SVGID_1_"
   cx="116.7842"
   cy="-419.0444"
   r="192.7098"
   gradientTransform="matrix(1 0 0 -1 0 -189.375)"
   gradientUnits="userSpaceOnUse">
			<stop
   offset="0"
   style="stop-color:#E0E0E0"
   id="stop23" />
			<stop
   offset="1"
   style="stop-color:#FBFBFB"
   id="stop25" />
		</radialGradient>
		<path
   fill="url(#SVGID_1_)"
   d="M74.557,1.125c-34.445,0-53.204,0.041-60.988,7.826C5.785,16.734,6,35.75,6,70.193v73.986    c0,34.445-0.215,53.399,7.568,61.183c7.784,7.783,26.543,7.763,60.988,7.763h73.986c34.444,0,53.654,0.021,61.438-7.763    c7.784-7.783,8.02-26.737,8.02-61.183V70.193c0-34.443-0.235-53.459-8.02-61.242c-7.783-7.785-26.993-7.826-61.438-7.826H74.557z"
   id="path27" />
	</g>
	<g
   id="g29">
		<defs
   id="defs31">
			<path
   id="SVGID_2_"
   d="M75.531,1.125c-34.445,0-53.69-0.459-61.476,7.326C6.272,16.234,6,34.75,6,69.193v73.986     c0,34.445,0.272,53.898,8.056,61.682c7.785,7.784,27.03,8.264,61.476,8.264h73.986c34.445,0,53.168-0.479,60.951-8.264     c7.783-7.783,7.531-27.236,7.531-61.682V69.193c0-34.443,0.252-52.959-7.531-60.742c-7.783-7.785-26.506-7.326-60.951-7.326     H75.531z" />
		</defs>
		<clipPath
   id="SVGID_3_">
			<use
   xlink:href="#SVGID_2_"
   overflow="visible"
   id="use35" />
		</clipPath>
		<path
   clip-path="url(#SVGID_3_)"
   fill="#CCCCCC"
   filter="url(#AI_Shadow_2)"
   d="M-65.273-64.049v349.836h353V-64.049H-65.273z     M218.947,145.832c0,35.233-0.251,54.558-8.123,62.518c-7.871,7.963-27.314,7.878-62.155,7.878H73.834    c-34.842,0-53.801,0.085-61.675-7.878c-7.874-7.96-7.644-27.284-7.644-62.518V70.15c0-35.233-0.23-54.749,7.644-62.709    c7.874-7.964,26.833-8.071,61.675-8.071h74.835c34.841,0,54.284,0.107,62.155,8.071c7.872,7.96,8.123,27.476,8.123,62.709V145.832    z"
   id="path37" />
	</g>
</g>
<g
   opacity="0.45"
   id="g39">
	<linearGradient
   id="SVGID_4_"
   gradientUnits="userSpaceOnUse"
   x1="113.5498"
   y1="57.9995"
   x2="113.5498"
   y2="161.0005">
		<stop
   offset="0"
   style="stop-color:#FFFFFF;stop-opacity:0"
   id="stop42" />
		<stop
   offset="1"
   style="stop-color:#FFFFFF"
   id="stop44" />
	</linearGradient>
	<path
   fill="url(#SVGID_4_)"
   d="M113.55,59c27.891,0,50.5,22.609,50.5,50.5c0,27.891-22.609,50.5-50.5,50.5s-50.5-22.609-50.5-50.5   C63.05,81.609,85.659,59,113.55,59 M113.55,58c-28.397,0-51.5,23.103-51.5,51.5s23.103,51.5,51.5,51.5s51.5-23.103,51.5-51.5   S141.947,58,113.55,58L113.55,58z"
   id="path46" />
</g>
<linearGradient
   id="SVGID_5_"
   gradientUnits="userSpaceOnUse"
   x1="112.1343"
   y1="20.4448"
   x2="115.1346"
   y2="217.4542">
	<stop
   offset="0"
   style="stop-color:#CCCCCC"
   id="stop49" />
	<stop
   offset="1"
   style="stop-color:#333333"
   id="stop51" />
</linearGradient>




<linearGradient
   id="SVGID_9_"
   gradientUnits="userSpaceOnUse"
   x1="109.6055"
   y1="130.7529"
   x2="118.9386"
   y2="78.0856">
	<stop
   offset="0"
   style="stop-color:#CCCCCC"
   id="stop79" />
	<stop
   offset="1"
   style="stop-color:#FBFBFB"
   id="stop81" />
</linearGradient>


<linearGradient
   id="SVGID_11_"
   gradientUnits="userSpaceOnUse"
   x1="112.5498"
   y1="143.1797"
   x2="112.5498"
   y2="213.125">
	<stop
   offset="0"
   style="stop-color:#FFFFFF;stop-opacity:0"
   id="stop95" />
	<stop
   offset="1"
   style="stop-color:#FFFFFF"
   id="stop97" />
</linearGradient>
<path
   fill="none"
   stroke="url(#SVGID_11_)"
   stroke-linejoin="round"
   stroke-miterlimit="10"
   d="M218.529,143.18  c0,34.443,0,53.647-7.784,61.431c-7.783,7.785-26.758,8.015-61.202,8.015H75.557c-34.445,0-53.419-0.229-61.203-8.015  c-7.783-7.783-7.783-26.872-7.783-61.315"
   id="path99" />
</svg>