<?xml version="1.0" encoding="utf-8"?>
<!-- Generator: Adobe Illustrator 16.0.0, SVG Export Plug-In . SVG Version: 6.00 Build 0)  -->
<!DOCTYPE svg PUBLIC "-//W3C//DTD SVG 1.1//EN" "http://www.w3.org/Graphics/SVG/1.1/DTD/svg11.dtd">
<svg version="1.1" id="Layer_1" xmlns="http://www.w3.org/2000/svg" xmlns:xlink="http://www.w3.org/1999/xlink" x="0px" y="0px"
	 width="53.578px" height="52px" viewBox="0 0 53.578 52" enable-background="new 0 0 53.578 52" xml:space="preserve">
<filter  id="AI_GaussianBlur_5">
	<feGaussianBlur  stdDeviation="1"></feGaussianBlur>
</filter>
<g opacity="0.95" filter="url(#AI_GaussianBlur_5)">
	<ellipse cx="26.749" cy="25.998" rx="23.42" ry="24"/>
</g>
<radialGradient id="SVGID_1_" cx="24.2856" cy="52.9932" r="51.0179" gradientUnits="userSpaceOnUse">
	<stop  offset="0" style="stop-color:#302B28"/>
	<stop  offset="1" style="stop-color:#4D4D4D"/>
</radialGradient>
<circle fill="url(#SVGID_1_)" cx="26.874" cy="24.5" r="24.5"/>
<g id="view">
	<g>
		<path fill="none" stroke="#1A1A1A" d="M26.458,33.578c-6.031,0-10.916-4.893-10.916-10.924c0-6.029,4.885-10.914,10.916-10.914
			S37.38,16.625,37.38,22.654C37.38,28.686,32.49,33.578,26.458,33.578z"/>
		<line fill="none" stroke="#1A1A1A" stroke-linecap="round" x1="35.238" y1="29.816" x2="40.484" y2="35.068"/>
	</g>
	<g>
		<path fill="none" stroke="#FFFFFF" d="M26.458,35.135c-6.031,0-10.916-4.885-10.916-10.916c0-6.029,4.885-10.922,10.916-10.922
			S37.38,18.189,37.38,24.219C37.38,30.25,32.49,35.135,26.458,35.135z"/>
		<line fill="none" stroke="#FFFFFF" stroke-linecap="round" x1="35.238" y1="31.381" x2="40.484" y2="36.625"/>
	</g>
</g>
</svg>
