<?xml version="1.0" encoding="UTF-8" standalone="no"?>
<svg width="16px" height="16px" viewBox="0 0 16 16" version="1.1" xmlns="http://www.w3.org/2000/svg" xmlns:xlink="http://www.w3.org/1999/xlink">
    <!-- Generator: Sketch 49 (51002) - http://www.bohemiancoding.com/sketch -->
    <title>EXPOSE (WEB)</title>
    <desc>Created with Sketch.</desc>
    <defs></defs>
    <g id="Update-to-1.1-pages---final" stroke="none" stroke-width="1" fill="none" fill-rule="evenodd">
        <g id="Partner/home-contact-details-open-(GA-event)" transform="translate(-934.000000, -441.000000)" fill="#666666" fill-rule="nonzero">
            <g id="TOP---WHITE" transform="translate(0.000000, 173.000000)">
                <g id="RESELLER-CARD" transform="translate(909.000000, 0.000000)">
                    <g id="CONTACT-DETAILS" transform="translate(25.000000, 264.000000)">
                        <g id="EXPOSE-(WEB)" transform="translate(0.000000, 4.000000)">
                            <path d="M8.19810033,0.456589596 C3.93059067,0.456589596 0.457147904,3.93003881 0.457147904,8.19754203 C0.457147904,12.4650388 3.93059067,15.9384945 8.19810033,15.9384945 C12.46561,15.9384945 15.9390528,12.4650388 15.9390528,8.19754203 C15.9390528,3.93003881 12.46561,0.456589596 8.19810033,0.456589596 Z M8.19810033,1.75430866 C11.7644603,1.75430866 14.6413337,4.63119493 14.6413337,8.19754203 C14.6413337,11.7638891 11.7644603,14.6420333 8.19810033,14.6420333 C4.63174034,14.6420333 1.75486697,11.7638891 1.75486697,8.19754203 C1.75486697,4.63119493 4.63174034,1.75430866 8.19810033,1.75430866 Z" id="ellipse6188"></path>
                            <path d="M8.19810678,1.10535882 C7.9676296,1.10535882 7.73742335,1.12180834 7.50830084,1.14696644 L7.23048773,1.42476987 L6.96779851,1.21499006 C4.82551895,1.59303882 2.97524748,2.93338474 1.94827467,4.85110894 L3.36001152,6.26286514 L4.32763057,6.26286514 L6.26286868,8.19810324 L6.26286868,6.26286514 L7.23048773,5.29524608 L9.16571616,5.29524608 L11.1009543,3.36000798 L11.1009543,1.42476987 C10.400011,1.19815349 8.93477452,1.10661672 8.19810678,1.10535882 Z M6.26286868,8.19810324 L6.26286868,11.1009604 L7.23048773,12.0685795 L7.23048773,14.0038176 L7.23048773,14.9714366 C7.73114351,15.0837772 7.68500743,15.2888157 8.19810678,15.2908477 C8.43936324,15.2908477 8.68031974,15.2724629 8.92003768,15.2453696 L9.16571616,14.9713399 L9.16571616,14.0037208 L12.0685733,11.1008636 L12.068583,10.1332446 L9.16572584,8.19800648 L6.26286868,8.19810324 Z" id="path4243"></path>
                        </g>
                    </g>
                </g>
            </g>
        </g>
    </g>
</svg>