<?xml version="1.0" encoding="UTF-8" standalone="no"?>
<!-- Created with Inkscape (http://www.inkscape.org/) -->

<svg
   xmlns:dc="http://purl.org/dc/elements/1.1/"
   xmlns:cc="http://creativecommons.org/ns#"
   xmlns:rdf="http://www.w3.org/1999/02/22-rdf-syntax-ns#"
   xmlns:svg="http://www.w3.org/2000/svg"
   xmlns="http://www.w3.org/2000/svg"
   xmlns:sodipodi="http://sodipodi.sourceforge.net/DTD/sodipodi-0.dtd"
   xmlns:inkscape="http://www.inkscape.org/namespaces/inkscape"
   width="15.999996"
   height="16"
   id="svg4335"
   version="1.1"
   inkscape:version="0.48+devel r"
   viewBox="0 0 15.999996 16"
   sodipodi:docname="units-retried.svg">
  <defs
     id="defs4337" />
  <sodipodi:namedview
     id="base"
     pagecolor="#ffffff"
     bordercolor="#666666"
     borderopacity="1.0"
     inkscape:pageopacity="0.0"
     inkscape:pageshadow="2"
     inkscape:zoom="24.286129"
     inkscape:cx="7.3347921"
     inkscape:cy="16.479291"
     inkscape:document-units="px"
     inkscape:current-layer="layer1"
     showgrid="false"
     fit-margin-top="0"
     fit-margin-left="0"
     fit-margin-right="0"
     fit-margin-bottom="0" />
  <metadata
     id="metadata4340">
    <rdf:RDF>
      <cc:Work
         rdf:about="">
        <dc:format>image/svg+xml</dc:format>
        <dc:type
           rdf:resource="http://purl.org/dc/dcmitype/StillImage" />
        <dc:title></dc:title>
      </cc:Work>
    </rdf:RDF>
  </metadata>
  <g
     inkscape:label="Layer 1"
     inkscape:groupmode="layer"
     id="layer1"
     transform="translate(-1062.9255,-627.15808)">
    <path
       style="font-size:xx-small;font-style:normal;font-variant:normal;font-weight:normal;font-stretch:normal;text-indent:0;text-align:start;text-decoration:none;line-height:normal;letter-spacing:normal;word-spacing:normal;text-transform:none;direction:ltr;block-progression:tb;writing-mode:lr-tb;text-anchor:start;baseline-shift:baseline;color:#000000;color-interpolation:sRGB;color-interpolation-filters:linearRGB;fill:#b2b2b2;fill-opacity:1;stroke:none;stroke-width:1;marker:none;visibility:visible;display:inline;overflow:visible;enable-background:accumulate;clip-rule:nonzero;color-rendering:auto;image-rendering:auto;shape-rendering:auto;text-rendering:auto;font-family:sans-serif;-inkscape-font-specification:sans-serif"
       d="m 1073.0922,643.15808 c -0.6377,0 -1.1667,-0.52898 -1.1667,-1.16667 l 0,-4.66666 c 0,-0.63769 0.529,-1.16667 1.1667,-1.16667 l 4.6666,0 c 0.6377,0 1.1667,0.52898 1.1667,1.16667 l 0,4.66666 c 0,0.63769 -0.529,1.16667 -1.1667,1.16667 z m 0,-1 4.6666,0 c 0.101,0 0.1667,-0.0657 0.1667,-0.16667 l 0,-4.66666 c 0,-0.10099 -0.066,-0.16667 -0.1667,-0.16667 l -4.6666,0 c -0.101,0 -0.1667,0.0657 -0.1667,0.16667 l 0,4.66666 c 0,0.10099 0.066,0.16667 0.1667,0.16667 z"
       id="path4306"
       inkscape:connector-curvature="0"
       sodipodi:nodetypes="ssssssssssssssssss" />
    <g
       id="g4314"
       transform="matrix(-0.99999999,0,0,-0.99999999,1435.9255,1468.5203)">
      <path
         style="font-size:xx-small;font-style:normal;font-variant:normal;font-weight:normal;font-stretch:normal;text-indent:0;text-align:start;text-decoration:none;line-height:normal;letter-spacing:normal;word-spacing:normal;text-transform:none;direction:ltr;block-progression:tb;writing-mode:lr-tb;text-anchor:start;baseline-shift:baseline;color:#000000;color-interpolation:sRGB;color-interpolation-filters:linearRGB;fill:#b2b2b2;fill-opacity:1;stroke:none;stroke-width:1;marker:none;visibility:visible;display:inline;overflow:visible;enable-background:accumulate;clip-rule:nonzero;color-rendering:auto;image-rendering:auto;shape-rendering:auto;text-rendering:auto;font-family:sans-serif;-inkscape-font-specification:sans-serif"
         d="m 366,828.36219 0,1 5.83398,0 c 0.10097,0 0.16602,0.065 0.16602,0.16602 l 0,10.66796 c 0,0.1007 -0.065,0.16602 -0.16602,0.16602 l -10.66601,0 c -0.10097,0 -0.13436,-0.0708 -0.16797,-0.16602 l 0,-5.83398 -1,0 0,5.83398 c 0,0.6377 0.53028,1.16602 1.16797,1.16602 l 10.66601,0 c 0.63769,0 1.16602,-0.52832 1.16602,-1.16602 l 0,-10.66796 c 0,-0.6377 -0.49053,-1.16602 -1.16602,-1.16602 z"
         id="path4310"
         inkscape:connector-curvature="0"
         sodipodi:nodetypes="ccssssscccssssssc" />
      <path
         style="color:#000000;fill:#b2b2b2;fill-opacity:1;fill-rule:nonzero;stroke:none;stroke-width:2;marker:none;visibility:visible;display:inline;overflow:visible;enable-background:accumulate"
         d="m 358,837.3622 2.50001,-4 2.49999,4 z"
         id="path4312"
         inkscape:connector-curvature="0"
         sodipodi:nodetypes="cccc" />
    </g>
  </g>
</svg>
